%TF.GenerationSoftware,KiCad,Pcbnew,(5.0.0-rc2-dev-387-ge7ed41593)*%
%TF.CreationDate,2018-04-19T15:37:23+02:00*%
%TF.ProjectId,MINI VESC,4D494E4920564553432E6B696361645F,rev?*%
%TF.SameCoordinates,Original*%
%TF.FileFunction,Paste,Bot*%
%TF.FilePolarity,Positive*%
%FSLAX46Y46*%
G04 Gerber Fmt 4.6, Leading zero omitted, Abs format (unit mm)*
G04 Created by KiCad (PCBNEW (5.0.0-rc2-dev-387-ge7ed41593)) date 04/19/18 15:37:23*
%MOMM*%
%LPD*%
G01*
G04 APERTURE LIST*
%ADD10R,0.500000X0.900000*%
%ADD11R,0.900000X1.700000*%
%ADD12R,0.900000X0.500000*%
%ADD13R,0.750000X0.800000*%
%ADD14R,0.800000X0.750000*%
%ADD15R,0.228000X0.988364*%
%ADD16R,0.988364X0.228000*%
%ADD17R,0.340000X0.600000*%
%ADD18R,0.800000X0.600000*%
%ADD19R,3.284000X3.648000*%
%ADD20R,0.724000X0.396000*%
%ADD21R,0.480000X0.240000*%
%ADD22R,2.080000X2.400000*%
%ADD23R,1.800000X3.400000*%
%ADD24R,0.900000X0.800000*%
G04 APERTURE END LIST*
D10*
X130250000Y-88750000D03*
X128750000Y-88750000D03*
X130250000Y-87200000D03*
X128750000Y-87200000D03*
D11*
X102150000Y-92950000D03*
X99250000Y-92950000D03*
X103300000Y-92950000D03*
X106200000Y-92950000D03*
X103300000Y-87100000D03*
X106200000Y-87100000D03*
X102150000Y-89050000D03*
X99250000Y-89050000D03*
X102150000Y-96850000D03*
X99250000Y-96850000D03*
X103300000Y-89050000D03*
X106200000Y-89050000D03*
X103300000Y-91000000D03*
X106200000Y-91000000D03*
X102150000Y-87100000D03*
X99250000Y-87100000D03*
X103300000Y-85150000D03*
X106200000Y-85150000D03*
X102150000Y-94900000D03*
X99250000Y-94900000D03*
D12*
X129550000Y-91000000D03*
X129550000Y-92500000D03*
X129600000Y-95400000D03*
X129600000Y-93900000D03*
X97750000Y-88150000D03*
X97750000Y-86650000D03*
X91250000Y-85050000D03*
X91250000Y-86550000D03*
X97800000Y-97150000D03*
X97800000Y-95650000D03*
X91250000Y-94150000D03*
X91250000Y-95650000D03*
X97800000Y-92650000D03*
X97800000Y-91150000D03*
X91250000Y-89600000D03*
X91250000Y-91100000D03*
D13*
X125500000Y-98150000D03*
X125500000Y-96650000D03*
D14*
X118250000Y-98500000D03*
X119750000Y-98500000D03*
X121150000Y-83500000D03*
X122650000Y-83500000D03*
X91150000Y-87800000D03*
X89650000Y-87800000D03*
X91250000Y-96900000D03*
X89750000Y-96900000D03*
X91250000Y-92350000D03*
X89750000Y-92350000D03*
D13*
X89750000Y-86550000D03*
X89750000Y-85050000D03*
X89750000Y-95650000D03*
X89750000Y-94150000D03*
X89750000Y-91000000D03*
X89750000Y-89500000D03*
D15*
X122150440Y-96750560D03*
X121650060Y-96750560D03*
X121149680Y-96750560D03*
X120649300Y-96750560D03*
X120148920Y-96750560D03*
X123649040Y-96750560D03*
X123151200Y-96750560D03*
X122650820Y-96750560D03*
D16*
X114149440Y-94749040D03*
X114149440Y-94251200D03*
X114149440Y-93750820D03*
X114149440Y-93250440D03*
X114149440Y-92750060D03*
X114149440Y-92249680D03*
X114149440Y-91749300D03*
X114149440Y-91248920D03*
D15*
X116150960Y-85249440D03*
X116648800Y-85249440D03*
X117149180Y-85249440D03*
X117649560Y-85249440D03*
X118149940Y-85249440D03*
X118650320Y-85249440D03*
X119150700Y-85249440D03*
X119651080Y-85249440D03*
D16*
X125650560Y-87250960D03*
X125650560Y-87748800D03*
X125650560Y-88249180D03*
X125650560Y-88749560D03*
X125650560Y-89249940D03*
X125650560Y-89750320D03*
X125650560Y-90250700D03*
X125650560Y-90751080D03*
D15*
X119651080Y-96750560D03*
X119150700Y-96750560D03*
X118650320Y-96750560D03*
D16*
X114149440Y-90751080D03*
X114149440Y-90250700D03*
X114149440Y-89750320D03*
D15*
X120148920Y-85249440D03*
X120649300Y-85249440D03*
X121149680Y-85249440D03*
D16*
X125650560Y-91248920D03*
X125650560Y-91749300D03*
X125650560Y-92249680D03*
D15*
X118149940Y-96750560D03*
X117649560Y-96750560D03*
X117149180Y-96750560D03*
X116648800Y-96750560D03*
X116150960Y-96750560D03*
D16*
X114149440Y-89249940D03*
X114149440Y-88749560D03*
X114149440Y-88249180D03*
X114149440Y-87748800D03*
X114149440Y-87250960D03*
D15*
X121650060Y-85249440D03*
X122150440Y-85249440D03*
X122650820Y-85249440D03*
X123151200Y-85249440D03*
X123649040Y-85249440D03*
D16*
X125650560Y-92750060D03*
X125650560Y-93250440D03*
X125650560Y-93750820D03*
X125650560Y-94251200D03*
X125650560Y-94749040D03*
D11*
X103300000Y-94900000D03*
X106200000Y-94900000D03*
X102150000Y-85150000D03*
X99250000Y-85150000D03*
X102150000Y-91000000D03*
X99250000Y-91000000D03*
X103300000Y-96850000D03*
X106200000Y-96850000D03*
X110250000Y-85150000D03*
X107350000Y-85150000D03*
X110250000Y-87100000D03*
X107350000Y-87100000D03*
X110250000Y-94900000D03*
X107350000Y-94900000D03*
X110250000Y-96850000D03*
X107350000Y-96850000D03*
X110250000Y-89050000D03*
X107350000Y-89050000D03*
X110250000Y-91000000D03*
X107350000Y-91000000D03*
X110250000Y-92950000D03*
X107350000Y-92950000D03*
D17*
X88282500Y-89095000D03*
D18*
X82500000Y-89095000D03*
X82500000Y-90365000D03*
X82500000Y-91635000D03*
X82500000Y-92905000D03*
D19*
X86017500Y-91000000D03*
D17*
X88282500Y-92905000D03*
D20*
X84842500Y-93527500D03*
X84842500Y-88472500D03*
D17*
X88282500Y-94895000D03*
D18*
X82500000Y-94895000D03*
X82500000Y-96165000D03*
X82500000Y-97435000D03*
X82500000Y-98705000D03*
D19*
X86017500Y-96800000D03*
D17*
X88282500Y-98705000D03*
D20*
X84842500Y-99327500D03*
X84842500Y-94272500D03*
D17*
X88282500Y-83295000D03*
D18*
X82500000Y-83295000D03*
X82500000Y-84565000D03*
X82500000Y-85835000D03*
X82500000Y-87105000D03*
D19*
X86017500Y-85200000D03*
D17*
X88282500Y-87105000D03*
D20*
X84842500Y-87727500D03*
X84842500Y-82672500D03*
D21*
X96400000Y-89950000D03*
D22*
X94500000Y-90750000D03*
D21*
X96400000Y-89150000D03*
X92600000Y-89150000D03*
X96400000Y-90750000D03*
X92600000Y-90750000D03*
X92600000Y-91550000D03*
X92600000Y-92350000D03*
X92600000Y-89950000D03*
X96400000Y-91550000D03*
X96400000Y-92350000D03*
X96400000Y-94450000D03*
D22*
X94500000Y-95250000D03*
D21*
X96400000Y-93650000D03*
X92600000Y-93650000D03*
X96400000Y-95250000D03*
X92600000Y-95250000D03*
X92600000Y-96050000D03*
X92600000Y-96850000D03*
X92600000Y-94450000D03*
X96400000Y-96050000D03*
X96400000Y-96850000D03*
X96400000Y-85450000D03*
D22*
X94500000Y-86250000D03*
D21*
X96400000Y-84650000D03*
X92600000Y-84650000D03*
X96400000Y-86250000D03*
X92600000Y-86250000D03*
X92600000Y-87050000D03*
X92600000Y-87850000D03*
X92600000Y-85450000D03*
X96400000Y-87050000D03*
X96400000Y-87850000D03*
D23*
X72400000Y-91000000D03*
X77600000Y-91000000D03*
X72400000Y-96800000D03*
X77600000Y-96800000D03*
X72400000Y-85200000D03*
X77600000Y-85200000D03*
D14*
X125650000Y-83500000D03*
X124150000Y-83500000D03*
X122100000Y-98500000D03*
X123600000Y-98500000D03*
X115550000Y-98500000D03*
X117050000Y-98500000D03*
D13*
X131700000Y-98167242D03*
X131700000Y-96667242D03*
X127300000Y-85250000D03*
X127300000Y-83750000D03*
X131700000Y-85250000D03*
X131700000Y-83750000D03*
X127300000Y-98167242D03*
X127300000Y-96667242D03*
D24*
X128500000Y-85450000D03*
X128500000Y-83550000D03*
X130500000Y-84500000D03*
X128500000Y-98367242D03*
X128500000Y-96467242D03*
X130500000Y-97417242D03*
M02*
