%TF.GenerationSoftware,KiCad,Pcbnew,(5.0.0-rc2-dev-387-ge7ed41593)*%
%TF.CreationDate,2018-04-19T15:37:23+02:00*%
%TF.ProjectId,MINI VESC,4D494E4920564553432E6B696361645F,rev?*%
%TF.SameCoordinates,Original*%
%TF.FileFunction,Copper,L2,Inr,Signal*%
%TF.FilePolarity,Positive*%
%FSLAX46Y46*%
G04 Gerber Fmt 4.6, Leading zero omitted, Abs format (unit mm)*
G04 Created by KiCad (PCBNEW (5.0.0-rc2-dev-387-ge7ed41593)) date 04/19/18 15:37:23*
%MOMM*%
%LPD*%
G01*
G04 APERTURE LIST*
%ADD10R,1.200000X1.200000*%
%ADD11R,0.700000X0.700000*%
%ADD12C,0.800000*%
%ADD13C,0.460000*%
%ADD14C,0.700000*%
%ADD15C,0.500000*%
%ADD16C,0.127000*%
%ADD17C,0.460000*%
%ADD18C,0.300000*%
%ADD19C,0.200000*%
%ADD20C,0.254000*%
%ADD21C,0.128000*%
%ADD22C,0.030000*%
G04 APERTURE END LIST*
D10*
X112300000Y-90250000D03*
X112300000Y-91750000D03*
X112300000Y-88750000D03*
X112300000Y-87250000D03*
X112300000Y-93250000D03*
X112300000Y-94750000D03*
X127575000Y-91750000D03*
X127575000Y-90250000D03*
X127575000Y-93250000D03*
X127575000Y-94750000D03*
X127575000Y-88750000D03*
X127575000Y-87250000D03*
X131450000Y-91750000D03*
X131450000Y-90250000D03*
X131450000Y-93250000D03*
X131450000Y-94750000D03*
X131450000Y-88750000D03*
X131450000Y-87250000D03*
D11*
X68600000Y-92050000D03*
X69300000Y-92050000D03*
X70000000Y-92050000D03*
X70000000Y-91350000D03*
X69300000Y-91350000D03*
X68600000Y-91350000D03*
X68600000Y-90650000D03*
X69300000Y-90650000D03*
X70000000Y-90650000D03*
X70000000Y-89950000D03*
X69300000Y-89950000D03*
X68600000Y-89950000D03*
X70000000Y-95750000D03*
X69300000Y-95750000D03*
X68600000Y-95750000D03*
X68600000Y-96450000D03*
X69300000Y-96450000D03*
X70000000Y-96450000D03*
X70000000Y-97150000D03*
X69300000Y-97150000D03*
X68600000Y-97150000D03*
X68600000Y-97850000D03*
X69300000Y-97850000D03*
X70000000Y-97850000D03*
X68600000Y-86250000D03*
X69300000Y-86250000D03*
X70000000Y-86250000D03*
X70000000Y-85550000D03*
X69300000Y-85550000D03*
X68600000Y-85550000D03*
X68600000Y-84850000D03*
X69300000Y-84850000D03*
X70000000Y-84850000D03*
X70000000Y-84150000D03*
X69300000Y-84150000D03*
X68600000Y-84150000D03*
X81300000Y-90000000D03*
X80600000Y-90000000D03*
X79900000Y-90000000D03*
X79900000Y-90700000D03*
X80600000Y-90700000D03*
X81300000Y-90700000D03*
X81300000Y-91400000D03*
X80600000Y-91400000D03*
X79900000Y-91400000D03*
X79900000Y-92100000D03*
X80600000Y-92100000D03*
X81300000Y-92100000D03*
X79900000Y-97850000D03*
X80600000Y-97850000D03*
X81300000Y-97850000D03*
X81300000Y-97150000D03*
X80600000Y-97150000D03*
X79900000Y-97150000D03*
X79900000Y-96450000D03*
X80600000Y-96450000D03*
X81300000Y-96450000D03*
X81300000Y-95750000D03*
X80600000Y-95750000D03*
X79900000Y-95750000D03*
X79900000Y-86350000D03*
X80600000Y-86350000D03*
X81300000Y-86350000D03*
X81300000Y-85650000D03*
X80600000Y-85650000D03*
X79900000Y-85650000D03*
X79900000Y-84950000D03*
X80600000Y-84950000D03*
X81300000Y-84950000D03*
X81300000Y-84250000D03*
X80600000Y-84250000D03*
X79900000Y-84250000D03*
D12*
X89550000Y-83200000D03*
X113900000Y-83200000D03*
X113000000Y-83200000D03*
X112100000Y-83200000D03*
X111200000Y-83200000D03*
X110200000Y-83200000D03*
X109300000Y-83200000D03*
X108400000Y-83200000D03*
X107500000Y-83200000D03*
X106600000Y-83200000D03*
X105700000Y-83200000D03*
X104800000Y-83200000D03*
X103900000Y-83200000D03*
X103000000Y-83200000D03*
X102100000Y-83200000D03*
X101200000Y-83200000D03*
X100300000Y-83200000D03*
X99400000Y-83200000D03*
X98500000Y-83200000D03*
X97600000Y-83200000D03*
X96700000Y-83200000D03*
X95800000Y-83200000D03*
X94900000Y-83200000D03*
X94000000Y-83200000D03*
X93100000Y-83200000D03*
X92200000Y-83200000D03*
X91300000Y-83200000D03*
X90400000Y-83200000D03*
D13*
X127550000Y-82750000D03*
D12*
X89113216Y-99199750D03*
D13*
X92010000Y-89950000D03*
X81742998Y-89100000D03*
X97000000Y-91587000D03*
X88100000Y-88362998D03*
X124600000Y-84700000D03*
D12*
X113500000Y-98800000D03*
X112600000Y-98800000D03*
X111700000Y-98800000D03*
X110800000Y-98800000D03*
X109900000Y-98800000D03*
X109000000Y-98800000D03*
X108100000Y-98800000D03*
X107200000Y-98800000D03*
X106300000Y-98800000D03*
X105400000Y-98800000D03*
X104500000Y-98800000D03*
X103600000Y-98800000D03*
X102700000Y-98800000D03*
X101800000Y-98800000D03*
X100900000Y-98800000D03*
X100000000Y-98800000D03*
X99100000Y-98800000D03*
X98200000Y-98800000D03*
X97300000Y-98800000D03*
X96400000Y-98800000D03*
X95500000Y-98800000D03*
X94600000Y-98800000D03*
X93700000Y-98800000D03*
X92800000Y-98800000D03*
X91900000Y-98800000D03*
X91000000Y-98800000D03*
D13*
X121248148Y-83750989D03*
X125500000Y-98370500D03*
X129100000Y-82750000D03*
X124156042Y-84800000D03*
X124156042Y-85200000D03*
X115400000Y-84850000D03*
X115150000Y-84604009D03*
X115150000Y-85100000D03*
X115643958Y-85100000D03*
X128250000Y-99050000D03*
X128700000Y-99050000D03*
X129150000Y-99050000D03*
X129600000Y-99050000D03*
X130050000Y-99050000D03*
X130500000Y-99050000D03*
X130950000Y-99050000D03*
X118600000Y-94000000D03*
X118600000Y-93499999D03*
X124643318Y-93250000D03*
X115100000Y-95250000D03*
D12*
X88847998Y-86207000D03*
D13*
X96992928Y-95463041D03*
X96992998Y-91000000D03*
X74500000Y-94500000D03*
X74400000Y-88700000D03*
X74300000Y-82900000D03*
X87512997Y-94162998D03*
X87512997Y-82562998D03*
X87512997Y-88362998D03*
X96997562Y-86247562D03*
X92020000Y-94450000D03*
X81747998Y-94900000D03*
X92000000Y-85450000D03*
X81747998Y-83300000D03*
X97000000Y-87050000D03*
X88100000Y-82562998D03*
D14*
X68000000Y-92650000D03*
X68000000Y-91550000D03*
X68000000Y-91000000D03*
X68000000Y-90450000D03*
X68000000Y-89900000D03*
X68000000Y-92100000D03*
X68600000Y-92650000D03*
X69300000Y-92650000D03*
X70000000Y-92650000D03*
X68000000Y-89350000D03*
X68600000Y-89350000D03*
X69300000Y-89350000D03*
X70000000Y-89350000D03*
D13*
X73600000Y-91000000D03*
D14*
X68000000Y-95150000D03*
X68600000Y-95150000D03*
X69300000Y-95150000D03*
X70000000Y-95150000D03*
X70000000Y-98450000D03*
X69300000Y-98450000D03*
X68600000Y-98450000D03*
X68000000Y-98450000D03*
X68000000Y-97900000D03*
X68000000Y-97350000D03*
X68000000Y-96800000D03*
X68000000Y-96250000D03*
X68000000Y-95700000D03*
D13*
X73600000Y-96800000D03*
D14*
X68000000Y-86900000D03*
X70000000Y-86900000D03*
X69300000Y-86900000D03*
X68600000Y-86900000D03*
X68000000Y-86350000D03*
X70000000Y-83550000D03*
X69300000Y-83550000D03*
X68600000Y-83550000D03*
X68000000Y-83600000D03*
X68000000Y-85800000D03*
X68000000Y-85250000D03*
X68000000Y-84700000D03*
X68000000Y-84150000D03*
D13*
X73600000Y-85200000D03*
X92057559Y-89364928D03*
X81680260Y-89683640D03*
X76400000Y-91000000D03*
X92054015Y-93853916D03*
X81678063Y-95482821D03*
X76400000Y-96800000D03*
X81691906Y-83884316D03*
X92000000Y-84650000D03*
X76400000Y-85200000D03*
X122800000Y-94800000D03*
X119900000Y-94800000D03*
X117100000Y-94800000D03*
X115100000Y-87750000D03*
X129547339Y-86152661D03*
X124100000Y-97909532D03*
X128343873Y-82766324D03*
X116300000Y-87750000D03*
X124700000Y-94750000D03*
X115100000Y-93750000D03*
X121450000Y-93499999D03*
X128300000Y-84692998D03*
X119646580Y-97757802D03*
X117183076Y-95862800D03*
X76400000Y-90100000D03*
X116640000Y-95640000D03*
X76387000Y-95916215D03*
X116099224Y-95868327D03*
X76337000Y-84300000D03*
X123100000Y-93500000D03*
X76400000Y-92900000D03*
X120200000Y-93500000D03*
X76400000Y-98700000D03*
X117400000Y-93500000D03*
X76400000Y-87000000D03*
X116312998Y-83778520D03*
X96950000Y-90050000D03*
X119375994Y-82650000D03*
X96950000Y-89100000D03*
X116849428Y-86732515D03*
X97000000Y-94500000D03*
X119962997Y-82650000D03*
X97000000Y-93650000D03*
X117500000Y-83270500D03*
X97000000Y-85500000D03*
X120550000Y-82650000D03*
X97000000Y-84600000D03*
X130810000Y-85870000D03*
X122050000Y-82642998D03*
X126037003Y-86150000D03*
X129750000Y-93250000D03*
X115700000Y-91600000D03*
X115700000Y-90400000D03*
X117026244Y-88213862D03*
X117028603Y-88800859D03*
X117032302Y-89387850D03*
X126627957Y-85920500D03*
X125450000Y-86150000D03*
X122747504Y-97757802D03*
X121342998Y-98400001D03*
X124750000Y-91750000D03*
X129307002Y-96434001D03*
X113257002Y-91243000D03*
X113277380Y-88178525D03*
X113257002Y-88765173D03*
X126000000Y-95256042D03*
X105150000Y-87600000D03*
X113257002Y-94750000D03*
X80900000Y-88100000D03*
X97000000Y-96050000D03*
X88100000Y-94162998D03*
X131573501Y-97277444D03*
X130422339Y-83827661D03*
X123950000Y-88750000D03*
X92017271Y-96663041D03*
X91957002Y-92174000D03*
X91957001Y-87584001D03*
X116450000Y-98150000D03*
D15*
X127300000Y-96667242D03*
D13*
X80312997Y-88100000D03*
X75700000Y-94500000D03*
X75600000Y-88700000D03*
X75700000Y-82900000D03*
X115724742Y-92198302D03*
X122610000Y-90390000D03*
X115816513Y-93245989D03*
D16*
X89887281Y-97860000D02*
X115537658Y-97860000D01*
X115537658Y-97860000D02*
X117148159Y-99470501D01*
X117148159Y-99470501D02*
X131079499Y-99470501D01*
X89113216Y-99199750D02*
X89113216Y-98634065D01*
X89113216Y-98634065D02*
X89887281Y-97860000D01*
X131900000Y-98700000D02*
X132240501Y-98359499D01*
X132240501Y-98359499D02*
X132240501Y-98289499D01*
X132520000Y-86777098D02*
X132520000Y-85070000D01*
X129800000Y-83400000D02*
X129600000Y-83600000D01*
X132240501Y-98289499D02*
X132530000Y-98000000D01*
X132530000Y-98000000D02*
X132530000Y-86787098D01*
X130850000Y-83400000D02*
X129800000Y-83400000D01*
X132530000Y-86787098D02*
X132520000Y-86777098D01*
X132520000Y-85070000D02*
X130850000Y-83400000D01*
X129600000Y-83600000D02*
X128400000Y-83600000D01*
X128400000Y-83600000D02*
X127550000Y-82750000D01*
X131050000Y-99500000D02*
X131079499Y-99470501D01*
X131079499Y-99470501D02*
X131129499Y-99470501D01*
X131129499Y-99470501D02*
X131900000Y-98700000D01*
X131900000Y-98700000D02*
X131879499Y-98679499D01*
D17*
X81746359Y-89096639D02*
X81742998Y-89100000D01*
D16*
X124156042Y-84800000D02*
X124500000Y-84800000D01*
X124500000Y-84800000D02*
X124600000Y-84700000D01*
D17*
X131450000Y-87250000D02*
X131450000Y-85550000D01*
X96997562Y-86247562D02*
X94466324Y-86247562D01*
X87512997Y-82888267D02*
X87512997Y-82562998D01*
X92281761Y-84062999D02*
X88687729Y-84062999D01*
X88687729Y-84062999D02*
X87512997Y-82888267D01*
X94466324Y-86247562D02*
X92281761Y-84062999D01*
D18*
X93007001Y-88592999D02*
X92814002Y-88400000D01*
X92814002Y-88400000D02*
X91200000Y-88400000D01*
X111200000Y-88000000D02*
X110607001Y-88592999D01*
X110607001Y-88592999D02*
X93007001Y-88592999D01*
X111200000Y-86651398D02*
X111200000Y-88000000D01*
X117082719Y-87695261D02*
X115760457Y-86372999D01*
X115760457Y-86372999D02*
X111478399Y-86372999D01*
X111478399Y-86372999D02*
X111200000Y-86651398D01*
X89406999Y-86606999D02*
X91200000Y-88400000D01*
X88847998Y-86207000D02*
X89247997Y-86606999D01*
X89247997Y-86606999D02*
X89406999Y-86606999D01*
D16*
X84409499Y-98390501D02*
X86800000Y-96000000D01*
X76200000Y-97400000D02*
X78407098Y-97400000D01*
X78407098Y-97400000D02*
X79397599Y-98390501D01*
X79397599Y-98390501D02*
X84409499Y-98390501D01*
X75700000Y-96900000D02*
X76200000Y-97400000D01*
X75700000Y-95600000D02*
X75700000Y-96900000D01*
X77000000Y-94300000D02*
X75700000Y-95600000D01*
X77000000Y-93200000D02*
X77000000Y-94300000D01*
X77400000Y-92800000D02*
X77000000Y-93200000D01*
X75700000Y-91100000D02*
X77400000Y-92800000D01*
X75700000Y-89700000D02*
X75700000Y-91100000D01*
X76900000Y-88500000D02*
X75700000Y-89700000D01*
X76900000Y-86600000D02*
X76900000Y-88500000D01*
X76600000Y-86300000D02*
X76900000Y-86600000D01*
X76000000Y-86300000D02*
X76600000Y-86300000D01*
X74629999Y-87670001D02*
X76000000Y-86300000D01*
X74400000Y-88700000D02*
X74629999Y-88470001D01*
X74629999Y-88470001D02*
X74629999Y-87670001D01*
X74500000Y-94500000D02*
X74500000Y-97110428D01*
X75979499Y-98498159D02*
X75979499Y-98901841D01*
X74500000Y-97110428D02*
X75669071Y-98279499D01*
X75669071Y-98279499D02*
X76198159Y-98279499D01*
X76198159Y-98279499D02*
X75979499Y-98498159D01*
X75979499Y-98901841D02*
X76631668Y-99554010D01*
X96992928Y-95463041D02*
X97963041Y-95463041D01*
X96992998Y-91000000D02*
X98000000Y-91000000D01*
X97752438Y-86247562D02*
X98000000Y-86000000D01*
X96997562Y-86247562D02*
X97752438Y-86247562D01*
D17*
X96992998Y-91000000D02*
X96350000Y-91000000D01*
X87774729Y-87775997D02*
X87512997Y-88037729D01*
X96350000Y-91000000D02*
X95887001Y-90537001D01*
X95887001Y-90537001D02*
X91436844Y-90537001D01*
X91436844Y-90537001D02*
X88675840Y-87775997D01*
X88675840Y-87775997D02*
X87774729Y-87775997D01*
X87512997Y-88037729D02*
X87512997Y-88362998D01*
X88993085Y-93266915D02*
X88684003Y-93575997D01*
X88684003Y-93575997D02*
X87774729Y-93575997D01*
X87774729Y-93575997D02*
X87512997Y-93837729D01*
X87512997Y-93837729D02*
X87512997Y-94162998D01*
X96120000Y-95460000D02*
X93926915Y-93266915D01*
X93926915Y-93266915D02*
X88993085Y-93266915D01*
X96664618Y-95460000D02*
X96120000Y-95460000D01*
X96992928Y-95463041D02*
X96667659Y-95463041D01*
X96667659Y-95463041D02*
X96664618Y-95460000D01*
X92057559Y-89364928D02*
X91827560Y-89134929D01*
X91827560Y-89134929D02*
X90864929Y-89134929D01*
X90864929Y-89134929D02*
X88910000Y-87180000D01*
X83980000Y-87180000D02*
X82333367Y-88826633D01*
X82333367Y-89339787D02*
X81986146Y-89687008D01*
X88910000Y-87180000D02*
X83980000Y-87180000D01*
X82333367Y-88826633D02*
X82333367Y-89339787D01*
X81986146Y-89687008D02*
X81680260Y-89687008D01*
X92054015Y-93853916D02*
X91728746Y-93853916D01*
X91728746Y-93853916D02*
X91432999Y-94149663D01*
X91432999Y-94149663D02*
X91432999Y-94737001D01*
X91432999Y-94737001D02*
X91270000Y-94900000D01*
X82616760Y-94900000D02*
X82029759Y-95487001D01*
X91270000Y-94900000D02*
X82616760Y-94900000D01*
X82029759Y-95487001D02*
X81682243Y-95487001D01*
X81682243Y-95487001D02*
X81678063Y-95482821D01*
X81691906Y-83887001D02*
X85387001Y-83887001D01*
X85387001Y-83887001D02*
X86150000Y-84650000D01*
X86150000Y-84650000D02*
X92000000Y-84650000D01*
D16*
X119646580Y-97757802D02*
X121450000Y-95954382D01*
X121450000Y-95954382D02*
X121450000Y-93499999D01*
X76400000Y-90100000D02*
X77645990Y-91345990D01*
X96170990Y-92670990D02*
X108318864Y-92670990D01*
X77645990Y-91345990D02*
X77645991Y-92105215D01*
X77645991Y-92105215D02*
X79044786Y-93504010D01*
X79044786Y-93504010D02*
X82155215Y-93504009D01*
X82155215Y-93504009D02*
X84205214Y-91454010D01*
X116613514Y-96288828D02*
X117039542Y-95862800D01*
X84205214Y-91454010D02*
X94954010Y-91454010D01*
X108318864Y-92670990D02*
X111770211Y-96122337D01*
X94954010Y-91454010D02*
X96170990Y-92670990D01*
X111770211Y-96122337D02*
X115730892Y-96122337D01*
X115730892Y-96122337D02*
X115897383Y-96288828D01*
X115897383Y-96288828D02*
X116613514Y-96288828D01*
X117039542Y-95862800D02*
X117183076Y-95862800D01*
X76387000Y-95916215D02*
X78528215Y-93775000D01*
X78528215Y-93775000D02*
X82243446Y-93775000D01*
X82243446Y-93775000D02*
X82260430Y-93758018D01*
X108213650Y-92925000D02*
X111831488Y-96542838D01*
X116869999Y-95410001D02*
X116640000Y-95640000D01*
X82260430Y-93758018D02*
X84310428Y-91708020D01*
X84310428Y-91708020D02*
X94839572Y-91708020D01*
X94839572Y-91708020D02*
X96056552Y-92925000D01*
X96056552Y-92925000D02*
X108213650Y-92925000D01*
X117603577Y-96064641D02*
X117603577Y-95660959D01*
X111831488Y-96542838D02*
X117125380Y-96542838D01*
X117125380Y-96542838D02*
X117603577Y-96064641D01*
X117352619Y-95410001D02*
X116869999Y-95410001D01*
X117603577Y-95660959D02*
X117352619Y-95410001D01*
X76337000Y-84300000D02*
X76337000Y-84514658D01*
X76337000Y-84514658D02*
X77900000Y-86077658D01*
X77900000Y-92000000D02*
X79150000Y-93250000D01*
X108424078Y-92416980D02*
X111875425Y-95868327D01*
X77900000Y-86077658D02*
X77900000Y-92000000D01*
X79150000Y-93250000D02*
X82050000Y-93250000D01*
X82050000Y-93250000D02*
X84100000Y-91200000D01*
X84100000Y-91200000D02*
X95059225Y-91200001D01*
X95059225Y-91200001D02*
X96276204Y-92416980D01*
X96276204Y-92416980D02*
X108424078Y-92416980D01*
X111875425Y-95868327D02*
X115773955Y-95868327D01*
X115773955Y-95868327D02*
X116099224Y-95868327D01*
X116943900Y-97083542D02*
X91816458Y-97083542D01*
X117857586Y-96169856D02*
X116943900Y-97083542D01*
X91816458Y-97083542D02*
X91816040Y-97083960D01*
X123100000Y-93500000D02*
X122679499Y-93079499D01*
X122679499Y-93079499D02*
X122679499Y-92879499D01*
X122062030Y-92262030D02*
X118015628Y-92262030D01*
X122679499Y-92879499D02*
X122062030Y-92262030D01*
X118015628Y-92262030D02*
X116979499Y-93298159D01*
X117857586Y-94937586D02*
X117857586Y-96169856D01*
X116979499Y-93298159D02*
X116979499Y-93701841D01*
X116979499Y-93701841D02*
X117080000Y-93802342D01*
X75204010Y-97095990D02*
X75204010Y-93770721D01*
X117080000Y-93802342D02*
X117080000Y-94160000D01*
X77388228Y-98644511D02*
X76443718Y-97700001D01*
X91816040Y-97083960D02*
X87604144Y-97083960D01*
X87604144Y-97083960D02*
X86204144Y-98483960D01*
X117080000Y-94160000D02*
X117857586Y-94937586D01*
X86204144Y-98483960D02*
X86197591Y-98483961D01*
X86197591Y-98483961D02*
X86037041Y-98644511D01*
X86037041Y-98644511D02*
X77388228Y-98644511D01*
X76443718Y-97700001D02*
X75808020Y-97700000D01*
X75808020Y-97700000D02*
X75204010Y-97095990D01*
X75204010Y-93770721D02*
X76074731Y-92900000D01*
X76074731Y-92900000D02*
X76400000Y-92900000D01*
X120200000Y-93500000D02*
X118370000Y-95330000D01*
X118370000Y-95330000D02*
X118370000Y-96375890D01*
X118370000Y-96375890D02*
X117153911Y-97591979D01*
X117153911Y-97591979D02*
X87814572Y-97591980D01*
X87814572Y-97591980D02*
X86414572Y-98991980D01*
X76725269Y-98700000D02*
X77177799Y-99152530D01*
X77177799Y-99152530D02*
X86254022Y-99152530D01*
X86254022Y-99152530D02*
X86414572Y-98991980D01*
X86414572Y-98991980D02*
X86408020Y-98991980D01*
X76725269Y-98700000D02*
X76400000Y-98700000D01*
X86302806Y-98737970D02*
X86309358Y-98737970D01*
X86309358Y-98737970D02*
X87709358Y-97337970D01*
X118111595Y-94832371D02*
X117399612Y-94120388D01*
X87709358Y-97337970D02*
X117048696Y-97337970D01*
X117048696Y-97337970D02*
X118111596Y-96275070D01*
X118111596Y-96275070D02*
X118111595Y-94832371D01*
X117399612Y-94120388D02*
X117400000Y-94120000D01*
X117400000Y-94120000D02*
X117400000Y-93500000D01*
X86309359Y-98737969D02*
X86302807Y-98737969D01*
X76338503Y-97954010D02*
X77283014Y-98898521D01*
X77283014Y-98898521D02*
X86142256Y-98898520D01*
X86142256Y-98898520D02*
X86302807Y-98737969D01*
X76400000Y-87000000D02*
X74950000Y-88450000D01*
X74950000Y-97201204D02*
X75702805Y-97954009D01*
X74950000Y-88450000D02*
X74950000Y-97201204D01*
X75702805Y-97954009D02*
X76338503Y-97954010D01*
X97000000Y-85500000D02*
X98145990Y-84354010D01*
X117270001Y-83040501D02*
X117500000Y-83270500D01*
X98145990Y-84354010D02*
X114605214Y-84354010D01*
X114605214Y-84354010D02*
X115918723Y-83040501D01*
X115918723Y-83040501D02*
X117270001Y-83040501D01*
X117333510Y-83104010D02*
X117500000Y-83270500D01*
X97000000Y-84600000D02*
X97500000Y-84100000D01*
X116000000Y-82600000D02*
X118038845Y-82600000D01*
X97500000Y-84100000D02*
X114500000Y-84100000D01*
X114500000Y-84100000D02*
X116000000Y-82600000D01*
X118038845Y-82600000D02*
X118509346Y-83070501D01*
X118509346Y-83070501D02*
X120454768Y-83070501D01*
X120550000Y-82975269D02*
X120550000Y-82650000D01*
X120454768Y-83070501D02*
X120550000Y-82975269D01*
X129307002Y-96434001D02*
X128473001Y-95600000D01*
X122335576Y-91754010D02*
X117805200Y-91754010D01*
X128473001Y-95600000D02*
X126882098Y-95600000D01*
X126882098Y-95600000D02*
X126600000Y-95317902D01*
X126600000Y-94309224D02*
X126215287Y-93924511D01*
X126600000Y-95317902D02*
X126600000Y-94309224D01*
X126215287Y-93924511D02*
X124336263Y-93924511D01*
X124336263Y-93924511D02*
X123774511Y-93362759D01*
X117805200Y-91754010D02*
X116733721Y-92825489D01*
X123774511Y-93362759D02*
X123774511Y-93192945D01*
X123774511Y-93192945D02*
X122335576Y-91754010D01*
X116733721Y-92825489D02*
X114839491Y-92825489D01*
X114839491Y-92825489D02*
X113257002Y-91243000D01*
X113257002Y-91243000D02*
X113257002Y-89707002D01*
X113257002Y-89707002D02*
X112300000Y-88750000D01*
X126000000Y-95256042D02*
X126000000Y-94400000D01*
X126000000Y-94400000D02*
X125778521Y-94178521D01*
X117910414Y-92008020D02*
X115168434Y-94750000D01*
X125778521Y-94178521D02*
X124231049Y-94178521D01*
X124231049Y-94178521D02*
X123520502Y-93467974D01*
X123520502Y-93467974D02*
X123520501Y-93298159D01*
X115168434Y-94750000D02*
X113257002Y-94750000D01*
X123520501Y-93298159D02*
X123047832Y-92825490D01*
X123047832Y-92825490D02*
X123025490Y-92825490D01*
X123025490Y-92825490D02*
X122208020Y-92008020D01*
X122208020Y-92008020D02*
X117910414Y-92008020D01*
X104829499Y-87470501D02*
X105020501Y-87470501D01*
X105020501Y-87470501D02*
X105150000Y-87600000D01*
X104829499Y-87470501D02*
X94080501Y-87470501D01*
X83200000Y-85800000D02*
X83200000Y-86500000D01*
X83760000Y-85240000D02*
X83200000Y-85800000D01*
X90460000Y-85240000D02*
X83760000Y-85240000D01*
X93210000Y-86600000D02*
X91820000Y-86600000D01*
X91820000Y-86600000D02*
X90460000Y-85240000D01*
X94080501Y-87470501D02*
X93210000Y-86600000D01*
X83200000Y-86500000D02*
X81600000Y-88100000D01*
X81600000Y-88100000D02*
X80900000Y-88100000D01*
D19*
X128986500Y-86810000D02*
X128986500Y-86707755D01*
X128986500Y-86707755D02*
X127742244Y-85463499D01*
X127742244Y-85463499D02*
X125460139Y-85463499D01*
X125460139Y-85463499D02*
X124920000Y-86003638D01*
X124920000Y-86003638D02*
X124920000Y-86488762D01*
D16*
X124350000Y-86150000D02*
X125180000Y-85320000D01*
X125180000Y-85320000D02*
X125250000Y-85250000D01*
X125320000Y-85220000D02*
X125280000Y-85220000D01*
X125280000Y-85220000D02*
X125180000Y-85320000D01*
D19*
X125440000Y-85100000D02*
X125320000Y-85220000D01*
X125700000Y-85100000D02*
X125440000Y-85100000D01*
D18*
X124350000Y-88550000D02*
X124350000Y-86150000D01*
X123950000Y-88750000D02*
X124150000Y-88750000D01*
X124150000Y-88750000D02*
X124350000Y-88550000D01*
X127956640Y-85100000D02*
X125700000Y-85100000D01*
X128056639Y-85199999D02*
X127956640Y-85100000D01*
X129345040Y-85200000D02*
X128056639Y-85199999D01*
X130400000Y-87600000D02*
X130400000Y-86254960D01*
X130400000Y-86254960D02*
X129345040Y-85200000D01*
X131450000Y-90250000D02*
X130550000Y-90250000D01*
X130550000Y-90250000D02*
X130400000Y-90100000D01*
X130400000Y-90100000D02*
X130400000Y-87600000D01*
D17*
X124870000Y-86438762D02*
X124920000Y-86488762D01*
X124920000Y-88870000D02*
X124920000Y-86488762D01*
X124390000Y-89400000D02*
X124920000Y-88870000D01*
X124300000Y-89400000D02*
X124390000Y-89400000D01*
X123950000Y-88750000D02*
X123950000Y-89050000D01*
X123950000Y-89050000D02*
X124300000Y-89400000D01*
X123950000Y-88750000D02*
X122640000Y-88750000D01*
X121415149Y-89974851D02*
X116143613Y-89974851D01*
X122640000Y-88750000D02*
X121415149Y-89974851D01*
X116143613Y-89974851D02*
X113418762Y-87250000D01*
X113418762Y-87250000D02*
X113360000Y-87250000D01*
X113360000Y-87250000D02*
X112300000Y-87250000D01*
D18*
X128986500Y-89586500D02*
X128986500Y-86810000D01*
D16*
X128986500Y-89500000D02*
X128900000Y-89500000D01*
D18*
X130300000Y-90900000D02*
X128986500Y-89586500D01*
X128986500Y-89586500D02*
X128986500Y-89500000D01*
X130300000Y-95678674D02*
X130300000Y-90900000D01*
X131573501Y-97277444D02*
X131573501Y-96952175D01*
X131573501Y-96952175D02*
X130300000Y-95678674D01*
X123950000Y-88750000D02*
X123950000Y-85870000D01*
X123950000Y-85870000D02*
X124112999Y-85707001D01*
X124112999Y-85707001D02*
X124382999Y-85707001D01*
X124382999Y-85707001D02*
X125904003Y-84185997D01*
X125904003Y-84185997D02*
X130064003Y-84185997D01*
X130064003Y-84185997D02*
X130192340Y-84057660D01*
X130192340Y-84057660D02*
X130422339Y-83827661D01*
D16*
X125248159Y-85729499D02*
X124750000Y-86227658D01*
X128900000Y-89500000D02*
X128899999Y-86672873D01*
X125480000Y-85500000D02*
X125250501Y-85729499D01*
X128899999Y-86672873D02*
X127727126Y-85500000D01*
X127727126Y-85500000D02*
X125480000Y-85500000D01*
X125250501Y-85729499D02*
X125248159Y-85729499D01*
X124750000Y-86227658D02*
X124750000Y-88950000D01*
X124750000Y-88950000D02*
X124300000Y-89400000D01*
X127575000Y-94750000D02*
X127055000Y-94230000D01*
X127055000Y-94230000D02*
X126880000Y-94230000D01*
X126880000Y-94230000D02*
X126320501Y-93670501D01*
X124441477Y-93670501D02*
X124222817Y-93451841D01*
X126320501Y-93670501D02*
X124441477Y-93670501D01*
X124222817Y-93451841D02*
X124222817Y-93282027D01*
X124222817Y-93282027D02*
X122440790Y-91500000D01*
X122440790Y-91500000D02*
X116423044Y-91500000D01*
X116423044Y-91500000D02*
X115724742Y-92198302D01*
X130900000Y-96760226D02*
X130900000Y-97390776D01*
X130900000Y-97390776D02*
X131207169Y-97697945D01*
X129180000Y-95670776D02*
X129810550Y-95670776D01*
X129810550Y-95670776D02*
X130900000Y-96760226D01*
X129180000Y-95670776D02*
X128645990Y-95136766D01*
X128645990Y-95136766D02*
X128645990Y-86778088D01*
X128645990Y-86778088D02*
X128327401Y-86459499D01*
X128327401Y-86459499D02*
X126822599Y-86459499D01*
X126280000Y-88680000D02*
X124570000Y-90390000D01*
X126822599Y-86459499D02*
X126280000Y-87002098D01*
X126280000Y-87002098D02*
X126280000Y-88680000D01*
X124570000Y-90390000D02*
X122610000Y-90390000D01*
X131450000Y-94750000D02*
X131450000Y-95477000D01*
X131994002Y-96021002D02*
X131994002Y-97479285D01*
X131450000Y-95477000D02*
X131994002Y-96021002D01*
X131994002Y-97479285D02*
X131775342Y-97697945D01*
X131775342Y-97697945D02*
X131207169Y-97697945D01*
D20*
G36*
X106938483Y-85041849D02*
X104769986Y-87152001D01*
X97482710Y-87152001D01*
X97485000Y-87146473D01*
X97485000Y-86953527D01*
X97411163Y-86775269D01*
X97274731Y-86638837D01*
X97127000Y-86577645D01*
X97127000Y-85972355D01*
X97274731Y-85911163D01*
X97411163Y-85774731D01*
X97485000Y-85596473D01*
X97485000Y-85465426D01*
X98277917Y-84672510D01*
X107271869Y-84672510D01*
X106938483Y-85041849D01*
X106938483Y-85041849D01*
G37*
X106938483Y-85041849D02*
X104769986Y-87152001D01*
X97482710Y-87152001D01*
X97485000Y-87146473D01*
X97485000Y-86953527D01*
X97411163Y-86775269D01*
X97274731Y-86638837D01*
X97127000Y-86577645D01*
X97127000Y-85972355D01*
X97274731Y-85911163D01*
X97411163Y-85774731D01*
X97485000Y-85596473D01*
X97485000Y-85465426D01*
X98277917Y-84672510D01*
X107271869Y-84672510D01*
X106938483Y-85041849D01*
G36*
X110473000Y-94015475D02*
X108671472Y-92213948D01*
X108653703Y-92187355D01*
X108548350Y-92116960D01*
X108455444Y-92098480D01*
X108455439Y-92098480D01*
X108424078Y-92092242D01*
X108392717Y-92098480D01*
X97127000Y-92098480D01*
X97127000Y-92059355D01*
X97274731Y-91998163D01*
X97411163Y-91861731D01*
X97485000Y-91683473D01*
X97485000Y-91490527D01*
X97411163Y-91312269D01*
X97274731Y-91175837D01*
X97127000Y-91114645D01*
X97127000Y-90501645D01*
X97224731Y-90461163D01*
X97361163Y-90324731D01*
X97435000Y-90146473D01*
X97435000Y-90127000D01*
X110473000Y-90127000D01*
X110473000Y-94015475D01*
X110473000Y-94015475D01*
G37*
X110473000Y-94015475D02*
X108671472Y-92213948D01*
X108653703Y-92187355D01*
X108548350Y-92116960D01*
X108455444Y-92098480D01*
X108455439Y-92098480D01*
X108424078Y-92092242D01*
X108392717Y-92098480D01*
X97127000Y-92098480D01*
X97127000Y-92059355D01*
X97274731Y-91998163D01*
X97411163Y-91861731D01*
X97485000Y-91683473D01*
X97485000Y-91490527D01*
X97411163Y-91312269D01*
X97274731Y-91175837D01*
X97127000Y-91114645D01*
X97127000Y-90501645D01*
X97224731Y-90461163D01*
X97361163Y-90324731D01*
X97435000Y-90146473D01*
X97435000Y-90127000D01*
X110473000Y-90127000D01*
X110473000Y-94015475D01*
G36*
X111273000Y-96434777D02*
X111273000Y-96765042D01*
X97127000Y-96765042D01*
X97127000Y-96522355D01*
X97274731Y-96461163D01*
X97411163Y-96324731D01*
X97485000Y-96146473D01*
X97485000Y-95953527D01*
X97411163Y-95775269D01*
X97274731Y-95638837D01*
X97127000Y-95577645D01*
X97127000Y-94972355D01*
X97274731Y-94911163D01*
X97411163Y-94774731D01*
X97485000Y-94596473D01*
X97485000Y-94403527D01*
X97411163Y-94225269D01*
X97274731Y-94088837D01*
X97241326Y-94075000D01*
X97274731Y-94061163D01*
X97411163Y-93924731D01*
X97485000Y-93746473D01*
X97485000Y-93553527D01*
X97411163Y-93375269D01*
X97279394Y-93243500D01*
X108081724Y-93243500D01*
X111273000Y-96434777D01*
X111273000Y-96434777D01*
G37*
X111273000Y-96434777D02*
X111273000Y-96765042D01*
X97127000Y-96765042D01*
X97127000Y-96522355D01*
X97274731Y-96461163D01*
X97411163Y-96324731D01*
X97485000Y-96146473D01*
X97485000Y-95953527D01*
X97411163Y-95775269D01*
X97274731Y-95638837D01*
X97127000Y-95577645D01*
X97127000Y-94972355D01*
X97274731Y-94911163D01*
X97411163Y-94774731D01*
X97485000Y-94596473D01*
X97485000Y-94403527D01*
X97411163Y-94225269D01*
X97274731Y-94088837D01*
X97241326Y-94075000D01*
X97274731Y-94061163D01*
X97411163Y-93924731D01*
X97485000Y-93746473D01*
X97485000Y-93553527D01*
X97411163Y-93375269D01*
X97279394Y-93243500D01*
X108081724Y-93243500D01*
X111273000Y-96434777D01*
G36*
X75288837Y-82625269D02*
X75215000Y-82803527D01*
X75215000Y-82996473D01*
X75288837Y-83174731D01*
X75425269Y-83311163D01*
X75603527Y-83385000D01*
X75796473Y-83385000D01*
X75974731Y-83311163D01*
X76111163Y-83174731D01*
X76185000Y-82996473D01*
X76185000Y-82803527D01*
X76111163Y-82625269D01*
X76012894Y-82527000D01*
X86973000Y-82527000D01*
X86973000Y-83000000D01*
X86978749Y-83037778D01*
X87002436Y-83081303D01*
X87502436Y-83681303D01*
X87515626Y-83694921D01*
X88044465Y-84165000D01*
X86350894Y-84165000D01*
X85763723Y-83577830D01*
X85736666Y-83537336D01*
X85576238Y-83430142D01*
X85434765Y-83402001D01*
X85434760Y-83402001D01*
X85387001Y-83392501D01*
X85339242Y-83402001D01*
X82230708Y-83402001D01*
X82232998Y-83396473D01*
X82232998Y-83203527D01*
X82159161Y-83025269D01*
X82022729Y-82888837D01*
X81844471Y-82815000D01*
X81651525Y-82815000D01*
X81473267Y-82888837D01*
X81336835Y-83025269D01*
X81262998Y-83203527D01*
X81262998Y-83396473D01*
X81329342Y-83556641D01*
X81320592Y-83569736D01*
X81280743Y-83609585D01*
X81268143Y-83640005D01*
X79550000Y-83640005D01*
X79450504Y-83659796D01*
X79366156Y-83716156D01*
X79309796Y-83800504D01*
X79290005Y-83900000D01*
X79290005Y-86700000D01*
X79309796Y-86799496D01*
X79366156Y-86883844D01*
X79450504Y-86940204D01*
X79550000Y-86959995D01*
X81650000Y-86959995D01*
X81749496Y-86940204D01*
X81833844Y-86883844D01*
X81890204Y-86799496D01*
X81909995Y-86700000D01*
X81909995Y-84372001D01*
X85186108Y-84372001D01*
X85735606Y-84921500D01*
X83791366Y-84921500D01*
X83760000Y-84915261D01*
X83635727Y-84939980D01*
X83598283Y-84965000D01*
X83530375Y-85010375D01*
X83512608Y-85036965D01*
X82996968Y-85552606D01*
X82970375Y-85570375D01*
X82899980Y-85675729D01*
X82881500Y-85768635D01*
X82881500Y-85768639D01*
X82875262Y-85800000D01*
X82881500Y-85831361D01*
X82881501Y-86368072D01*
X81468074Y-87781500D01*
X81267394Y-87781500D01*
X81174731Y-87688837D01*
X80996473Y-87615000D01*
X80803527Y-87615000D01*
X80625269Y-87688837D01*
X80606499Y-87707608D01*
X80587728Y-87688837D01*
X80409470Y-87615000D01*
X80216524Y-87615000D01*
X80038266Y-87688837D01*
X79901834Y-87825269D01*
X79827997Y-88003527D01*
X79827997Y-88196473D01*
X79901834Y-88374731D01*
X80038266Y-88511163D01*
X80216524Y-88585000D01*
X80409470Y-88585000D01*
X80587728Y-88511163D01*
X80606499Y-88492393D01*
X80625269Y-88511163D01*
X80803527Y-88585000D01*
X80996473Y-88585000D01*
X81174731Y-88511163D01*
X81267394Y-88418500D01*
X81568639Y-88418500D01*
X81600000Y-88424738D01*
X81631361Y-88418500D01*
X81631366Y-88418500D01*
X81724272Y-88400020D01*
X81829625Y-88329625D01*
X81847394Y-88303032D01*
X83403035Y-86747392D01*
X83429625Y-86729625D01*
X83500020Y-86624272D01*
X83518500Y-86531366D01*
X83518500Y-86531365D01*
X83524739Y-86500000D01*
X83518500Y-86468635D01*
X83518500Y-85931926D01*
X83891927Y-85558500D01*
X88473000Y-85558500D01*
X88473000Y-85800000D01*
X88482667Y-85848601D01*
X88510197Y-85889803D01*
X88551399Y-85917333D01*
X88600000Y-85927000D01*
X89200000Y-85927000D01*
X89248601Y-85917333D01*
X89289803Y-85889803D01*
X89317333Y-85848601D01*
X89327000Y-85800000D01*
X89327000Y-85558500D01*
X90328074Y-85558500D01*
X91572607Y-86803034D01*
X91590375Y-86829625D01*
X91695728Y-86900020D01*
X91788634Y-86918500D01*
X91788638Y-86918500D01*
X91819999Y-86924738D01*
X91851360Y-86918500D01*
X93078074Y-86918500D01*
X93833109Y-87673536D01*
X93850876Y-87700126D01*
X93956229Y-87770521D01*
X94049135Y-87789001D01*
X94049139Y-87789001D01*
X94080500Y-87795239D01*
X94111861Y-87789001D01*
X96473000Y-87789001D01*
X96473000Y-88984213D01*
X96465000Y-89003527D01*
X96465000Y-89196473D01*
X96473000Y-89215787D01*
X96473000Y-89934213D01*
X96465000Y-89953527D01*
X96465000Y-90146473D01*
X96473000Y-90165787D01*
X96473000Y-90393394D01*
X96089803Y-90010197D01*
X96048601Y-89982667D01*
X96000000Y-89973000D01*
X92495000Y-89973000D01*
X92495000Y-89853527D01*
X92425884Y-89686666D01*
X92434279Y-89674102D01*
X92468722Y-89639659D01*
X92487363Y-89594656D01*
X92514418Y-89554165D01*
X92523919Y-89506403D01*
X92542559Y-89461401D01*
X92542559Y-89412692D01*
X92552060Y-89364928D01*
X92542559Y-89317164D01*
X92542559Y-89268455D01*
X92523919Y-89223454D01*
X92514418Y-89175690D01*
X92487362Y-89135199D01*
X92468722Y-89090197D01*
X92332290Y-88953765D01*
X92332288Y-88953764D01*
X92204282Y-88825758D01*
X92177225Y-88785264D01*
X92016797Y-88678070D01*
X91875324Y-88649929D01*
X91875319Y-88649929D01*
X91827560Y-88640429D01*
X91779801Y-88649929D01*
X91065822Y-88649929D01*
X89903421Y-87487528D01*
X91472001Y-87487528D01*
X91472001Y-87680474D01*
X91545838Y-87858732D01*
X91682270Y-87995164D01*
X91860528Y-88069001D01*
X92053474Y-88069001D01*
X92231732Y-87995164D01*
X92368164Y-87858732D01*
X92442001Y-87680474D01*
X92442001Y-87487528D01*
X92368164Y-87309270D01*
X92231732Y-87172838D01*
X92053474Y-87099001D01*
X91860528Y-87099001D01*
X91682270Y-87172838D01*
X91545838Y-87309270D01*
X91472001Y-87487528D01*
X89903421Y-87487528D01*
X89327000Y-86911107D01*
X89327000Y-86600000D01*
X89317333Y-86551399D01*
X89289803Y-86510197D01*
X89248601Y-86482667D01*
X89200000Y-86473000D01*
X88600000Y-86473000D01*
X88551399Y-86482667D01*
X88510197Y-86510197D01*
X88482667Y-86551399D01*
X88473000Y-86600000D01*
X88473000Y-86695000D01*
X84027764Y-86695000D01*
X83980000Y-86685499D01*
X83790762Y-86723141D01*
X83671194Y-86803034D01*
X83630335Y-86830335D01*
X83603280Y-86870826D01*
X82024196Y-88449911D01*
X81983702Y-88476968D01*
X81882034Y-88629127D01*
X81865762Y-88625890D01*
X81839471Y-88615000D01*
X81811014Y-88615000D01*
X81746358Y-88602139D01*
X81681702Y-88615000D01*
X81646525Y-88615000D01*
X81614024Y-88628462D01*
X81557122Y-88639781D01*
X81508883Y-88672013D01*
X81468267Y-88688837D01*
X81331835Y-88825269D01*
X81313193Y-88870275D01*
X81286140Y-88910763D01*
X81276640Y-88958520D01*
X81257998Y-89003527D01*
X81257998Y-89052241D01*
X81248498Y-89100000D01*
X81257998Y-89147759D01*
X81257998Y-89196473D01*
X81276640Y-89241480D01*
X81286140Y-89289237D01*
X81313193Y-89329725D01*
X81321800Y-89350505D01*
X81310322Y-89367684D01*
X81288001Y-89390005D01*
X79550000Y-89390005D01*
X79450504Y-89409796D01*
X79366156Y-89466156D01*
X79309796Y-89550504D01*
X79290005Y-89650000D01*
X79290005Y-92450000D01*
X79309796Y-92549496D01*
X79366156Y-92633844D01*
X79450504Y-92690204D01*
X79550000Y-92709995D01*
X81650000Y-92709995D01*
X81749496Y-92690204D01*
X81833844Y-92633844D01*
X81890204Y-92549496D01*
X81909995Y-92450000D01*
X81909995Y-90172008D01*
X81938387Y-90172008D01*
X81986146Y-90181508D01*
X82033905Y-90172008D01*
X82033910Y-90172008D01*
X82175383Y-90143867D01*
X82335811Y-90036673D01*
X82362868Y-89996179D01*
X82642540Y-89716508D01*
X82683032Y-89689452D01*
X82710088Y-89648960D01*
X82790226Y-89529025D01*
X82827868Y-89339787D01*
X82818367Y-89292023D01*
X82818367Y-89027526D01*
X84180894Y-87665000D01*
X87032893Y-87665000D01*
X86991098Y-87734659D01*
X86973000Y-87800000D01*
X86973000Y-88500000D01*
X86994330Y-88570447D01*
X87194330Y-88870447D01*
X87210197Y-88889803D01*
X87251399Y-88917333D01*
X87300000Y-88927000D01*
X88200000Y-88927000D01*
X88248601Y-88917333D01*
X88289803Y-88889803D01*
X88552606Y-88627000D01*
X88748906Y-88627000D01*
X91097345Y-90881501D01*
X84131361Y-90881500D01*
X84100000Y-90875262D01*
X84068639Y-90881500D01*
X84068635Y-90881500D01*
X83975729Y-90899980D01*
X83975728Y-90899981D01*
X83975727Y-90899981D01*
X83896965Y-90952608D01*
X83896963Y-90952610D01*
X83870376Y-90970375D01*
X83852611Y-90996962D01*
X81918074Y-92931500D01*
X79281927Y-92931500D01*
X78218500Y-91868074D01*
X78218500Y-86109019D01*
X78224738Y-86077658D01*
X78218500Y-86046297D01*
X78218500Y-86046292D01*
X78200020Y-85953386D01*
X78129625Y-85848033D01*
X78103036Y-85830267D01*
X76777258Y-84504490D01*
X76822000Y-84396473D01*
X76822000Y-84203527D01*
X76748163Y-84025269D01*
X76611731Y-83888837D01*
X76433473Y-83815000D01*
X76240527Y-83815000D01*
X76062269Y-83888837D01*
X75925837Y-84025269D01*
X75852000Y-84203527D01*
X75852000Y-84396473D01*
X75925837Y-84574731D01*
X76062269Y-84711163D01*
X76094038Y-84724322D01*
X76107376Y-84744283D01*
X76133966Y-84762050D01*
X76150360Y-84778444D01*
X76125269Y-84788837D01*
X75988837Y-84925269D01*
X75915000Y-85103527D01*
X75915000Y-85296473D01*
X75988837Y-85474731D01*
X76125269Y-85611163D01*
X76303527Y-85685000D01*
X76496473Y-85685000D01*
X76674731Y-85611163D01*
X76811163Y-85474731D01*
X76821556Y-85449640D01*
X77581500Y-86209585D01*
X77581501Y-90831074D01*
X76885000Y-90134574D01*
X76885000Y-90003527D01*
X76811163Y-89825269D01*
X76674731Y-89688837D01*
X76496473Y-89615000D01*
X76303527Y-89615000D01*
X76125269Y-89688837D01*
X75988837Y-89825269D01*
X75915000Y-90003527D01*
X75915000Y-90196473D01*
X75988837Y-90374731D01*
X76125269Y-90511163D01*
X76219030Y-90550000D01*
X76125269Y-90588837D01*
X75988837Y-90725269D01*
X75915000Y-90903527D01*
X75915000Y-91096473D01*
X75988837Y-91274731D01*
X76125269Y-91411163D01*
X76303527Y-91485000D01*
X76496473Y-91485000D01*
X76674731Y-91411163D01*
X76811163Y-91274731D01*
X76885000Y-91096473D01*
X76885000Y-91035427D01*
X77327490Y-91477917D01*
X77327492Y-92073850D01*
X77321253Y-92105215D01*
X77327492Y-92136580D01*
X77327492Y-92136581D01*
X77345972Y-92229487D01*
X77416367Y-92334840D01*
X77442957Y-92352607D01*
X78543689Y-93453340D01*
X78528214Y-93450262D01*
X78496853Y-93456500D01*
X78496849Y-93456500D01*
X78403943Y-93474980D01*
X78298590Y-93545375D01*
X78280823Y-93571965D01*
X76421574Y-95431215D01*
X76290527Y-95431215D01*
X76112269Y-95505052D01*
X75975837Y-95641484D01*
X75902000Y-95819742D01*
X75902000Y-96012688D01*
X75975837Y-96190946D01*
X76112269Y-96327378D01*
X76192956Y-96360800D01*
X76125269Y-96388837D01*
X75988837Y-96525269D01*
X75915000Y-96703527D01*
X75915000Y-96896473D01*
X75988837Y-97074731D01*
X76125269Y-97211163D01*
X76303527Y-97285000D01*
X76496473Y-97285000D01*
X76674731Y-97211163D01*
X76811163Y-97074731D01*
X76885000Y-96896473D01*
X76885000Y-96703527D01*
X76811163Y-96525269D01*
X76674731Y-96388837D01*
X76594044Y-96355415D01*
X76661731Y-96327378D01*
X76798163Y-96190946D01*
X76872000Y-96012688D01*
X76872000Y-95881641D01*
X78660142Y-94093500D01*
X82212075Y-94093500D01*
X82243427Y-94099738D01*
X82274798Y-94093500D01*
X82274812Y-94093500D01*
X82316081Y-94085291D01*
X82367700Y-94075027D01*
X82367707Y-94075022D01*
X82367718Y-94075020D01*
X82429848Y-94033506D01*
X82446465Y-94022404D01*
X82446469Y-94022400D01*
X82473071Y-94004625D01*
X82490836Y-93978038D01*
X82490839Y-93978035D01*
X82507810Y-93961066D01*
X82507814Y-93961060D01*
X84442355Y-92026520D01*
X91493130Y-92026520D01*
X91472002Y-92077527D01*
X91472002Y-92270473D01*
X91545839Y-92448731D01*
X91682271Y-92585163D01*
X91860529Y-92659000D01*
X92053475Y-92659000D01*
X92231733Y-92585163D01*
X92368165Y-92448731D01*
X92442002Y-92270473D01*
X92442002Y-92077527D01*
X92420874Y-92026520D01*
X94707646Y-92026520D01*
X95809160Y-93128035D01*
X95826927Y-93154625D01*
X95853517Y-93172392D01*
X95932279Y-93225020D01*
X96056552Y-93249739D01*
X96087918Y-93243500D01*
X96473000Y-93243500D01*
X96473000Y-94873000D01*
X96352606Y-94873000D01*
X94189803Y-92710197D01*
X94148601Y-92682667D01*
X94100000Y-92673000D01*
X88800000Y-92673000D01*
X88751399Y-92682667D01*
X88710197Y-92710197D01*
X88447394Y-92973000D01*
X87600000Y-92973000D01*
X87551399Y-92982667D01*
X87510197Y-93010197D01*
X87110197Y-93410197D01*
X87086408Y-93443204D01*
X86986408Y-93643204D01*
X86973000Y-93700000D01*
X86973000Y-94300000D01*
X86994330Y-94370447D01*
X87024032Y-94415000D01*
X82664524Y-94415000D01*
X82616760Y-94405499D01*
X82427522Y-94443141D01*
X82307587Y-94523279D01*
X82267095Y-94550335D01*
X82240040Y-94590827D01*
X82172762Y-94658104D01*
X82159161Y-94625269D01*
X82022729Y-94488837D01*
X81844471Y-94415000D01*
X81651525Y-94415000D01*
X81473267Y-94488837D01*
X81336835Y-94625269D01*
X81262998Y-94803527D01*
X81262998Y-94996473D01*
X81322451Y-95140005D01*
X79550000Y-95140005D01*
X79450504Y-95159796D01*
X79366156Y-95216156D01*
X79309796Y-95300504D01*
X79290005Y-95400000D01*
X79290005Y-98200000D01*
X79309796Y-98299496D01*
X79327513Y-98326011D01*
X77520155Y-98326011D01*
X76691110Y-97496967D01*
X76673343Y-97470377D01*
X76646753Y-97452610D01*
X76646752Y-97452609D01*
X76567990Y-97399982D01*
X76443718Y-97375263D01*
X76412353Y-97381502D01*
X75939947Y-97381500D01*
X75522510Y-96964064D01*
X75522510Y-94951442D01*
X75603527Y-94985000D01*
X75796473Y-94985000D01*
X75974731Y-94911163D01*
X76111163Y-94774731D01*
X76185000Y-94596473D01*
X76185000Y-94403527D01*
X76111163Y-94225269D01*
X75974731Y-94088837D01*
X75796473Y-94015000D01*
X75603527Y-94015000D01*
X75522510Y-94048558D01*
X75522510Y-93902647D01*
X76119632Y-93305526D01*
X76125269Y-93311163D01*
X76303527Y-93385000D01*
X76496473Y-93385000D01*
X76674731Y-93311163D01*
X76811163Y-93174731D01*
X76885000Y-92996473D01*
X76885000Y-92803527D01*
X76811163Y-92625269D01*
X76674731Y-92488837D01*
X76496473Y-92415000D01*
X76303527Y-92415000D01*
X76125269Y-92488837D01*
X76029935Y-92584171D01*
X75950459Y-92599980D01*
X75845106Y-92670375D01*
X75827339Y-92696965D01*
X75268500Y-93255805D01*
X75268500Y-89054394D01*
X75325269Y-89111163D01*
X75503527Y-89185000D01*
X75696473Y-89185000D01*
X75874731Y-89111163D01*
X76011163Y-88974731D01*
X76085000Y-88796473D01*
X76085000Y-88603527D01*
X76011163Y-88425269D01*
X75874731Y-88288837D01*
X75696473Y-88215000D01*
X75635426Y-88215000D01*
X76365427Y-87485000D01*
X76496473Y-87485000D01*
X76674731Y-87411163D01*
X76811163Y-87274731D01*
X76885000Y-87096473D01*
X76885000Y-86903527D01*
X76811163Y-86725269D01*
X76674731Y-86588837D01*
X76496473Y-86515000D01*
X76303527Y-86515000D01*
X76125269Y-86588837D01*
X75988837Y-86725269D01*
X75915000Y-86903527D01*
X75915000Y-87034573D01*
X74746968Y-88202606D01*
X74720375Y-88220375D01*
X74649980Y-88325729D01*
X74631500Y-88418635D01*
X74631500Y-88418639D01*
X74625262Y-88450000D01*
X74631500Y-88481361D01*
X74631501Y-97169838D01*
X74625262Y-97201204D01*
X74649981Y-97325476D01*
X74699765Y-97399982D01*
X74720376Y-97430829D01*
X74746966Y-97448596D01*
X75455415Y-98157046D01*
X75473180Y-98183633D01*
X75499767Y-98201398D01*
X75499770Y-98201401D01*
X75578532Y-98254028D01*
X75702804Y-98278747D01*
X75734169Y-98272508D01*
X76164687Y-98272509D01*
X76125269Y-98288837D01*
X75988837Y-98425269D01*
X75915000Y-98603527D01*
X75915000Y-98796473D01*
X75988837Y-98974731D01*
X76125269Y-99111163D01*
X76303527Y-99185000D01*
X76496473Y-99185000D01*
X76674731Y-99111163D01*
X76680368Y-99105526D01*
X76930407Y-99355565D01*
X76948174Y-99382155D01*
X77053527Y-99452550D01*
X77146433Y-99471030D01*
X77146437Y-99471030D01*
X77156341Y-99473000D01*
X71527000Y-99473000D01*
X71527000Y-96703527D01*
X73115000Y-96703527D01*
X73115000Y-96896473D01*
X73188837Y-97074731D01*
X73325269Y-97211163D01*
X73503527Y-97285000D01*
X73696473Y-97285000D01*
X73874731Y-97211163D01*
X74011163Y-97074731D01*
X74085000Y-96896473D01*
X74085000Y-96703527D01*
X74011163Y-96525269D01*
X73874731Y-96388837D01*
X73696473Y-96315000D01*
X73503527Y-96315000D01*
X73325269Y-96388837D01*
X73188837Y-96525269D01*
X73115000Y-96703527D01*
X71527000Y-96703527D01*
X71527000Y-90903527D01*
X73115000Y-90903527D01*
X73115000Y-91096473D01*
X73188837Y-91274731D01*
X73325269Y-91411163D01*
X73503527Y-91485000D01*
X73696473Y-91485000D01*
X73874731Y-91411163D01*
X74011163Y-91274731D01*
X74085000Y-91096473D01*
X74085000Y-90903527D01*
X74011163Y-90725269D01*
X73874731Y-90588837D01*
X73696473Y-90515000D01*
X73503527Y-90515000D01*
X73325269Y-90588837D01*
X73188837Y-90725269D01*
X73115000Y-90903527D01*
X71527000Y-90903527D01*
X71527000Y-85103527D01*
X73115000Y-85103527D01*
X73115000Y-85296473D01*
X73188837Y-85474731D01*
X73325269Y-85611163D01*
X73503527Y-85685000D01*
X73696473Y-85685000D01*
X73874731Y-85611163D01*
X74011163Y-85474731D01*
X74085000Y-85296473D01*
X74085000Y-85103527D01*
X74011163Y-84925269D01*
X73874731Y-84788837D01*
X73696473Y-84715000D01*
X73503527Y-84715000D01*
X73325269Y-84788837D01*
X73188837Y-84925269D01*
X73115000Y-85103527D01*
X71527000Y-85103527D01*
X71527000Y-82527000D01*
X75387106Y-82527000D01*
X75288837Y-82625269D01*
X75288837Y-82625269D01*
G37*
X75288837Y-82625269D02*
X75215000Y-82803527D01*
X75215000Y-82996473D01*
X75288837Y-83174731D01*
X75425269Y-83311163D01*
X75603527Y-83385000D01*
X75796473Y-83385000D01*
X75974731Y-83311163D01*
X76111163Y-83174731D01*
X76185000Y-82996473D01*
X76185000Y-82803527D01*
X76111163Y-82625269D01*
X76012894Y-82527000D01*
X86973000Y-82527000D01*
X86973000Y-83000000D01*
X86978749Y-83037778D01*
X87002436Y-83081303D01*
X87502436Y-83681303D01*
X87515626Y-83694921D01*
X88044465Y-84165000D01*
X86350894Y-84165000D01*
X85763723Y-83577830D01*
X85736666Y-83537336D01*
X85576238Y-83430142D01*
X85434765Y-83402001D01*
X85434760Y-83402001D01*
X85387001Y-83392501D01*
X85339242Y-83402001D01*
X82230708Y-83402001D01*
X82232998Y-83396473D01*
X82232998Y-83203527D01*
X82159161Y-83025269D01*
X82022729Y-82888837D01*
X81844471Y-82815000D01*
X81651525Y-82815000D01*
X81473267Y-82888837D01*
X81336835Y-83025269D01*
X81262998Y-83203527D01*
X81262998Y-83396473D01*
X81329342Y-83556641D01*
X81320592Y-83569736D01*
X81280743Y-83609585D01*
X81268143Y-83640005D01*
X79550000Y-83640005D01*
X79450504Y-83659796D01*
X79366156Y-83716156D01*
X79309796Y-83800504D01*
X79290005Y-83900000D01*
X79290005Y-86700000D01*
X79309796Y-86799496D01*
X79366156Y-86883844D01*
X79450504Y-86940204D01*
X79550000Y-86959995D01*
X81650000Y-86959995D01*
X81749496Y-86940204D01*
X81833844Y-86883844D01*
X81890204Y-86799496D01*
X81909995Y-86700000D01*
X81909995Y-84372001D01*
X85186108Y-84372001D01*
X85735606Y-84921500D01*
X83791366Y-84921500D01*
X83760000Y-84915261D01*
X83635727Y-84939980D01*
X83598283Y-84965000D01*
X83530375Y-85010375D01*
X83512608Y-85036965D01*
X82996968Y-85552606D01*
X82970375Y-85570375D01*
X82899980Y-85675729D01*
X82881500Y-85768635D01*
X82881500Y-85768639D01*
X82875262Y-85800000D01*
X82881500Y-85831361D01*
X82881501Y-86368072D01*
X81468074Y-87781500D01*
X81267394Y-87781500D01*
X81174731Y-87688837D01*
X80996473Y-87615000D01*
X80803527Y-87615000D01*
X80625269Y-87688837D01*
X80606499Y-87707608D01*
X80587728Y-87688837D01*
X80409470Y-87615000D01*
X80216524Y-87615000D01*
X80038266Y-87688837D01*
X79901834Y-87825269D01*
X79827997Y-88003527D01*
X79827997Y-88196473D01*
X79901834Y-88374731D01*
X80038266Y-88511163D01*
X80216524Y-88585000D01*
X80409470Y-88585000D01*
X80587728Y-88511163D01*
X80606499Y-88492393D01*
X80625269Y-88511163D01*
X80803527Y-88585000D01*
X80996473Y-88585000D01*
X81174731Y-88511163D01*
X81267394Y-88418500D01*
X81568639Y-88418500D01*
X81600000Y-88424738D01*
X81631361Y-88418500D01*
X81631366Y-88418500D01*
X81724272Y-88400020D01*
X81829625Y-88329625D01*
X81847394Y-88303032D01*
X83403035Y-86747392D01*
X83429625Y-86729625D01*
X83500020Y-86624272D01*
X83518500Y-86531366D01*
X83518500Y-86531365D01*
X83524739Y-86500000D01*
X83518500Y-86468635D01*
X83518500Y-85931926D01*
X83891927Y-85558500D01*
X88473000Y-85558500D01*
X88473000Y-85800000D01*
X88482667Y-85848601D01*
X88510197Y-85889803D01*
X88551399Y-85917333D01*
X88600000Y-85927000D01*
X89200000Y-85927000D01*
X89248601Y-85917333D01*
X89289803Y-85889803D01*
X89317333Y-85848601D01*
X89327000Y-85800000D01*
X89327000Y-85558500D01*
X90328074Y-85558500D01*
X91572607Y-86803034D01*
X91590375Y-86829625D01*
X91695728Y-86900020D01*
X91788634Y-86918500D01*
X91788638Y-86918500D01*
X91819999Y-86924738D01*
X91851360Y-86918500D01*
X93078074Y-86918500D01*
X93833109Y-87673536D01*
X93850876Y-87700126D01*
X93956229Y-87770521D01*
X94049135Y-87789001D01*
X94049139Y-87789001D01*
X94080500Y-87795239D01*
X94111861Y-87789001D01*
X96473000Y-87789001D01*
X96473000Y-88984213D01*
X96465000Y-89003527D01*
X96465000Y-89196473D01*
X96473000Y-89215787D01*
X96473000Y-89934213D01*
X96465000Y-89953527D01*
X96465000Y-90146473D01*
X96473000Y-90165787D01*
X96473000Y-90393394D01*
X96089803Y-90010197D01*
X96048601Y-89982667D01*
X96000000Y-89973000D01*
X92495000Y-89973000D01*
X92495000Y-89853527D01*
X92425884Y-89686666D01*
X92434279Y-89674102D01*
X92468722Y-89639659D01*
X92487363Y-89594656D01*
X92514418Y-89554165D01*
X92523919Y-89506403D01*
X92542559Y-89461401D01*
X92542559Y-89412692D01*
X92552060Y-89364928D01*
X92542559Y-89317164D01*
X92542559Y-89268455D01*
X92523919Y-89223454D01*
X92514418Y-89175690D01*
X92487362Y-89135199D01*
X92468722Y-89090197D01*
X92332290Y-88953765D01*
X92332288Y-88953764D01*
X92204282Y-88825758D01*
X92177225Y-88785264D01*
X92016797Y-88678070D01*
X91875324Y-88649929D01*
X91875319Y-88649929D01*
X91827560Y-88640429D01*
X91779801Y-88649929D01*
X91065822Y-88649929D01*
X89903421Y-87487528D01*
X91472001Y-87487528D01*
X91472001Y-87680474D01*
X91545838Y-87858732D01*
X91682270Y-87995164D01*
X91860528Y-88069001D01*
X92053474Y-88069001D01*
X92231732Y-87995164D01*
X92368164Y-87858732D01*
X92442001Y-87680474D01*
X92442001Y-87487528D01*
X92368164Y-87309270D01*
X92231732Y-87172838D01*
X92053474Y-87099001D01*
X91860528Y-87099001D01*
X91682270Y-87172838D01*
X91545838Y-87309270D01*
X91472001Y-87487528D01*
X89903421Y-87487528D01*
X89327000Y-86911107D01*
X89327000Y-86600000D01*
X89317333Y-86551399D01*
X89289803Y-86510197D01*
X89248601Y-86482667D01*
X89200000Y-86473000D01*
X88600000Y-86473000D01*
X88551399Y-86482667D01*
X88510197Y-86510197D01*
X88482667Y-86551399D01*
X88473000Y-86600000D01*
X88473000Y-86695000D01*
X84027764Y-86695000D01*
X83980000Y-86685499D01*
X83790762Y-86723141D01*
X83671194Y-86803034D01*
X83630335Y-86830335D01*
X83603280Y-86870826D01*
X82024196Y-88449911D01*
X81983702Y-88476968D01*
X81882034Y-88629127D01*
X81865762Y-88625890D01*
X81839471Y-88615000D01*
X81811014Y-88615000D01*
X81746358Y-88602139D01*
X81681702Y-88615000D01*
X81646525Y-88615000D01*
X81614024Y-88628462D01*
X81557122Y-88639781D01*
X81508883Y-88672013D01*
X81468267Y-88688837D01*
X81331835Y-88825269D01*
X81313193Y-88870275D01*
X81286140Y-88910763D01*
X81276640Y-88958520D01*
X81257998Y-89003527D01*
X81257998Y-89052241D01*
X81248498Y-89100000D01*
X81257998Y-89147759D01*
X81257998Y-89196473D01*
X81276640Y-89241480D01*
X81286140Y-89289237D01*
X81313193Y-89329725D01*
X81321800Y-89350505D01*
X81310322Y-89367684D01*
X81288001Y-89390005D01*
X79550000Y-89390005D01*
X79450504Y-89409796D01*
X79366156Y-89466156D01*
X79309796Y-89550504D01*
X79290005Y-89650000D01*
X79290005Y-92450000D01*
X79309796Y-92549496D01*
X79366156Y-92633844D01*
X79450504Y-92690204D01*
X79550000Y-92709995D01*
X81650000Y-92709995D01*
X81749496Y-92690204D01*
X81833844Y-92633844D01*
X81890204Y-92549496D01*
X81909995Y-92450000D01*
X81909995Y-90172008D01*
X81938387Y-90172008D01*
X81986146Y-90181508D01*
X82033905Y-90172008D01*
X82033910Y-90172008D01*
X82175383Y-90143867D01*
X82335811Y-90036673D01*
X82362868Y-89996179D01*
X82642540Y-89716508D01*
X82683032Y-89689452D01*
X82710088Y-89648960D01*
X82790226Y-89529025D01*
X82827868Y-89339787D01*
X82818367Y-89292023D01*
X82818367Y-89027526D01*
X84180894Y-87665000D01*
X87032893Y-87665000D01*
X86991098Y-87734659D01*
X86973000Y-87800000D01*
X86973000Y-88500000D01*
X86994330Y-88570447D01*
X87194330Y-88870447D01*
X87210197Y-88889803D01*
X87251399Y-88917333D01*
X87300000Y-88927000D01*
X88200000Y-88927000D01*
X88248601Y-88917333D01*
X88289803Y-88889803D01*
X88552606Y-88627000D01*
X88748906Y-88627000D01*
X91097345Y-90881501D01*
X84131361Y-90881500D01*
X84100000Y-90875262D01*
X84068639Y-90881500D01*
X84068635Y-90881500D01*
X83975729Y-90899980D01*
X83975728Y-90899981D01*
X83975727Y-90899981D01*
X83896965Y-90952608D01*
X83896963Y-90952610D01*
X83870376Y-90970375D01*
X83852611Y-90996962D01*
X81918074Y-92931500D01*
X79281927Y-92931500D01*
X78218500Y-91868074D01*
X78218500Y-86109019D01*
X78224738Y-86077658D01*
X78218500Y-86046297D01*
X78218500Y-86046292D01*
X78200020Y-85953386D01*
X78129625Y-85848033D01*
X78103036Y-85830267D01*
X76777258Y-84504490D01*
X76822000Y-84396473D01*
X76822000Y-84203527D01*
X76748163Y-84025269D01*
X76611731Y-83888837D01*
X76433473Y-83815000D01*
X76240527Y-83815000D01*
X76062269Y-83888837D01*
X75925837Y-84025269D01*
X75852000Y-84203527D01*
X75852000Y-84396473D01*
X75925837Y-84574731D01*
X76062269Y-84711163D01*
X76094038Y-84724322D01*
X76107376Y-84744283D01*
X76133966Y-84762050D01*
X76150360Y-84778444D01*
X76125269Y-84788837D01*
X75988837Y-84925269D01*
X75915000Y-85103527D01*
X75915000Y-85296473D01*
X75988837Y-85474731D01*
X76125269Y-85611163D01*
X76303527Y-85685000D01*
X76496473Y-85685000D01*
X76674731Y-85611163D01*
X76811163Y-85474731D01*
X76821556Y-85449640D01*
X77581500Y-86209585D01*
X77581501Y-90831074D01*
X76885000Y-90134574D01*
X76885000Y-90003527D01*
X76811163Y-89825269D01*
X76674731Y-89688837D01*
X76496473Y-89615000D01*
X76303527Y-89615000D01*
X76125269Y-89688837D01*
X75988837Y-89825269D01*
X75915000Y-90003527D01*
X75915000Y-90196473D01*
X75988837Y-90374731D01*
X76125269Y-90511163D01*
X76219030Y-90550000D01*
X76125269Y-90588837D01*
X75988837Y-90725269D01*
X75915000Y-90903527D01*
X75915000Y-91096473D01*
X75988837Y-91274731D01*
X76125269Y-91411163D01*
X76303527Y-91485000D01*
X76496473Y-91485000D01*
X76674731Y-91411163D01*
X76811163Y-91274731D01*
X76885000Y-91096473D01*
X76885000Y-91035427D01*
X77327490Y-91477917D01*
X77327492Y-92073850D01*
X77321253Y-92105215D01*
X77327492Y-92136580D01*
X77327492Y-92136581D01*
X77345972Y-92229487D01*
X77416367Y-92334840D01*
X77442957Y-92352607D01*
X78543689Y-93453340D01*
X78528214Y-93450262D01*
X78496853Y-93456500D01*
X78496849Y-93456500D01*
X78403943Y-93474980D01*
X78298590Y-93545375D01*
X78280823Y-93571965D01*
X76421574Y-95431215D01*
X76290527Y-95431215D01*
X76112269Y-95505052D01*
X75975837Y-95641484D01*
X75902000Y-95819742D01*
X75902000Y-96012688D01*
X75975837Y-96190946D01*
X76112269Y-96327378D01*
X76192956Y-96360800D01*
X76125269Y-96388837D01*
X75988837Y-96525269D01*
X75915000Y-96703527D01*
X75915000Y-96896473D01*
X75988837Y-97074731D01*
X76125269Y-97211163D01*
X76303527Y-97285000D01*
X76496473Y-97285000D01*
X76674731Y-97211163D01*
X76811163Y-97074731D01*
X76885000Y-96896473D01*
X76885000Y-96703527D01*
X76811163Y-96525269D01*
X76674731Y-96388837D01*
X76594044Y-96355415D01*
X76661731Y-96327378D01*
X76798163Y-96190946D01*
X76872000Y-96012688D01*
X76872000Y-95881641D01*
X78660142Y-94093500D01*
X82212075Y-94093500D01*
X82243427Y-94099738D01*
X82274798Y-94093500D01*
X82274812Y-94093500D01*
X82316081Y-94085291D01*
X82367700Y-94075027D01*
X82367707Y-94075022D01*
X82367718Y-94075020D01*
X82429848Y-94033506D01*
X82446465Y-94022404D01*
X82446469Y-94022400D01*
X82473071Y-94004625D01*
X82490836Y-93978038D01*
X82490839Y-93978035D01*
X82507810Y-93961066D01*
X82507814Y-93961060D01*
X84442355Y-92026520D01*
X91493130Y-92026520D01*
X91472002Y-92077527D01*
X91472002Y-92270473D01*
X91545839Y-92448731D01*
X91682271Y-92585163D01*
X91860529Y-92659000D01*
X92053475Y-92659000D01*
X92231733Y-92585163D01*
X92368165Y-92448731D01*
X92442002Y-92270473D01*
X92442002Y-92077527D01*
X92420874Y-92026520D01*
X94707646Y-92026520D01*
X95809160Y-93128035D01*
X95826927Y-93154625D01*
X95853517Y-93172392D01*
X95932279Y-93225020D01*
X96056552Y-93249739D01*
X96087918Y-93243500D01*
X96473000Y-93243500D01*
X96473000Y-94873000D01*
X96352606Y-94873000D01*
X94189803Y-92710197D01*
X94148601Y-92682667D01*
X94100000Y-92673000D01*
X88800000Y-92673000D01*
X88751399Y-92682667D01*
X88710197Y-92710197D01*
X88447394Y-92973000D01*
X87600000Y-92973000D01*
X87551399Y-92982667D01*
X87510197Y-93010197D01*
X87110197Y-93410197D01*
X87086408Y-93443204D01*
X86986408Y-93643204D01*
X86973000Y-93700000D01*
X86973000Y-94300000D01*
X86994330Y-94370447D01*
X87024032Y-94415000D01*
X82664524Y-94415000D01*
X82616760Y-94405499D01*
X82427522Y-94443141D01*
X82307587Y-94523279D01*
X82267095Y-94550335D01*
X82240040Y-94590827D01*
X82172762Y-94658104D01*
X82159161Y-94625269D01*
X82022729Y-94488837D01*
X81844471Y-94415000D01*
X81651525Y-94415000D01*
X81473267Y-94488837D01*
X81336835Y-94625269D01*
X81262998Y-94803527D01*
X81262998Y-94996473D01*
X81322451Y-95140005D01*
X79550000Y-95140005D01*
X79450504Y-95159796D01*
X79366156Y-95216156D01*
X79309796Y-95300504D01*
X79290005Y-95400000D01*
X79290005Y-98200000D01*
X79309796Y-98299496D01*
X79327513Y-98326011D01*
X77520155Y-98326011D01*
X76691110Y-97496967D01*
X76673343Y-97470377D01*
X76646753Y-97452610D01*
X76646752Y-97452609D01*
X76567990Y-97399982D01*
X76443718Y-97375263D01*
X76412353Y-97381502D01*
X75939947Y-97381500D01*
X75522510Y-96964064D01*
X75522510Y-94951442D01*
X75603527Y-94985000D01*
X75796473Y-94985000D01*
X75974731Y-94911163D01*
X76111163Y-94774731D01*
X76185000Y-94596473D01*
X76185000Y-94403527D01*
X76111163Y-94225269D01*
X75974731Y-94088837D01*
X75796473Y-94015000D01*
X75603527Y-94015000D01*
X75522510Y-94048558D01*
X75522510Y-93902647D01*
X76119632Y-93305526D01*
X76125269Y-93311163D01*
X76303527Y-93385000D01*
X76496473Y-93385000D01*
X76674731Y-93311163D01*
X76811163Y-93174731D01*
X76885000Y-92996473D01*
X76885000Y-92803527D01*
X76811163Y-92625269D01*
X76674731Y-92488837D01*
X76496473Y-92415000D01*
X76303527Y-92415000D01*
X76125269Y-92488837D01*
X76029935Y-92584171D01*
X75950459Y-92599980D01*
X75845106Y-92670375D01*
X75827339Y-92696965D01*
X75268500Y-93255805D01*
X75268500Y-89054394D01*
X75325269Y-89111163D01*
X75503527Y-89185000D01*
X75696473Y-89185000D01*
X75874731Y-89111163D01*
X76011163Y-88974731D01*
X76085000Y-88796473D01*
X76085000Y-88603527D01*
X76011163Y-88425269D01*
X75874731Y-88288837D01*
X75696473Y-88215000D01*
X75635426Y-88215000D01*
X76365427Y-87485000D01*
X76496473Y-87485000D01*
X76674731Y-87411163D01*
X76811163Y-87274731D01*
X76885000Y-87096473D01*
X76885000Y-86903527D01*
X76811163Y-86725269D01*
X76674731Y-86588837D01*
X76496473Y-86515000D01*
X76303527Y-86515000D01*
X76125269Y-86588837D01*
X75988837Y-86725269D01*
X75915000Y-86903527D01*
X75915000Y-87034573D01*
X74746968Y-88202606D01*
X74720375Y-88220375D01*
X74649980Y-88325729D01*
X74631500Y-88418635D01*
X74631500Y-88418639D01*
X74625262Y-88450000D01*
X74631500Y-88481361D01*
X74631501Y-97169838D01*
X74625262Y-97201204D01*
X74649981Y-97325476D01*
X74699765Y-97399982D01*
X74720376Y-97430829D01*
X74746966Y-97448596D01*
X75455415Y-98157046D01*
X75473180Y-98183633D01*
X75499767Y-98201398D01*
X75499770Y-98201401D01*
X75578532Y-98254028D01*
X75702804Y-98278747D01*
X75734169Y-98272508D01*
X76164687Y-98272509D01*
X76125269Y-98288837D01*
X75988837Y-98425269D01*
X75915000Y-98603527D01*
X75915000Y-98796473D01*
X75988837Y-98974731D01*
X76125269Y-99111163D01*
X76303527Y-99185000D01*
X76496473Y-99185000D01*
X76674731Y-99111163D01*
X76680368Y-99105526D01*
X76930407Y-99355565D01*
X76948174Y-99382155D01*
X77053527Y-99452550D01*
X77146433Y-99471030D01*
X77146437Y-99471030D01*
X77156341Y-99473000D01*
X71527000Y-99473000D01*
X71527000Y-96703527D01*
X73115000Y-96703527D01*
X73115000Y-96896473D01*
X73188837Y-97074731D01*
X73325269Y-97211163D01*
X73503527Y-97285000D01*
X73696473Y-97285000D01*
X73874731Y-97211163D01*
X74011163Y-97074731D01*
X74085000Y-96896473D01*
X74085000Y-96703527D01*
X74011163Y-96525269D01*
X73874731Y-96388837D01*
X73696473Y-96315000D01*
X73503527Y-96315000D01*
X73325269Y-96388837D01*
X73188837Y-96525269D01*
X73115000Y-96703527D01*
X71527000Y-96703527D01*
X71527000Y-90903527D01*
X73115000Y-90903527D01*
X73115000Y-91096473D01*
X73188837Y-91274731D01*
X73325269Y-91411163D01*
X73503527Y-91485000D01*
X73696473Y-91485000D01*
X73874731Y-91411163D01*
X74011163Y-91274731D01*
X74085000Y-91096473D01*
X74085000Y-90903527D01*
X74011163Y-90725269D01*
X73874731Y-90588837D01*
X73696473Y-90515000D01*
X73503527Y-90515000D01*
X73325269Y-90588837D01*
X73188837Y-90725269D01*
X73115000Y-90903527D01*
X71527000Y-90903527D01*
X71527000Y-85103527D01*
X73115000Y-85103527D01*
X73115000Y-85296473D01*
X73188837Y-85474731D01*
X73325269Y-85611163D01*
X73503527Y-85685000D01*
X73696473Y-85685000D01*
X73874731Y-85611163D01*
X74011163Y-85474731D01*
X74085000Y-85296473D01*
X74085000Y-85103527D01*
X74011163Y-84925269D01*
X73874731Y-84788837D01*
X73696473Y-84715000D01*
X73503527Y-84715000D01*
X73325269Y-84788837D01*
X73188837Y-84925269D01*
X73115000Y-85103527D01*
X71527000Y-85103527D01*
X71527000Y-82527000D01*
X75387106Y-82527000D01*
X75288837Y-82625269D01*
G36*
X95810197Y-95989803D02*
X95851399Y-96017333D01*
X95900000Y-96027000D01*
X96473000Y-96027000D01*
X96473000Y-96765042D01*
X92499981Y-96765042D01*
X92502271Y-96759514D01*
X92502271Y-96566568D01*
X92428434Y-96388310D01*
X92292002Y-96251878D01*
X92113744Y-96178041D01*
X91920798Y-96178041D01*
X91742540Y-96251878D01*
X91606108Y-96388310D01*
X91532271Y-96566568D01*
X91532271Y-96759514D01*
X91534734Y-96765460D01*
X87635505Y-96765460D01*
X87604144Y-96759222D01*
X87572783Y-96765460D01*
X87572778Y-96765460D01*
X87479872Y-96783940D01*
X87374519Y-96854335D01*
X87356752Y-96880925D01*
X86014303Y-98223375D01*
X85994557Y-98236569D01*
X85994539Y-98236587D01*
X85967931Y-98254372D01*
X85950182Y-98280944D01*
X85905115Y-98326011D01*
X81872487Y-98326011D01*
X81890204Y-98299496D01*
X81909995Y-98200000D01*
X81909995Y-95972001D01*
X81982000Y-95972001D01*
X82029759Y-95981501D01*
X82077518Y-95972001D01*
X82077523Y-95972001D01*
X82218996Y-95943860D01*
X82379424Y-95836666D01*
X82406481Y-95796172D01*
X82817654Y-95385000D01*
X91222241Y-95385000D01*
X91270000Y-95394500D01*
X91317759Y-95385000D01*
X91317764Y-95385000D01*
X91459237Y-95356859D01*
X91619665Y-95249665D01*
X91646723Y-95209170D01*
X91742168Y-95113725D01*
X91782664Y-95086666D01*
X91889858Y-94926238D01*
X91890811Y-94921448D01*
X91923527Y-94935000D01*
X92116473Y-94935000D01*
X92294731Y-94861163D01*
X92431163Y-94724731D01*
X92505000Y-94546473D01*
X92505000Y-94353527D01*
X92431163Y-94175269D01*
X92426028Y-94170134D01*
X92430735Y-94163090D01*
X92465178Y-94128647D01*
X92483819Y-94083644D01*
X92510874Y-94043153D01*
X92520375Y-93995391D01*
X92539015Y-93950389D01*
X92539015Y-93901680D01*
X92548516Y-93853916D01*
X92543162Y-93827000D01*
X93647394Y-93827000D01*
X95810197Y-95989803D01*
X95810197Y-95989803D01*
G37*
X95810197Y-95989803D02*
X95851399Y-96017333D01*
X95900000Y-96027000D01*
X96473000Y-96027000D01*
X96473000Y-96765042D01*
X92499981Y-96765042D01*
X92502271Y-96759514D01*
X92502271Y-96566568D01*
X92428434Y-96388310D01*
X92292002Y-96251878D01*
X92113744Y-96178041D01*
X91920798Y-96178041D01*
X91742540Y-96251878D01*
X91606108Y-96388310D01*
X91532271Y-96566568D01*
X91532271Y-96759514D01*
X91534734Y-96765460D01*
X87635505Y-96765460D01*
X87604144Y-96759222D01*
X87572783Y-96765460D01*
X87572778Y-96765460D01*
X87479872Y-96783940D01*
X87374519Y-96854335D01*
X87356752Y-96880925D01*
X86014303Y-98223375D01*
X85994557Y-98236569D01*
X85994539Y-98236587D01*
X85967931Y-98254372D01*
X85950182Y-98280944D01*
X85905115Y-98326011D01*
X81872487Y-98326011D01*
X81890204Y-98299496D01*
X81909995Y-98200000D01*
X81909995Y-95972001D01*
X81982000Y-95972001D01*
X82029759Y-95981501D01*
X82077518Y-95972001D01*
X82077523Y-95972001D01*
X82218996Y-95943860D01*
X82379424Y-95836666D01*
X82406481Y-95796172D01*
X82817654Y-95385000D01*
X91222241Y-95385000D01*
X91270000Y-95394500D01*
X91317759Y-95385000D01*
X91317764Y-95385000D01*
X91459237Y-95356859D01*
X91619665Y-95249665D01*
X91646723Y-95209170D01*
X91742168Y-95113725D01*
X91782664Y-95086666D01*
X91889858Y-94926238D01*
X91890811Y-94921448D01*
X91923527Y-94935000D01*
X92116473Y-94935000D01*
X92294731Y-94861163D01*
X92431163Y-94724731D01*
X92505000Y-94546473D01*
X92505000Y-94353527D01*
X92431163Y-94175269D01*
X92426028Y-94170134D01*
X92430735Y-94163090D01*
X92465178Y-94128647D01*
X92483819Y-94083644D01*
X92510874Y-94043153D01*
X92520375Y-93995391D01*
X92539015Y-93950389D01*
X92539015Y-93901680D01*
X92548516Y-93853916D01*
X92543162Y-93827000D01*
X93647394Y-93827000D01*
X95810197Y-95989803D01*
G36*
X122360999Y-93011426D02*
X122360999Y-93048138D01*
X122354761Y-93079499D01*
X122360999Y-93110860D01*
X122360999Y-93110864D01*
X122379479Y-93203770D01*
X122449874Y-93309124D01*
X122476467Y-93326893D01*
X122615000Y-93465426D01*
X122615000Y-93596473D01*
X122688837Y-93774731D01*
X122825269Y-93911163D01*
X123003527Y-93985000D01*
X123196473Y-93985000D01*
X123374731Y-93911163D01*
X123443998Y-93841896D01*
X123983656Y-94381555D01*
X124001424Y-94408146D01*
X124106777Y-94478541D01*
X124199683Y-94497021D01*
X124199687Y-94497021D01*
X124231048Y-94503259D01*
X124262409Y-94497021D01*
X124279827Y-94497021D01*
X124215000Y-94653527D01*
X124215000Y-94846473D01*
X124288837Y-95024731D01*
X124425269Y-95161163D01*
X124603527Y-95235000D01*
X124796473Y-95235000D01*
X124974731Y-95161163D01*
X125111163Y-95024731D01*
X125185000Y-94846473D01*
X125185000Y-94653527D01*
X125120173Y-94497021D01*
X125646595Y-94497021D01*
X125681501Y-94531927D01*
X125681500Y-94888648D01*
X125588837Y-94981311D01*
X125515000Y-95159569D01*
X125515000Y-95352515D01*
X125588837Y-95530773D01*
X125725269Y-95667205D01*
X125903527Y-95741042D01*
X126096473Y-95741042D01*
X126274731Y-95667205D01*
X126384782Y-95557154D01*
X126396967Y-95565296D01*
X126634705Y-95803034D01*
X126652473Y-95829625D01*
X126757826Y-95900020D01*
X126850732Y-95918500D01*
X126850737Y-95918500D01*
X126882098Y-95924738D01*
X126913459Y-95918500D01*
X128341075Y-95918500D01*
X128822002Y-96399428D01*
X128822002Y-96530474D01*
X128895839Y-96708732D01*
X129032271Y-96845164D01*
X129210529Y-96919001D01*
X129403475Y-96919001D01*
X129581733Y-96845164D01*
X129718165Y-96708732D01*
X129792002Y-96530474D01*
X129792002Y-96337528D01*
X129718165Y-96159270D01*
X129581733Y-96022838D01*
X129500707Y-95989276D01*
X129678624Y-95989276D01*
X130581500Y-96892153D01*
X130581501Y-97359411D01*
X130575262Y-97390776D01*
X130581501Y-97422142D01*
X130589477Y-97462242D01*
X130599981Y-97515048D01*
X130651386Y-97591980D01*
X130670376Y-97620401D01*
X130696966Y-97638168D01*
X130959777Y-97900980D01*
X130977544Y-97927570D01*
X131004134Y-97945337D01*
X131082896Y-97997965D01*
X131207169Y-98022684D01*
X131238535Y-98016445D01*
X131743981Y-98016445D01*
X131775342Y-98022683D01*
X131806703Y-98016445D01*
X131806708Y-98016445D01*
X131899614Y-97997965D01*
X132004967Y-97927570D01*
X132022736Y-97900978D01*
X132197037Y-97726677D01*
X132211500Y-97717013D01*
X132211500Y-97868073D01*
X132037466Y-98042107D01*
X132010877Y-98059874D01*
X131940481Y-98165227D01*
X131929589Y-98219984D01*
X131773785Y-98375789D01*
X131755227Y-98379480D01*
X131649874Y-98449874D01*
X131579480Y-98555227D01*
X131575789Y-98573784D01*
X130997573Y-99152001D01*
X117280086Y-99152001D01*
X116699640Y-98571556D01*
X116724731Y-98561163D01*
X116861163Y-98424731D01*
X116911367Y-98303528D01*
X120857998Y-98303528D01*
X120857998Y-98496474D01*
X120931835Y-98674732D01*
X121068267Y-98811164D01*
X121246525Y-98885001D01*
X121439471Y-98885001D01*
X121617729Y-98811164D01*
X121754161Y-98674732D01*
X121827998Y-98496474D01*
X121827998Y-98303528D01*
X121754161Y-98125270D01*
X121617729Y-97988838D01*
X121439471Y-97915001D01*
X121246525Y-97915001D01*
X121068267Y-97988838D01*
X120931835Y-98125270D01*
X120857998Y-98303528D01*
X116911367Y-98303528D01*
X116935000Y-98246473D01*
X116935000Y-98053527D01*
X116875747Y-97910478D01*
X117122545Y-97910478D01*
X117153911Y-97916717D01*
X117278183Y-97891998D01*
X117356945Y-97839371D01*
X117356946Y-97839370D01*
X117383536Y-97821603D01*
X117401303Y-97795013D01*
X117534987Y-97661329D01*
X119161580Y-97661329D01*
X119161580Y-97854275D01*
X119235417Y-98032533D01*
X119371849Y-98168965D01*
X119550107Y-98242802D01*
X119743053Y-98242802D01*
X119921311Y-98168965D01*
X120057743Y-98032533D01*
X120131580Y-97854275D01*
X120131580Y-97723228D01*
X120193479Y-97661329D01*
X122262504Y-97661329D01*
X122262504Y-97854275D01*
X122336341Y-98032533D01*
X122472773Y-98168965D01*
X122651031Y-98242802D01*
X122843977Y-98242802D01*
X123022235Y-98168965D01*
X123158667Y-98032533D01*
X123232504Y-97854275D01*
X123232504Y-97813059D01*
X123615000Y-97813059D01*
X123615000Y-98006005D01*
X123688837Y-98184263D01*
X123825269Y-98320695D01*
X124003527Y-98394532D01*
X124196473Y-98394532D01*
X124374731Y-98320695D01*
X124511163Y-98184263D01*
X124546065Y-98100000D01*
X124873000Y-98100000D01*
X124873000Y-98600000D01*
X124879517Y-98640161D01*
X124904057Y-98683211D01*
X124943204Y-98713592D01*
X125143204Y-98813592D01*
X125159839Y-98820483D01*
X125459839Y-98920483D01*
X125509003Y-98926680D01*
X125556796Y-98913592D01*
X125956796Y-98713592D01*
X125995943Y-98683211D01*
X126020483Y-98640161D01*
X126120483Y-98340161D01*
X126124586Y-98275354D01*
X126105670Y-98229553D01*
X125905670Y-97929553D01*
X125875607Y-97897958D01*
X125830802Y-97876792D01*
X125430802Y-97776792D01*
X125390997Y-97773320D01*
X125343204Y-97786408D01*
X124943204Y-97986408D01*
X124910197Y-98010197D01*
X124882667Y-98051399D01*
X124873000Y-98100000D01*
X124546065Y-98100000D01*
X124585000Y-98006005D01*
X124585000Y-97813059D01*
X124511163Y-97634801D01*
X124374731Y-97498369D01*
X124196473Y-97424532D01*
X124003527Y-97424532D01*
X123825269Y-97498369D01*
X123688837Y-97634801D01*
X123615000Y-97813059D01*
X123232504Y-97813059D01*
X123232504Y-97661329D01*
X123158667Y-97483071D01*
X123022235Y-97346639D01*
X122843977Y-97272802D01*
X122651031Y-97272802D01*
X122472773Y-97346639D01*
X122336341Y-97483071D01*
X122262504Y-97661329D01*
X120193479Y-97661329D01*
X121288017Y-96566791D01*
X126795000Y-96566791D01*
X126795000Y-96767693D01*
X126871881Y-96953302D01*
X127013940Y-97095361D01*
X127199549Y-97172242D01*
X127400451Y-97172242D01*
X127586060Y-97095361D01*
X127728119Y-96953302D01*
X127805000Y-96767693D01*
X127805000Y-96566791D01*
X127728119Y-96381182D01*
X127586060Y-96239123D01*
X127400451Y-96162242D01*
X127199549Y-96162242D01*
X127013940Y-96239123D01*
X126871881Y-96381182D01*
X126795000Y-96566791D01*
X121288017Y-96566791D01*
X121653036Y-96201773D01*
X121679625Y-96184007D01*
X121750020Y-96078654D01*
X121768500Y-95985748D01*
X121768500Y-95985744D01*
X121774738Y-95954383D01*
X121768500Y-95923022D01*
X121768500Y-94703527D01*
X122315000Y-94703527D01*
X122315000Y-94896473D01*
X122388837Y-95074731D01*
X122525269Y-95211163D01*
X122703527Y-95285000D01*
X122896473Y-95285000D01*
X123074731Y-95211163D01*
X123211163Y-95074731D01*
X123285000Y-94896473D01*
X123285000Y-94703527D01*
X123211163Y-94525269D01*
X123074731Y-94388837D01*
X122896473Y-94315000D01*
X122703527Y-94315000D01*
X122525269Y-94388837D01*
X122388837Y-94525269D01*
X122315000Y-94703527D01*
X121768500Y-94703527D01*
X121768500Y-93867393D01*
X121861163Y-93774730D01*
X121935000Y-93596472D01*
X121935000Y-93403526D01*
X121861163Y-93225268D01*
X121724731Y-93088836D01*
X121546473Y-93014999D01*
X121353527Y-93014999D01*
X121175269Y-93088836D01*
X121038837Y-93225268D01*
X120965000Y-93403526D01*
X120965000Y-93596472D01*
X121038837Y-93774730D01*
X121131501Y-93867394D01*
X121131500Y-95822455D01*
X119681154Y-97272802D01*
X119550107Y-97272802D01*
X119371849Y-97346639D01*
X119235417Y-97483071D01*
X119161580Y-97661329D01*
X117534987Y-97661329D01*
X118573035Y-96623282D01*
X118599625Y-96605515D01*
X118617392Y-96578925D01*
X118670020Y-96500163D01*
X118694739Y-96375890D01*
X118688500Y-96344524D01*
X118688500Y-95461926D01*
X119415000Y-94735426D01*
X119415000Y-94896473D01*
X119488837Y-95074731D01*
X119625269Y-95211163D01*
X119803527Y-95285000D01*
X119996473Y-95285000D01*
X120174731Y-95211163D01*
X120311163Y-95074731D01*
X120385000Y-94896473D01*
X120385000Y-94703527D01*
X120311163Y-94525269D01*
X120174731Y-94388837D01*
X119996473Y-94315000D01*
X119835427Y-94315000D01*
X120165427Y-93985000D01*
X120296473Y-93985000D01*
X120474731Y-93911163D01*
X120611163Y-93774731D01*
X120685000Y-93596473D01*
X120685000Y-93403527D01*
X120611163Y-93225269D01*
X120474731Y-93088837D01*
X120296473Y-93015000D01*
X120103527Y-93015000D01*
X119925269Y-93088837D01*
X119788837Y-93225269D01*
X119715000Y-93403527D01*
X119715000Y-93534573D01*
X118433159Y-94816415D01*
X118411614Y-94708098D01*
X118358987Y-94629336D01*
X118358984Y-94629333D01*
X118341219Y-94602746D01*
X118314632Y-94584981D01*
X117718500Y-93988850D01*
X117718500Y-93867394D01*
X117811163Y-93774731D01*
X117885000Y-93596473D01*
X117885000Y-93403527D01*
X117811163Y-93225269D01*
X117674731Y-93088837D01*
X117649640Y-93078444D01*
X118147555Y-92580530D01*
X121930104Y-92580530D01*
X122360999Y-93011426D01*
X122360999Y-93011426D01*
G37*
X122360999Y-93011426D02*
X122360999Y-93048138D01*
X122354761Y-93079499D01*
X122360999Y-93110860D01*
X122360999Y-93110864D01*
X122379479Y-93203770D01*
X122449874Y-93309124D01*
X122476467Y-93326893D01*
X122615000Y-93465426D01*
X122615000Y-93596473D01*
X122688837Y-93774731D01*
X122825269Y-93911163D01*
X123003527Y-93985000D01*
X123196473Y-93985000D01*
X123374731Y-93911163D01*
X123443998Y-93841896D01*
X123983656Y-94381555D01*
X124001424Y-94408146D01*
X124106777Y-94478541D01*
X124199683Y-94497021D01*
X124199687Y-94497021D01*
X124231048Y-94503259D01*
X124262409Y-94497021D01*
X124279827Y-94497021D01*
X124215000Y-94653527D01*
X124215000Y-94846473D01*
X124288837Y-95024731D01*
X124425269Y-95161163D01*
X124603527Y-95235000D01*
X124796473Y-95235000D01*
X124974731Y-95161163D01*
X125111163Y-95024731D01*
X125185000Y-94846473D01*
X125185000Y-94653527D01*
X125120173Y-94497021D01*
X125646595Y-94497021D01*
X125681501Y-94531927D01*
X125681500Y-94888648D01*
X125588837Y-94981311D01*
X125515000Y-95159569D01*
X125515000Y-95352515D01*
X125588837Y-95530773D01*
X125725269Y-95667205D01*
X125903527Y-95741042D01*
X126096473Y-95741042D01*
X126274731Y-95667205D01*
X126384782Y-95557154D01*
X126396967Y-95565296D01*
X126634705Y-95803034D01*
X126652473Y-95829625D01*
X126757826Y-95900020D01*
X126850732Y-95918500D01*
X126850737Y-95918500D01*
X126882098Y-95924738D01*
X126913459Y-95918500D01*
X128341075Y-95918500D01*
X128822002Y-96399428D01*
X128822002Y-96530474D01*
X128895839Y-96708732D01*
X129032271Y-96845164D01*
X129210529Y-96919001D01*
X129403475Y-96919001D01*
X129581733Y-96845164D01*
X129718165Y-96708732D01*
X129792002Y-96530474D01*
X129792002Y-96337528D01*
X129718165Y-96159270D01*
X129581733Y-96022838D01*
X129500707Y-95989276D01*
X129678624Y-95989276D01*
X130581500Y-96892153D01*
X130581501Y-97359411D01*
X130575262Y-97390776D01*
X130581501Y-97422142D01*
X130589477Y-97462242D01*
X130599981Y-97515048D01*
X130651386Y-97591980D01*
X130670376Y-97620401D01*
X130696966Y-97638168D01*
X130959777Y-97900980D01*
X130977544Y-97927570D01*
X131004134Y-97945337D01*
X131082896Y-97997965D01*
X131207169Y-98022684D01*
X131238535Y-98016445D01*
X131743981Y-98016445D01*
X131775342Y-98022683D01*
X131806703Y-98016445D01*
X131806708Y-98016445D01*
X131899614Y-97997965D01*
X132004967Y-97927570D01*
X132022736Y-97900978D01*
X132197037Y-97726677D01*
X132211500Y-97717013D01*
X132211500Y-97868073D01*
X132037466Y-98042107D01*
X132010877Y-98059874D01*
X131940481Y-98165227D01*
X131929589Y-98219984D01*
X131773785Y-98375789D01*
X131755227Y-98379480D01*
X131649874Y-98449874D01*
X131579480Y-98555227D01*
X131575789Y-98573784D01*
X130997573Y-99152001D01*
X117280086Y-99152001D01*
X116699640Y-98571556D01*
X116724731Y-98561163D01*
X116861163Y-98424731D01*
X116911367Y-98303528D01*
X120857998Y-98303528D01*
X120857998Y-98496474D01*
X120931835Y-98674732D01*
X121068267Y-98811164D01*
X121246525Y-98885001D01*
X121439471Y-98885001D01*
X121617729Y-98811164D01*
X121754161Y-98674732D01*
X121827998Y-98496474D01*
X121827998Y-98303528D01*
X121754161Y-98125270D01*
X121617729Y-97988838D01*
X121439471Y-97915001D01*
X121246525Y-97915001D01*
X121068267Y-97988838D01*
X120931835Y-98125270D01*
X120857998Y-98303528D01*
X116911367Y-98303528D01*
X116935000Y-98246473D01*
X116935000Y-98053527D01*
X116875747Y-97910478D01*
X117122545Y-97910478D01*
X117153911Y-97916717D01*
X117278183Y-97891998D01*
X117356945Y-97839371D01*
X117356946Y-97839370D01*
X117383536Y-97821603D01*
X117401303Y-97795013D01*
X117534987Y-97661329D01*
X119161580Y-97661329D01*
X119161580Y-97854275D01*
X119235417Y-98032533D01*
X119371849Y-98168965D01*
X119550107Y-98242802D01*
X119743053Y-98242802D01*
X119921311Y-98168965D01*
X120057743Y-98032533D01*
X120131580Y-97854275D01*
X120131580Y-97723228D01*
X120193479Y-97661329D01*
X122262504Y-97661329D01*
X122262504Y-97854275D01*
X122336341Y-98032533D01*
X122472773Y-98168965D01*
X122651031Y-98242802D01*
X122843977Y-98242802D01*
X123022235Y-98168965D01*
X123158667Y-98032533D01*
X123232504Y-97854275D01*
X123232504Y-97813059D01*
X123615000Y-97813059D01*
X123615000Y-98006005D01*
X123688837Y-98184263D01*
X123825269Y-98320695D01*
X124003527Y-98394532D01*
X124196473Y-98394532D01*
X124374731Y-98320695D01*
X124511163Y-98184263D01*
X124546065Y-98100000D01*
X124873000Y-98100000D01*
X124873000Y-98600000D01*
X124879517Y-98640161D01*
X124904057Y-98683211D01*
X124943204Y-98713592D01*
X125143204Y-98813592D01*
X125159839Y-98820483D01*
X125459839Y-98920483D01*
X125509003Y-98926680D01*
X125556796Y-98913592D01*
X125956796Y-98713592D01*
X125995943Y-98683211D01*
X126020483Y-98640161D01*
X126120483Y-98340161D01*
X126124586Y-98275354D01*
X126105670Y-98229553D01*
X125905670Y-97929553D01*
X125875607Y-97897958D01*
X125830802Y-97876792D01*
X125430802Y-97776792D01*
X125390997Y-97773320D01*
X125343204Y-97786408D01*
X124943204Y-97986408D01*
X124910197Y-98010197D01*
X124882667Y-98051399D01*
X124873000Y-98100000D01*
X124546065Y-98100000D01*
X124585000Y-98006005D01*
X124585000Y-97813059D01*
X124511163Y-97634801D01*
X124374731Y-97498369D01*
X124196473Y-97424532D01*
X124003527Y-97424532D01*
X123825269Y-97498369D01*
X123688837Y-97634801D01*
X123615000Y-97813059D01*
X123232504Y-97813059D01*
X123232504Y-97661329D01*
X123158667Y-97483071D01*
X123022235Y-97346639D01*
X122843977Y-97272802D01*
X122651031Y-97272802D01*
X122472773Y-97346639D01*
X122336341Y-97483071D01*
X122262504Y-97661329D01*
X120193479Y-97661329D01*
X121288017Y-96566791D01*
X126795000Y-96566791D01*
X126795000Y-96767693D01*
X126871881Y-96953302D01*
X127013940Y-97095361D01*
X127199549Y-97172242D01*
X127400451Y-97172242D01*
X127586060Y-97095361D01*
X127728119Y-96953302D01*
X127805000Y-96767693D01*
X127805000Y-96566791D01*
X127728119Y-96381182D01*
X127586060Y-96239123D01*
X127400451Y-96162242D01*
X127199549Y-96162242D01*
X127013940Y-96239123D01*
X126871881Y-96381182D01*
X126795000Y-96566791D01*
X121288017Y-96566791D01*
X121653036Y-96201773D01*
X121679625Y-96184007D01*
X121750020Y-96078654D01*
X121768500Y-95985748D01*
X121768500Y-95985744D01*
X121774738Y-95954383D01*
X121768500Y-95923022D01*
X121768500Y-94703527D01*
X122315000Y-94703527D01*
X122315000Y-94896473D01*
X122388837Y-95074731D01*
X122525269Y-95211163D01*
X122703527Y-95285000D01*
X122896473Y-95285000D01*
X123074731Y-95211163D01*
X123211163Y-95074731D01*
X123285000Y-94896473D01*
X123285000Y-94703527D01*
X123211163Y-94525269D01*
X123074731Y-94388837D01*
X122896473Y-94315000D01*
X122703527Y-94315000D01*
X122525269Y-94388837D01*
X122388837Y-94525269D01*
X122315000Y-94703527D01*
X121768500Y-94703527D01*
X121768500Y-93867393D01*
X121861163Y-93774730D01*
X121935000Y-93596472D01*
X121935000Y-93403526D01*
X121861163Y-93225268D01*
X121724731Y-93088836D01*
X121546473Y-93014999D01*
X121353527Y-93014999D01*
X121175269Y-93088836D01*
X121038837Y-93225268D01*
X120965000Y-93403526D01*
X120965000Y-93596472D01*
X121038837Y-93774730D01*
X121131501Y-93867394D01*
X121131500Y-95822455D01*
X119681154Y-97272802D01*
X119550107Y-97272802D01*
X119371849Y-97346639D01*
X119235417Y-97483071D01*
X119161580Y-97661329D01*
X117534987Y-97661329D01*
X118573035Y-96623282D01*
X118599625Y-96605515D01*
X118617392Y-96578925D01*
X118670020Y-96500163D01*
X118694739Y-96375890D01*
X118688500Y-96344524D01*
X118688500Y-95461926D01*
X119415000Y-94735426D01*
X119415000Y-94896473D01*
X119488837Y-95074731D01*
X119625269Y-95211163D01*
X119803527Y-95285000D01*
X119996473Y-95285000D01*
X120174731Y-95211163D01*
X120311163Y-95074731D01*
X120385000Y-94896473D01*
X120385000Y-94703527D01*
X120311163Y-94525269D01*
X120174731Y-94388837D01*
X119996473Y-94315000D01*
X119835427Y-94315000D01*
X120165427Y-93985000D01*
X120296473Y-93985000D01*
X120474731Y-93911163D01*
X120611163Y-93774731D01*
X120685000Y-93596473D01*
X120685000Y-93403527D01*
X120611163Y-93225269D01*
X120474731Y-93088837D01*
X120296473Y-93015000D01*
X120103527Y-93015000D01*
X119925269Y-93088837D01*
X119788837Y-93225269D01*
X119715000Y-93403527D01*
X119715000Y-93534573D01*
X118433159Y-94816415D01*
X118411614Y-94708098D01*
X118358987Y-94629336D01*
X118358984Y-94629333D01*
X118341219Y-94602746D01*
X118314632Y-94584981D01*
X117718500Y-93988850D01*
X117718500Y-93867394D01*
X117811163Y-93774731D01*
X117885000Y-93596473D01*
X117885000Y-93403527D01*
X117811163Y-93225269D01*
X117674731Y-93088837D01*
X117649640Y-93078444D01*
X118147555Y-92580530D01*
X121930104Y-92580530D01*
X122360999Y-93011426D01*
G36*
X111584096Y-96745873D02*
X111596904Y-96765042D01*
X111027000Y-96765042D01*
X111027000Y-96188777D01*
X111584096Y-96745873D01*
X111584096Y-96745873D01*
G37*
X111584096Y-96745873D02*
X111596904Y-96765042D01*
X111027000Y-96765042D01*
X111027000Y-96188777D01*
X111584096Y-96745873D01*
G36*
X121565000Y-82546525D02*
X121565000Y-82739471D01*
X121638837Y-82917729D01*
X121775269Y-83054161D01*
X121953527Y-83127998D01*
X122146473Y-83127998D01*
X122324731Y-83054161D01*
X122461163Y-82917729D01*
X122535000Y-82739471D01*
X122535000Y-82546525D01*
X122526912Y-82527000D01*
X127117409Y-82527000D01*
X127065000Y-82653527D01*
X127065000Y-82846473D01*
X127138837Y-83024731D01*
X127275269Y-83161163D01*
X127453527Y-83235000D01*
X127584574Y-83235000D01*
X128130570Y-83780997D01*
X125943884Y-83780997D01*
X125904002Y-83773064D01*
X125864120Y-83780997D01*
X125864116Y-83780997D01*
X125745980Y-83804496D01*
X125745978Y-83804497D01*
X125745979Y-83804497D01*
X125645828Y-83871415D01*
X125645826Y-83871417D01*
X125612015Y-83894009D01*
X125589423Y-83927820D01*
X124215244Y-85302001D01*
X124152880Y-85302001D01*
X124112998Y-85294068D01*
X124073116Y-85302001D01*
X124073112Y-85302001D01*
X123954976Y-85325500D01*
X123821011Y-85415013D01*
X123798417Y-85448827D01*
X123691826Y-85555419D01*
X123658013Y-85578012D01*
X123635419Y-85611826D01*
X123635418Y-85611827D01*
X123568499Y-85711978D01*
X123537067Y-85870000D01*
X123545001Y-85909887D01*
X123545000Y-88265000D01*
X122687763Y-88265000D01*
X122640000Y-88255499D01*
X122592237Y-88265000D01*
X122592236Y-88265000D01*
X122450763Y-88293141D01*
X122416763Y-88315859D01*
X122359666Y-88354010D01*
X122290335Y-88400335D01*
X122263280Y-88440826D01*
X121214256Y-89489851D01*
X117515012Y-89489851D01*
X117517302Y-89484323D01*
X117517302Y-89291377D01*
X117443465Y-89113119D01*
X117422851Y-89092505D01*
X117439766Y-89075590D01*
X117513603Y-88897332D01*
X117513603Y-88704386D01*
X117439766Y-88526128D01*
X117419819Y-88506181D01*
X117437407Y-88488593D01*
X117511244Y-88310335D01*
X117511244Y-88117389D01*
X117437407Y-87939131D01*
X117300975Y-87802699D01*
X117122717Y-87728862D01*
X116929771Y-87728862D01*
X116785000Y-87788828D01*
X116785000Y-87653527D01*
X116711163Y-87475269D01*
X116574731Y-87338837D01*
X116396473Y-87265000D01*
X116203527Y-87265000D01*
X116025269Y-87338837D01*
X115888837Y-87475269D01*
X115815000Y-87653527D01*
X115815000Y-87846473D01*
X115888837Y-88024731D01*
X116025269Y-88161163D01*
X116203527Y-88235000D01*
X116396473Y-88235000D01*
X116541244Y-88175034D01*
X116541244Y-88310335D01*
X116615081Y-88488593D01*
X116635028Y-88508540D01*
X116617440Y-88526128D01*
X116543603Y-88704386D01*
X116543603Y-88897332D01*
X116617440Y-89075590D01*
X116638054Y-89096204D01*
X116621139Y-89113119D01*
X116547302Y-89291377D01*
X116547302Y-89484323D01*
X116549592Y-89489851D01*
X116344506Y-89489851D01*
X115089655Y-88235000D01*
X115196473Y-88235000D01*
X115374731Y-88161163D01*
X115511163Y-88024731D01*
X115585000Y-87846473D01*
X115585000Y-87653527D01*
X115511163Y-87475269D01*
X115374731Y-87338837D01*
X115196473Y-87265000D01*
X115003527Y-87265000D01*
X114825269Y-87338837D01*
X114688837Y-87475269D01*
X114615000Y-87653527D01*
X114615000Y-87760345D01*
X113795484Y-86940829D01*
X113768427Y-86900335D01*
X113607999Y-86793141D01*
X113466526Y-86765000D01*
X113466521Y-86765000D01*
X113418762Y-86755500D01*
X113371003Y-86765000D01*
X113159995Y-86765000D01*
X113159995Y-86650000D01*
X113157219Y-86636042D01*
X116364428Y-86636042D01*
X116364428Y-86828988D01*
X116438265Y-87007246D01*
X116574697Y-87143678D01*
X116752955Y-87217515D01*
X116945901Y-87217515D01*
X117124159Y-87143678D01*
X117260591Y-87007246D01*
X117334428Y-86828988D01*
X117334428Y-86636042D01*
X117260591Y-86457784D01*
X117124159Y-86321352D01*
X116945901Y-86247515D01*
X116752955Y-86247515D01*
X116574697Y-86321352D01*
X116438265Y-86457784D01*
X116364428Y-86636042D01*
X113157219Y-86636042D01*
X113140204Y-86550504D01*
X113083844Y-86466156D01*
X112999496Y-86409796D01*
X112900000Y-86390005D01*
X111700000Y-86390005D01*
X111600504Y-86409796D01*
X111516156Y-86466156D01*
X111459796Y-86550504D01*
X111440005Y-86650000D01*
X111440005Y-87850000D01*
X111459796Y-87949496D01*
X111493542Y-88000000D01*
X111459796Y-88050504D01*
X111440005Y-88150000D01*
X111440005Y-89350000D01*
X111459796Y-89449496D01*
X111493542Y-89500000D01*
X111459796Y-89550504D01*
X111440005Y-89650000D01*
X111440005Y-90850000D01*
X111459796Y-90949496D01*
X111493542Y-91000000D01*
X111459796Y-91050504D01*
X111440005Y-91150000D01*
X111440005Y-92350000D01*
X111459796Y-92449496D01*
X111493542Y-92500000D01*
X111459796Y-92550504D01*
X111440005Y-92650000D01*
X111440005Y-93850000D01*
X111459796Y-93949496D01*
X111516156Y-94033844D01*
X111600504Y-94090204D01*
X111700000Y-94109995D01*
X112900000Y-94109995D01*
X112999496Y-94090204D01*
X113083844Y-94033844D01*
X113140204Y-93949496D01*
X113159995Y-93850000D01*
X113159995Y-92650000D01*
X113140204Y-92550504D01*
X113106458Y-92500000D01*
X113140204Y-92449496D01*
X113159995Y-92350000D01*
X113159995Y-91727779D01*
X113160529Y-91728000D01*
X113291576Y-91728000D01*
X114592099Y-93028524D01*
X114609866Y-93055114D01*
X114636456Y-93072881D01*
X114643996Y-93077919D01*
X114715219Y-93125509D01*
X114808125Y-93143989D01*
X114808129Y-93143989D01*
X114839490Y-93150227D01*
X114870851Y-93143989D01*
X115333802Y-93143989D01*
X115331513Y-93149516D01*
X115331513Y-93320935D01*
X115196473Y-93265000D01*
X115003527Y-93265000D01*
X114825269Y-93338837D01*
X114688837Y-93475269D01*
X114615000Y-93653527D01*
X114615000Y-93846473D01*
X114688837Y-94024731D01*
X114825269Y-94161163D01*
X115003527Y-94235000D01*
X115196473Y-94235000D01*
X115258842Y-94209166D01*
X115036508Y-94431500D01*
X113624396Y-94431500D01*
X113531733Y-94338837D01*
X113353475Y-94265000D01*
X113160529Y-94265000D01*
X112982271Y-94338837D01*
X112845839Y-94475269D01*
X112772002Y-94653527D01*
X112772002Y-94846473D01*
X112845839Y-95024731D01*
X112982271Y-95161163D01*
X113160529Y-95235000D01*
X113353475Y-95235000D01*
X113531733Y-95161163D01*
X113624396Y-95068500D01*
X115137073Y-95068500D01*
X115168434Y-95074738D01*
X115199795Y-95068500D01*
X115199800Y-95068500D01*
X115292706Y-95050020D01*
X115398059Y-94979625D01*
X115415828Y-94953032D01*
X116656795Y-93712066D01*
X116660999Y-93733202D01*
X116660999Y-93733207D01*
X116678260Y-93819981D01*
X116679480Y-93826113D01*
X116722419Y-93890375D01*
X116749875Y-93931466D01*
X116761500Y-93939234D01*
X116761500Y-94128639D01*
X116755262Y-94160000D01*
X116761500Y-94191361D01*
X116761500Y-94191366D01*
X116778705Y-94277858D01*
X116779981Y-94284272D01*
X116826754Y-94354272D01*
X116844521Y-94380863D01*
X116825269Y-94388837D01*
X116688837Y-94525269D01*
X116615000Y-94703527D01*
X116615000Y-94896473D01*
X116688837Y-95074731D01*
X116732755Y-95118649D01*
X116678352Y-95155000D01*
X116543527Y-95155000D01*
X116365269Y-95228837D01*
X116228837Y-95365269D01*
X116217599Y-95392399D01*
X116195697Y-95383327D01*
X116002751Y-95383327D01*
X115824493Y-95457164D01*
X115731830Y-95549827D01*
X112007352Y-95549827D01*
X111027000Y-94569475D01*
X111027000Y-89800000D01*
X111017333Y-89751399D01*
X110989803Y-89710197D01*
X110948601Y-89682667D01*
X110900000Y-89673000D01*
X97258894Y-89673000D01*
X97224731Y-89638837D01*
X97070615Y-89575000D01*
X97224731Y-89511163D01*
X97361163Y-89374731D01*
X97435000Y-89196473D01*
X97435000Y-89003527D01*
X97361163Y-88825269D01*
X97224731Y-88688837D01*
X97046473Y-88615000D01*
X96853527Y-88615000D01*
X96675269Y-88688837D01*
X96538837Y-88825269D01*
X96465000Y-89003527D01*
X96465000Y-89196473D01*
X96538837Y-89374731D01*
X96675269Y-89511163D01*
X96829385Y-89575000D01*
X96675269Y-89638837D01*
X96641106Y-89673000D01*
X95677000Y-89673000D01*
X95677000Y-87852357D01*
X95968438Y-87789001D01*
X104703326Y-87789001D01*
X104738837Y-87874731D01*
X104875269Y-88011163D01*
X105053527Y-88085000D01*
X105246473Y-88085000D01*
X105424731Y-88011163D01*
X105561163Y-87874731D01*
X105635000Y-87696473D01*
X105635000Y-87503527D01*
X105561163Y-87325269D01*
X105454111Y-87218217D01*
X107949901Y-84672510D01*
X114573853Y-84672510D01*
X114605214Y-84678748D01*
X114636575Y-84672510D01*
X114636580Y-84672510D01*
X114729486Y-84654030D01*
X114834839Y-84583635D01*
X114852608Y-84557042D01*
X115898988Y-83510663D01*
X115827998Y-83682047D01*
X115827998Y-83874993D01*
X115901835Y-84053251D01*
X116038267Y-84189683D01*
X116216525Y-84263520D01*
X116409471Y-84263520D01*
X116587729Y-84189683D01*
X116724161Y-84053251D01*
X116797998Y-83874993D01*
X116797998Y-83682047D01*
X116724161Y-83503789D01*
X116587729Y-83367357D01*
X116567556Y-83359001D01*
X117015000Y-83359001D01*
X117015000Y-83366973D01*
X117088837Y-83545231D01*
X117225269Y-83681663D01*
X117403527Y-83755500D01*
X117596473Y-83755500D01*
X117774731Y-83681663D01*
X117911163Y-83545231D01*
X117985000Y-83366973D01*
X117985000Y-83174027D01*
X117911163Y-82995769D01*
X117833894Y-82918500D01*
X117906919Y-82918500D01*
X118261954Y-83273536D01*
X118279721Y-83300126D01*
X118385074Y-83370521D01*
X118477980Y-83389001D01*
X118477985Y-83389001D01*
X118509346Y-83395239D01*
X118540707Y-83389001D01*
X120423407Y-83389001D01*
X120454768Y-83395239D01*
X120486129Y-83389001D01*
X120486134Y-83389001D01*
X120579040Y-83370521D01*
X120684393Y-83300126D01*
X120702162Y-83273533D01*
X120753033Y-83222662D01*
X120779625Y-83204894D01*
X120850020Y-83099541D01*
X120865829Y-83020065D01*
X120961163Y-82924731D01*
X121035000Y-82746473D01*
X121035000Y-82553527D01*
X121024012Y-82527000D01*
X121573088Y-82527000D01*
X121565000Y-82546525D01*
X121565000Y-82546525D01*
G37*
X121565000Y-82546525D02*
X121565000Y-82739471D01*
X121638837Y-82917729D01*
X121775269Y-83054161D01*
X121953527Y-83127998D01*
X122146473Y-83127998D01*
X122324731Y-83054161D01*
X122461163Y-82917729D01*
X122535000Y-82739471D01*
X122535000Y-82546525D01*
X122526912Y-82527000D01*
X127117409Y-82527000D01*
X127065000Y-82653527D01*
X127065000Y-82846473D01*
X127138837Y-83024731D01*
X127275269Y-83161163D01*
X127453527Y-83235000D01*
X127584574Y-83235000D01*
X128130570Y-83780997D01*
X125943884Y-83780997D01*
X125904002Y-83773064D01*
X125864120Y-83780997D01*
X125864116Y-83780997D01*
X125745980Y-83804496D01*
X125745978Y-83804497D01*
X125745979Y-83804497D01*
X125645828Y-83871415D01*
X125645826Y-83871417D01*
X125612015Y-83894009D01*
X125589423Y-83927820D01*
X124215244Y-85302001D01*
X124152880Y-85302001D01*
X124112998Y-85294068D01*
X124073116Y-85302001D01*
X124073112Y-85302001D01*
X123954976Y-85325500D01*
X123821011Y-85415013D01*
X123798417Y-85448827D01*
X123691826Y-85555419D01*
X123658013Y-85578012D01*
X123635419Y-85611826D01*
X123635418Y-85611827D01*
X123568499Y-85711978D01*
X123537067Y-85870000D01*
X123545001Y-85909887D01*
X123545000Y-88265000D01*
X122687763Y-88265000D01*
X122640000Y-88255499D01*
X122592237Y-88265000D01*
X122592236Y-88265000D01*
X122450763Y-88293141D01*
X122416763Y-88315859D01*
X122359666Y-88354010D01*
X122290335Y-88400335D01*
X122263280Y-88440826D01*
X121214256Y-89489851D01*
X117515012Y-89489851D01*
X117517302Y-89484323D01*
X117517302Y-89291377D01*
X117443465Y-89113119D01*
X117422851Y-89092505D01*
X117439766Y-89075590D01*
X117513603Y-88897332D01*
X117513603Y-88704386D01*
X117439766Y-88526128D01*
X117419819Y-88506181D01*
X117437407Y-88488593D01*
X117511244Y-88310335D01*
X117511244Y-88117389D01*
X117437407Y-87939131D01*
X117300975Y-87802699D01*
X117122717Y-87728862D01*
X116929771Y-87728862D01*
X116785000Y-87788828D01*
X116785000Y-87653527D01*
X116711163Y-87475269D01*
X116574731Y-87338837D01*
X116396473Y-87265000D01*
X116203527Y-87265000D01*
X116025269Y-87338837D01*
X115888837Y-87475269D01*
X115815000Y-87653527D01*
X115815000Y-87846473D01*
X115888837Y-88024731D01*
X116025269Y-88161163D01*
X116203527Y-88235000D01*
X116396473Y-88235000D01*
X116541244Y-88175034D01*
X116541244Y-88310335D01*
X116615081Y-88488593D01*
X116635028Y-88508540D01*
X116617440Y-88526128D01*
X116543603Y-88704386D01*
X116543603Y-88897332D01*
X116617440Y-89075590D01*
X116638054Y-89096204D01*
X116621139Y-89113119D01*
X116547302Y-89291377D01*
X116547302Y-89484323D01*
X116549592Y-89489851D01*
X116344506Y-89489851D01*
X115089655Y-88235000D01*
X115196473Y-88235000D01*
X115374731Y-88161163D01*
X115511163Y-88024731D01*
X115585000Y-87846473D01*
X115585000Y-87653527D01*
X115511163Y-87475269D01*
X115374731Y-87338837D01*
X115196473Y-87265000D01*
X115003527Y-87265000D01*
X114825269Y-87338837D01*
X114688837Y-87475269D01*
X114615000Y-87653527D01*
X114615000Y-87760345D01*
X113795484Y-86940829D01*
X113768427Y-86900335D01*
X113607999Y-86793141D01*
X113466526Y-86765000D01*
X113466521Y-86765000D01*
X113418762Y-86755500D01*
X113371003Y-86765000D01*
X113159995Y-86765000D01*
X113159995Y-86650000D01*
X113157219Y-86636042D01*
X116364428Y-86636042D01*
X116364428Y-86828988D01*
X116438265Y-87007246D01*
X116574697Y-87143678D01*
X116752955Y-87217515D01*
X116945901Y-87217515D01*
X117124159Y-87143678D01*
X117260591Y-87007246D01*
X117334428Y-86828988D01*
X117334428Y-86636042D01*
X117260591Y-86457784D01*
X117124159Y-86321352D01*
X116945901Y-86247515D01*
X116752955Y-86247515D01*
X116574697Y-86321352D01*
X116438265Y-86457784D01*
X116364428Y-86636042D01*
X113157219Y-86636042D01*
X113140204Y-86550504D01*
X113083844Y-86466156D01*
X112999496Y-86409796D01*
X112900000Y-86390005D01*
X111700000Y-86390005D01*
X111600504Y-86409796D01*
X111516156Y-86466156D01*
X111459796Y-86550504D01*
X111440005Y-86650000D01*
X111440005Y-87850000D01*
X111459796Y-87949496D01*
X111493542Y-88000000D01*
X111459796Y-88050504D01*
X111440005Y-88150000D01*
X111440005Y-89350000D01*
X111459796Y-89449496D01*
X111493542Y-89500000D01*
X111459796Y-89550504D01*
X111440005Y-89650000D01*
X111440005Y-90850000D01*
X111459796Y-90949496D01*
X111493542Y-91000000D01*
X111459796Y-91050504D01*
X111440005Y-91150000D01*
X111440005Y-92350000D01*
X111459796Y-92449496D01*
X111493542Y-92500000D01*
X111459796Y-92550504D01*
X111440005Y-92650000D01*
X111440005Y-93850000D01*
X111459796Y-93949496D01*
X111516156Y-94033844D01*
X111600504Y-94090204D01*
X111700000Y-94109995D01*
X112900000Y-94109995D01*
X112999496Y-94090204D01*
X113083844Y-94033844D01*
X113140204Y-93949496D01*
X113159995Y-93850000D01*
X113159995Y-92650000D01*
X113140204Y-92550504D01*
X113106458Y-92500000D01*
X113140204Y-92449496D01*
X113159995Y-92350000D01*
X113159995Y-91727779D01*
X113160529Y-91728000D01*
X113291576Y-91728000D01*
X114592099Y-93028524D01*
X114609866Y-93055114D01*
X114636456Y-93072881D01*
X114643996Y-93077919D01*
X114715219Y-93125509D01*
X114808125Y-93143989D01*
X114808129Y-93143989D01*
X114839490Y-93150227D01*
X114870851Y-93143989D01*
X115333802Y-93143989D01*
X115331513Y-93149516D01*
X115331513Y-93320935D01*
X115196473Y-93265000D01*
X115003527Y-93265000D01*
X114825269Y-93338837D01*
X114688837Y-93475269D01*
X114615000Y-93653527D01*
X114615000Y-93846473D01*
X114688837Y-94024731D01*
X114825269Y-94161163D01*
X115003527Y-94235000D01*
X115196473Y-94235000D01*
X115258842Y-94209166D01*
X115036508Y-94431500D01*
X113624396Y-94431500D01*
X113531733Y-94338837D01*
X113353475Y-94265000D01*
X113160529Y-94265000D01*
X112982271Y-94338837D01*
X112845839Y-94475269D01*
X112772002Y-94653527D01*
X112772002Y-94846473D01*
X112845839Y-95024731D01*
X112982271Y-95161163D01*
X113160529Y-95235000D01*
X113353475Y-95235000D01*
X113531733Y-95161163D01*
X113624396Y-95068500D01*
X115137073Y-95068500D01*
X115168434Y-95074738D01*
X115199795Y-95068500D01*
X115199800Y-95068500D01*
X115292706Y-95050020D01*
X115398059Y-94979625D01*
X115415828Y-94953032D01*
X116656795Y-93712066D01*
X116660999Y-93733202D01*
X116660999Y-93733207D01*
X116678260Y-93819981D01*
X116679480Y-93826113D01*
X116722419Y-93890375D01*
X116749875Y-93931466D01*
X116761500Y-93939234D01*
X116761500Y-94128639D01*
X116755262Y-94160000D01*
X116761500Y-94191361D01*
X116761500Y-94191366D01*
X116778705Y-94277858D01*
X116779981Y-94284272D01*
X116826754Y-94354272D01*
X116844521Y-94380863D01*
X116825269Y-94388837D01*
X116688837Y-94525269D01*
X116615000Y-94703527D01*
X116615000Y-94896473D01*
X116688837Y-95074731D01*
X116732755Y-95118649D01*
X116678352Y-95155000D01*
X116543527Y-95155000D01*
X116365269Y-95228837D01*
X116228837Y-95365269D01*
X116217599Y-95392399D01*
X116195697Y-95383327D01*
X116002751Y-95383327D01*
X115824493Y-95457164D01*
X115731830Y-95549827D01*
X112007352Y-95549827D01*
X111027000Y-94569475D01*
X111027000Y-89800000D01*
X111017333Y-89751399D01*
X110989803Y-89710197D01*
X110948601Y-89682667D01*
X110900000Y-89673000D01*
X97258894Y-89673000D01*
X97224731Y-89638837D01*
X97070615Y-89575000D01*
X97224731Y-89511163D01*
X97361163Y-89374731D01*
X97435000Y-89196473D01*
X97435000Y-89003527D01*
X97361163Y-88825269D01*
X97224731Y-88688837D01*
X97046473Y-88615000D01*
X96853527Y-88615000D01*
X96675269Y-88688837D01*
X96538837Y-88825269D01*
X96465000Y-89003527D01*
X96465000Y-89196473D01*
X96538837Y-89374731D01*
X96675269Y-89511163D01*
X96829385Y-89575000D01*
X96675269Y-89638837D01*
X96641106Y-89673000D01*
X95677000Y-89673000D01*
X95677000Y-87852357D01*
X95968438Y-87789001D01*
X104703326Y-87789001D01*
X104738837Y-87874731D01*
X104875269Y-88011163D01*
X105053527Y-88085000D01*
X105246473Y-88085000D01*
X105424731Y-88011163D01*
X105561163Y-87874731D01*
X105635000Y-87696473D01*
X105635000Y-87503527D01*
X105561163Y-87325269D01*
X105454111Y-87218217D01*
X107949901Y-84672510D01*
X114573853Y-84672510D01*
X114605214Y-84678748D01*
X114636575Y-84672510D01*
X114636580Y-84672510D01*
X114729486Y-84654030D01*
X114834839Y-84583635D01*
X114852608Y-84557042D01*
X115898988Y-83510663D01*
X115827998Y-83682047D01*
X115827998Y-83874993D01*
X115901835Y-84053251D01*
X116038267Y-84189683D01*
X116216525Y-84263520D01*
X116409471Y-84263520D01*
X116587729Y-84189683D01*
X116724161Y-84053251D01*
X116797998Y-83874993D01*
X116797998Y-83682047D01*
X116724161Y-83503789D01*
X116587729Y-83367357D01*
X116567556Y-83359001D01*
X117015000Y-83359001D01*
X117015000Y-83366973D01*
X117088837Y-83545231D01*
X117225269Y-83681663D01*
X117403527Y-83755500D01*
X117596473Y-83755500D01*
X117774731Y-83681663D01*
X117911163Y-83545231D01*
X117985000Y-83366973D01*
X117985000Y-83174027D01*
X117911163Y-82995769D01*
X117833894Y-82918500D01*
X117906919Y-82918500D01*
X118261954Y-83273536D01*
X118279721Y-83300126D01*
X118385074Y-83370521D01*
X118477980Y-83389001D01*
X118477985Y-83389001D01*
X118509346Y-83395239D01*
X118540707Y-83389001D01*
X120423407Y-83389001D01*
X120454768Y-83395239D01*
X120486129Y-83389001D01*
X120486134Y-83389001D01*
X120579040Y-83370521D01*
X120684393Y-83300126D01*
X120702162Y-83273533D01*
X120753033Y-83222662D01*
X120779625Y-83204894D01*
X120850020Y-83099541D01*
X120865829Y-83020065D01*
X120961163Y-82924731D01*
X121035000Y-82746473D01*
X121035000Y-82553527D01*
X121024012Y-82527000D01*
X121573088Y-82527000D01*
X121565000Y-82546525D01*
G36*
X125762272Y-86561163D02*
X125940530Y-86635000D01*
X126133476Y-86635000D01*
X126241358Y-86590314D01*
X126076968Y-86754704D01*
X126050375Y-86772473D01*
X125979980Y-86877827D01*
X125961500Y-86970733D01*
X125961500Y-86970737D01*
X125955262Y-87002098D01*
X125961500Y-87033459D01*
X125961501Y-88548072D01*
X124438074Y-90071500D01*
X122977394Y-90071500D01*
X122884731Y-89978837D01*
X122706473Y-89905000D01*
X122513527Y-89905000D01*
X122335269Y-89978837D01*
X122198837Y-90115269D01*
X122125000Y-90293527D01*
X122125000Y-90486473D01*
X122198837Y-90664731D01*
X122335269Y-90801163D01*
X122513527Y-90875000D01*
X122706473Y-90875000D01*
X122884731Y-90801163D01*
X122977394Y-90708500D01*
X124538639Y-90708500D01*
X124570000Y-90714738D01*
X124601361Y-90708500D01*
X124601366Y-90708500D01*
X124694272Y-90690020D01*
X124799625Y-90619625D01*
X124817394Y-90593032D01*
X126483035Y-88927392D01*
X126509625Y-88909625D01*
X126580020Y-88804272D01*
X126598500Y-88711366D01*
X126598500Y-88711362D01*
X126604738Y-88680001D01*
X126598500Y-88648640D01*
X126598500Y-87134024D01*
X126954526Y-86777999D01*
X128195475Y-86777999D01*
X128327491Y-86910016D01*
X128327491Y-87945206D01*
X128274496Y-87909796D01*
X128175000Y-87890005D01*
X126975000Y-87890005D01*
X126875504Y-87909796D01*
X126791156Y-87966156D01*
X126734796Y-88050504D01*
X126715005Y-88150000D01*
X126715005Y-89350000D01*
X126734796Y-89449496D01*
X126768542Y-89500000D01*
X126734796Y-89550504D01*
X126715005Y-89650000D01*
X126715005Y-90850000D01*
X126734796Y-90949496D01*
X126768542Y-91000000D01*
X126734796Y-91050504D01*
X126715005Y-91150000D01*
X126715005Y-92350000D01*
X126734796Y-92449496D01*
X126768542Y-92500000D01*
X126734796Y-92550504D01*
X126715005Y-92650000D01*
X126715005Y-93614579D01*
X126567895Y-93467469D01*
X126550126Y-93440876D01*
X126444773Y-93370481D01*
X126351867Y-93352001D01*
X126351862Y-93352001D01*
X126320501Y-93345763D01*
X126289140Y-93352001D01*
X124573404Y-93352001D01*
X124541317Y-93319915D01*
X124541317Y-93313388D01*
X124547555Y-93282027D01*
X124541317Y-93250666D01*
X124541317Y-93250662D01*
X124522837Y-93157755D01*
X124452442Y-93052402D01*
X124425852Y-93034635D01*
X123044744Y-91653527D01*
X124265000Y-91653527D01*
X124265000Y-91846473D01*
X124338837Y-92024731D01*
X124475269Y-92161163D01*
X124653527Y-92235000D01*
X124846473Y-92235000D01*
X125024731Y-92161163D01*
X125161163Y-92024731D01*
X125235000Y-91846473D01*
X125235000Y-91653527D01*
X125161163Y-91475269D01*
X125024731Y-91338837D01*
X124846473Y-91265000D01*
X124653527Y-91265000D01*
X124475269Y-91338837D01*
X124338837Y-91475269D01*
X124265000Y-91653527D01*
X123044744Y-91653527D01*
X122688184Y-91296968D01*
X122670415Y-91270375D01*
X122565062Y-91199980D01*
X122472156Y-91181500D01*
X122472151Y-91181500D01*
X122440790Y-91175262D01*
X122409429Y-91181500D01*
X116454404Y-91181500D01*
X116423043Y-91175262D01*
X116391682Y-91181500D01*
X116391678Y-91181500D01*
X116298772Y-91199980D01*
X116193419Y-91270375D01*
X116175652Y-91296965D01*
X116121761Y-91350856D01*
X116111163Y-91325269D01*
X115974731Y-91188837D01*
X115796473Y-91115000D01*
X115603527Y-91115000D01*
X115425269Y-91188837D01*
X115288837Y-91325269D01*
X115215000Y-91503527D01*
X115215000Y-91696473D01*
X115288837Y-91874731D01*
X115325628Y-91911522D01*
X115313579Y-91923571D01*
X115239742Y-92101829D01*
X115239742Y-92294775D01*
X115313579Y-92473033D01*
X115347535Y-92506989D01*
X114971418Y-92506989D01*
X113742002Y-91277574D01*
X113742002Y-91146527D01*
X113668165Y-90968269D01*
X113575502Y-90875606D01*
X113575502Y-89738362D01*
X113581740Y-89707001D01*
X113575502Y-89675640D01*
X113575502Y-89675636D01*
X113557022Y-89582730D01*
X113486627Y-89477377D01*
X113460037Y-89459610D01*
X113250600Y-89250173D01*
X113353475Y-89250173D01*
X113531733Y-89176336D01*
X113668165Y-89039904D01*
X113742002Y-88861646D01*
X113742002Y-88668700D01*
X113668165Y-88490442D01*
X113659761Y-88482038D01*
X113688543Y-88453256D01*
X113761058Y-88278189D01*
X115458105Y-89975236D01*
X115425269Y-89988837D01*
X115288837Y-90125269D01*
X115215000Y-90303527D01*
X115215000Y-90496473D01*
X115288837Y-90674731D01*
X115425269Y-90811163D01*
X115603527Y-90885000D01*
X115796473Y-90885000D01*
X115974731Y-90811163D01*
X116111163Y-90674731D01*
X116185000Y-90496473D01*
X116185000Y-90461118D01*
X116191371Y-90459851D01*
X121367390Y-90459851D01*
X121415149Y-90469351D01*
X121462908Y-90459851D01*
X121462913Y-90459851D01*
X121604386Y-90431710D01*
X121764814Y-90324516D01*
X121791871Y-90284022D01*
X122840894Y-89235000D01*
X123492299Y-89235000D01*
X123493142Y-89239237D01*
X123573279Y-89359172D01*
X123573281Y-89359174D01*
X123600336Y-89399665D01*
X123640827Y-89426720D01*
X123923279Y-89709173D01*
X123950335Y-89749665D01*
X123990826Y-89776720D01*
X123990827Y-89776721D01*
X124110762Y-89856859D01*
X124300000Y-89894501D01*
X124345003Y-89885549D01*
X124390000Y-89894500D01*
X124437759Y-89885000D01*
X124437764Y-89885000D01*
X124579237Y-89856859D01*
X124739665Y-89749665D01*
X124766722Y-89709171D01*
X125229171Y-89246722D01*
X125269665Y-89219665D01*
X125376859Y-89059237D01*
X125405000Y-88917764D01*
X125405000Y-88917760D01*
X125414500Y-88870001D01*
X125405000Y-88822242D01*
X125405000Y-86635000D01*
X125546473Y-86635000D01*
X125724731Y-86561163D01*
X125743502Y-86542393D01*
X125762272Y-86561163D01*
X125762272Y-86561163D01*
G37*
X125762272Y-86561163D02*
X125940530Y-86635000D01*
X126133476Y-86635000D01*
X126241358Y-86590314D01*
X126076968Y-86754704D01*
X126050375Y-86772473D01*
X125979980Y-86877827D01*
X125961500Y-86970733D01*
X125961500Y-86970737D01*
X125955262Y-87002098D01*
X125961500Y-87033459D01*
X125961501Y-88548072D01*
X124438074Y-90071500D01*
X122977394Y-90071500D01*
X122884731Y-89978837D01*
X122706473Y-89905000D01*
X122513527Y-89905000D01*
X122335269Y-89978837D01*
X122198837Y-90115269D01*
X122125000Y-90293527D01*
X122125000Y-90486473D01*
X122198837Y-90664731D01*
X122335269Y-90801163D01*
X122513527Y-90875000D01*
X122706473Y-90875000D01*
X122884731Y-90801163D01*
X122977394Y-90708500D01*
X124538639Y-90708500D01*
X124570000Y-90714738D01*
X124601361Y-90708500D01*
X124601366Y-90708500D01*
X124694272Y-90690020D01*
X124799625Y-90619625D01*
X124817394Y-90593032D01*
X126483035Y-88927392D01*
X126509625Y-88909625D01*
X126580020Y-88804272D01*
X126598500Y-88711366D01*
X126598500Y-88711362D01*
X126604738Y-88680001D01*
X126598500Y-88648640D01*
X126598500Y-87134024D01*
X126954526Y-86777999D01*
X128195475Y-86777999D01*
X128327491Y-86910016D01*
X128327491Y-87945206D01*
X128274496Y-87909796D01*
X128175000Y-87890005D01*
X126975000Y-87890005D01*
X126875504Y-87909796D01*
X126791156Y-87966156D01*
X126734796Y-88050504D01*
X126715005Y-88150000D01*
X126715005Y-89350000D01*
X126734796Y-89449496D01*
X126768542Y-89500000D01*
X126734796Y-89550504D01*
X126715005Y-89650000D01*
X126715005Y-90850000D01*
X126734796Y-90949496D01*
X126768542Y-91000000D01*
X126734796Y-91050504D01*
X126715005Y-91150000D01*
X126715005Y-92350000D01*
X126734796Y-92449496D01*
X126768542Y-92500000D01*
X126734796Y-92550504D01*
X126715005Y-92650000D01*
X126715005Y-93614579D01*
X126567895Y-93467469D01*
X126550126Y-93440876D01*
X126444773Y-93370481D01*
X126351867Y-93352001D01*
X126351862Y-93352001D01*
X126320501Y-93345763D01*
X126289140Y-93352001D01*
X124573404Y-93352001D01*
X124541317Y-93319915D01*
X124541317Y-93313388D01*
X124547555Y-93282027D01*
X124541317Y-93250666D01*
X124541317Y-93250662D01*
X124522837Y-93157755D01*
X124452442Y-93052402D01*
X124425852Y-93034635D01*
X123044744Y-91653527D01*
X124265000Y-91653527D01*
X124265000Y-91846473D01*
X124338837Y-92024731D01*
X124475269Y-92161163D01*
X124653527Y-92235000D01*
X124846473Y-92235000D01*
X125024731Y-92161163D01*
X125161163Y-92024731D01*
X125235000Y-91846473D01*
X125235000Y-91653527D01*
X125161163Y-91475269D01*
X125024731Y-91338837D01*
X124846473Y-91265000D01*
X124653527Y-91265000D01*
X124475269Y-91338837D01*
X124338837Y-91475269D01*
X124265000Y-91653527D01*
X123044744Y-91653527D01*
X122688184Y-91296968D01*
X122670415Y-91270375D01*
X122565062Y-91199980D01*
X122472156Y-91181500D01*
X122472151Y-91181500D01*
X122440790Y-91175262D01*
X122409429Y-91181500D01*
X116454404Y-91181500D01*
X116423043Y-91175262D01*
X116391682Y-91181500D01*
X116391678Y-91181500D01*
X116298772Y-91199980D01*
X116193419Y-91270375D01*
X116175652Y-91296965D01*
X116121761Y-91350856D01*
X116111163Y-91325269D01*
X115974731Y-91188837D01*
X115796473Y-91115000D01*
X115603527Y-91115000D01*
X115425269Y-91188837D01*
X115288837Y-91325269D01*
X115215000Y-91503527D01*
X115215000Y-91696473D01*
X115288837Y-91874731D01*
X115325628Y-91911522D01*
X115313579Y-91923571D01*
X115239742Y-92101829D01*
X115239742Y-92294775D01*
X115313579Y-92473033D01*
X115347535Y-92506989D01*
X114971418Y-92506989D01*
X113742002Y-91277574D01*
X113742002Y-91146527D01*
X113668165Y-90968269D01*
X113575502Y-90875606D01*
X113575502Y-89738362D01*
X113581740Y-89707001D01*
X113575502Y-89675640D01*
X113575502Y-89675636D01*
X113557022Y-89582730D01*
X113486627Y-89477377D01*
X113460037Y-89459610D01*
X113250600Y-89250173D01*
X113353475Y-89250173D01*
X113531733Y-89176336D01*
X113668165Y-89039904D01*
X113742002Y-88861646D01*
X113742002Y-88668700D01*
X113668165Y-88490442D01*
X113659761Y-88482038D01*
X113688543Y-88453256D01*
X113761058Y-88278189D01*
X115458105Y-89975236D01*
X115425269Y-89988837D01*
X115288837Y-90125269D01*
X115215000Y-90303527D01*
X115215000Y-90496473D01*
X115288837Y-90674731D01*
X115425269Y-90811163D01*
X115603527Y-90885000D01*
X115796473Y-90885000D01*
X115974731Y-90811163D01*
X116111163Y-90674731D01*
X116185000Y-90496473D01*
X116185000Y-90461118D01*
X116191371Y-90459851D01*
X121367390Y-90459851D01*
X121415149Y-90469351D01*
X121462908Y-90459851D01*
X121462913Y-90459851D01*
X121604386Y-90431710D01*
X121764814Y-90324516D01*
X121791871Y-90284022D01*
X122840894Y-89235000D01*
X123492299Y-89235000D01*
X123493142Y-89239237D01*
X123573279Y-89359172D01*
X123573281Y-89359174D01*
X123600336Y-89399665D01*
X123640827Y-89426720D01*
X123923279Y-89709173D01*
X123950335Y-89749665D01*
X123990826Y-89776720D01*
X123990827Y-89776721D01*
X124110762Y-89856859D01*
X124300000Y-89894501D01*
X124345003Y-89885549D01*
X124390000Y-89894500D01*
X124437759Y-89885000D01*
X124437764Y-89885000D01*
X124579237Y-89856859D01*
X124739665Y-89749665D01*
X124766722Y-89709171D01*
X125229171Y-89246722D01*
X125269665Y-89219665D01*
X125376859Y-89059237D01*
X125405000Y-88917764D01*
X125405000Y-88917760D01*
X125414500Y-88870001D01*
X125405000Y-88822242D01*
X125405000Y-86635000D01*
X125546473Y-86635000D01*
X125724731Y-86561163D01*
X125743502Y-86542393D01*
X125762272Y-86561163D01*
G36*
X132201501Y-85201928D02*
X132201500Y-86373298D01*
X132200000Y-86373000D01*
X130805000Y-86373000D01*
X130805000Y-86355000D01*
X130906473Y-86355000D01*
X131084731Y-86281163D01*
X131221163Y-86144731D01*
X131295000Y-85966473D01*
X131295000Y-85773527D01*
X131221163Y-85595269D01*
X131084731Y-85458837D01*
X130906473Y-85385000D01*
X130713527Y-85385000D01*
X130535269Y-85458837D01*
X130398837Y-85595269D01*
X130373715Y-85655919D01*
X129659621Y-84941826D01*
X129637028Y-84908013D01*
X129603214Y-84885419D01*
X129603213Y-84885418D01*
X129503062Y-84818499D01*
X129345040Y-84787067D01*
X129305153Y-84795001D01*
X128782710Y-84795000D01*
X128785000Y-84789471D01*
X128785000Y-84596525D01*
X128782710Y-84590997D01*
X130024120Y-84590997D01*
X130064003Y-84598930D01*
X130103886Y-84590997D01*
X130103890Y-84590997D01*
X130222026Y-84567498D01*
X130355991Y-84477985D01*
X130378587Y-84444168D01*
X130510094Y-84312661D01*
X130518812Y-84312661D01*
X130697070Y-84238824D01*
X130833502Y-84102392D01*
X130907339Y-83924134D01*
X130907339Y-83907765D01*
X132201501Y-85201928D01*
X132201501Y-85201928D01*
G37*
X132201501Y-85201928D02*
X132201500Y-86373298D01*
X132200000Y-86373000D01*
X130805000Y-86373000D01*
X130805000Y-86355000D01*
X130906473Y-86355000D01*
X131084731Y-86281163D01*
X131221163Y-86144731D01*
X131295000Y-85966473D01*
X131295000Y-85773527D01*
X131221163Y-85595269D01*
X131084731Y-85458837D01*
X130906473Y-85385000D01*
X130713527Y-85385000D01*
X130535269Y-85458837D01*
X130398837Y-85595269D01*
X130373715Y-85655919D01*
X129659621Y-84941826D01*
X129637028Y-84908013D01*
X129603214Y-84885419D01*
X129603213Y-84885418D01*
X129503062Y-84818499D01*
X129345040Y-84787067D01*
X129305153Y-84795001D01*
X128782710Y-84795000D01*
X128785000Y-84789471D01*
X128785000Y-84596525D01*
X128782710Y-84590997D01*
X130024120Y-84590997D01*
X130064003Y-84598930D01*
X130103886Y-84590997D01*
X130103890Y-84590997D01*
X130222026Y-84567498D01*
X130355991Y-84477985D01*
X130378587Y-84444168D01*
X130510094Y-84312661D01*
X130518812Y-84312661D01*
X130697070Y-84238824D01*
X130833502Y-84102392D01*
X130907339Y-83924134D01*
X130907339Y-83907765D01*
X132201501Y-85201928D01*
D21*
G36*
X114736000Y-99536000D02*
X90564000Y-99536000D01*
X90564000Y-98115500D01*
X114736000Y-98115500D01*
X114736000Y-99536000D01*
X114736000Y-99536000D01*
G37*
X114736000Y-99536000D02*
X90564000Y-99536000D01*
X90564000Y-98115500D01*
X114736000Y-98115500D01*
X114736000Y-99536000D01*
G36*
X114436000Y-83802669D02*
X114394169Y-83844500D01*
X97525161Y-83844500D01*
X97500000Y-83839495D01*
X97474838Y-83844500D01*
X97400309Y-83859325D01*
X97315795Y-83915795D01*
X97302294Y-83936000D01*
X92826510Y-83936000D01*
X92545255Y-83654745D01*
X92524492Y-83640872D01*
X92500000Y-83636000D01*
X92298190Y-83636000D01*
X92281761Y-83632732D01*
X92265332Y-83636000D01*
X89043331Y-83636000D01*
X88864000Y-83187674D01*
X88864000Y-82464000D01*
X114436000Y-82464000D01*
X114436000Y-83802669D01*
X114436000Y-83802669D01*
G37*
X114436000Y-83802669D02*
X114394169Y-83844500D01*
X97525161Y-83844500D01*
X97500000Y-83839495D01*
X97474838Y-83844500D01*
X97400309Y-83859325D01*
X97315795Y-83915795D01*
X97302294Y-83936000D01*
X92826510Y-83936000D01*
X92545255Y-83654745D01*
X92524492Y-83640872D01*
X92500000Y-83636000D01*
X92298190Y-83636000D01*
X92281761Y-83632732D01*
X92265332Y-83636000D01*
X89043331Y-83636000D01*
X88864000Y-83187674D01*
X88864000Y-82464000D01*
X114436000Y-82464000D01*
X114436000Y-83802669D01*
D22*
G36*
X70985000Y-87985000D02*
X68045500Y-87985000D01*
X68045500Y-84003238D01*
X68124505Y-83451570D01*
X68353819Y-82947221D01*
X68715464Y-82527511D01*
X68889048Y-82415000D01*
X70985000Y-82415000D01*
X70985000Y-87985000D01*
X70985000Y-87985000D01*
G37*
X70985000Y-87985000D02*
X68045500Y-87985000D01*
X68045500Y-84003238D01*
X68124505Y-83451570D01*
X68353819Y-82947221D01*
X68715464Y-82527511D01*
X68889048Y-82415000D01*
X70985000Y-82415000D01*
X70985000Y-87985000D01*
G36*
X70985000Y-93785000D02*
X68045500Y-93785000D01*
X68045500Y-88215000D01*
X70985000Y-88215000D01*
X70985000Y-93785000D01*
X70985000Y-93785000D01*
G37*
X70985000Y-93785000D02*
X68045500Y-93785000D01*
X68045500Y-88215000D01*
X70985000Y-88215000D01*
X70985000Y-93785000D01*
G36*
X70985000Y-99585000D02*
X68876217Y-99585000D01*
X68527510Y-99284534D01*
X68226170Y-98819623D01*
X68066977Y-98287320D01*
X68045500Y-97998310D01*
X68045500Y-94015000D01*
X70985000Y-94015000D01*
X70985000Y-99585000D01*
X70985000Y-99585000D01*
G37*
X70985000Y-99585000D02*
X68876217Y-99585000D01*
X68527510Y-99284534D01*
X68226170Y-98819623D01*
X68066977Y-98287320D01*
X68045500Y-97998310D01*
X68045500Y-94015000D01*
X70985000Y-94015000D01*
X70985000Y-99585000D01*
M02*
