%TF.GenerationSoftware,KiCad,Pcbnew,(5.0.0-rc2-dev-387-ge7ed41593)*%
%TF.CreationDate,2018-04-19T15:37:23+02:00*%
%TF.ProjectId,MINI VESC,4D494E4920564553432E6B696361645F,rev?*%
%TF.SameCoordinates,Original*%
%TF.FileFunction,Legend,Bot*%
%TF.FilePolarity,Positive*%
%FSLAX46Y46*%
G04 Gerber Fmt 4.6, Leading zero omitted, Abs format (unit mm)*
G04 Created by KiCad (PCBNEW (5.0.0-rc2-dev-387-ge7ed41593)) date 04/19/18 15:37:23*
%MOMM*%
%LPD*%
G01*
G04 APERTURE LIST*
%ADD10C,0.120000*%
%ADD11C,0.150000*%
%ADD12C,0.127000*%
%ADD13C,0.100000*%
G04 APERTURE END LIST*
D10*
X129000000Y-89430000D02*
X130000000Y-89430000D01*
X130000000Y-88070000D02*
X129000000Y-88070000D01*
X129000000Y-87880000D02*
X130000000Y-87880000D01*
X130000000Y-86520000D02*
X129000000Y-86520000D01*
X99700000Y-94020000D02*
X101700000Y-94020000D01*
X101700000Y-91880000D02*
X99700000Y-91880000D01*
X105750000Y-91880000D02*
X103750000Y-91880000D01*
X103750000Y-94020000D02*
X105750000Y-94020000D01*
X105750000Y-86030000D02*
X103750000Y-86030000D01*
X103750000Y-88170000D02*
X105750000Y-88170000D01*
X99700000Y-90120000D02*
X101700000Y-90120000D01*
X101700000Y-87980000D02*
X99700000Y-87980000D01*
X99700000Y-97920000D02*
X101700000Y-97920000D01*
X101700000Y-95780000D02*
X99700000Y-95780000D01*
X105750000Y-87980000D02*
X103750000Y-87980000D01*
X103750000Y-90120000D02*
X105750000Y-90120000D01*
X105750000Y-89930000D02*
X103750000Y-89930000D01*
X103750000Y-92070000D02*
X105750000Y-92070000D01*
X99700000Y-88170000D02*
X101700000Y-88170000D01*
X101700000Y-86030000D02*
X99700000Y-86030000D01*
X105750000Y-84080000D02*
X103750000Y-84080000D01*
X103750000Y-86220000D02*
X105750000Y-86220000D01*
X99700000Y-95970000D02*
X101700000Y-95970000D01*
X101700000Y-93830000D02*
X99700000Y-93830000D01*
X130230000Y-92250000D02*
X130230000Y-91250000D01*
X128870000Y-91250000D02*
X128870000Y-92250000D01*
X128920000Y-94150000D02*
X128920000Y-95150000D01*
X130280000Y-95150000D02*
X130280000Y-94150000D01*
D11*
X97075000Y-86900000D02*
X97075000Y-87900000D01*
X98425000Y-87900000D02*
X98425000Y-86900000D01*
X91925000Y-86300000D02*
X91925000Y-85300000D01*
X90575000Y-85300000D02*
X90575000Y-86300000D01*
X97125000Y-95900000D02*
X97125000Y-96900000D01*
X98475000Y-96900000D02*
X98475000Y-95900000D01*
X91925000Y-95400000D02*
X91925000Y-94400000D01*
X90575000Y-94400000D02*
X90575000Y-95400000D01*
X97125000Y-91400000D02*
X97125000Y-92400000D01*
X98475000Y-92400000D02*
X98475000Y-91400000D01*
X91925000Y-90850000D02*
X91925000Y-89850000D01*
X90575000Y-89850000D02*
X90575000Y-90850000D01*
D10*
X126100000Y-97750000D02*
X126100000Y-97050000D01*
X124900000Y-97050000D02*
X124900000Y-97750000D01*
X118650000Y-99100000D02*
X119350000Y-99100000D01*
X119350000Y-97900000D02*
X118650000Y-97900000D01*
X121550000Y-84100000D02*
X122250000Y-84100000D01*
X122250000Y-82900000D02*
X121550000Y-82900000D01*
X90750000Y-87200000D02*
X90050000Y-87200000D01*
X90050000Y-88400000D02*
X90750000Y-88400000D01*
X90850000Y-96300000D02*
X90150000Y-96300000D01*
X90150000Y-97500000D02*
X90850000Y-97500000D01*
X90850000Y-91750000D02*
X90150000Y-91750000D01*
X90150000Y-92950000D02*
X90850000Y-92950000D01*
X90350000Y-86150000D02*
X90350000Y-85450000D01*
X89150000Y-85450000D02*
X89150000Y-86150000D01*
X90350000Y-95250000D02*
X90350000Y-94550000D01*
X89150000Y-94550000D02*
X89150000Y-95250000D01*
X90350000Y-90600000D02*
X90350000Y-89900000D01*
X89150000Y-89900000D02*
X89150000Y-90600000D01*
D12*
X115404200Y-96003800D02*
X124395800Y-96003800D01*
X114896200Y-95495800D02*
X114896200Y-86504200D01*
X124395800Y-85996200D02*
X115404200Y-85996200D01*
X124903800Y-95495800D02*
X124903800Y-86504200D01*
X124268800Y-94987800D02*
G75*
G03X124268800Y-94987800I-381000J0D01*
G01*
X124395800Y-96003800D02*
X124903800Y-95495800D01*
X114896200Y-95495800D02*
X115404200Y-96003800D01*
X115404200Y-85996200D02*
X114896200Y-86504200D01*
X124903800Y-86504200D02*
X124395800Y-85996200D01*
D10*
X105750000Y-93830000D02*
X103750000Y-93830000D01*
X103750000Y-95970000D02*
X105750000Y-95970000D01*
X99700000Y-86220000D02*
X101700000Y-86220000D01*
X101700000Y-84080000D02*
X99700000Y-84080000D01*
X99700000Y-92070000D02*
X101700000Y-92070000D01*
X101700000Y-89930000D02*
X99700000Y-89930000D01*
X105750000Y-95780000D02*
X103750000Y-95780000D01*
X103750000Y-97920000D02*
X105750000Y-97920000D01*
X107800000Y-86220000D02*
X109800000Y-86220000D01*
X109800000Y-84080000D02*
X107800000Y-84080000D01*
X107800000Y-88170000D02*
X109800000Y-88170000D01*
X109800000Y-86030000D02*
X107800000Y-86030000D01*
X107800000Y-95970000D02*
X109800000Y-95970000D01*
X109800000Y-93830000D02*
X107800000Y-93830000D01*
X107800000Y-97920000D02*
X109800000Y-97920000D01*
X109800000Y-95780000D02*
X107800000Y-95780000D01*
X107800000Y-90120000D02*
X109800000Y-90120000D01*
X109800000Y-87980000D02*
X107800000Y-87980000D01*
X107800000Y-92070000D02*
X109800000Y-92070000D01*
X109800000Y-89930000D02*
X107800000Y-89930000D01*
X107800000Y-94020000D02*
X109800000Y-94020000D01*
X109800000Y-91880000D02*
X107800000Y-91880000D01*
D13*
X82295000Y-93500000D02*
X88295000Y-93500000D01*
X82295000Y-88500000D02*
X82295000Y-93500000D01*
X88295000Y-88500000D02*
X82295000Y-88500000D01*
X88295000Y-93500000D02*
X88295000Y-88500000D01*
X82295000Y-99300000D02*
X88295000Y-99300000D01*
X82295000Y-94300000D02*
X82295000Y-99300000D01*
X88295000Y-94300000D02*
X82295000Y-94300000D01*
X88295000Y-99300000D02*
X88295000Y-94300000D01*
X82295000Y-87700000D02*
X88295000Y-87700000D01*
X82295000Y-82700000D02*
X82295000Y-87700000D01*
X88295000Y-82700000D02*
X82295000Y-82700000D01*
X88295000Y-87700000D02*
X88295000Y-82700000D01*
D11*
X96500000Y-88750000D02*
X92500000Y-88750000D01*
X96500000Y-92750000D02*
X96500000Y-88750000D01*
X92500000Y-92750000D02*
X96500000Y-92750000D01*
X92500000Y-88750000D02*
X92500000Y-92750000D01*
X92700000Y-92750000D02*
X92500000Y-92550000D01*
X92900000Y-92750000D02*
X92700000Y-92750000D01*
X92500000Y-92350000D02*
X92900000Y-92750000D01*
X96500000Y-93250000D02*
X92500000Y-93250000D01*
X96500000Y-97250000D02*
X96500000Y-93250000D01*
X92500000Y-97250000D02*
X96500000Y-97250000D01*
X92500000Y-93250000D02*
X92500000Y-97250000D01*
X92700000Y-97250000D02*
X92500000Y-97050000D01*
X92900000Y-97250000D02*
X92700000Y-97250000D01*
X92500000Y-96850000D02*
X92900000Y-97250000D01*
X96500000Y-84250000D02*
X92500000Y-84250000D01*
X96500000Y-88250000D02*
X96500000Y-84250000D01*
X92500000Y-88250000D02*
X96500000Y-88250000D01*
X92500000Y-84250000D02*
X92500000Y-88250000D01*
X92700000Y-88250000D02*
X92500000Y-88050000D01*
X92900000Y-88250000D02*
X92700000Y-88250000D01*
X92500000Y-87850000D02*
X92900000Y-88250000D01*
X78200000Y-93000000D02*
X71800000Y-93000000D01*
X78200000Y-89000000D02*
X78200000Y-93000000D01*
X71800000Y-89000000D02*
X78200000Y-89000000D01*
X71800000Y-93000000D02*
X71800000Y-89000000D01*
X78200000Y-98800000D02*
X71800000Y-98800000D01*
X78200000Y-94800000D02*
X78200000Y-98800000D01*
X71800000Y-94800000D02*
X78200000Y-94800000D01*
X71800000Y-98800000D02*
X71800000Y-94800000D01*
X78200000Y-87200000D02*
X71800000Y-87200000D01*
X78200000Y-83200000D02*
X78200000Y-87200000D01*
X71800000Y-83200000D02*
X78200000Y-83200000D01*
X71800000Y-87200000D02*
X71800000Y-83200000D01*
D10*
X125250000Y-82900000D02*
X124550000Y-82900000D01*
X124550000Y-84100000D02*
X125250000Y-84100000D01*
X122500000Y-99100000D02*
X123200000Y-99100000D01*
X123200000Y-97900000D02*
X122500000Y-97900000D01*
X115950000Y-99100000D02*
X116650000Y-99100000D01*
X116650000Y-97900000D02*
X115950000Y-97900000D01*
X132300000Y-97767242D02*
X132300000Y-97067242D01*
X131100000Y-97067242D02*
X131100000Y-97767242D01*
X127900000Y-84850000D02*
X127900000Y-84150000D01*
X126700000Y-84150000D02*
X126700000Y-84850000D01*
X132300000Y-84850000D02*
X132300000Y-84150000D01*
X131100000Y-84150000D02*
X131100000Y-84850000D01*
X127900000Y-97767242D02*
X127900000Y-97067242D01*
X126700000Y-97067242D02*
X126700000Y-97767242D01*
X130260000Y-82920000D02*
X130260000Y-83850000D01*
X130260000Y-86080000D02*
X130260000Y-85150000D01*
X130260000Y-86080000D02*
X128100000Y-86080000D01*
X130260000Y-82920000D02*
X128800000Y-82920000D01*
X130260000Y-95837242D02*
X130260000Y-96767242D01*
X130260000Y-98997242D02*
X130260000Y-98067242D01*
X130260000Y-98997242D02*
X128100000Y-98997242D01*
X130260000Y-95837242D02*
X128800000Y-95837242D01*
M02*
