%TF.GenerationSoftware,KiCad,Pcbnew,(5.0.0-rc2-dev-387-ge7ed41593)*%
%TF.CreationDate,2018-04-19T15:37:23+02:00*%
%TF.ProjectId,MINI VESC,4D494E4920564553432E6B696361645F,rev?*%
%TF.SameCoordinates,Original*%
%TF.FileFunction,Copper,L1,Top,Signal*%
%TF.FilePolarity,Positive*%
%FSLAX46Y46*%
G04 Gerber Fmt 4.6, Leading zero omitted, Abs format (unit mm)*
G04 Created by KiCad (PCBNEW (5.0.0-rc2-dev-387-ge7ed41593)) date 04/19/18 15:37:23*
%MOMM*%
%LPD*%
G01*
G04 APERTURE LIST*
%ADD10R,0.900000X1.700000*%
%ADD11R,0.900000X0.500000*%
%ADD12R,0.750000X0.800000*%
%ADD13R,0.500000X0.900000*%
%ADD14R,1.800860X1.198880*%
%ADD15R,1.060000X0.650000*%
%ADD16R,1.200000X0.900000*%
%ADD17R,1.700000X0.900000*%
%ADD18R,0.800000X0.750000*%
%ADD19R,0.890000X0.420000*%
%ADD20R,1.200000X1.200000*%
%ADD21R,0.700000X0.700000*%
%ADD22R,0.425000X0.750000*%
%ADD23R,1.000000X0.750000*%
%ADD24R,4.105000X4.560000*%
%ADD25R,0.905000X0.495000*%
%ADD26R,3.400000X1.300000*%
%ADD27C,0.800000*%
%ADD28C,0.460000*%
%ADD29C,0.700000*%
%ADD30C,0.500000*%
%ADD31C,0.127000*%
%ADD32C,0.300000*%
%ADD33C,0.800000*%
%ADD34C,0.460000*%
%ADD35C,0.600000*%
%ADD36C,0.200000*%
%ADD37C,0.030000*%
%ADD38C,0.254000*%
%ADD39C,0.128000*%
G04 APERTURE END LIST*
D10*
X95200000Y-94900000D03*
X98100000Y-94900000D03*
D11*
X129550000Y-98300000D03*
X129550000Y-96800000D03*
D12*
X130850000Y-98300000D03*
X130850000Y-96800000D03*
D11*
X126000000Y-83200000D03*
X126000000Y-84700000D03*
D13*
X79850000Y-88100000D03*
X81350000Y-88100000D03*
D11*
X128150000Y-98300000D03*
X128150000Y-96800000D03*
D12*
X126550000Y-98350000D03*
X126550000Y-96850000D03*
D10*
X103300000Y-91000000D03*
X106200000Y-91000000D03*
X95200000Y-87100000D03*
X98100000Y-87100000D03*
X95200000Y-89050000D03*
X98100000Y-89050000D03*
X102150000Y-87100000D03*
X99250000Y-87100000D03*
X94050000Y-96850000D03*
X91150000Y-96850000D03*
X110250000Y-89050000D03*
X107350000Y-89050000D03*
X110250000Y-96850000D03*
X107350000Y-96850000D03*
X102150000Y-89050000D03*
X99250000Y-89050000D03*
X94050000Y-91000000D03*
X91150000Y-91000000D03*
X95200000Y-91000000D03*
X98100000Y-91000000D03*
X102150000Y-96850000D03*
X99250000Y-96850000D03*
X103300000Y-92950000D03*
X106200000Y-92950000D03*
X95200000Y-96850000D03*
X98100000Y-96850000D03*
X102150000Y-94900000D03*
X99250000Y-94900000D03*
X103300000Y-94900000D03*
X106200000Y-94900000D03*
X103300000Y-87100000D03*
X106200000Y-87100000D03*
X102150000Y-92950000D03*
X99250000Y-92950000D03*
X103300000Y-85150000D03*
X106200000Y-85150000D03*
X103300000Y-96850000D03*
X106200000Y-96850000D03*
X110250000Y-92950000D03*
X107350000Y-92950000D03*
X95200000Y-92950000D03*
X98100000Y-92950000D03*
X95200000Y-85150000D03*
X98100000Y-85150000D03*
X102150000Y-85150000D03*
X99250000Y-85150000D03*
X94050000Y-94900000D03*
X91150000Y-94900000D03*
X110250000Y-91000000D03*
X107350000Y-91000000D03*
X102150000Y-91000000D03*
X99250000Y-91000000D03*
X110250000Y-94900000D03*
X107350000Y-94900000D03*
D14*
X123322290Y-98865974D03*
X119324330Y-98865974D03*
X123322290Y-96468214D03*
X119324330Y-96468214D03*
D12*
X117400000Y-98417094D03*
X117400000Y-96917094D03*
X125200000Y-96917094D03*
X125200000Y-98417094D03*
D13*
X120750000Y-92200000D03*
X119250000Y-92200000D03*
X122150000Y-92200000D03*
X123650000Y-92200000D03*
X116650000Y-90400000D03*
X115150000Y-90400000D03*
X116650000Y-91600000D03*
X115150000Y-91600000D03*
D15*
X119400000Y-86000000D03*
X119400000Y-85050000D03*
X119400000Y-84100000D03*
X117200000Y-84100000D03*
X117200000Y-86000000D03*
X117200000Y-85050000D03*
D13*
X120650000Y-84280000D03*
X122150000Y-84280000D03*
X124600000Y-84260000D03*
X123100000Y-84260000D03*
D16*
X122050000Y-88900000D03*
X122050000Y-85600000D03*
D17*
X123950000Y-85850000D03*
X123950000Y-88750000D03*
X115650000Y-85800000D03*
X115650000Y-82900000D03*
D11*
X120600000Y-87300000D03*
X120600000Y-85800000D03*
D13*
X117950000Y-93500000D03*
X116450000Y-93500000D03*
X120750000Y-93500000D03*
X119250000Y-93500000D03*
X123650000Y-93500000D03*
X122150000Y-93500000D03*
D11*
X78500000Y-87150000D03*
X78500000Y-85650000D03*
X78500000Y-84900000D03*
X78500000Y-83400000D03*
X78500000Y-99100000D03*
X78500000Y-97600000D03*
X78500000Y-96350000D03*
X78500000Y-94850000D03*
X78500000Y-93000000D03*
X78500000Y-91500000D03*
X78500000Y-90500000D03*
X78500000Y-89000000D03*
X129100000Y-83200000D03*
X129100000Y-84700000D03*
X127550000Y-83200000D03*
X127550000Y-84700000D03*
D12*
X124700000Y-94750000D03*
X124700000Y-93250000D03*
X115100000Y-89250000D03*
X115100000Y-87750000D03*
D18*
X117950000Y-94800000D03*
X116450000Y-94800000D03*
X120750000Y-94800000D03*
X119250000Y-94800000D03*
X123650000Y-94800000D03*
X122150000Y-94800000D03*
X74250000Y-83600000D03*
X75750000Y-83600000D03*
X74250000Y-89400000D03*
X75750000Y-89400000D03*
X74300000Y-95200000D03*
X75800000Y-95200000D03*
D19*
X77105000Y-91025000D03*
X77105000Y-91675000D03*
X77105000Y-92325000D03*
X77105000Y-92975000D03*
X72895000Y-92975000D03*
X72895000Y-92325000D03*
X72895000Y-91675000D03*
X72895000Y-91025000D03*
X77105000Y-96825000D03*
X77105000Y-97475000D03*
X77105000Y-98125000D03*
X77105000Y-98775000D03*
X72895000Y-98775000D03*
X72895000Y-98125000D03*
X72895000Y-97475000D03*
X72895000Y-96825000D03*
X77105000Y-85225000D03*
X77105000Y-85875000D03*
X77105000Y-86525000D03*
X77105000Y-87175000D03*
X72895000Y-87175000D03*
X72895000Y-86525000D03*
X72895000Y-85875000D03*
X72895000Y-85225000D03*
D20*
X112300000Y-90250000D03*
X112300000Y-91750000D03*
X112300000Y-88750000D03*
X112300000Y-87250000D03*
X112300000Y-93250000D03*
X112300000Y-94750000D03*
X127575000Y-91750000D03*
X127575000Y-90250000D03*
X127575000Y-93250000D03*
X127575000Y-94750000D03*
X127575000Y-88750000D03*
X127575000Y-87250000D03*
X131450000Y-91750000D03*
X131450000Y-90250000D03*
X131450000Y-93250000D03*
X131450000Y-94750000D03*
X131450000Y-88750000D03*
X131450000Y-87250000D03*
D21*
X68600000Y-92050000D03*
X69300000Y-92050000D03*
X70000000Y-92050000D03*
X70000000Y-91350000D03*
X69300000Y-91350000D03*
X68600000Y-91350000D03*
X68600000Y-90650000D03*
X69300000Y-90650000D03*
X70000000Y-90650000D03*
X70000000Y-89950000D03*
X69300000Y-89950000D03*
X68600000Y-89950000D03*
X70000000Y-95750000D03*
X69300000Y-95750000D03*
X68600000Y-95750000D03*
X68600000Y-96450000D03*
X69300000Y-96450000D03*
X70000000Y-96450000D03*
X70000000Y-97150000D03*
X69300000Y-97150000D03*
X68600000Y-97150000D03*
X68600000Y-97850000D03*
X69300000Y-97850000D03*
X70000000Y-97850000D03*
X68600000Y-86250000D03*
X69300000Y-86250000D03*
X70000000Y-86250000D03*
X70000000Y-85550000D03*
X69300000Y-85550000D03*
X68600000Y-85550000D03*
X68600000Y-84850000D03*
X69300000Y-84850000D03*
X70000000Y-84850000D03*
X70000000Y-84150000D03*
X69300000Y-84150000D03*
X68600000Y-84150000D03*
X81300000Y-90000000D03*
X80600000Y-90000000D03*
X79900000Y-90000000D03*
X79900000Y-90700000D03*
X80600000Y-90700000D03*
X81300000Y-90700000D03*
X81300000Y-91400000D03*
X80600000Y-91400000D03*
X79900000Y-91400000D03*
X79900000Y-92100000D03*
X80600000Y-92100000D03*
X81300000Y-92100000D03*
X79900000Y-97850000D03*
X80600000Y-97850000D03*
X81300000Y-97850000D03*
X81300000Y-97150000D03*
X80600000Y-97150000D03*
X79900000Y-97150000D03*
X79900000Y-96450000D03*
X80600000Y-96450000D03*
X81300000Y-96450000D03*
X81300000Y-95750000D03*
X80600000Y-95750000D03*
X79900000Y-95750000D03*
X79900000Y-86350000D03*
X80600000Y-86350000D03*
X81300000Y-86350000D03*
X81300000Y-85650000D03*
X80600000Y-85650000D03*
X79900000Y-85650000D03*
X79900000Y-84950000D03*
X80600000Y-84950000D03*
X81300000Y-84950000D03*
X81300000Y-84250000D03*
X80600000Y-84250000D03*
X79900000Y-84250000D03*
D10*
X94050000Y-87100000D03*
X91150000Y-87100000D03*
X110250000Y-85150000D03*
X107350000Y-85150000D03*
X94050000Y-92950000D03*
X91150000Y-92950000D03*
X94050000Y-85150000D03*
X91150000Y-85150000D03*
X103300000Y-89050000D03*
X106200000Y-89050000D03*
X110250000Y-87100000D03*
X107350000Y-87100000D03*
X94050000Y-89050000D03*
X91150000Y-89050000D03*
D22*
X82312500Y-89095000D03*
D23*
X88095000Y-89095000D03*
X88095000Y-90365000D03*
X88095000Y-91635000D03*
X88095000Y-92905000D03*
D24*
X84577500Y-91000000D03*
D22*
X82312500Y-92905000D03*
D25*
X85752500Y-93527500D03*
X85752500Y-88472500D03*
D22*
X82317500Y-94895000D03*
D23*
X88100000Y-94895000D03*
X88100000Y-96165000D03*
X88100000Y-97435000D03*
X88100000Y-98705000D03*
D24*
X84582500Y-96800000D03*
D22*
X82317500Y-98705000D03*
D25*
X85757500Y-99327500D03*
X85757500Y-94272500D03*
D22*
X82317500Y-83295000D03*
D23*
X88100000Y-83295000D03*
X88100000Y-84565000D03*
X88100000Y-85835000D03*
X88100000Y-87105000D03*
D24*
X84582500Y-85200000D03*
D22*
X82317500Y-87105000D03*
D25*
X85757500Y-87727500D03*
X85757500Y-82672500D03*
D12*
X115100000Y-95250000D03*
X115100000Y-93750000D03*
X116300000Y-89250000D03*
X116300000Y-87750000D03*
D26*
X119250000Y-88400000D03*
X119250000Y-90500000D03*
D27*
X89550000Y-83200000D03*
X113900000Y-83200000D03*
X113000000Y-83200000D03*
X112100000Y-83200000D03*
X111200000Y-83200000D03*
X110200000Y-83200000D03*
X109300000Y-83200000D03*
X108400000Y-83200000D03*
X107500000Y-83200000D03*
X106600000Y-83200000D03*
X105700000Y-83200000D03*
X104800000Y-83200000D03*
X103900000Y-83200000D03*
X103000000Y-83200000D03*
X102100000Y-83200000D03*
X101200000Y-83200000D03*
X100300000Y-83200000D03*
X99400000Y-83200000D03*
X98500000Y-83200000D03*
X97600000Y-83200000D03*
X96700000Y-83200000D03*
X95800000Y-83200000D03*
X94900000Y-83200000D03*
X94000000Y-83200000D03*
X93100000Y-83200000D03*
X92200000Y-83200000D03*
X91300000Y-83200000D03*
X90400000Y-83200000D03*
D28*
X127550000Y-82750000D03*
D27*
X89113216Y-99199750D03*
D28*
X92010000Y-89950000D03*
X81742998Y-89100000D03*
X97000000Y-91587000D03*
X88100000Y-88362998D03*
X124600000Y-84700000D03*
D27*
X113500000Y-98800000D03*
X112600000Y-98800000D03*
X111700000Y-98800000D03*
X110800000Y-98800000D03*
X109900000Y-98800000D03*
X109000000Y-98800000D03*
X108100000Y-98800000D03*
X107200000Y-98800000D03*
X106300000Y-98800000D03*
X105400000Y-98800000D03*
X104500000Y-98800000D03*
X103600000Y-98800000D03*
X102700000Y-98800000D03*
X101800000Y-98800000D03*
X100900000Y-98800000D03*
X100000000Y-98800000D03*
X99100000Y-98800000D03*
X98200000Y-98800000D03*
X97300000Y-98800000D03*
X96400000Y-98800000D03*
X95500000Y-98800000D03*
X94600000Y-98800000D03*
X93700000Y-98800000D03*
X92800000Y-98800000D03*
X91900000Y-98800000D03*
X91000000Y-98800000D03*
D28*
X121248148Y-83750989D03*
X125500000Y-98370500D03*
X129100000Y-82750000D03*
X124156042Y-84800000D03*
X124156042Y-85200000D03*
X115400000Y-84850000D03*
X115150000Y-84604009D03*
X115150000Y-85100000D03*
X115643958Y-85100000D03*
X128250000Y-99050000D03*
X128700000Y-99050000D03*
X129150000Y-99050000D03*
X129600000Y-99050000D03*
X130050000Y-99050000D03*
X130500000Y-99050000D03*
X130950000Y-99050000D03*
X118600000Y-94000000D03*
X118600000Y-93499999D03*
X124643318Y-93250000D03*
X115100000Y-95250000D03*
D27*
X88847998Y-86207000D03*
D28*
X96992928Y-95463041D03*
X96992998Y-91000000D03*
X74500000Y-94500000D03*
X74400000Y-88700000D03*
X74300000Y-82900000D03*
X87512997Y-94162998D03*
X87512997Y-82562998D03*
X87512997Y-88362998D03*
X96997562Y-86247562D03*
X92020000Y-94450000D03*
X81747998Y-94900000D03*
X92000000Y-85450000D03*
X81747998Y-83300000D03*
X97000000Y-87050000D03*
X88100000Y-82562998D03*
D29*
X68000000Y-92650000D03*
X68000000Y-91550000D03*
X68000000Y-91000000D03*
X68000000Y-90450000D03*
X68000000Y-89900000D03*
X68000000Y-92100000D03*
X68600000Y-92650000D03*
X69300000Y-92650000D03*
X70000000Y-92650000D03*
X68000000Y-89350000D03*
X68600000Y-89350000D03*
X69300000Y-89350000D03*
X70000000Y-89350000D03*
D28*
X73600000Y-91000000D03*
D29*
X68000000Y-95150000D03*
X68600000Y-95150000D03*
X69300000Y-95150000D03*
X70000000Y-95150000D03*
X70000000Y-98450000D03*
X69300000Y-98450000D03*
X68600000Y-98450000D03*
X68000000Y-98450000D03*
X68000000Y-97900000D03*
X68000000Y-97350000D03*
X68000000Y-96800000D03*
X68000000Y-96250000D03*
X68000000Y-95700000D03*
D28*
X73600000Y-96800000D03*
D29*
X68000000Y-86900000D03*
X70000000Y-86900000D03*
X69300000Y-86900000D03*
X68600000Y-86900000D03*
X68000000Y-86350000D03*
X70000000Y-83550000D03*
X69300000Y-83550000D03*
X68600000Y-83550000D03*
X68000000Y-83600000D03*
X68000000Y-85800000D03*
X68000000Y-85250000D03*
X68000000Y-84700000D03*
X68000000Y-84150000D03*
D28*
X73600000Y-85200000D03*
X92057559Y-89364928D03*
X81680260Y-89683640D03*
X76400000Y-91000000D03*
X92054015Y-93853916D03*
X81678063Y-95482821D03*
X76400000Y-96800000D03*
X81691906Y-83884316D03*
X92000000Y-84650000D03*
X76400000Y-85200000D03*
X122800000Y-94800000D03*
X119900000Y-94800000D03*
X117100000Y-94800000D03*
X115100000Y-87750000D03*
X129547339Y-86152661D03*
X124100000Y-97909532D03*
X128343873Y-82766324D03*
X116300000Y-87750000D03*
X124700000Y-94750000D03*
X115100000Y-93750000D03*
X121450000Y-93499999D03*
X128300000Y-84692998D03*
X119646580Y-97757802D03*
X117183076Y-95862800D03*
X76400000Y-90100000D03*
X116640000Y-95640000D03*
X76387000Y-95916215D03*
X116099224Y-95868327D03*
X76337000Y-84300000D03*
X123100000Y-93500000D03*
X76400000Y-92900000D03*
X120200000Y-93500000D03*
X76400000Y-98700000D03*
X117400000Y-93500000D03*
X76400000Y-87000000D03*
X116312998Y-83778520D03*
X96950000Y-90050000D03*
X119375994Y-82650000D03*
X96950000Y-89100000D03*
X116849428Y-86732515D03*
X97000000Y-94500000D03*
X119962997Y-82650000D03*
X97000000Y-93650000D03*
X117500000Y-83270500D03*
X97000000Y-85500000D03*
X120550000Y-82650000D03*
X97000000Y-84600000D03*
X130810000Y-85870000D03*
X122050000Y-82642998D03*
X126037003Y-86150000D03*
X129750000Y-93250000D03*
X115700000Y-91600000D03*
X115700000Y-90400000D03*
X117026244Y-88213862D03*
X117028603Y-88800859D03*
X117032302Y-89387850D03*
X126627957Y-85920500D03*
X125450000Y-86150000D03*
X122747504Y-97757802D03*
X121342998Y-98400001D03*
X124750000Y-91750000D03*
X129307002Y-96434001D03*
X113257002Y-91243000D03*
X113277380Y-88178525D03*
X113257002Y-88765173D03*
X126000000Y-95256042D03*
X105150000Y-87600000D03*
X113257002Y-94750000D03*
X80900000Y-88100000D03*
X97000000Y-96050000D03*
X88100000Y-94162998D03*
X131573501Y-97277444D03*
X130422339Y-83827661D03*
X123950000Y-88750000D03*
X92017271Y-96663041D03*
X91957002Y-92174000D03*
X91957001Y-87584001D03*
X116450000Y-98150000D03*
D30*
X127300000Y-96667242D03*
D28*
X80312997Y-88100000D03*
X75700000Y-94500000D03*
X75600000Y-88700000D03*
X75700000Y-82900000D03*
X115724742Y-92198302D03*
X122610000Y-90390000D03*
X115816513Y-93245989D03*
D31*
X115650000Y-82900000D02*
X117248158Y-82900000D01*
X117248158Y-82900000D02*
X117298159Y-82849999D01*
X125423000Y-83200000D02*
X126000000Y-83200000D01*
X117298159Y-82849999D02*
X118953651Y-82849999D01*
X118953651Y-82849999D02*
X119174153Y-83070501D01*
X119174153Y-83070501D02*
X122690501Y-83070501D01*
X122690501Y-83070501D02*
X122696479Y-83076479D01*
X122696479Y-83076479D02*
X125299479Y-83076479D01*
X125299479Y-83076479D02*
X125423000Y-83200000D01*
D32*
X115650000Y-82900000D02*
X114200000Y-82900000D01*
X114200000Y-82900000D02*
X113900000Y-83200000D01*
D33*
X113900000Y-83200000D02*
X113900000Y-84944510D01*
X112100000Y-83200000D02*
X113000000Y-83200000D01*
X109300000Y-83200000D02*
X110200000Y-83200000D01*
X107500000Y-83200000D02*
X108400000Y-83200000D01*
X105700000Y-83200000D02*
X106600000Y-83200000D01*
X103900000Y-83200000D02*
X104800000Y-83200000D01*
X102100000Y-83200000D02*
X103000000Y-83200000D01*
X100300000Y-83200000D02*
X101200000Y-83200000D01*
X98500000Y-83200000D02*
X99400000Y-83200000D01*
X96700000Y-83200000D02*
X97600000Y-83200000D01*
X94900000Y-83200000D02*
X95800000Y-83200000D01*
X93100000Y-83200000D02*
X94000000Y-83200000D01*
X91300000Y-83200000D02*
X92200000Y-83200000D01*
X89550000Y-83200000D02*
X90400000Y-83200000D01*
D31*
X127550000Y-83200000D02*
X127550000Y-82750000D01*
D34*
X115650000Y-84047602D02*
X116552398Y-84950000D01*
X116552398Y-84950000D02*
X117100000Y-84950000D01*
X117100000Y-84950000D02*
X117200000Y-85050000D01*
X115650000Y-82900000D02*
X115650000Y-84047602D01*
D32*
X111000000Y-85150000D02*
X110250000Y-85150000D01*
X88095000Y-89095000D02*
X88095000Y-88367998D01*
X88095000Y-88367998D02*
X88100000Y-88362998D01*
D31*
X123650000Y-94800000D02*
X123422342Y-94800000D01*
D34*
X127575000Y-87250000D02*
X131450000Y-87250000D01*
X112300000Y-94750000D02*
X111450000Y-94750000D01*
X112300000Y-94750000D02*
X112300000Y-95750000D01*
X131450000Y-87250000D02*
X131450000Y-85850000D01*
X123950000Y-85850000D02*
X123950000Y-86760000D01*
X126515000Y-87250000D02*
X127575000Y-87250000D01*
X123950000Y-86760000D02*
X124440000Y-87250000D01*
X124440000Y-87250000D02*
X126515000Y-87250000D01*
D33*
X112600000Y-98800000D02*
X113500000Y-98800000D01*
X110800000Y-98800000D02*
X111700000Y-98800000D01*
X109000000Y-98800000D02*
X109900000Y-98800000D01*
X107200000Y-98800000D02*
X108100000Y-98800000D01*
X105400000Y-98800000D02*
X106300000Y-98800000D01*
X103600000Y-98800000D02*
X104500000Y-98800000D01*
X101800000Y-98800000D02*
X102700000Y-98800000D01*
X100000000Y-98800000D02*
X100900000Y-98800000D01*
X98200000Y-98800000D02*
X99100000Y-98800000D01*
X96400000Y-98800000D02*
X97300000Y-98800000D01*
X94600000Y-98800000D02*
X95500000Y-98800000D01*
X92800000Y-98800000D02*
X93700000Y-98800000D01*
X88100000Y-97435000D02*
X89635000Y-97435000D01*
X89635000Y-97435000D02*
X91000000Y-98800000D01*
X88100000Y-97435000D02*
X89935000Y-97435000D01*
D32*
X87975000Y-84565000D02*
X87300000Y-83890000D01*
D31*
X124600000Y-84260000D02*
X124223000Y-84260000D01*
X124223000Y-84260000D02*
X123582499Y-83619499D01*
X123582499Y-83619499D02*
X121379638Y-83619499D01*
X121379638Y-83619499D02*
X121248148Y-83750989D01*
D33*
X88100000Y-97435000D02*
X89655560Y-97435000D01*
X89655560Y-97435000D02*
X90610280Y-98389720D01*
D31*
X88847998Y-86207000D02*
X88847998Y-85187998D01*
X88847998Y-85187998D02*
X88225000Y-84565000D01*
X88225000Y-84565000D02*
X88100000Y-84565000D01*
X124643318Y-93250000D02*
X124233819Y-92840501D01*
X124233819Y-92840501D02*
X123167501Y-92840501D01*
X123167501Y-92840501D02*
X122527000Y-92200000D01*
X122527000Y-92200000D02*
X122150000Y-92200000D01*
X129100000Y-83200000D02*
X129100000Y-82750000D01*
D34*
X128150000Y-98300000D02*
X128150000Y-98950000D01*
X128150000Y-98950000D02*
X128250000Y-99050000D01*
X126550000Y-98350000D02*
X128100000Y-98350000D01*
X128100000Y-98350000D02*
X128150000Y-98300000D01*
X115643958Y-85100000D02*
X115643958Y-85793958D01*
X115643958Y-85793958D02*
X115650000Y-85800000D01*
X115150000Y-85100000D02*
X115150000Y-85300000D01*
X115150000Y-85300000D02*
X115650000Y-85800000D01*
X115150000Y-84604009D02*
X115150000Y-85100000D01*
X115150000Y-85100000D02*
X115643958Y-85100000D01*
X115150000Y-84604009D02*
X115150000Y-84606042D01*
X115150000Y-84606042D02*
X115643958Y-85100000D01*
X124600000Y-84100000D02*
X124600000Y-84700000D01*
X124600000Y-84700000D02*
X124600000Y-85450000D01*
X124156042Y-84800000D02*
X124500000Y-84800000D01*
X124500000Y-84800000D02*
X124600000Y-84700000D01*
X124156042Y-84800000D02*
X124156042Y-85643958D01*
X124156042Y-85643958D02*
X123950000Y-85850000D01*
X124156042Y-84800000D02*
X124156042Y-85200000D01*
D31*
X123950000Y-85850000D02*
X123950000Y-85406042D01*
X123950000Y-85406042D02*
X124156042Y-85200000D01*
D34*
X124600000Y-85450000D02*
X124200000Y-85850000D01*
X124200000Y-85850000D02*
X122550000Y-85850000D01*
X122550000Y-85850000D02*
X122300000Y-85600000D01*
X130850000Y-98300000D02*
X130850000Y-98950000D01*
X130850000Y-98950000D02*
X130950000Y-99050000D01*
X128250000Y-99050000D02*
X130950000Y-99050000D01*
D31*
X129150000Y-99050000D02*
X128700000Y-99050000D01*
X130050000Y-99050000D02*
X129600000Y-99050000D01*
X130950000Y-99050000D02*
X130500000Y-99050000D01*
D32*
X119625320Y-96468214D02*
X119324330Y-96468214D01*
D31*
X117950000Y-94650000D02*
X118600000Y-94000000D01*
X117950000Y-94800000D02*
X117950000Y-94650000D01*
X122856841Y-95365501D02*
X120700000Y-95365501D01*
X120700000Y-95365501D02*
X118540501Y-95365501D01*
X120750000Y-94800000D02*
X120750000Y-95315501D01*
X120750000Y-95315501D02*
X120700000Y-95365501D01*
X123422342Y-94800000D02*
X122856841Y-95365501D01*
X118540501Y-95365501D02*
X117975000Y-94800000D01*
X117975000Y-94800000D02*
X117950000Y-94800000D01*
X118600000Y-93499999D02*
X118600000Y-94000000D01*
X120750000Y-92200000D02*
X121127000Y-92200000D01*
X121127000Y-92200000D02*
X122150000Y-92200000D01*
D32*
X117400000Y-96917094D02*
X118875450Y-96917094D01*
X118875450Y-96917094D02*
X119324330Y-96468214D01*
X125200000Y-98417094D02*
X123771170Y-98417094D01*
X123771170Y-98417094D02*
X123322290Y-98865974D01*
X124700000Y-93250000D02*
X124643318Y-93250000D01*
D34*
X88100000Y-84565000D02*
X88726752Y-84565000D01*
X88726752Y-84565000D02*
X88759071Y-84532681D01*
D32*
X96992928Y-95463041D02*
X97050000Y-95520113D01*
D34*
X74300000Y-95200000D02*
X74300000Y-94700000D01*
X74300000Y-94700000D02*
X74500000Y-94500000D01*
X74250000Y-89400000D02*
X74250000Y-88850000D01*
X74250000Y-88850000D02*
X74400000Y-88700000D01*
X74250000Y-83600000D02*
X74250000Y-82950000D01*
X74250000Y-82950000D02*
X74300000Y-82900000D01*
X74250000Y-83600000D02*
X74250000Y-85425000D01*
X74250000Y-85425000D02*
X73800000Y-85875000D01*
X73800000Y-85875000D02*
X72895000Y-85875000D01*
X72895000Y-86525000D02*
X72895000Y-85875000D01*
X74250000Y-89400000D02*
X74250000Y-91225000D01*
X74250000Y-91225000D02*
X73800000Y-91675000D01*
X73800000Y-91675000D02*
X72895000Y-91675000D01*
X72895000Y-92325000D02*
X72895000Y-91675000D01*
X72895000Y-97475000D02*
X73755157Y-97475000D01*
X73755157Y-97475000D02*
X74300000Y-96930157D01*
X74300000Y-96930157D02*
X74300000Y-96035000D01*
X74300000Y-96035000D02*
X74300000Y-95200000D01*
X72895000Y-97475000D02*
X72895000Y-98125000D01*
D32*
X88100000Y-96165000D02*
X87975000Y-96165000D01*
X87975000Y-96165000D02*
X87300000Y-95490000D01*
X87300000Y-95490000D02*
X87300000Y-94375995D01*
X87300000Y-94375995D02*
X87512997Y-94162998D01*
X88100000Y-84565000D02*
X87975000Y-84565000D01*
X87300000Y-83890000D02*
X87300000Y-82775995D01*
X87300000Y-82775995D02*
X87512997Y-82562998D01*
X88095000Y-90365000D02*
X87970000Y-90365000D01*
X87970000Y-90365000D02*
X87295000Y-89690000D01*
X87295000Y-89690000D02*
X87295000Y-88417636D01*
X87295000Y-88417636D02*
X87349638Y-88362998D01*
X87349638Y-88362998D02*
X87512997Y-88362998D01*
X88100000Y-83295000D02*
X88100000Y-82562998D01*
X68000000Y-91150000D02*
X68000000Y-91750000D01*
X68000000Y-89950000D02*
X68000000Y-90550000D01*
X68600000Y-92650000D02*
X68000000Y-92650000D01*
X70000000Y-92650000D02*
X69300000Y-92650000D01*
X68800000Y-89350000D02*
X68000000Y-89350000D01*
X70200000Y-89350000D02*
X69500000Y-89350000D01*
D34*
X72895000Y-91025000D02*
X73575000Y-91025000D01*
X73575000Y-91025000D02*
X73600000Y-91000000D01*
D35*
X68000000Y-98450000D02*
X68000000Y-95150000D01*
D32*
X69300000Y-95150000D02*
X68600000Y-95150000D01*
X70000000Y-95750000D02*
X70000000Y-95150000D01*
X68600000Y-98450000D02*
X69300000Y-98450000D01*
X68000000Y-97950000D02*
X68000000Y-98500000D01*
X68000000Y-96850000D02*
X68000000Y-97400000D01*
X68000000Y-95750000D02*
X68000000Y-96300000D01*
D34*
X72895000Y-96825000D02*
X73575000Y-96825000D01*
X73575000Y-96825000D02*
X73600000Y-96800000D01*
D32*
X68000000Y-86200000D02*
X68000000Y-86750000D01*
X69400000Y-86950000D02*
X70150000Y-86950000D01*
X68000000Y-86950000D02*
X68700000Y-86950000D01*
X69450000Y-83450000D02*
X70100000Y-83450000D01*
X70100000Y-83450000D02*
X70150000Y-83500000D01*
X68000000Y-83450000D02*
X68750000Y-83450000D01*
X68000000Y-84850000D02*
X68000000Y-85550000D01*
X68750000Y-84150000D02*
X68050000Y-84150000D01*
D34*
X72895000Y-85225000D02*
X73575000Y-85225000D01*
X73575000Y-85225000D02*
X73600000Y-85200000D01*
D32*
X78500000Y-89000000D02*
X79800000Y-89000000D01*
X79800000Y-89000000D02*
X80250000Y-89450000D01*
X81300000Y-92100000D02*
X81300000Y-92300000D01*
X81300000Y-92300000D02*
X80950000Y-92650000D01*
X80250000Y-89450000D02*
X80250000Y-89650000D01*
X80250000Y-89650000D02*
X79900000Y-90000000D01*
X81300000Y-90000000D02*
X81300000Y-89800000D01*
X81300000Y-89800000D02*
X80950000Y-89450000D01*
D34*
X77105000Y-91025000D02*
X76425000Y-91025000D01*
X76425000Y-91025000D02*
X76400000Y-91000000D01*
D32*
X78500000Y-94850000D02*
X79000000Y-94850000D01*
X79000000Y-94850000D02*
X79900000Y-95750000D01*
X81300000Y-97850000D02*
X81300000Y-98100000D01*
X81300000Y-98100000D02*
X80950000Y-98450000D01*
X81300000Y-95750000D02*
X81300000Y-95525000D01*
X81300000Y-95525000D02*
X80950000Y-95175000D01*
D34*
X77105000Y-96825000D02*
X76425000Y-96825000D01*
X76425000Y-96825000D02*
X76400000Y-96800000D01*
D32*
X78500000Y-83400000D02*
X79950000Y-83400000D01*
X79950000Y-83400000D02*
X80250000Y-83700000D01*
X80950000Y-83700000D02*
X80950000Y-83900000D01*
X80950000Y-83900000D02*
X81300000Y-84250000D01*
X80950000Y-86900000D02*
X80950000Y-86700000D01*
X80950000Y-86700000D02*
X80600000Y-86350000D01*
X82235000Y-87105000D02*
X82055000Y-87105000D01*
X82055000Y-87105000D02*
X81300000Y-86350000D01*
X82235000Y-85835000D02*
X81485000Y-85835000D01*
X81485000Y-85835000D02*
X81300000Y-85650000D01*
X82235000Y-84565000D02*
X81615000Y-84565000D01*
X81615000Y-84565000D02*
X81300000Y-84250000D01*
D34*
X77105000Y-85225000D02*
X76425000Y-85225000D01*
X76425000Y-85225000D02*
X76400000Y-85200000D01*
D32*
X122800000Y-94800000D02*
X122150000Y-94800000D01*
X122150000Y-93500000D02*
X122150000Y-94800000D01*
X119900000Y-94800000D02*
X119250000Y-94800000D01*
X119250000Y-93500000D02*
X119250000Y-94800000D01*
X117100000Y-94800000D02*
X116450000Y-94800000D01*
X116450000Y-93500000D02*
X116450000Y-94800000D01*
X126911398Y-85260000D02*
X128654678Y-85260000D01*
X128654678Y-85260000D02*
X129547339Y-86152661D01*
X128343873Y-82766324D02*
X128343873Y-83604729D01*
X128343873Y-83604729D02*
X127775603Y-84172999D01*
X127775603Y-84172999D02*
X126878399Y-84172999D01*
X126878399Y-84172999D02*
X126822999Y-84228399D01*
X126822999Y-85171601D02*
X126911398Y-85260000D01*
X126822999Y-84228399D02*
X126822999Y-85171601D01*
D31*
X128300000Y-84692998D02*
X129100000Y-84700000D01*
X127550000Y-84700000D02*
X128292998Y-84700000D01*
X128292998Y-84700000D02*
X128300000Y-84692998D01*
D34*
X78500000Y-90500000D02*
X78100000Y-90100000D01*
X78100000Y-90100000D02*
X76400000Y-90100000D01*
X78500000Y-91500000D02*
X78500000Y-90500000D01*
X78500000Y-96350000D02*
X78066215Y-95916215D01*
X78066215Y-95916215D02*
X76387000Y-95916215D01*
X78500000Y-97600000D02*
X78500000Y-96350000D01*
X78500000Y-84900000D02*
X77900000Y-84300000D01*
X77900000Y-84300000D02*
X76337000Y-84300000D01*
X78500000Y-85650000D02*
X78500000Y-84900000D01*
D32*
X123100000Y-93500000D02*
X123650000Y-93500000D01*
D34*
X77105000Y-92975000D02*
X76475000Y-92975000D01*
X76475000Y-92975000D02*
X76400000Y-92900000D01*
D32*
X120750000Y-93500000D02*
X120200000Y-93500000D01*
D34*
X77105000Y-98775000D02*
X76475000Y-98775000D01*
X76475000Y-98775000D02*
X76400000Y-98700000D01*
D36*
X117950000Y-93500000D02*
X117400000Y-93500000D01*
D34*
X77105000Y-87175000D02*
X76575000Y-87175000D01*
X76575000Y-87175000D02*
X76400000Y-87000000D01*
D31*
X119962997Y-82650000D02*
X120129499Y-82650000D01*
D34*
X119400000Y-86000000D02*
X120650000Y-86000000D01*
X120650000Y-86000000D02*
X120850000Y-85800000D01*
D31*
X126037003Y-86150000D02*
X126037003Y-86185339D01*
D32*
X119250000Y-92200000D02*
X117250000Y-92200000D01*
X117250000Y-92200000D02*
X116650000Y-91600000D01*
X123650000Y-92200000D02*
X123650000Y-92000000D01*
X123650000Y-92000000D02*
X123077001Y-91427001D01*
X123077001Y-91427001D02*
X117328399Y-91427001D01*
X117328399Y-91427001D02*
X117177001Y-91275603D01*
X117177001Y-90927001D02*
X116650000Y-90400000D01*
X117177001Y-91275603D02*
X117177001Y-90927001D01*
D36*
X116650000Y-90400000D02*
X116650000Y-90450000D01*
D34*
X115150000Y-91600000D02*
X115700000Y-91600000D01*
X115150000Y-90400000D02*
X115700000Y-90400000D01*
D31*
X117028603Y-88800859D02*
X117028603Y-88678603D01*
X117028603Y-88678603D02*
X116984363Y-88634363D01*
X117032302Y-89387850D02*
X117032302Y-89232302D01*
D32*
X127600000Y-93250000D02*
X127575000Y-93275000D01*
X122747504Y-97757802D02*
X122747504Y-97043000D01*
X122747504Y-97043000D02*
X123322290Y-96468214D01*
X123322290Y-96468214D02*
X122931460Y-96468214D01*
X122798214Y-96468214D02*
X123322290Y-96468214D01*
X125200000Y-96917094D02*
X123771170Y-96917094D01*
X123771170Y-96917094D02*
X123322290Y-96468214D01*
X121342998Y-98400001D02*
X120507002Y-98400000D01*
X120507002Y-98400000D02*
X120041028Y-98865974D01*
X120041028Y-98865974D02*
X119324330Y-98865974D01*
X119750304Y-98440000D02*
X119324330Y-98865974D01*
X117400000Y-98417094D02*
X118875450Y-98417094D01*
X118875450Y-98417094D02*
X119324330Y-98865974D01*
D31*
X129550000Y-96800000D02*
X129550000Y-96676999D01*
X129550000Y-96676999D02*
X129307002Y-96434001D01*
D34*
X129350000Y-96800000D02*
X130850000Y-96800000D01*
D32*
X113300000Y-88100000D02*
X113300000Y-88155905D01*
X113300000Y-88155905D02*
X113277380Y-88178525D01*
D31*
X117200000Y-84100000D02*
X117405000Y-84100000D01*
X125007489Y-83330489D02*
X126000000Y-84323000D01*
X117405000Y-84100000D02*
X118174511Y-83330489D01*
X118174511Y-83330489D02*
X125007489Y-83330489D01*
X126000000Y-84323000D02*
X126000000Y-84700000D01*
D32*
X128150000Y-96800000D02*
X128149778Y-96800000D01*
X128149778Y-96800000D02*
X127764010Y-96414232D01*
X127764010Y-96414232D02*
X127764010Y-96351290D01*
D31*
X127764010Y-96351290D02*
X127511441Y-96226741D01*
D32*
X126550000Y-96850000D02*
X126550000Y-96637280D01*
X126550000Y-96637280D02*
X127047039Y-96140241D01*
X127047039Y-96140241D02*
X127552961Y-96140241D01*
X127552961Y-96140241D02*
X127764010Y-96351290D01*
X126550000Y-95806042D02*
X126550000Y-96850000D01*
X126000000Y-95256042D02*
X126550000Y-95806042D01*
D31*
X127511441Y-96226741D02*
X127088559Y-96226741D01*
X127088559Y-96226741D02*
X126859499Y-96455801D01*
X126859499Y-96455801D02*
X126859499Y-96590501D01*
X126859499Y-96590501D02*
X126600000Y-96850000D01*
D34*
X81350000Y-88100000D02*
X80900000Y-88100000D01*
D32*
X88100000Y-94895000D02*
X88100000Y-94162998D01*
D31*
X122800000Y-86700000D02*
X123950000Y-87850000D01*
X123950000Y-87850000D02*
X123950000Y-88750000D01*
X118800000Y-86700000D02*
X122800000Y-86700000D01*
X118450000Y-86350000D02*
X118800000Y-86700000D01*
X118450000Y-83852098D02*
X118450000Y-86350000D01*
X120650000Y-83950000D02*
X120650000Y-83750000D01*
X120484499Y-83584499D02*
X118717599Y-83584499D01*
X120650000Y-83750000D02*
X120484499Y-83584499D01*
X118717599Y-83584499D02*
X118450000Y-83852098D01*
D34*
X91957002Y-92174000D02*
X91957001Y-92173999D01*
D32*
X122150000Y-84280000D02*
X123080000Y-84280000D01*
X123080000Y-84280000D02*
X123100000Y-84260000D01*
D31*
X119400000Y-84100000D02*
X120057000Y-84100000D01*
X120247599Y-84920501D02*
X122086499Y-84920501D01*
X120057000Y-84100000D02*
X120209499Y-84252499D01*
X120209499Y-84252499D02*
X120209499Y-84882401D01*
X120209499Y-84882401D02*
X120247599Y-84920501D01*
X122086499Y-84920501D02*
X122150000Y-84857000D01*
X122150000Y-84857000D02*
X122150000Y-84280000D01*
X119400000Y-84100000D02*
X119605000Y-84100000D01*
X123000000Y-84050000D02*
X123100000Y-83950000D01*
X122150000Y-84150000D02*
X122150000Y-83950000D01*
X119400000Y-84100000D02*
X119152098Y-84100000D01*
D34*
X127550000Y-97550000D02*
X127342999Y-97342999D01*
X127342999Y-97342999D02*
X127342999Y-96710241D01*
X127342999Y-96710241D02*
X127300000Y-96667242D01*
X128742602Y-97550000D02*
X127550000Y-97550000D01*
X129550000Y-98300000D02*
X129492602Y-98300000D01*
X129492602Y-98300000D02*
X128742602Y-97550000D01*
X79850000Y-88100000D02*
X80312997Y-88100000D01*
X75800000Y-95200000D02*
X75800000Y-94600000D01*
X75800000Y-94600000D02*
X75700000Y-94500000D01*
X75750000Y-89400000D02*
X75750000Y-88850000D01*
X75750000Y-88850000D02*
X75600000Y-88700000D01*
X75750000Y-83600000D02*
X75750000Y-82950000D01*
X75750000Y-82950000D02*
X75700000Y-82900000D01*
X75750000Y-83600000D02*
X75750000Y-85425000D01*
X75750000Y-85425000D02*
X76200000Y-85875000D01*
X76200000Y-85875000D02*
X77105000Y-85875000D01*
X77105000Y-86525000D02*
X77105000Y-85875000D01*
X75750000Y-89400000D02*
X75750000Y-91225000D01*
X75750000Y-91225000D02*
X76200000Y-91675000D01*
X76200000Y-91675000D02*
X77105000Y-91675000D01*
X77105000Y-92325000D02*
X77105000Y-91675000D01*
X77105000Y-98125000D02*
X77105000Y-97475000D01*
X75800000Y-95200000D02*
X75800000Y-97075000D01*
X75800000Y-97075000D02*
X76200000Y-97475000D01*
X76200000Y-97475000D02*
X77105000Y-97475000D01*
D32*
X127600000Y-94750000D02*
X127575000Y-94775000D01*
D37*
G36*
X70985000Y-87985000D02*
X68045500Y-87985000D01*
X68045500Y-84003238D01*
X68124505Y-83451570D01*
X68353819Y-82947221D01*
X68715464Y-82527511D01*
X68889048Y-82415000D01*
X70985000Y-82415000D01*
X70985000Y-87985000D01*
X70985000Y-87985000D01*
G37*
X70985000Y-87985000D02*
X68045500Y-87985000D01*
X68045500Y-84003238D01*
X68124505Y-83451570D01*
X68353819Y-82947221D01*
X68715464Y-82527511D01*
X68889048Y-82415000D01*
X70985000Y-82415000D01*
X70985000Y-87985000D01*
G36*
X70985000Y-93785000D02*
X68045500Y-93785000D01*
X68045500Y-88215000D01*
X70985000Y-88215000D01*
X70985000Y-93785000D01*
X70985000Y-93785000D01*
G37*
X70985000Y-93785000D02*
X68045500Y-93785000D01*
X68045500Y-88215000D01*
X70985000Y-88215000D01*
X70985000Y-93785000D01*
G36*
X70985000Y-99585000D02*
X68876217Y-99585000D01*
X68527510Y-99284534D01*
X68226170Y-98819623D01*
X68066977Y-98287320D01*
X68045500Y-97998310D01*
X68045500Y-94015000D01*
X70985000Y-94015000D01*
X70985000Y-99585000D01*
X70985000Y-99585000D01*
G37*
X70985000Y-99585000D02*
X68876217Y-99585000D01*
X68527510Y-99284534D01*
X68226170Y-98819623D01*
X68066977Y-98287320D01*
X68045500Y-97998310D01*
X68045500Y-94015000D01*
X70985000Y-94015000D01*
X70985000Y-99585000D01*
D38*
G36*
X86173000Y-87773000D02*
X81859995Y-87773000D01*
X81859995Y-87650000D01*
X81840204Y-87550504D01*
X81783844Y-87466156D01*
X81699496Y-87409796D01*
X81600000Y-87390005D01*
X81100000Y-87390005D01*
X81000504Y-87409796D01*
X80916156Y-87466156D01*
X80859796Y-87550504D01*
X80846967Y-87615000D01*
X80803527Y-87615000D01*
X80758525Y-87633640D01*
X80710763Y-87643141D01*
X80670272Y-87670196D01*
X80625269Y-87688837D01*
X80606499Y-87707608D01*
X80587728Y-87688837D01*
X80542725Y-87670196D01*
X80502234Y-87643141D01*
X80454472Y-87633640D01*
X80409470Y-87615000D01*
X80353033Y-87615000D01*
X80340204Y-87550504D01*
X80283844Y-87466156D01*
X80199496Y-87409796D01*
X80100000Y-87390005D01*
X79600000Y-87390005D01*
X79500504Y-87409796D01*
X79427000Y-87458910D01*
X79427000Y-83203527D01*
X81262998Y-83203527D01*
X81262998Y-83396473D01*
X81336835Y-83574731D01*
X81473267Y-83711163D01*
X81651525Y-83785000D01*
X81844471Y-83785000D01*
X82022729Y-83711163D01*
X82159161Y-83574731D01*
X82232998Y-83396473D01*
X82232998Y-83203527D01*
X82159161Y-83025269D01*
X82022729Y-82888837D01*
X81844471Y-82815000D01*
X81651525Y-82815000D01*
X81473267Y-82888837D01*
X81336835Y-83025269D01*
X81262998Y-83203527D01*
X79427000Y-83203527D01*
X79427000Y-82752606D01*
X79652606Y-82527000D01*
X86173000Y-82527000D01*
X86173000Y-87773000D01*
X86173000Y-87773000D01*
G37*
X86173000Y-87773000D02*
X81859995Y-87773000D01*
X81859995Y-87650000D01*
X81840204Y-87550504D01*
X81783844Y-87466156D01*
X81699496Y-87409796D01*
X81600000Y-87390005D01*
X81100000Y-87390005D01*
X81000504Y-87409796D01*
X80916156Y-87466156D01*
X80859796Y-87550504D01*
X80846967Y-87615000D01*
X80803527Y-87615000D01*
X80758525Y-87633640D01*
X80710763Y-87643141D01*
X80670272Y-87670196D01*
X80625269Y-87688837D01*
X80606499Y-87707608D01*
X80587728Y-87688837D01*
X80542725Y-87670196D01*
X80502234Y-87643141D01*
X80454472Y-87633640D01*
X80409470Y-87615000D01*
X80353033Y-87615000D01*
X80340204Y-87550504D01*
X80283844Y-87466156D01*
X80199496Y-87409796D01*
X80100000Y-87390005D01*
X79600000Y-87390005D01*
X79500504Y-87409796D01*
X79427000Y-87458910D01*
X79427000Y-83203527D01*
X81262998Y-83203527D01*
X81262998Y-83396473D01*
X81336835Y-83574731D01*
X81473267Y-83711163D01*
X81651525Y-83785000D01*
X81844471Y-83785000D01*
X82022729Y-83711163D01*
X82159161Y-83574731D01*
X82232998Y-83396473D01*
X82232998Y-83203527D01*
X82159161Y-83025269D01*
X82022729Y-82888837D01*
X81844471Y-82815000D01*
X81651525Y-82815000D01*
X81473267Y-82888837D01*
X81336835Y-83025269D01*
X81262998Y-83203527D01*
X79427000Y-83203527D01*
X79427000Y-82752606D01*
X79652606Y-82527000D01*
X86173000Y-82527000D01*
X86173000Y-87773000D01*
G36*
X86173000Y-93573000D02*
X79552606Y-93573000D01*
X79427000Y-93447394D01*
X79427000Y-88741090D01*
X79500504Y-88790204D01*
X79600000Y-88809995D01*
X80100000Y-88809995D01*
X80199496Y-88790204D01*
X80283844Y-88733844D01*
X80340204Y-88649496D01*
X80353033Y-88585000D01*
X80409470Y-88585000D01*
X80454472Y-88566360D01*
X80502234Y-88556859D01*
X80542725Y-88529804D01*
X80587728Y-88511163D01*
X80606499Y-88492393D01*
X80625269Y-88511163D01*
X80670272Y-88529804D01*
X80710763Y-88556859D01*
X80758525Y-88566360D01*
X80803527Y-88585000D01*
X80846967Y-88585000D01*
X80859796Y-88649496D01*
X80916156Y-88733844D01*
X81000504Y-88790204D01*
X81100000Y-88809995D01*
X81347109Y-88809995D01*
X81331835Y-88825269D01*
X81257998Y-89003527D01*
X81257998Y-89196473D01*
X81331835Y-89374731D01*
X81468267Y-89511163D01*
X81646525Y-89585000D01*
X81839471Y-89585000D01*
X82017729Y-89511163D01*
X82154161Y-89374731D01*
X82227998Y-89196473D01*
X82227998Y-89003527D01*
X82154161Y-88825269D01*
X82017729Y-88688837D01*
X81846488Y-88617906D01*
X81859995Y-88550000D01*
X81859995Y-88427000D01*
X86173000Y-88427000D01*
X86173000Y-93573000D01*
X86173000Y-93573000D01*
G37*
X86173000Y-93573000D02*
X79552606Y-93573000D01*
X79427000Y-93447394D01*
X79427000Y-88741090D01*
X79500504Y-88790204D01*
X79600000Y-88809995D01*
X80100000Y-88809995D01*
X80199496Y-88790204D01*
X80283844Y-88733844D01*
X80340204Y-88649496D01*
X80353033Y-88585000D01*
X80409470Y-88585000D01*
X80454472Y-88566360D01*
X80502234Y-88556859D01*
X80542725Y-88529804D01*
X80587728Y-88511163D01*
X80606499Y-88492393D01*
X80625269Y-88511163D01*
X80670272Y-88529804D01*
X80710763Y-88556859D01*
X80758525Y-88566360D01*
X80803527Y-88585000D01*
X80846967Y-88585000D01*
X80859796Y-88649496D01*
X80916156Y-88733844D01*
X81000504Y-88790204D01*
X81100000Y-88809995D01*
X81347109Y-88809995D01*
X81331835Y-88825269D01*
X81257998Y-89003527D01*
X81257998Y-89196473D01*
X81331835Y-89374731D01*
X81468267Y-89511163D01*
X81646525Y-89585000D01*
X81839471Y-89585000D01*
X82017729Y-89511163D01*
X82154161Y-89374731D01*
X82227998Y-89196473D01*
X82227998Y-89003527D01*
X82154161Y-88825269D01*
X82017729Y-88688837D01*
X81846488Y-88617906D01*
X81859995Y-88550000D01*
X81859995Y-88427000D01*
X86173000Y-88427000D01*
X86173000Y-93573000D01*
G36*
X86173000Y-99473000D02*
X79567968Y-99473000D01*
X79427000Y-99261548D01*
X79427000Y-94803527D01*
X81262998Y-94803527D01*
X81262998Y-94996473D01*
X81336835Y-95174731D01*
X81473267Y-95311163D01*
X81651525Y-95385000D01*
X81844471Y-95385000D01*
X82022729Y-95311163D01*
X82159161Y-95174731D01*
X82232998Y-94996473D01*
X82232998Y-94803527D01*
X82159161Y-94625269D01*
X82022729Y-94488837D01*
X81844471Y-94415000D01*
X81651525Y-94415000D01*
X81473267Y-94488837D01*
X81336835Y-94625269D01*
X81262998Y-94803527D01*
X79427000Y-94803527D01*
X79427000Y-94352606D01*
X79552606Y-94227000D01*
X86173000Y-94227000D01*
X86173000Y-99473000D01*
X86173000Y-99473000D01*
G37*
X86173000Y-99473000D02*
X79567968Y-99473000D01*
X79427000Y-99261548D01*
X79427000Y-94803527D01*
X81262998Y-94803527D01*
X81262998Y-94996473D01*
X81336835Y-95174731D01*
X81473267Y-95311163D01*
X81651525Y-95385000D01*
X81844471Y-95385000D01*
X82022729Y-95311163D01*
X82159161Y-95174731D01*
X82232998Y-94996473D01*
X82232998Y-94803527D01*
X82159161Y-94625269D01*
X82022729Y-94488837D01*
X81844471Y-94415000D01*
X81651525Y-94415000D01*
X81473267Y-94488837D01*
X81336835Y-94625269D01*
X81262998Y-94803527D01*
X79427000Y-94803527D01*
X79427000Y-94352606D01*
X79552606Y-94227000D01*
X86173000Y-94227000D01*
X86173000Y-99473000D01*
G36*
X87615000Y-82659471D02*
X87615221Y-82660005D01*
X87600000Y-82660005D01*
X87500504Y-82679796D01*
X87416156Y-82736156D01*
X87359796Y-82820504D01*
X87340005Y-82920000D01*
X87340005Y-83670000D01*
X87359796Y-83769496D01*
X87416156Y-83853844D01*
X87500504Y-83910204D01*
X87600000Y-83929995D01*
X87622612Y-83929995D01*
X87622531Y-84249968D01*
X87632186Y-84298571D01*
X87659706Y-84339780D01*
X87700900Y-84367320D01*
X87749531Y-84377000D01*
X91489454Y-84377000D01*
X91515000Y-84560528D01*
X91515000Y-84746473D01*
X91553982Y-84840584D01*
X91599135Y-85164971D01*
X91588837Y-85175269D01*
X91515000Y-85353527D01*
X91515000Y-85546473D01*
X91588837Y-85724731D01*
X91691314Y-85827208D01*
X91868340Y-87099001D01*
X91860528Y-87099001D01*
X91682270Y-87172838D01*
X91545838Y-87309270D01*
X91472001Y-87487528D01*
X91472001Y-87680474D01*
X91545838Y-87858732D01*
X91682270Y-87995164D01*
X91860528Y-88069001D01*
X92003359Y-88069001D01*
X92116235Y-88879928D01*
X91961086Y-88879928D01*
X91782828Y-88953765D01*
X91646396Y-89090197D01*
X91572559Y-89268455D01*
X91572559Y-89461401D01*
X91642896Y-89631210D01*
X91598837Y-89675269D01*
X91525000Y-89853527D01*
X91525000Y-90046473D01*
X91598837Y-90224731D01*
X91735269Y-90361163D01*
X91913527Y-90435000D01*
X92106473Y-90435000D01*
X92284731Y-90361163D01*
X92317810Y-90328084D01*
X93340005Y-97671751D01*
X93340005Y-97700000D01*
X93353102Y-97765843D01*
X93374213Y-97917509D01*
X93390488Y-97964313D01*
X93423436Y-98001326D01*
X93468039Y-98022913D01*
X93500000Y-98027000D01*
X95800000Y-98027000D01*
X95848601Y-98017333D01*
X95889803Y-97989803D01*
X95917333Y-97948601D01*
X95925933Y-97916426D01*
X96256770Y-95380000D01*
X96503000Y-95380000D01*
X96503000Y-95530000D01*
X96511465Y-95575590D01*
X96561465Y-95705590D01*
X96590197Y-95749803D01*
X96602250Y-95761856D01*
X96588837Y-95775269D01*
X96515000Y-95953527D01*
X96515000Y-96146473D01*
X96588837Y-96324731D01*
X96725269Y-96461163D01*
X96903527Y-96535000D01*
X97096473Y-96535000D01*
X97274731Y-96461163D01*
X97411163Y-96324731D01*
X97485000Y-96146473D01*
X97485000Y-95953527D01*
X97411163Y-95775269D01*
X97392087Y-95756193D01*
X97419601Y-95712715D01*
X97469601Y-95572715D01*
X97477000Y-95530000D01*
X97477000Y-95390000D01*
X97469601Y-95347285D01*
X97419601Y-95207285D01*
X97389803Y-95160197D01*
X97289803Y-95060197D01*
X97242715Y-95030399D01*
X97105328Y-94981332D01*
X97274731Y-94911163D01*
X97411163Y-94774731D01*
X97485000Y-94596473D01*
X97485000Y-94403527D01*
X97411163Y-94225269D01*
X97274731Y-94088837D01*
X97241326Y-94075000D01*
X97274731Y-94061163D01*
X97411163Y-93924731D01*
X97485000Y-93746473D01*
X97485000Y-93553527D01*
X97411163Y-93375269D01*
X97274731Y-93238837D01*
X97096473Y-93165000D01*
X96903527Y-93165000D01*
X96725269Y-93238837D01*
X96588837Y-93375269D01*
X96515000Y-93553527D01*
X96515000Y-93746473D01*
X96588837Y-93924731D01*
X96725269Y-94061163D01*
X96758674Y-94075000D01*
X96725269Y-94088837D01*
X96588837Y-94225269D01*
X96515000Y-94403527D01*
X96515000Y-94596473D01*
X96588837Y-94774731D01*
X96725269Y-94911163D01*
X96888622Y-94978826D01*
X96874410Y-94981465D01*
X96744410Y-95031465D01*
X96700197Y-95060197D01*
X96590197Y-95170197D01*
X96562769Y-95211154D01*
X96512769Y-95331154D01*
X96503000Y-95380000D01*
X96256770Y-95380000D01*
X96701040Y-91973934D01*
X96725269Y-91998163D01*
X96903527Y-92072000D01*
X97096473Y-92072000D01*
X97274731Y-91998163D01*
X97411163Y-91861731D01*
X97485000Y-91683473D01*
X97485000Y-91490527D01*
X97411163Y-91312269D01*
X97399250Y-91300356D01*
X97399803Y-91299803D01*
X97429601Y-91252715D01*
X97479601Y-91112715D01*
X97487000Y-91070000D01*
X97487000Y-90930000D01*
X97479601Y-90887285D01*
X97429601Y-90747285D01*
X97399803Y-90700197D01*
X97299803Y-90600197D01*
X97252715Y-90570399D01*
X97112715Y-90520399D01*
X97090862Y-90516614D01*
X97224731Y-90461163D01*
X97361163Y-90324731D01*
X97435000Y-90146473D01*
X97435000Y-89953527D01*
X97361163Y-89775269D01*
X97224731Y-89638837D01*
X97070615Y-89575000D01*
X97224731Y-89511163D01*
X97361163Y-89374731D01*
X97435000Y-89196473D01*
X97435000Y-89003527D01*
X97361163Y-88825269D01*
X97224731Y-88688837D01*
X97134411Y-88651425D01*
X97291902Y-87443992D01*
X97411163Y-87324731D01*
X97485000Y-87146473D01*
X97485000Y-86953527D01*
X97411163Y-86775269D01*
X97382824Y-86746930D01*
X97413399Y-86512515D01*
X97419601Y-86502715D01*
X97469601Y-86362715D01*
X97477000Y-86320000D01*
X97477000Y-86180000D01*
X97469601Y-86137285D01*
X97464284Y-86122398D01*
X97711510Y-84227000D01*
X99688490Y-84227000D01*
X101440005Y-97655284D01*
X101440005Y-97700000D01*
X101456947Y-97785174D01*
X101474067Y-97916426D01*
X101489939Y-97963368D01*
X101522567Y-98000663D01*
X101566983Y-98022633D01*
X101600000Y-98027000D01*
X103823583Y-98027000D01*
X103872184Y-98017333D01*
X103913386Y-97989803D01*
X103940916Y-97948601D01*
X103949425Y-97917111D01*
X103959085Y-97846069D01*
X103990204Y-97799496D01*
X104009995Y-97700000D01*
X104009995Y-97471652D01*
X105288697Y-88067510D01*
X105424731Y-88011163D01*
X105561163Y-87874731D01*
X105635000Y-87696473D01*
X105635000Y-87503527D01*
X105561163Y-87325269D01*
X105424731Y-87188837D01*
X105409055Y-87182344D01*
X105810900Y-84227000D01*
X107689288Y-84227000D01*
X109540005Y-97669053D01*
X109540005Y-97700000D01*
X109553847Y-97769586D01*
X109574187Y-97917322D01*
X109590393Y-97964150D01*
X109623285Y-98001212D01*
X109667857Y-98022865D01*
X109700000Y-98027000D01*
X110850000Y-98027000D01*
X110898601Y-98017333D01*
X110939803Y-97989803D01*
X110967333Y-97948601D01*
X110977000Y-97900000D01*
X110977000Y-96477000D01*
X114523000Y-96477000D01*
X114523000Y-99473000D01*
X89708999Y-99473000D01*
X89768216Y-99330038D01*
X89768216Y-99069462D01*
X89668498Y-98828722D01*
X89484244Y-98644468D01*
X89243504Y-98544750D01*
X88982928Y-98544750D01*
X88742188Y-98644468D01*
X88557934Y-98828722D01*
X88458216Y-99069462D01*
X88458216Y-99330038D01*
X88517433Y-99473000D01*
X87027000Y-99473000D01*
X87027000Y-96566568D01*
X91532271Y-96566568D01*
X91532271Y-96759514D01*
X91606108Y-96937772D01*
X91742540Y-97074204D01*
X91920798Y-97148041D01*
X92113744Y-97148041D01*
X92292002Y-97074204D01*
X92428434Y-96937772D01*
X92502271Y-96759514D01*
X92502271Y-96566568D01*
X92428434Y-96388310D01*
X92292002Y-96251878D01*
X92113744Y-96178041D01*
X91920798Y-96178041D01*
X91742540Y-96251878D01*
X91606108Y-96388310D01*
X91532271Y-96566568D01*
X87027000Y-96566568D01*
X87027000Y-94520000D01*
X87340005Y-94520000D01*
X87340005Y-95270000D01*
X87359796Y-95369496D01*
X87416156Y-95453844D01*
X87500504Y-95510204D01*
X87600000Y-95529995D01*
X88600000Y-95529995D01*
X88699496Y-95510204D01*
X88783844Y-95453844D01*
X88840204Y-95369496D01*
X88859995Y-95270000D01*
X88859995Y-94520000D01*
X88840204Y-94420504D01*
X88795452Y-94353527D01*
X91535000Y-94353527D01*
X91535000Y-94546473D01*
X91608837Y-94724731D01*
X91745269Y-94861163D01*
X91923527Y-94935000D01*
X92116473Y-94935000D01*
X92294731Y-94861163D01*
X92431163Y-94724731D01*
X92505000Y-94546473D01*
X92505000Y-94353527D01*
X92431163Y-94175269D01*
X92424860Y-94168966D01*
X92465178Y-94128647D01*
X92539015Y-93950389D01*
X92539015Y-93757443D01*
X92465178Y-93579185D01*
X92328746Y-93442753D01*
X92150488Y-93368916D01*
X91957542Y-93368916D01*
X91779284Y-93442753D01*
X91642852Y-93579185D01*
X91569015Y-93757443D01*
X91569015Y-93950389D01*
X91642852Y-94128647D01*
X91649156Y-94134951D01*
X91608837Y-94175269D01*
X91535000Y-94353527D01*
X88795452Y-94353527D01*
X88783844Y-94336156D01*
X88699496Y-94279796D01*
X88600000Y-94260005D01*
X88584779Y-94260005D01*
X88585000Y-94259471D01*
X88585000Y-94066525D01*
X88511163Y-93888267D01*
X88374731Y-93751835D01*
X88196473Y-93677998D01*
X88003527Y-93677998D01*
X87825269Y-93751835D01*
X87688837Y-93888267D01*
X87615000Y-94066525D01*
X87615000Y-94259471D01*
X87615221Y-94260005D01*
X87600000Y-94260005D01*
X87500504Y-94279796D01*
X87416156Y-94336156D01*
X87359796Y-94420504D01*
X87340005Y-94520000D01*
X87027000Y-94520000D01*
X87027000Y-92173999D01*
X91462501Y-92173999D01*
X91472002Y-92221763D01*
X91472002Y-92270473D01*
X91490643Y-92315476D01*
X91500143Y-92363236D01*
X91527197Y-92403726D01*
X91545839Y-92448731D01*
X91682271Y-92585163D01*
X91727278Y-92603806D01*
X91767765Y-92630858D01*
X91815523Y-92640358D01*
X91860529Y-92659000D01*
X91909242Y-92659000D01*
X91957001Y-92668500D01*
X92004760Y-92659000D01*
X92053475Y-92659000D01*
X92098482Y-92640358D01*
X92146239Y-92630858D01*
X92186726Y-92603806D01*
X92231733Y-92585163D01*
X92266180Y-92550716D01*
X92306666Y-92523664D01*
X92333718Y-92483178D01*
X92368165Y-92448731D01*
X92386808Y-92403724D01*
X92413860Y-92363237D01*
X92423360Y-92315480D01*
X92442002Y-92270473D01*
X92442002Y-92221758D01*
X92451502Y-92173999D01*
X92442002Y-92126240D01*
X92442002Y-92077527D01*
X92423360Y-92032521D01*
X92413860Y-91984763D01*
X92386808Y-91944276D01*
X92368165Y-91899269D01*
X92231733Y-91762837D01*
X92186728Y-91744195D01*
X92146238Y-91717141D01*
X92098478Y-91707641D01*
X92053475Y-91689000D01*
X92004765Y-91689000D01*
X91957001Y-91679499D01*
X91909237Y-91689000D01*
X91860529Y-91689000D01*
X91815528Y-91707640D01*
X91767764Y-91717141D01*
X91727270Y-91744198D01*
X91682271Y-91762837D01*
X91647833Y-91797275D01*
X91607336Y-91824334D01*
X91580277Y-91864831D01*
X91545839Y-91899269D01*
X91527200Y-91944268D01*
X91500143Y-91984762D01*
X91490642Y-92032526D01*
X91472002Y-92077527D01*
X91472002Y-92126235D01*
X91462501Y-92173999D01*
X87027000Y-92173999D01*
X87027000Y-88720000D01*
X87335005Y-88720000D01*
X87335005Y-89470000D01*
X87354796Y-89569496D01*
X87411156Y-89653844D01*
X87495504Y-89710204D01*
X87595000Y-89729995D01*
X88595000Y-89729995D01*
X88694496Y-89710204D01*
X88778844Y-89653844D01*
X88835204Y-89569496D01*
X88854995Y-89470000D01*
X88854995Y-88720000D01*
X88835204Y-88620504D01*
X88778844Y-88536156D01*
X88694496Y-88479796D01*
X88595000Y-88460005D01*
X88584779Y-88460005D01*
X88585000Y-88459471D01*
X88585000Y-88266525D01*
X88511163Y-88088267D01*
X88374731Y-87951835D01*
X88196473Y-87877998D01*
X88003527Y-87877998D01*
X87825269Y-87951835D01*
X87688837Y-88088267D01*
X87615000Y-88266525D01*
X87615000Y-88459471D01*
X87615221Y-88460005D01*
X87595000Y-88460005D01*
X87495504Y-88479796D01*
X87411156Y-88536156D01*
X87354796Y-88620504D01*
X87335005Y-88720000D01*
X87027000Y-88720000D01*
X87027000Y-82527000D01*
X87615000Y-82527000D01*
X87615000Y-82659471D01*
X87615000Y-82659471D01*
G37*
X87615000Y-82659471D02*
X87615221Y-82660005D01*
X87600000Y-82660005D01*
X87500504Y-82679796D01*
X87416156Y-82736156D01*
X87359796Y-82820504D01*
X87340005Y-82920000D01*
X87340005Y-83670000D01*
X87359796Y-83769496D01*
X87416156Y-83853844D01*
X87500504Y-83910204D01*
X87600000Y-83929995D01*
X87622612Y-83929995D01*
X87622531Y-84249968D01*
X87632186Y-84298571D01*
X87659706Y-84339780D01*
X87700900Y-84367320D01*
X87749531Y-84377000D01*
X91489454Y-84377000D01*
X91515000Y-84560528D01*
X91515000Y-84746473D01*
X91553982Y-84840584D01*
X91599135Y-85164971D01*
X91588837Y-85175269D01*
X91515000Y-85353527D01*
X91515000Y-85546473D01*
X91588837Y-85724731D01*
X91691314Y-85827208D01*
X91868340Y-87099001D01*
X91860528Y-87099001D01*
X91682270Y-87172838D01*
X91545838Y-87309270D01*
X91472001Y-87487528D01*
X91472001Y-87680474D01*
X91545838Y-87858732D01*
X91682270Y-87995164D01*
X91860528Y-88069001D01*
X92003359Y-88069001D01*
X92116235Y-88879928D01*
X91961086Y-88879928D01*
X91782828Y-88953765D01*
X91646396Y-89090197D01*
X91572559Y-89268455D01*
X91572559Y-89461401D01*
X91642896Y-89631210D01*
X91598837Y-89675269D01*
X91525000Y-89853527D01*
X91525000Y-90046473D01*
X91598837Y-90224731D01*
X91735269Y-90361163D01*
X91913527Y-90435000D01*
X92106473Y-90435000D01*
X92284731Y-90361163D01*
X92317810Y-90328084D01*
X93340005Y-97671751D01*
X93340005Y-97700000D01*
X93353102Y-97765843D01*
X93374213Y-97917509D01*
X93390488Y-97964313D01*
X93423436Y-98001326D01*
X93468039Y-98022913D01*
X93500000Y-98027000D01*
X95800000Y-98027000D01*
X95848601Y-98017333D01*
X95889803Y-97989803D01*
X95917333Y-97948601D01*
X95925933Y-97916426D01*
X96256770Y-95380000D01*
X96503000Y-95380000D01*
X96503000Y-95530000D01*
X96511465Y-95575590D01*
X96561465Y-95705590D01*
X96590197Y-95749803D01*
X96602250Y-95761856D01*
X96588837Y-95775269D01*
X96515000Y-95953527D01*
X96515000Y-96146473D01*
X96588837Y-96324731D01*
X96725269Y-96461163D01*
X96903527Y-96535000D01*
X97096473Y-96535000D01*
X97274731Y-96461163D01*
X97411163Y-96324731D01*
X97485000Y-96146473D01*
X97485000Y-95953527D01*
X97411163Y-95775269D01*
X97392087Y-95756193D01*
X97419601Y-95712715D01*
X97469601Y-95572715D01*
X97477000Y-95530000D01*
X97477000Y-95390000D01*
X97469601Y-95347285D01*
X97419601Y-95207285D01*
X97389803Y-95160197D01*
X97289803Y-95060197D01*
X97242715Y-95030399D01*
X97105328Y-94981332D01*
X97274731Y-94911163D01*
X97411163Y-94774731D01*
X97485000Y-94596473D01*
X97485000Y-94403527D01*
X97411163Y-94225269D01*
X97274731Y-94088837D01*
X97241326Y-94075000D01*
X97274731Y-94061163D01*
X97411163Y-93924731D01*
X97485000Y-93746473D01*
X97485000Y-93553527D01*
X97411163Y-93375269D01*
X97274731Y-93238837D01*
X97096473Y-93165000D01*
X96903527Y-93165000D01*
X96725269Y-93238837D01*
X96588837Y-93375269D01*
X96515000Y-93553527D01*
X96515000Y-93746473D01*
X96588837Y-93924731D01*
X96725269Y-94061163D01*
X96758674Y-94075000D01*
X96725269Y-94088837D01*
X96588837Y-94225269D01*
X96515000Y-94403527D01*
X96515000Y-94596473D01*
X96588837Y-94774731D01*
X96725269Y-94911163D01*
X96888622Y-94978826D01*
X96874410Y-94981465D01*
X96744410Y-95031465D01*
X96700197Y-95060197D01*
X96590197Y-95170197D01*
X96562769Y-95211154D01*
X96512769Y-95331154D01*
X96503000Y-95380000D01*
X96256770Y-95380000D01*
X96701040Y-91973934D01*
X96725269Y-91998163D01*
X96903527Y-92072000D01*
X97096473Y-92072000D01*
X97274731Y-91998163D01*
X97411163Y-91861731D01*
X97485000Y-91683473D01*
X97485000Y-91490527D01*
X97411163Y-91312269D01*
X97399250Y-91300356D01*
X97399803Y-91299803D01*
X97429601Y-91252715D01*
X97479601Y-91112715D01*
X97487000Y-91070000D01*
X97487000Y-90930000D01*
X97479601Y-90887285D01*
X97429601Y-90747285D01*
X97399803Y-90700197D01*
X97299803Y-90600197D01*
X97252715Y-90570399D01*
X97112715Y-90520399D01*
X97090862Y-90516614D01*
X97224731Y-90461163D01*
X97361163Y-90324731D01*
X97435000Y-90146473D01*
X97435000Y-89953527D01*
X97361163Y-89775269D01*
X97224731Y-89638837D01*
X97070615Y-89575000D01*
X97224731Y-89511163D01*
X97361163Y-89374731D01*
X97435000Y-89196473D01*
X97435000Y-89003527D01*
X97361163Y-88825269D01*
X97224731Y-88688837D01*
X97134411Y-88651425D01*
X97291902Y-87443992D01*
X97411163Y-87324731D01*
X97485000Y-87146473D01*
X97485000Y-86953527D01*
X97411163Y-86775269D01*
X97382824Y-86746930D01*
X97413399Y-86512515D01*
X97419601Y-86502715D01*
X97469601Y-86362715D01*
X97477000Y-86320000D01*
X97477000Y-86180000D01*
X97469601Y-86137285D01*
X97464284Y-86122398D01*
X97711510Y-84227000D01*
X99688490Y-84227000D01*
X101440005Y-97655284D01*
X101440005Y-97700000D01*
X101456947Y-97785174D01*
X101474067Y-97916426D01*
X101489939Y-97963368D01*
X101522567Y-98000663D01*
X101566983Y-98022633D01*
X101600000Y-98027000D01*
X103823583Y-98027000D01*
X103872184Y-98017333D01*
X103913386Y-97989803D01*
X103940916Y-97948601D01*
X103949425Y-97917111D01*
X103959085Y-97846069D01*
X103990204Y-97799496D01*
X104009995Y-97700000D01*
X104009995Y-97471652D01*
X105288697Y-88067510D01*
X105424731Y-88011163D01*
X105561163Y-87874731D01*
X105635000Y-87696473D01*
X105635000Y-87503527D01*
X105561163Y-87325269D01*
X105424731Y-87188837D01*
X105409055Y-87182344D01*
X105810900Y-84227000D01*
X107689288Y-84227000D01*
X109540005Y-97669053D01*
X109540005Y-97700000D01*
X109553847Y-97769586D01*
X109574187Y-97917322D01*
X109590393Y-97964150D01*
X109623285Y-98001212D01*
X109667857Y-98022865D01*
X109700000Y-98027000D01*
X110850000Y-98027000D01*
X110898601Y-98017333D01*
X110939803Y-97989803D01*
X110967333Y-97948601D01*
X110977000Y-97900000D01*
X110977000Y-96477000D01*
X114523000Y-96477000D01*
X114523000Y-99473000D01*
X89708999Y-99473000D01*
X89768216Y-99330038D01*
X89768216Y-99069462D01*
X89668498Y-98828722D01*
X89484244Y-98644468D01*
X89243504Y-98544750D01*
X88982928Y-98544750D01*
X88742188Y-98644468D01*
X88557934Y-98828722D01*
X88458216Y-99069462D01*
X88458216Y-99330038D01*
X88517433Y-99473000D01*
X87027000Y-99473000D01*
X87027000Y-96566568D01*
X91532271Y-96566568D01*
X91532271Y-96759514D01*
X91606108Y-96937772D01*
X91742540Y-97074204D01*
X91920798Y-97148041D01*
X92113744Y-97148041D01*
X92292002Y-97074204D01*
X92428434Y-96937772D01*
X92502271Y-96759514D01*
X92502271Y-96566568D01*
X92428434Y-96388310D01*
X92292002Y-96251878D01*
X92113744Y-96178041D01*
X91920798Y-96178041D01*
X91742540Y-96251878D01*
X91606108Y-96388310D01*
X91532271Y-96566568D01*
X87027000Y-96566568D01*
X87027000Y-94520000D01*
X87340005Y-94520000D01*
X87340005Y-95270000D01*
X87359796Y-95369496D01*
X87416156Y-95453844D01*
X87500504Y-95510204D01*
X87600000Y-95529995D01*
X88600000Y-95529995D01*
X88699496Y-95510204D01*
X88783844Y-95453844D01*
X88840204Y-95369496D01*
X88859995Y-95270000D01*
X88859995Y-94520000D01*
X88840204Y-94420504D01*
X88795452Y-94353527D01*
X91535000Y-94353527D01*
X91535000Y-94546473D01*
X91608837Y-94724731D01*
X91745269Y-94861163D01*
X91923527Y-94935000D01*
X92116473Y-94935000D01*
X92294731Y-94861163D01*
X92431163Y-94724731D01*
X92505000Y-94546473D01*
X92505000Y-94353527D01*
X92431163Y-94175269D01*
X92424860Y-94168966D01*
X92465178Y-94128647D01*
X92539015Y-93950389D01*
X92539015Y-93757443D01*
X92465178Y-93579185D01*
X92328746Y-93442753D01*
X92150488Y-93368916D01*
X91957542Y-93368916D01*
X91779284Y-93442753D01*
X91642852Y-93579185D01*
X91569015Y-93757443D01*
X91569015Y-93950389D01*
X91642852Y-94128647D01*
X91649156Y-94134951D01*
X91608837Y-94175269D01*
X91535000Y-94353527D01*
X88795452Y-94353527D01*
X88783844Y-94336156D01*
X88699496Y-94279796D01*
X88600000Y-94260005D01*
X88584779Y-94260005D01*
X88585000Y-94259471D01*
X88585000Y-94066525D01*
X88511163Y-93888267D01*
X88374731Y-93751835D01*
X88196473Y-93677998D01*
X88003527Y-93677998D01*
X87825269Y-93751835D01*
X87688837Y-93888267D01*
X87615000Y-94066525D01*
X87615000Y-94259471D01*
X87615221Y-94260005D01*
X87600000Y-94260005D01*
X87500504Y-94279796D01*
X87416156Y-94336156D01*
X87359796Y-94420504D01*
X87340005Y-94520000D01*
X87027000Y-94520000D01*
X87027000Y-92173999D01*
X91462501Y-92173999D01*
X91472002Y-92221763D01*
X91472002Y-92270473D01*
X91490643Y-92315476D01*
X91500143Y-92363236D01*
X91527197Y-92403726D01*
X91545839Y-92448731D01*
X91682271Y-92585163D01*
X91727278Y-92603806D01*
X91767765Y-92630858D01*
X91815523Y-92640358D01*
X91860529Y-92659000D01*
X91909242Y-92659000D01*
X91957001Y-92668500D01*
X92004760Y-92659000D01*
X92053475Y-92659000D01*
X92098482Y-92640358D01*
X92146239Y-92630858D01*
X92186726Y-92603806D01*
X92231733Y-92585163D01*
X92266180Y-92550716D01*
X92306666Y-92523664D01*
X92333718Y-92483178D01*
X92368165Y-92448731D01*
X92386808Y-92403724D01*
X92413860Y-92363237D01*
X92423360Y-92315480D01*
X92442002Y-92270473D01*
X92442002Y-92221758D01*
X92451502Y-92173999D01*
X92442002Y-92126240D01*
X92442002Y-92077527D01*
X92423360Y-92032521D01*
X92413860Y-91984763D01*
X92386808Y-91944276D01*
X92368165Y-91899269D01*
X92231733Y-91762837D01*
X92186728Y-91744195D01*
X92146238Y-91717141D01*
X92098478Y-91707641D01*
X92053475Y-91689000D01*
X92004765Y-91689000D01*
X91957001Y-91679499D01*
X91909237Y-91689000D01*
X91860529Y-91689000D01*
X91815528Y-91707640D01*
X91767764Y-91717141D01*
X91727270Y-91744198D01*
X91682271Y-91762837D01*
X91647833Y-91797275D01*
X91607336Y-91824334D01*
X91580277Y-91864831D01*
X91545839Y-91899269D01*
X91527200Y-91944268D01*
X91500143Y-91984762D01*
X91490642Y-92032526D01*
X91472002Y-92077527D01*
X91472002Y-92126235D01*
X91462501Y-92173999D01*
X87027000Y-92173999D01*
X87027000Y-88720000D01*
X87335005Y-88720000D01*
X87335005Y-89470000D01*
X87354796Y-89569496D01*
X87411156Y-89653844D01*
X87495504Y-89710204D01*
X87595000Y-89729995D01*
X88595000Y-89729995D01*
X88694496Y-89710204D01*
X88778844Y-89653844D01*
X88835204Y-89569496D01*
X88854995Y-89470000D01*
X88854995Y-88720000D01*
X88835204Y-88620504D01*
X88778844Y-88536156D01*
X88694496Y-88479796D01*
X88595000Y-88460005D01*
X88584779Y-88460005D01*
X88585000Y-88459471D01*
X88585000Y-88266525D01*
X88511163Y-88088267D01*
X88374731Y-87951835D01*
X88196473Y-87877998D01*
X88003527Y-87877998D01*
X87825269Y-87951835D01*
X87688837Y-88088267D01*
X87615000Y-88266525D01*
X87615000Y-88459471D01*
X87615221Y-88460005D01*
X87595000Y-88460005D01*
X87495504Y-88479796D01*
X87411156Y-88536156D01*
X87354796Y-88620504D01*
X87335005Y-88720000D01*
X87027000Y-88720000D01*
X87027000Y-82527000D01*
X87615000Y-82527000D01*
X87615000Y-82659471D01*
G36*
X75350335Y-82550335D02*
X75323281Y-82590825D01*
X75288837Y-82625269D01*
X75270195Y-82670275D01*
X75243142Y-82710763D01*
X75233642Y-82758520D01*
X75215000Y-82803527D01*
X75215000Y-82852241D01*
X75205500Y-82900000D01*
X75215000Y-82947759D01*
X75215000Y-82996473D01*
X75218908Y-83005908D01*
X75166156Y-83041156D01*
X75109796Y-83125504D01*
X75090005Y-83225000D01*
X75090005Y-83975000D01*
X75109796Y-84074496D01*
X75166156Y-84158844D01*
X75250504Y-84215204D01*
X75265000Y-84218088D01*
X75265001Y-85377236D01*
X75255500Y-85425000D01*
X75293142Y-85614237D01*
X75373279Y-85734172D01*
X75373281Y-85734174D01*
X75400336Y-85774665D01*
X75440827Y-85801720D01*
X75823278Y-86184171D01*
X75850335Y-86224665D01*
X76010763Y-86331859D01*
X76152236Y-86360000D01*
X76152240Y-86360000D01*
X76199999Y-86369500D01*
X76247758Y-86360000D01*
X76400005Y-86360000D01*
X76400005Y-86505501D01*
X76400000Y-86505500D01*
X76352241Y-86515000D01*
X76303527Y-86515000D01*
X76258520Y-86533642D01*
X76210763Y-86543142D01*
X76170275Y-86570195D01*
X76125269Y-86588837D01*
X76090825Y-86623281D01*
X76050335Y-86650335D01*
X76023281Y-86690825D01*
X75988837Y-86725269D01*
X75970195Y-86770275D01*
X75943142Y-86810763D01*
X75933642Y-86858520D01*
X75915000Y-86903527D01*
X75915000Y-86952241D01*
X75905500Y-87000000D01*
X75915000Y-87047759D01*
X75915000Y-87096473D01*
X75933642Y-87141480D01*
X75943142Y-87189237D01*
X75970195Y-87229725D01*
X75988837Y-87274731D01*
X76125269Y-87411163D01*
X76125271Y-87411164D01*
X76198276Y-87484169D01*
X76225335Y-87524665D01*
X76385763Y-87631859D01*
X76527236Y-87660000D01*
X76527240Y-87660000D01*
X76574999Y-87669500D01*
X76622758Y-87660000D01*
X77152764Y-87660000D01*
X77228199Y-87644995D01*
X77550000Y-87644995D01*
X77649496Y-87625204D01*
X77733844Y-87568844D01*
X77790204Y-87484496D01*
X77809995Y-87385000D01*
X77809995Y-86965000D01*
X77790204Y-86865504D01*
X77779844Y-86850000D01*
X77790204Y-86834496D01*
X77809995Y-86735000D01*
X77809995Y-86315000D01*
X77790204Y-86215504D01*
X77779844Y-86200000D01*
X77790204Y-86184496D01*
X77809995Y-86085000D01*
X77809995Y-85999794D01*
X77866156Y-86083844D01*
X77950504Y-86140204D01*
X78050000Y-86159995D01*
X78873000Y-86159995D01*
X78873000Y-88490005D01*
X78050000Y-88490005D01*
X77950504Y-88509796D01*
X77866156Y-88566156D01*
X77809796Y-88650504D01*
X77790005Y-88750000D01*
X77790005Y-89250000D01*
X77809796Y-89349496D01*
X77866156Y-89433844D01*
X77950504Y-89490204D01*
X78050000Y-89509995D01*
X78873000Y-89509995D01*
X78873000Y-89990005D01*
X78675898Y-89990005D01*
X78476722Y-89790829D01*
X78449665Y-89750335D01*
X78289237Y-89643141D01*
X78147764Y-89615000D01*
X78147759Y-89615000D01*
X78100000Y-89605500D01*
X78052241Y-89615000D01*
X76409995Y-89615000D01*
X76409995Y-89025000D01*
X76390204Y-88925504D01*
X76333844Y-88841156D01*
X76249496Y-88784796D01*
X76230791Y-88781075D01*
X76206859Y-88660763D01*
X76099665Y-88500335D01*
X76059171Y-88473278D01*
X76011164Y-88425271D01*
X76011163Y-88425269D01*
X75874731Y-88288837D01*
X75829725Y-88270195D01*
X75789237Y-88243142D01*
X75741480Y-88233642D01*
X75696473Y-88215000D01*
X75647759Y-88215000D01*
X75600000Y-88205500D01*
X75552241Y-88215000D01*
X75503527Y-88215000D01*
X75458520Y-88233642D01*
X75410763Y-88243142D01*
X75370275Y-88270195D01*
X75325269Y-88288837D01*
X75290825Y-88323281D01*
X75250335Y-88350335D01*
X75223281Y-88390825D01*
X75188837Y-88425269D01*
X75170195Y-88470275D01*
X75143142Y-88510763D01*
X75133642Y-88558520D01*
X75115000Y-88603527D01*
X75115000Y-88652241D01*
X75105500Y-88700000D01*
X75115000Y-88747759D01*
X75115000Y-88796473D01*
X75133642Y-88841480D01*
X75141051Y-88878727D01*
X75109796Y-88925504D01*
X75090005Y-89025000D01*
X75090005Y-89775000D01*
X75109796Y-89874496D01*
X75166156Y-89958844D01*
X75250504Y-90015204D01*
X75265000Y-90018088D01*
X75265001Y-91177236D01*
X75255500Y-91225000D01*
X75293142Y-91414237D01*
X75373279Y-91534172D01*
X75373281Y-91534174D01*
X75400336Y-91574665D01*
X75440827Y-91601720D01*
X75823278Y-91984171D01*
X75850335Y-92024665D01*
X76010763Y-92131859D01*
X76152236Y-92160000D01*
X76152240Y-92160000D01*
X76199999Y-92169500D01*
X76247758Y-92160000D01*
X76400005Y-92160000D01*
X76400005Y-92405501D01*
X76400000Y-92405500D01*
X76352241Y-92415000D01*
X76303527Y-92415000D01*
X76258520Y-92433642D01*
X76210763Y-92443142D01*
X76170275Y-92470195D01*
X76125269Y-92488837D01*
X76090825Y-92523281D01*
X76050335Y-92550335D01*
X76023281Y-92590825D01*
X75988837Y-92625269D01*
X75970195Y-92670275D01*
X75943142Y-92710763D01*
X75933642Y-92758520D01*
X75915000Y-92803527D01*
X75915000Y-92852241D01*
X75905500Y-92900000D01*
X75915000Y-92947759D01*
X75915000Y-92996473D01*
X75933642Y-93041480D01*
X75943142Y-93089237D01*
X75970195Y-93129725D01*
X75988837Y-93174731D01*
X76098280Y-93284174D01*
X76125335Y-93324665D01*
X76285763Y-93431859D01*
X76427236Y-93460000D01*
X76427240Y-93460000D01*
X76474999Y-93469500D01*
X76522758Y-93460000D01*
X77152764Y-93460000D01*
X77228199Y-93444995D01*
X77550000Y-93444995D01*
X77649496Y-93425204D01*
X77733844Y-93368844D01*
X77790204Y-93284496D01*
X77809995Y-93185000D01*
X77809995Y-92765000D01*
X77790204Y-92665504D01*
X77779844Y-92650000D01*
X77790204Y-92634496D01*
X77809995Y-92535000D01*
X77809995Y-92115000D01*
X77790204Y-92015504D01*
X77779844Y-92000000D01*
X77790204Y-91984496D01*
X77809995Y-91885000D01*
X77809995Y-91849794D01*
X77866156Y-91933844D01*
X77950504Y-91990204D01*
X78050000Y-92009995D01*
X78873000Y-92009995D01*
X78873000Y-94340005D01*
X78050000Y-94340005D01*
X77950504Y-94359796D01*
X77866156Y-94416156D01*
X77809796Y-94500504D01*
X77790005Y-94600000D01*
X77790005Y-95100000D01*
X77809796Y-95199496D01*
X77866156Y-95283844D01*
X77950504Y-95340204D01*
X78050000Y-95359995D01*
X78873000Y-95359995D01*
X78873000Y-95840005D01*
X78675899Y-95840005D01*
X78442937Y-95607044D01*
X78415880Y-95566550D01*
X78255452Y-95459356D01*
X78113979Y-95431215D01*
X78113974Y-95431215D01*
X78066215Y-95421715D01*
X78018456Y-95431215D01*
X76459995Y-95431215D01*
X76459995Y-94825000D01*
X76440204Y-94725504D01*
X76383844Y-94641156D01*
X76299496Y-94584796D01*
X76291145Y-94583135D01*
X76285000Y-94552240D01*
X76285000Y-94552236D01*
X76256859Y-94410763D01*
X76149665Y-94250335D01*
X76109174Y-94223280D01*
X75974731Y-94088837D01*
X75929725Y-94070195D01*
X75889237Y-94043142D01*
X75841480Y-94033642D01*
X75796473Y-94015000D01*
X75747759Y-94015000D01*
X75700000Y-94005500D01*
X75652241Y-94015000D01*
X75603527Y-94015000D01*
X75558520Y-94033642D01*
X75510763Y-94043142D01*
X75470275Y-94070195D01*
X75425269Y-94088837D01*
X75390825Y-94123281D01*
X75350335Y-94150335D01*
X75323281Y-94190825D01*
X75288837Y-94225269D01*
X75270195Y-94270275D01*
X75243142Y-94310763D01*
X75233642Y-94358520D01*
X75215000Y-94403527D01*
X75215000Y-94452241D01*
X75205500Y-94500000D01*
X75215000Y-94547759D01*
X75215000Y-94596473D01*
X75229747Y-94632075D01*
X75216156Y-94641156D01*
X75159796Y-94725504D01*
X75140005Y-94825000D01*
X75140005Y-95575000D01*
X75159796Y-95674496D01*
X75216156Y-95758844D01*
X75300504Y-95815204D01*
X75315000Y-95818088D01*
X75315001Y-97027236D01*
X75305500Y-97075000D01*
X75343142Y-97264237D01*
X75423279Y-97384172D01*
X75423281Y-97384174D01*
X75450336Y-97424665D01*
X75490827Y-97451720D01*
X75823278Y-97784171D01*
X75850335Y-97824665D01*
X76010763Y-97931859D01*
X76152236Y-97960000D01*
X76152240Y-97960000D01*
X76199999Y-97969500D01*
X76247758Y-97960000D01*
X76400005Y-97960000D01*
X76400005Y-98205501D01*
X76400000Y-98205500D01*
X76352241Y-98215000D01*
X76303527Y-98215000D01*
X76258520Y-98233642D01*
X76210763Y-98243142D01*
X76170275Y-98270195D01*
X76125269Y-98288837D01*
X76090825Y-98323281D01*
X76050335Y-98350335D01*
X76023281Y-98390825D01*
X75988837Y-98425269D01*
X75970195Y-98470275D01*
X75943142Y-98510763D01*
X75933642Y-98558520D01*
X75915000Y-98603527D01*
X75915000Y-98652241D01*
X75905500Y-98700000D01*
X75915000Y-98747759D01*
X75915000Y-98796473D01*
X75933642Y-98841480D01*
X75943142Y-98889237D01*
X75970195Y-98929725D01*
X75988837Y-98974731D01*
X76098280Y-99084174D01*
X76125335Y-99124665D01*
X76285763Y-99231859D01*
X76427236Y-99260000D01*
X76427240Y-99260000D01*
X76474999Y-99269500D01*
X76522758Y-99260000D01*
X77152764Y-99260000D01*
X77228199Y-99244995D01*
X77550000Y-99244995D01*
X77649496Y-99225204D01*
X77733844Y-99168844D01*
X77790204Y-99084496D01*
X77809995Y-98985000D01*
X77809995Y-98565000D01*
X77790204Y-98465504D01*
X77779844Y-98450000D01*
X77790204Y-98434496D01*
X77809995Y-98335000D01*
X77809995Y-97949794D01*
X77866156Y-98033844D01*
X77950504Y-98090204D01*
X78050000Y-98109995D01*
X78873000Y-98109995D01*
X78873000Y-99473000D01*
X71527000Y-99473000D01*
X71527000Y-98565000D01*
X72190005Y-98565000D01*
X72190005Y-98985000D01*
X72209796Y-99084496D01*
X72266156Y-99168844D01*
X72350504Y-99225204D01*
X72450000Y-99244995D01*
X73340000Y-99244995D01*
X73439496Y-99225204D01*
X73523844Y-99168844D01*
X73580204Y-99084496D01*
X73599995Y-98985000D01*
X73599995Y-98565000D01*
X73580204Y-98465504D01*
X73523844Y-98381156D01*
X73439496Y-98324796D01*
X73340000Y-98305005D01*
X72450000Y-98305005D01*
X72350504Y-98324796D01*
X72266156Y-98381156D01*
X72209796Y-98465504D01*
X72190005Y-98565000D01*
X71527000Y-98565000D01*
X71527000Y-96615000D01*
X72190005Y-96615000D01*
X72190005Y-97035000D01*
X72209796Y-97134496D01*
X72266156Y-97218844D01*
X72350504Y-97275204D01*
X72450000Y-97294995D01*
X72771801Y-97294995D01*
X72847236Y-97310000D01*
X73527241Y-97310000D01*
X73575000Y-97319500D01*
X73622759Y-97310000D01*
X73622764Y-97310000D01*
X73764237Y-97281859D01*
X73862393Y-97216274D01*
X73874731Y-97211163D01*
X73884174Y-97201720D01*
X73924665Y-97174665D01*
X73951720Y-97134174D01*
X74011163Y-97074731D01*
X74029806Y-97029724D01*
X74056858Y-96989237D01*
X74066358Y-96941479D01*
X74085000Y-96896473D01*
X74085000Y-96847760D01*
X74094500Y-96800001D01*
X74085000Y-96752242D01*
X74085000Y-96703527D01*
X74066358Y-96658520D01*
X74056858Y-96610763D01*
X74029806Y-96570276D01*
X74011163Y-96525269D01*
X73976716Y-96490822D01*
X73949664Y-96450336D01*
X73909178Y-96423284D01*
X73874731Y-96388837D01*
X73829724Y-96370194D01*
X73789237Y-96343142D01*
X73741480Y-96333642D01*
X73696473Y-96315000D01*
X73647758Y-96315000D01*
X73599999Y-96305500D01*
X73552240Y-96315000D01*
X73503527Y-96315000D01*
X73458521Y-96333642D01*
X73426559Y-96340000D01*
X72847236Y-96340000D01*
X72771801Y-96355005D01*
X72450000Y-96355005D01*
X72350504Y-96374796D01*
X72266156Y-96431156D01*
X72209796Y-96515504D01*
X72190005Y-96615000D01*
X71527000Y-96615000D01*
X71527000Y-92765000D01*
X72190005Y-92765000D01*
X72190005Y-93185000D01*
X72209796Y-93284496D01*
X72266156Y-93368844D01*
X72350504Y-93425204D01*
X72450000Y-93444995D01*
X73340000Y-93444995D01*
X73439496Y-93425204D01*
X73523844Y-93368844D01*
X73580204Y-93284496D01*
X73599995Y-93185000D01*
X73599995Y-92765000D01*
X73580204Y-92665504D01*
X73523844Y-92581156D01*
X73439496Y-92524796D01*
X73340000Y-92505005D01*
X72450000Y-92505005D01*
X72350504Y-92524796D01*
X72266156Y-92581156D01*
X72209796Y-92665504D01*
X72190005Y-92765000D01*
X71527000Y-92765000D01*
X71527000Y-90815000D01*
X72190005Y-90815000D01*
X72190005Y-91235000D01*
X72209796Y-91334496D01*
X72266156Y-91418844D01*
X72350504Y-91475204D01*
X72450000Y-91494995D01*
X72771801Y-91494995D01*
X72847236Y-91510000D01*
X73527241Y-91510000D01*
X73575000Y-91519500D01*
X73622759Y-91510000D01*
X73622764Y-91510000D01*
X73764237Y-91481859D01*
X73862393Y-91416274D01*
X73874731Y-91411163D01*
X73884174Y-91401720D01*
X73924665Y-91374665D01*
X73951720Y-91334174D01*
X74011163Y-91274731D01*
X74029806Y-91229724D01*
X74056858Y-91189237D01*
X74066358Y-91141479D01*
X74085000Y-91096473D01*
X74085000Y-91047760D01*
X74094500Y-91000001D01*
X74085000Y-90952242D01*
X74085000Y-90903527D01*
X74066358Y-90858520D01*
X74056858Y-90810763D01*
X74029806Y-90770276D01*
X74011163Y-90725269D01*
X73976716Y-90690822D01*
X73949664Y-90650336D01*
X73909178Y-90623284D01*
X73874731Y-90588837D01*
X73829724Y-90570194D01*
X73789237Y-90543142D01*
X73741480Y-90533642D01*
X73696473Y-90515000D01*
X73647758Y-90515000D01*
X73599999Y-90505500D01*
X73552240Y-90515000D01*
X73503527Y-90515000D01*
X73458521Y-90533642D01*
X73426559Y-90540000D01*
X72847236Y-90540000D01*
X72771801Y-90555005D01*
X72450000Y-90555005D01*
X72350504Y-90574796D01*
X72266156Y-90631156D01*
X72209796Y-90715504D01*
X72190005Y-90815000D01*
X71527000Y-90815000D01*
X71527000Y-86965000D01*
X72190005Y-86965000D01*
X72190005Y-87385000D01*
X72209796Y-87484496D01*
X72266156Y-87568844D01*
X72350504Y-87625204D01*
X72450000Y-87644995D01*
X73340000Y-87644995D01*
X73439496Y-87625204D01*
X73523844Y-87568844D01*
X73580204Y-87484496D01*
X73599995Y-87385000D01*
X73599995Y-86965000D01*
X73580204Y-86865504D01*
X73523844Y-86781156D01*
X73439496Y-86724796D01*
X73340000Y-86705005D01*
X72450000Y-86705005D01*
X72350504Y-86724796D01*
X72266156Y-86781156D01*
X72209796Y-86865504D01*
X72190005Y-86965000D01*
X71527000Y-86965000D01*
X71527000Y-85015000D01*
X72190005Y-85015000D01*
X72190005Y-85435000D01*
X72209796Y-85534496D01*
X72266156Y-85618844D01*
X72350504Y-85675204D01*
X72450000Y-85694995D01*
X72771801Y-85694995D01*
X72847236Y-85710000D01*
X73527241Y-85710000D01*
X73575000Y-85719500D01*
X73622759Y-85710000D01*
X73622764Y-85710000D01*
X73764237Y-85681859D01*
X73862393Y-85616274D01*
X73874731Y-85611163D01*
X73884174Y-85601720D01*
X73924665Y-85574665D01*
X73951720Y-85534174D01*
X74011163Y-85474731D01*
X74029806Y-85429724D01*
X74056858Y-85389237D01*
X74066358Y-85341479D01*
X74085000Y-85296473D01*
X74085000Y-85247760D01*
X74094500Y-85200001D01*
X74085000Y-85152242D01*
X74085000Y-85103527D01*
X74066358Y-85058520D01*
X74056858Y-85010763D01*
X74029806Y-84970276D01*
X74011163Y-84925269D01*
X73976716Y-84890822D01*
X73949664Y-84850336D01*
X73909178Y-84823284D01*
X73874731Y-84788837D01*
X73829724Y-84770194D01*
X73789237Y-84743142D01*
X73741480Y-84733642D01*
X73696473Y-84715000D01*
X73647758Y-84715000D01*
X73599999Y-84705500D01*
X73552240Y-84715000D01*
X73503527Y-84715000D01*
X73458521Y-84733642D01*
X73426559Y-84740000D01*
X72847236Y-84740000D01*
X72771801Y-84755005D01*
X72450000Y-84755005D01*
X72350504Y-84774796D01*
X72266156Y-84831156D01*
X72209796Y-84915504D01*
X72190005Y-85015000D01*
X71527000Y-85015000D01*
X71527000Y-82527000D01*
X75385259Y-82527000D01*
X75350335Y-82550335D01*
X75350335Y-82550335D01*
G37*
X75350335Y-82550335D02*
X75323281Y-82590825D01*
X75288837Y-82625269D01*
X75270195Y-82670275D01*
X75243142Y-82710763D01*
X75233642Y-82758520D01*
X75215000Y-82803527D01*
X75215000Y-82852241D01*
X75205500Y-82900000D01*
X75215000Y-82947759D01*
X75215000Y-82996473D01*
X75218908Y-83005908D01*
X75166156Y-83041156D01*
X75109796Y-83125504D01*
X75090005Y-83225000D01*
X75090005Y-83975000D01*
X75109796Y-84074496D01*
X75166156Y-84158844D01*
X75250504Y-84215204D01*
X75265000Y-84218088D01*
X75265001Y-85377236D01*
X75255500Y-85425000D01*
X75293142Y-85614237D01*
X75373279Y-85734172D01*
X75373281Y-85734174D01*
X75400336Y-85774665D01*
X75440827Y-85801720D01*
X75823278Y-86184171D01*
X75850335Y-86224665D01*
X76010763Y-86331859D01*
X76152236Y-86360000D01*
X76152240Y-86360000D01*
X76199999Y-86369500D01*
X76247758Y-86360000D01*
X76400005Y-86360000D01*
X76400005Y-86505501D01*
X76400000Y-86505500D01*
X76352241Y-86515000D01*
X76303527Y-86515000D01*
X76258520Y-86533642D01*
X76210763Y-86543142D01*
X76170275Y-86570195D01*
X76125269Y-86588837D01*
X76090825Y-86623281D01*
X76050335Y-86650335D01*
X76023281Y-86690825D01*
X75988837Y-86725269D01*
X75970195Y-86770275D01*
X75943142Y-86810763D01*
X75933642Y-86858520D01*
X75915000Y-86903527D01*
X75915000Y-86952241D01*
X75905500Y-87000000D01*
X75915000Y-87047759D01*
X75915000Y-87096473D01*
X75933642Y-87141480D01*
X75943142Y-87189237D01*
X75970195Y-87229725D01*
X75988837Y-87274731D01*
X76125269Y-87411163D01*
X76125271Y-87411164D01*
X76198276Y-87484169D01*
X76225335Y-87524665D01*
X76385763Y-87631859D01*
X76527236Y-87660000D01*
X76527240Y-87660000D01*
X76574999Y-87669500D01*
X76622758Y-87660000D01*
X77152764Y-87660000D01*
X77228199Y-87644995D01*
X77550000Y-87644995D01*
X77649496Y-87625204D01*
X77733844Y-87568844D01*
X77790204Y-87484496D01*
X77809995Y-87385000D01*
X77809995Y-86965000D01*
X77790204Y-86865504D01*
X77779844Y-86850000D01*
X77790204Y-86834496D01*
X77809995Y-86735000D01*
X77809995Y-86315000D01*
X77790204Y-86215504D01*
X77779844Y-86200000D01*
X77790204Y-86184496D01*
X77809995Y-86085000D01*
X77809995Y-85999794D01*
X77866156Y-86083844D01*
X77950504Y-86140204D01*
X78050000Y-86159995D01*
X78873000Y-86159995D01*
X78873000Y-88490005D01*
X78050000Y-88490005D01*
X77950504Y-88509796D01*
X77866156Y-88566156D01*
X77809796Y-88650504D01*
X77790005Y-88750000D01*
X77790005Y-89250000D01*
X77809796Y-89349496D01*
X77866156Y-89433844D01*
X77950504Y-89490204D01*
X78050000Y-89509995D01*
X78873000Y-89509995D01*
X78873000Y-89990005D01*
X78675898Y-89990005D01*
X78476722Y-89790829D01*
X78449665Y-89750335D01*
X78289237Y-89643141D01*
X78147764Y-89615000D01*
X78147759Y-89615000D01*
X78100000Y-89605500D01*
X78052241Y-89615000D01*
X76409995Y-89615000D01*
X76409995Y-89025000D01*
X76390204Y-88925504D01*
X76333844Y-88841156D01*
X76249496Y-88784796D01*
X76230791Y-88781075D01*
X76206859Y-88660763D01*
X76099665Y-88500335D01*
X76059171Y-88473278D01*
X76011164Y-88425271D01*
X76011163Y-88425269D01*
X75874731Y-88288837D01*
X75829725Y-88270195D01*
X75789237Y-88243142D01*
X75741480Y-88233642D01*
X75696473Y-88215000D01*
X75647759Y-88215000D01*
X75600000Y-88205500D01*
X75552241Y-88215000D01*
X75503527Y-88215000D01*
X75458520Y-88233642D01*
X75410763Y-88243142D01*
X75370275Y-88270195D01*
X75325269Y-88288837D01*
X75290825Y-88323281D01*
X75250335Y-88350335D01*
X75223281Y-88390825D01*
X75188837Y-88425269D01*
X75170195Y-88470275D01*
X75143142Y-88510763D01*
X75133642Y-88558520D01*
X75115000Y-88603527D01*
X75115000Y-88652241D01*
X75105500Y-88700000D01*
X75115000Y-88747759D01*
X75115000Y-88796473D01*
X75133642Y-88841480D01*
X75141051Y-88878727D01*
X75109796Y-88925504D01*
X75090005Y-89025000D01*
X75090005Y-89775000D01*
X75109796Y-89874496D01*
X75166156Y-89958844D01*
X75250504Y-90015204D01*
X75265000Y-90018088D01*
X75265001Y-91177236D01*
X75255500Y-91225000D01*
X75293142Y-91414237D01*
X75373279Y-91534172D01*
X75373281Y-91534174D01*
X75400336Y-91574665D01*
X75440827Y-91601720D01*
X75823278Y-91984171D01*
X75850335Y-92024665D01*
X76010763Y-92131859D01*
X76152236Y-92160000D01*
X76152240Y-92160000D01*
X76199999Y-92169500D01*
X76247758Y-92160000D01*
X76400005Y-92160000D01*
X76400005Y-92405501D01*
X76400000Y-92405500D01*
X76352241Y-92415000D01*
X76303527Y-92415000D01*
X76258520Y-92433642D01*
X76210763Y-92443142D01*
X76170275Y-92470195D01*
X76125269Y-92488837D01*
X76090825Y-92523281D01*
X76050335Y-92550335D01*
X76023281Y-92590825D01*
X75988837Y-92625269D01*
X75970195Y-92670275D01*
X75943142Y-92710763D01*
X75933642Y-92758520D01*
X75915000Y-92803527D01*
X75915000Y-92852241D01*
X75905500Y-92900000D01*
X75915000Y-92947759D01*
X75915000Y-92996473D01*
X75933642Y-93041480D01*
X75943142Y-93089237D01*
X75970195Y-93129725D01*
X75988837Y-93174731D01*
X76098280Y-93284174D01*
X76125335Y-93324665D01*
X76285763Y-93431859D01*
X76427236Y-93460000D01*
X76427240Y-93460000D01*
X76474999Y-93469500D01*
X76522758Y-93460000D01*
X77152764Y-93460000D01*
X77228199Y-93444995D01*
X77550000Y-93444995D01*
X77649496Y-93425204D01*
X77733844Y-93368844D01*
X77790204Y-93284496D01*
X77809995Y-93185000D01*
X77809995Y-92765000D01*
X77790204Y-92665504D01*
X77779844Y-92650000D01*
X77790204Y-92634496D01*
X77809995Y-92535000D01*
X77809995Y-92115000D01*
X77790204Y-92015504D01*
X77779844Y-92000000D01*
X77790204Y-91984496D01*
X77809995Y-91885000D01*
X77809995Y-91849794D01*
X77866156Y-91933844D01*
X77950504Y-91990204D01*
X78050000Y-92009995D01*
X78873000Y-92009995D01*
X78873000Y-94340005D01*
X78050000Y-94340005D01*
X77950504Y-94359796D01*
X77866156Y-94416156D01*
X77809796Y-94500504D01*
X77790005Y-94600000D01*
X77790005Y-95100000D01*
X77809796Y-95199496D01*
X77866156Y-95283844D01*
X77950504Y-95340204D01*
X78050000Y-95359995D01*
X78873000Y-95359995D01*
X78873000Y-95840005D01*
X78675899Y-95840005D01*
X78442937Y-95607044D01*
X78415880Y-95566550D01*
X78255452Y-95459356D01*
X78113979Y-95431215D01*
X78113974Y-95431215D01*
X78066215Y-95421715D01*
X78018456Y-95431215D01*
X76459995Y-95431215D01*
X76459995Y-94825000D01*
X76440204Y-94725504D01*
X76383844Y-94641156D01*
X76299496Y-94584796D01*
X76291145Y-94583135D01*
X76285000Y-94552240D01*
X76285000Y-94552236D01*
X76256859Y-94410763D01*
X76149665Y-94250335D01*
X76109174Y-94223280D01*
X75974731Y-94088837D01*
X75929725Y-94070195D01*
X75889237Y-94043142D01*
X75841480Y-94033642D01*
X75796473Y-94015000D01*
X75747759Y-94015000D01*
X75700000Y-94005500D01*
X75652241Y-94015000D01*
X75603527Y-94015000D01*
X75558520Y-94033642D01*
X75510763Y-94043142D01*
X75470275Y-94070195D01*
X75425269Y-94088837D01*
X75390825Y-94123281D01*
X75350335Y-94150335D01*
X75323281Y-94190825D01*
X75288837Y-94225269D01*
X75270195Y-94270275D01*
X75243142Y-94310763D01*
X75233642Y-94358520D01*
X75215000Y-94403527D01*
X75215000Y-94452241D01*
X75205500Y-94500000D01*
X75215000Y-94547759D01*
X75215000Y-94596473D01*
X75229747Y-94632075D01*
X75216156Y-94641156D01*
X75159796Y-94725504D01*
X75140005Y-94825000D01*
X75140005Y-95575000D01*
X75159796Y-95674496D01*
X75216156Y-95758844D01*
X75300504Y-95815204D01*
X75315000Y-95818088D01*
X75315001Y-97027236D01*
X75305500Y-97075000D01*
X75343142Y-97264237D01*
X75423279Y-97384172D01*
X75423281Y-97384174D01*
X75450336Y-97424665D01*
X75490827Y-97451720D01*
X75823278Y-97784171D01*
X75850335Y-97824665D01*
X76010763Y-97931859D01*
X76152236Y-97960000D01*
X76152240Y-97960000D01*
X76199999Y-97969500D01*
X76247758Y-97960000D01*
X76400005Y-97960000D01*
X76400005Y-98205501D01*
X76400000Y-98205500D01*
X76352241Y-98215000D01*
X76303527Y-98215000D01*
X76258520Y-98233642D01*
X76210763Y-98243142D01*
X76170275Y-98270195D01*
X76125269Y-98288837D01*
X76090825Y-98323281D01*
X76050335Y-98350335D01*
X76023281Y-98390825D01*
X75988837Y-98425269D01*
X75970195Y-98470275D01*
X75943142Y-98510763D01*
X75933642Y-98558520D01*
X75915000Y-98603527D01*
X75915000Y-98652241D01*
X75905500Y-98700000D01*
X75915000Y-98747759D01*
X75915000Y-98796473D01*
X75933642Y-98841480D01*
X75943142Y-98889237D01*
X75970195Y-98929725D01*
X75988837Y-98974731D01*
X76098280Y-99084174D01*
X76125335Y-99124665D01*
X76285763Y-99231859D01*
X76427236Y-99260000D01*
X76427240Y-99260000D01*
X76474999Y-99269500D01*
X76522758Y-99260000D01*
X77152764Y-99260000D01*
X77228199Y-99244995D01*
X77550000Y-99244995D01*
X77649496Y-99225204D01*
X77733844Y-99168844D01*
X77790204Y-99084496D01*
X77809995Y-98985000D01*
X77809995Y-98565000D01*
X77790204Y-98465504D01*
X77779844Y-98450000D01*
X77790204Y-98434496D01*
X77809995Y-98335000D01*
X77809995Y-97949794D01*
X77866156Y-98033844D01*
X77950504Y-98090204D01*
X78050000Y-98109995D01*
X78873000Y-98109995D01*
X78873000Y-99473000D01*
X71527000Y-99473000D01*
X71527000Y-98565000D01*
X72190005Y-98565000D01*
X72190005Y-98985000D01*
X72209796Y-99084496D01*
X72266156Y-99168844D01*
X72350504Y-99225204D01*
X72450000Y-99244995D01*
X73340000Y-99244995D01*
X73439496Y-99225204D01*
X73523844Y-99168844D01*
X73580204Y-99084496D01*
X73599995Y-98985000D01*
X73599995Y-98565000D01*
X73580204Y-98465504D01*
X73523844Y-98381156D01*
X73439496Y-98324796D01*
X73340000Y-98305005D01*
X72450000Y-98305005D01*
X72350504Y-98324796D01*
X72266156Y-98381156D01*
X72209796Y-98465504D01*
X72190005Y-98565000D01*
X71527000Y-98565000D01*
X71527000Y-96615000D01*
X72190005Y-96615000D01*
X72190005Y-97035000D01*
X72209796Y-97134496D01*
X72266156Y-97218844D01*
X72350504Y-97275204D01*
X72450000Y-97294995D01*
X72771801Y-97294995D01*
X72847236Y-97310000D01*
X73527241Y-97310000D01*
X73575000Y-97319500D01*
X73622759Y-97310000D01*
X73622764Y-97310000D01*
X73764237Y-97281859D01*
X73862393Y-97216274D01*
X73874731Y-97211163D01*
X73884174Y-97201720D01*
X73924665Y-97174665D01*
X73951720Y-97134174D01*
X74011163Y-97074731D01*
X74029806Y-97029724D01*
X74056858Y-96989237D01*
X74066358Y-96941479D01*
X74085000Y-96896473D01*
X74085000Y-96847760D01*
X74094500Y-96800001D01*
X74085000Y-96752242D01*
X74085000Y-96703527D01*
X74066358Y-96658520D01*
X74056858Y-96610763D01*
X74029806Y-96570276D01*
X74011163Y-96525269D01*
X73976716Y-96490822D01*
X73949664Y-96450336D01*
X73909178Y-96423284D01*
X73874731Y-96388837D01*
X73829724Y-96370194D01*
X73789237Y-96343142D01*
X73741480Y-96333642D01*
X73696473Y-96315000D01*
X73647758Y-96315000D01*
X73599999Y-96305500D01*
X73552240Y-96315000D01*
X73503527Y-96315000D01*
X73458521Y-96333642D01*
X73426559Y-96340000D01*
X72847236Y-96340000D01*
X72771801Y-96355005D01*
X72450000Y-96355005D01*
X72350504Y-96374796D01*
X72266156Y-96431156D01*
X72209796Y-96515504D01*
X72190005Y-96615000D01*
X71527000Y-96615000D01*
X71527000Y-92765000D01*
X72190005Y-92765000D01*
X72190005Y-93185000D01*
X72209796Y-93284496D01*
X72266156Y-93368844D01*
X72350504Y-93425204D01*
X72450000Y-93444995D01*
X73340000Y-93444995D01*
X73439496Y-93425204D01*
X73523844Y-93368844D01*
X73580204Y-93284496D01*
X73599995Y-93185000D01*
X73599995Y-92765000D01*
X73580204Y-92665504D01*
X73523844Y-92581156D01*
X73439496Y-92524796D01*
X73340000Y-92505005D01*
X72450000Y-92505005D01*
X72350504Y-92524796D01*
X72266156Y-92581156D01*
X72209796Y-92665504D01*
X72190005Y-92765000D01*
X71527000Y-92765000D01*
X71527000Y-90815000D01*
X72190005Y-90815000D01*
X72190005Y-91235000D01*
X72209796Y-91334496D01*
X72266156Y-91418844D01*
X72350504Y-91475204D01*
X72450000Y-91494995D01*
X72771801Y-91494995D01*
X72847236Y-91510000D01*
X73527241Y-91510000D01*
X73575000Y-91519500D01*
X73622759Y-91510000D01*
X73622764Y-91510000D01*
X73764237Y-91481859D01*
X73862393Y-91416274D01*
X73874731Y-91411163D01*
X73884174Y-91401720D01*
X73924665Y-91374665D01*
X73951720Y-91334174D01*
X74011163Y-91274731D01*
X74029806Y-91229724D01*
X74056858Y-91189237D01*
X74066358Y-91141479D01*
X74085000Y-91096473D01*
X74085000Y-91047760D01*
X74094500Y-91000001D01*
X74085000Y-90952242D01*
X74085000Y-90903527D01*
X74066358Y-90858520D01*
X74056858Y-90810763D01*
X74029806Y-90770276D01*
X74011163Y-90725269D01*
X73976716Y-90690822D01*
X73949664Y-90650336D01*
X73909178Y-90623284D01*
X73874731Y-90588837D01*
X73829724Y-90570194D01*
X73789237Y-90543142D01*
X73741480Y-90533642D01*
X73696473Y-90515000D01*
X73647758Y-90515000D01*
X73599999Y-90505500D01*
X73552240Y-90515000D01*
X73503527Y-90515000D01*
X73458521Y-90533642D01*
X73426559Y-90540000D01*
X72847236Y-90540000D01*
X72771801Y-90555005D01*
X72450000Y-90555005D01*
X72350504Y-90574796D01*
X72266156Y-90631156D01*
X72209796Y-90715504D01*
X72190005Y-90815000D01*
X71527000Y-90815000D01*
X71527000Y-86965000D01*
X72190005Y-86965000D01*
X72190005Y-87385000D01*
X72209796Y-87484496D01*
X72266156Y-87568844D01*
X72350504Y-87625204D01*
X72450000Y-87644995D01*
X73340000Y-87644995D01*
X73439496Y-87625204D01*
X73523844Y-87568844D01*
X73580204Y-87484496D01*
X73599995Y-87385000D01*
X73599995Y-86965000D01*
X73580204Y-86865504D01*
X73523844Y-86781156D01*
X73439496Y-86724796D01*
X73340000Y-86705005D01*
X72450000Y-86705005D01*
X72350504Y-86724796D01*
X72266156Y-86781156D01*
X72209796Y-86865504D01*
X72190005Y-86965000D01*
X71527000Y-86965000D01*
X71527000Y-85015000D01*
X72190005Y-85015000D01*
X72190005Y-85435000D01*
X72209796Y-85534496D01*
X72266156Y-85618844D01*
X72350504Y-85675204D01*
X72450000Y-85694995D01*
X72771801Y-85694995D01*
X72847236Y-85710000D01*
X73527241Y-85710000D01*
X73575000Y-85719500D01*
X73622759Y-85710000D01*
X73622764Y-85710000D01*
X73764237Y-85681859D01*
X73862393Y-85616274D01*
X73874731Y-85611163D01*
X73884174Y-85601720D01*
X73924665Y-85574665D01*
X73951720Y-85534174D01*
X74011163Y-85474731D01*
X74029806Y-85429724D01*
X74056858Y-85389237D01*
X74066358Y-85341479D01*
X74085000Y-85296473D01*
X74085000Y-85247760D01*
X74094500Y-85200001D01*
X74085000Y-85152242D01*
X74085000Y-85103527D01*
X74066358Y-85058520D01*
X74056858Y-85010763D01*
X74029806Y-84970276D01*
X74011163Y-84925269D01*
X73976716Y-84890822D01*
X73949664Y-84850336D01*
X73909178Y-84823284D01*
X73874731Y-84788837D01*
X73829724Y-84770194D01*
X73789237Y-84743142D01*
X73741480Y-84733642D01*
X73696473Y-84715000D01*
X73647758Y-84715000D01*
X73599999Y-84705500D01*
X73552240Y-84715000D01*
X73503527Y-84715000D01*
X73458521Y-84733642D01*
X73426559Y-84740000D01*
X72847236Y-84740000D01*
X72771801Y-84755005D01*
X72450000Y-84755005D01*
X72350504Y-84774796D01*
X72266156Y-84831156D01*
X72209796Y-84915504D01*
X72190005Y-85015000D01*
X71527000Y-85015000D01*
X71527000Y-82527000D01*
X75385259Y-82527000D01*
X75350335Y-82550335D01*
G36*
X114523000Y-82550000D02*
X114532667Y-82598601D01*
X114560197Y-82639803D01*
X114601399Y-82667333D01*
X114650000Y-82677000D01*
X114823000Y-82677000D01*
X114823000Y-82723000D01*
X114650000Y-82723000D01*
X114601399Y-82732667D01*
X114560197Y-82760197D01*
X114532667Y-82801399D01*
X114523000Y-82850000D01*
X114523000Y-85523000D01*
X110850000Y-85523000D01*
X110801399Y-85532667D01*
X110760197Y-85560197D01*
X110732667Y-85601399D01*
X110723000Y-85650000D01*
X110723000Y-96134066D01*
X110669688Y-96169688D01*
X110614411Y-96252416D01*
X110595000Y-96350000D01*
X110595000Y-97645000D01*
X109922297Y-97645000D01*
X108052617Y-84065219D01*
X108035589Y-84002416D01*
X107980312Y-83919688D01*
X107897584Y-83864411D01*
X107800000Y-83845000D01*
X105700000Y-83845000D01*
X105635047Y-83853411D01*
X105545626Y-83897038D01*
X105479707Y-83971564D01*
X105447325Y-84065643D01*
X105031454Y-87124143D01*
X104875269Y-87188837D01*
X104738837Y-87325269D01*
X104665000Y-87503527D01*
X104665000Y-87696473D01*
X104738837Y-87874731D01*
X104875269Y-88011163D01*
X104908947Y-88025113D01*
X103600909Y-97645000D01*
X101823899Y-97645000D01*
X100052858Y-84067019D01*
X100035589Y-84002416D01*
X99980312Y-83919688D01*
X99897584Y-83864411D01*
X99800000Y-83845000D01*
X97600000Y-83845000D01*
X97533706Y-83853768D01*
X97444524Y-83897881D01*
X97379011Y-83972764D01*
X97347142Y-84067019D01*
X97324731Y-84238837D01*
X97274731Y-84188837D01*
X97096473Y-84115000D01*
X96903527Y-84115000D01*
X96725269Y-84188837D01*
X96588837Y-84325269D01*
X96515000Y-84503527D01*
X96515000Y-84696473D01*
X96588837Y-84874731D01*
X96725269Y-85011163D01*
X96819030Y-85050000D01*
X96725269Y-85088837D01*
X96588837Y-85225269D01*
X96515000Y-85403527D01*
X96515000Y-85596473D01*
X96588837Y-85774731D01*
X96682250Y-85868144D01*
X96590197Y-85960197D01*
X96562769Y-86001154D01*
X96512769Y-86121154D01*
X96503000Y-86170000D01*
X96503000Y-86320000D01*
X96511465Y-86365590D01*
X96561465Y-86495590D01*
X96590197Y-86539803D01*
X96700197Y-86649803D01*
X96708747Y-86655359D01*
X96588837Y-86775269D01*
X96515000Y-86953527D01*
X96515000Y-87146473D01*
X96588837Y-87324731D01*
X96725269Y-87461163D01*
X96895244Y-87531569D01*
X96748239Y-88658612D01*
X96675269Y-88688837D01*
X96538837Y-88825269D01*
X96465000Y-89003527D01*
X96465000Y-89196473D01*
X96538837Y-89374731D01*
X96641448Y-89477342D01*
X96612150Y-89701956D01*
X96538837Y-89775269D01*
X96465000Y-89953527D01*
X96465000Y-90146473D01*
X96532815Y-90310193D01*
X95576101Y-97645000D01*
X93721964Y-97645000D01*
X92360798Y-87866098D01*
X92368164Y-87858732D01*
X92442001Y-87680474D01*
X92442001Y-87487528D01*
X92368164Y-87309270D01*
X92269567Y-87210673D01*
X92092001Y-85935000D01*
X92096473Y-85935000D01*
X92274731Y-85861163D01*
X92411163Y-85724731D01*
X92485000Y-85546473D01*
X92485000Y-85353527D01*
X92411163Y-85175269D01*
X92285894Y-85050000D01*
X92411163Y-84924731D01*
X92485000Y-84746473D01*
X92485000Y-84553527D01*
X92411163Y-84375269D01*
X92274731Y-84238837D01*
X92096473Y-84165000D01*
X91903527Y-84165000D01*
X91845542Y-84189018D01*
X91835589Y-84152416D01*
X91780312Y-84069688D01*
X91697584Y-84014411D01*
X91600000Y-83995000D01*
X88877000Y-83995000D01*
X88877000Y-82527000D01*
X114523000Y-82527000D01*
X114523000Y-82550000D01*
X114523000Y-82550000D01*
G37*
X114523000Y-82550000D02*
X114532667Y-82598601D01*
X114560197Y-82639803D01*
X114601399Y-82667333D01*
X114650000Y-82677000D01*
X114823000Y-82677000D01*
X114823000Y-82723000D01*
X114650000Y-82723000D01*
X114601399Y-82732667D01*
X114560197Y-82760197D01*
X114532667Y-82801399D01*
X114523000Y-82850000D01*
X114523000Y-85523000D01*
X110850000Y-85523000D01*
X110801399Y-85532667D01*
X110760197Y-85560197D01*
X110732667Y-85601399D01*
X110723000Y-85650000D01*
X110723000Y-96134066D01*
X110669688Y-96169688D01*
X110614411Y-96252416D01*
X110595000Y-96350000D01*
X110595000Y-97645000D01*
X109922297Y-97645000D01*
X108052617Y-84065219D01*
X108035589Y-84002416D01*
X107980312Y-83919688D01*
X107897584Y-83864411D01*
X107800000Y-83845000D01*
X105700000Y-83845000D01*
X105635047Y-83853411D01*
X105545626Y-83897038D01*
X105479707Y-83971564D01*
X105447325Y-84065643D01*
X105031454Y-87124143D01*
X104875269Y-87188837D01*
X104738837Y-87325269D01*
X104665000Y-87503527D01*
X104665000Y-87696473D01*
X104738837Y-87874731D01*
X104875269Y-88011163D01*
X104908947Y-88025113D01*
X103600909Y-97645000D01*
X101823899Y-97645000D01*
X100052858Y-84067019D01*
X100035589Y-84002416D01*
X99980312Y-83919688D01*
X99897584Y-83864411D01*
X99800000Y-83845000D01*
X97600000Y-83845000D01*
X97533706Y-83853768D01*
X97444524Y-83897881D01*
X97379011Y-83972764D01*
X97347142Y-84067019D01*
X97324731Y-84238837D01*
X97274731Y-84188837D01*
X97096473Y-84115000D01*
X96903527Y-84115000D01*
X96725269Y-84188837D01*
X96588837Y-84325269D01*
X96515000Y-84503527D01*
X96515000Y-84696473D01*
X96588837Y-84874731D01*
X96725269Y-85011163D01*
X96819030Y-85050000D01*
X96725269Y-85088837D01*
X96588837Y-85225269D01*
X96515000Y-85403527D01*
X96515000Y-85596473D01*
X96588837Y-85774731D01*
X96682250Y-85868144D01*
X96590197Y-85960197D01*
X96562769Y-86001154D01*
X96512769Y-86121154D01*
X96503000Y-86170000D01*
X96503000Y-86320000D01*
X96511465Y-86365590D01*
X96561465Y-86495590D01*
X96590197Y-86539803D01*
X96700197Y-86649803D01*
X96708747Y-86655359D01*
X96588837Y-86775269D01*
X96515000Y-86953527D01*
X96515000Y-87146473D01*
X96588837Y-87324731D01*
X96725269Y-87461163D01*
X96895244Y-87531569D01*
X96748239Y-88658612D01*
X96675269Y-88688837D01*
X96538837Y-88825269D01*
X96465000Y-89003527D01*
X96465000Y-89196473D01*
X96538837Y-89374731D01*
X96641448Y-89477342D01*
X96612150Y-89701956D01*
X96538837Y-89775269D01*
X96465000Y-89953527D01*
X96465000Y-90146473D01*
X96532815Y-90310193D01*
X95576101Y-97645000D01*
X93721964Y-97645000D01*
X92360798Y-87866098D01*
X92368164Y-87858732D01*
X92442001Y-87680474D01*
X92442001Y-87487528D01*
X92368164Y-87309270D01*
X92269567Y-87210673D01*
X92092001Y-85935000D01*
X92096473Y-85935000D01*
X92274731Y-85861163D01*
X92411163Y-85724731D01*
X92485000Y-85546473D01*
X92485000Y-85353527D01*
X92411163Y-85175269D01*
X92285894Y-85050000D01*
X92411163Y-84924731D01*
X92485000Y-84746473D01*
X92485000Y-84553527D01*
X92411163Y-84375269D01*
X92274731Y-84238837D01*
X92096473Y-84165000D01*
X91903527Y-84165000D01*
X91845542Y-84189018D01*
X91835589Y-84152416D01*
X91780312Y-84069688D01*
X91697584Y-84014411D01*
X91600000Y-83995000D01*
X88877000Y-83995000D01*
X88877000Y-82527000D01*
X114523000Y-82527000D01*
X114523000Y-82550000D01*
G36*
X125123000Y-89346288D02*
X123344324Y-91073000D01*
X123276180Y-91073000D01*
X123235024Y-91045500D01*
X123116888Y-91022001D01*
X123116884Y-91022001D01*
X123077001Y-91014068D01*
X123037118Y-91022001D01*
X117582001Y-91022001D01*
X117582001Y-90966884D01*
X117589934Y-90927001D01*
X117582001Y-90887118D01*
X117582001Y-90887114D01*
X117558502Y-90768978D01*
X117468989Y-90635013D01*
X117435175Y-90612419D01*
X117324363Y-90501608D01*
X117324819Y-90293527D01*
X122125000Y-90293527D01*
X122125000Y-90486473D01*
X122198837Y-90664731D01*
X122335269Y-90801163D01*
X122513527Y-90875000D01*
X122706473Y-90875000D01*
X122884731Y-90801163D01*
X123021163Y-90664731D01*
X123095000Y-90486473D01*
X123095000Y-90293527D01*
X123021163Y-90115269D01*
X122884731Y-89978837D01*
X122706473Y-89905000D01*
X122513527Y-89905000D01*
X122335269Y-89978837D01*
X122198837Y-90115269D01*
X122125000Y-90293527D01*
X117324819Y-90293527D01*
X117325947Y-89780099D01*
X117443465Y-89662581D01*
X117517302Y-89484323D01*
X117517302Y-89427000D01*
X121205321Y-89427000D01*
X121209796Y-89449496D01*
X121266156Y-89533844D01*
X121350504Y-89590204D01*
X121450000Y-89609995D01*
X122650000Y-89609995D01*
X122749496Y-89590204D01*
X122833844Y-89533844D01*
X122890204Y-89449496D01*
X122894679Y-89427000D01*
X123000000Y-89427000D01*
X123048601Y-89417333D01*
X123089803Y-89389803D01*
X123123842Y-89328146D01*
X123351375Y-88327000D01*
X125123000Y-88327000D01*
X125123000Y-89346288D01*
X125123000Y-89346288D01*
G37*
X125123000Y-89346288D02*
X123344324Y-91073000D01*
X123276180Y-91073000D01*
X123235024Y-91045500D01*
X123116888Y-91022001D01*
X123116884Y-91022001D01*
X123077001Y-91014068D01*
X123037118Y-91022001D01*
X117582001Y-91022001D01*
X117582001Y-90966884D01*
X117589934Y-90927001D01*
X117582001Y-90887118D01*
X117582001Y-90887114D01*
X117558502Y-90768978D01*
X117468989Y-90635013D01*
X117435175Y-90612419D01*
X117324363Y-90501608D01*
X117324819Y-90293527D01*
X122125000Y-90293527D01*
X122125000Y-90486473D01*
X122198837Y-90664731D01*
X122335269Y-90801163D01*
X122513527Y-90875000D01*
X122706473Y-90875000D01*
X122884731Y-90801163D01*
X123021163Y-90664731D01*
X123095000Y-90486473D01*
X123095000Y-90293527D01*
X123021163Y-90115269D01*
X122884731Y-89978837D01*
X122706473Y-89905000D01*
X122513527Y-89905000D01*
X122335269Y-89978837D01*
X122198837Y-90115269D01*
X122125000Y-90293527D01*
X117324819Y-90293527D01*
X117325947Y-89780099D01*
X117443465Y-89662581D01*
X117517302Y-89484323D01*
X117517302Y-89427000D01*
X121205321Y-89427000D01*
X121209796Y-89449496D01*
X121266156Y-89533844D01*
X121350504Y-89590204D01*
X121450000Y-89609995D01*
X122650000Y-89609995D01*
X122749496Y-89590204D01*
X122833844Y-89533844D01*
X122890204Y-89449496D01*
X122894679Y-89427000D01*
X123000000Y-89427000D01*
X123048601Y-89417333D01*
X123089803Y-89389803D01*
X123123842Y-89328146D01*
X123351375Y-88327000D01*
X125123000Y-88327000D01*
X125123000Y-89346288D01*
G36*
X118740005Y-93950000D02*
X118759796Y-94049496D01*
X118816156Y-94133844D01*
X118845001Y-94153117D01*
X118845001Y-94165999D01*
X118750504Y-94184796D01*
X118666156Y-94241156D01*
X118609796Y-94325504D01*
X118590005Y-94425000D01*
X118590005Y-95175000D01*
X118609796Y-95274496D01*
X118666156Y-95358844D01*
X118750504Y-95415204D01*
X118850000Y-95434995D01*
X119650000Y-95434995D01*
X119749496Y-95415204D01*
X119833844Y-95358844D01*
X119883185Y-95285000D01*
X119996473Y-95285000D01*
X120174731Y-95211163D01*
X120311163Y-95074731D01*
X120385000Y-94896473D01*
X120385000Y-94703527D01*
X120311163Y-94525269D01*
X120174731Y-94388837D01*
X119996473Y-94315000D01*
X119883185Y-94315000D01*
X119833844Y-94241156D01*
X119749496Y-94184796D01*
X119655000Y-94166000D01*
X119655000Y-94153117D01*
X119683844Y-94133844D01*
X119740204Y-94049496D01*
X119759995Y-93950000D01*
X119759995Y-93705100D01*
X119788837Y-93774731D01*
X119925269Y-93911163D01*
X120103527Y-93985000D01*
X120246967Y-93985000D01*
X120259796Y-94049496D01*
X120316156Y-94133844D01*
X120400504Y-94190204D01*
X120500000Y-94209995D01*
X121000000Y-94209995D01*
X121099496Y-94190204D01*
X121183844Y-94133844D01*
X121240204Y-94049496D01*
X121259995Y-93950000D01*
X121259995Y-93946257D01*
X121353527Y-93984999D01*
X121546473Y-93984999D01*
X121640005Y-93946257D01*
X121640005Y-93950000D01*
X121659796Y-94049496D01*
X121716156Y-94133844D01*
X121745001Y-94153117D01*
X121745001Y-94165999D01*
X121650504Y-94184796D01*
X121566156Y-94241156D01*
X121509796Y-94325504D01*
X121490005Y-94425000D01*
X121490005Y-95175000D01*
X121509796Y-95274496D01*
X121566156Y-95358844D01*
X121650504Y-95415204D01*
X121750000Y-95434995D01*
X122550000Y-95434995D01*
X122649496Y-95415204D01*
X122733844Y-95358844D01*
X122783185Y-95285000D01*
X122896473Y-95285000D01*
X123074731Y-95211163D01*
X123211163Y-95074731D01*
X123285000Y-94896473D01*
X123285000Y-94703527D01*
X123211163Y-94525269D01*
X123074731Y-94388837D01*
X122896473Y-94315000D01*
X122783185Y-94315000D01*
X122733844Y-94241156D01*
X122649496Y-94184796D01*
X122555000Y-94166000D01*
X122555000Y-94153117D01*
X122583844Y-94133844D01*
X122640204Y-94049496D01*
X122659995Y-93950000D01*
X122659995Y-93705100D01*
X122688837Y-93774731D01*
X122825269Y-93911163D01*
X123003527Y-93985000D01*
X123146967Y-93985000D01*
X123159796Y-94049496D01*
X123216156Y-94133844D01*
X123300504Y-94190204D01*
X123400000Y-94209995D01*
X123900000Y-94209995D01*
X123973000Y-94195474D01*
X123973000Y-95573000D01*
X117627000Y-95573000D01*
X117627000Y-94195474D01*
X117700000Y-94209995D01*
X118200000Y-94209995D01*
X118299496Y-94190204D01*
X118383844Y-94133844D01*
X118440204Y-94049496D01*
X118459995Y-93950000D01*
X118459995Y-93127000D01*
X118740005Y-93127000D01*
X118740005Y-93950000D01*
X118740005Y-93950000D01*
G37*
X118740005Y-93950000D02*
X118759796Y-94049496D01*
X118816156Y-94133844D01*
X118845001Y-94153117D01*
X118845001Y-94165999D01*
X118750504Y-94184796D01*
X118666156Y-94241156D01*
X118609796Y-94325504D01*
X118590005Y-94425000D01*
X118590005Y-95175000D01*
X118609796Y-95274496D01*
X118666156Y-95358844D01*
X118750504Y-95415204D01*
X118850000Y-95434995D01*
X119650000Y-95434995D01*
X119749496Y-95415204D01*
X119833844Y-95358844D01*
X119883185Y-95285000D01*
X119996473Y-95285000D01*
X120174731Y-95211163D01*
X120311163Y-95074731D01*
X120385000Y-94896473D01*
X120385000Y-94703527D01*
X120311163Y-94525269D01*
X120174731Y-94388837D01*
X119996473Y-94315000D01*
X119883185Y-94315000D01*
X119833844Y-94241156D01*
X119749496Y-94184796D01*
X119655000Y-94166000D01*
X119655000Y-94153117D01*
X119683844Y-94133844D01*
X119740204Y-94049496D01*
X119759995Y-93950000D01*
X119759995Y-93705100D01*
X119788837Y-93774731D01*
X119925269Y-93911163D01*
X120103527Y-93985000D01*
X120246967Y-93985000D01*
X120259796Y-94049496D01*
X120316156Y-94133844D01*
X120400504Y-94190204D01*
X120500000Y-94209995D01*
X121000000Y-94209995D01*
X121099496Y-94190204D01*
X121183844Y-94133844D01*
X121240204Y-94049496D01*
X121259995Y-93950000D01*
X121259995Y-93946257D01*
X121353527Y-93984999D01*
X121546473Y-93984999D01*
X121640005Y-93946257D01*
X121640005Y-93950000D01*
X121659796Y-94049496D01*
X121716156Y-94133844D01*
X121745001Y-94153117D01*
X121745001Y-94165999D01*
X121650504Y-94184796D01*
X121566156Y-94241156D01*
X121509796Y-94325504D01*
X121490005Y-94425000D01*
X121490005Y-95175000D01*
X121509796Y-95274496D01*
X121566156Y-95358844D01*
X121650504Y-95415204D01*
X121750000Y-95434995D01*
X122550000Y-95434995D01*
X122649496Y-95415204D01*
X122733844Y-95358844D01*
X122783185Y-95285000D01*
X122896473Y-95285000D01*
X123074731Y-95211163D01*
X123211163Y-95074731D01*
X123285000Y-94896473D01*
X123285000Y-94703527D01*
X123211163Y-94525269D01*
X123074731Y-94388837D01*
X122896473Y-94315000D01*
X122783185Y-94315000D01*
X122733844Y-94241156D01*
X122649496Y-94184796D01*
X122555000Y-94166000D01*
X122555000Y-94153117D01*
X122583844Y-94133844D01*
X122640204Y-94049496D01*
X122659995Y-93950000D01*
X122659995Y-93705100D01*
X122688837Y-93774731D01*
X122825269Y-93911163D01*
X123003527Y-93985000D01*
X123146967Y-93985000D01*
X123159796Y-94049496D01*
X123216156Y-94133844D01*
X123300504Y-94190204D01*
X123400000Y-94209995D01*
X123900000Y-94209995D01*
X123973000Y-94195474D01*
X123973000Y-95573000D01*
X117627000Y-95573000D01*
X117627000Y-94195474D01*
X117700000Y-94209995D01*
X118200000Y-94209995D01*
X118299496Y-94190204D01*
X118383844Y-94133844D01*
X118440204Y-94049496D01*
X118459995Y-93950000D01*
X118459995Y-93127000D01*
X118740005Y-93127000D01*
X118740005Y-93950000D01*
D39*
G36*
X132051733Y-83046574D02*
X132536000Y-84015108D01*
X132536000Y-97586000D01*
X131861743Y-97586000D01*
X131931255Y-97516488D01*
X131995501Y-97361385D01*
X131995501Y-97193503D01*
X131931255Y-97038400D01*
X131812545Y-96919690D01*
X131657442Y-96855444D01*
X131489560Y-96855444D01*
X131420761Y-96883942D01*
X131420761Y-96400000D01*
X131405860Y-96325086D01*
X131363424Y-96261576D01*
X131299914Y-96219140D01*
X131225000Y-96204239D01*
X130475000Y-96204239D01*
X130400086Y-96219140D01*
X130336576Y-96261576D01*
X130294140Y-96325086D01*
X130283615Y-96378000D01*
X130088174Y-96378000D01*
X130074914Y-96369140D01*
X130000000Y-96354239D01*
X129729002Y-96354239D01*
X129729002Y-96350060D01*
X129664756Y-96194957D01*
X129546046Y-96076247D01*
X129390943Y-96012001D01*
X129223061Y-96012001D01*
X129067958Y-96076247D01*
X128949248Y-96194957D01*
X128885002Y-96350060D01*
X128885002Y-96517942D01*
X128904239Y-96564384D01*
X128904239Y-97050000D01*
X128919140Y-97124914D01*
X128961576Y-97188424D01*
X129025086Y-97230860D01*
X129100000Y-97245761D01*
X130000000Y-97245761D01*
X130074914Y-97230860D01*
X130088174Y-97222000D01*
X130283615Y-97222000D01*
X130294140Y-97274914D01*
X130336576Y-97338424D01*
X130400086Y-97380860D01*
X130475000Y-97395761D01*
X131165740Y-97395761D01*
X131215747Y-97516488D01*
X131285259Y-97586000D01*
X129375400Y-97586000D01*
X129070392Y-97280993D01*
X129046847Y-97245755D01*
X128907258Y-97152485D01*
X128784163Y-97128000D01*
X128784162Y-97128000D01*
X128779427Y-97127058D01*
X128780860Y-97124914D01*
X128795761Y-97050000D01*
X128795761Y-96550000D01*
X128780860Y-96475086D01*
X128738424Y-96411576D01*
X128674914Y-96369140D01*
X128600000Y-96354239D01*
X128187677Y-96354239D01*
X128094828Y-96261389D01*
X128086167Y-96217849D01*
X128010578Y-96104722D01*
X127982020Y-96085640D01*
X127818611Y-95922231D01*
X127799529Y-95893673D01*
X127686403Y-95818084D01*
X127586645Y-95798241D01*
X127586640Y-95798241D01*
X127552961Y-95791542D01*
X127519282Y-95798241D01*
X127080716Y-95798241D01*
X127047038Y-95791542D01*
X127013360Y-95798241D01*
X127013355Y-95798241D01*
X126913597Y-95818084D01*
X126893653Y-95831410D01*
X126898699Y-95806041D01*
X126892000Y-95772363D01*
X126892000Y-95772358D01*
X126872157Y-95672600D01*
X126832865Y-95613796D01*
X126815648Y-95588029D01*
X126815646Y-95588027D01*
X126796567Y-95559474D01*
X126768015Y-95540396D01*
X126422000Y-95194382D01*
X126422000Y-95172101D01*
X126357754Y-95016998D01*
X126239044Y-94898288D01*
X126083941Y-94834042D01*
X125916059Y-94834042D01*
X125760956Y-94898288D01*
X125642246Y-95016998D01*
X125578000Y-95172101D01*
X125578000Y-95339983D01*
X125642246Y-95495086D01*
X125760956Y-95613796D01*
X125916059Y-95678042D01*
X125938340Y-95678042D01*
X126208000Y-95947703D01*
X126208000Y-96254239D01*
X126175000Y-96254239D01*
X126100086Y-96269140D01*
X126036576Y-96311576D01*
X125994140Y-96375086D01*
X125979239Y-96450000D01*
X125979239Y-97250000D01*
X125994140Y-97324914D01*
X126036576Y-97388424D01*
X126100086Y-97430860D01*
X126175000Y-97445761D01*
X126925000Y-97445761D01*
X126932862Y-97444197D01*
X126945484Y-97507654D01*
X126997833Y-97586000D01*
X126150000Y-97586000D01*
X126125508Y-97590872D01*
X126104745Y-97604745D01*
X125954745Y-97754745D01*
X125940872Y-97775508D01*
X125936000Y-97799756D01*
X125929394Y-99536000D01*
X120406481Y-99536000D01*
X120420521Y-99465414D01*
X120420521Y-98970141D01*
X120648663Y-98741999D01*
X121088199Y-98742000D01*
X121103954Y-98757755D01*
X121259057Y-98822001D01*
X121426939Y-98822001D01*
X121582042Y-98757755D01*
X121700752Y-98639045D01*
X121764998Y-98483942D01*
X121764998Y-98316060D01*
X121700752Y-98160957D01*
X121582042Y-98042247D01*
X121426939Y-97978001D01*
X121259057Y-97978001D01*
X121103954Y-98042247D01*
X121088200Y-98058001D01*
X120540682Y-98058000D01*
X120507002Y-98051301D01*
X120473322Y-98058000D01*
X120473319Y-98058000D01*
X120397040Y-98073173D01*
X120373560Y-98077843D01*
X120330757Y-98106443D01*
X120299674Y-98085674D01*
X120224760Y-98070773D01*
X119930407Y-98070773D01*
X120004334Y-97996846D01*
X120068580Y-97841743D01*
X120068580Y-97673861D01*
X120004334Y-97518758D01*
X119885624Y-97400048D01*
X119730521Y-97335802D01*
X119562639Y-97335802D01*
X119407536Y-97400048D01*
X119288826Y-97518758D01*
X119224580Y-97673861D01*
X119224580Y-97841743D01*
X119288826Y-97996846D01*
X119362753Y-98070773D01*
X118887405Y-98070773D01*
X118875450Y-98068395D01*
X118863495Y-98070773D01*
X118423900Y-98070773D01*
X118402176Y-98075094D01*
X117970761Y-98075094D01*
X117970761Y-98017094D01*
X117955860Y-97942180D01*
X117913424Y-97878670D01*
X117849914Y-97836234D01*
X117775000Y-97821333D01*
X117025000Y-97821333D01*
X116950086Y-97836234D01*
X116886576Y-97878670D01*
X116844140Y-97942180D01*
X116836532Y-97980431D01*
X116807754Y-97910956D01*
X116689044Y-97792246D01*
X116533941Y-97728000D01*
X116366059Y-97728000D01*
X116210956Y-97792246D01*
X116092246Y-97910956D01*
X116028000Y-98066059D01*
X116028000Y-98233941D01*
X116092246Y-98389044D01*
X116210956Y-98507754D01*
X116366059Y-98572000D01*
X116533941Y-98572000D01*
X116689044Y-98507754D01*
X116807754Y-98389044D01*
X116829239Y-98337175D01*
X116829239Y-98817094D01*
X116844140Y-98892008D01*
X116886576Y-98955518D01*
X116950086Y-98997954D01*
X117025000Y-99012855D01*
X117775000Y-99012855D01*
X117849914Y-98997954D01*
X117913424Y-98955518D01*
X117955860Y-98892008D01*
X117970761Y-98817094D01*
X117970761Y-98759094D01*
X118228139Y-98759094D01*
X118228139Y-99465414D01*
X118242179Y-99536000D01*
X115064000Y-99536000D01*
X115064000Y-95964000D01*
X115682084Y-95964000D01*
X115741470Y-96107371D01*
X115860180Y-96226081D01*
X116015283Y-96290327D01*
X116183165Y-96290327D01*
X116338268Y-96226081D01*
X116456978Y-96107371D01*
X116487529Y-96033614D01*
X116556059Y-96062000D01*
X116723941Y-96062000D01*
X116796388Y-96031991D01*
X116825322Y-96101844D01*
X116944032Y-96220554D01*
X117099135Y-96284800D01*
X117267017Y-96284800D01*
X117422120Y-96220554D01*
X117540830Y-96101844D01*
X117597927Y-95964000D01*
X122226099Y-95964000D01*
X122226099Y-97067654D01*
X122241000Y-97142568D01*
X122283436Y-97206078D01*
X122346946Y-97248514D01*
X122405505Y-97260162D01*
X122405504Y-97503004D01*
X122389750Y-97518758D01*
X122325504Y-97673861D01*
X122325504Y-97841743D01*
X122389750Y-97996846D01*
X122508460Y-98115556D01*
X122663563Y-98179802D01*
X122831445Y-98179802D01*
X122986548Y-98115556D01*
X123105258Y-97996846D01*
X123169504Y-97841743D01*
X123169504Y-97825591D01*
X123678000Y-97825591D01*
X123678000Y-97993473D01*
X123742246Y-98148576D01*
X123860956Y-98267286D01*
X124016059Y-98331532D01*
X124183941Y-98331532D01*
X124339044Y-98267286D01*
X124457754Y-98148576D01*
X124522000Y-97993473D01*
X124522000Y-97825591D01*
X124457754Y-97670488D01*
X124339044Y-97551778D01*
X124183941Y-97487532D01*
X124016059Y-97487532D01*
X123860956Y-97551778D01*
X123742246Y-97670488D01*
X123678000Y-97825591D01*
X123169504Y-97825591D01*
X123169504Y-97673861D01*
X123105258Y-97518758D01*
X123089504Y-97503004D01*
X123089504Y-97263415D01*
X123759214Y-97263415D01*
X123771169Y-97265793D01*
X123783125Y-97263415D01*
X124222720Y-97263415D01*
X124244444Y-97259094D01*
X124629239Y-97259094D01*
X124629239Y-97317094D01*
X124644140Y-97392008D01*
X124686576Y-97455518D01*
X124750086Y-97497954D01*
X124825000Y-97512855D01*
X125575000Y-97512855D01*
X125649914Y-97497954D01*
X125713424Y-97455518D01*
X125755860Y-97392008D01*
X125770761Y-97317094D01*
X125770761Y-96517094D01*
X125755860Y-96442180D01*
X125713424Y-96378670D01*
X125649914Y-96336234D01*
X125575000Y-96321333D01*
X124825000Y-96321333D01*
X124750086Y-96336234D01*
X124686576Y-96378670D01*
X124644140Y-96442180D01*
X124629239Y-96517094D01*
X124629239Y-96575094D01*
X124418481Y-96575094D01*
X124418481Y-95868774D01*
X124403580Y-95793860D01*
X124364000Y-95734624D01*
X124364000Y-95345761D01*
X125075000Y-95345761D01*
X125149914Y-95330860D01*
X125213424Y-95288424D01*
X125255860Y-95224914D01*
X125270761Y-95150000D01*
X125270761Y-94350000D01*
X125255860Y-94275086D01*
X125213424Y-94211576D01*
X125149914Y-94169140D01*
X125075000Y-94154239D01*
X124364000Y-94154239D01*
X124364000Y-92800000D01*
X124359128Y-92775508D01*
X124345255Y-92754745D01*
X124324492Y-92740872D01*
X124300000Y-92736000D01*
X124073453Y-92736000D01*
X124080860Y-92724914D01*
X124095761Y-92650000D01*
X124095761Y-91750000D01*
X124080860Y-91675086D01*
X124074829Y-91666059D01*
X124328000Y-91666059D01*
X124328000Y-91833941D01*
X124392246Y-91989044D01*
X124510956Y-92107754D01*
X124666059Y-92172000D01*
X124833941Y-92172000D01*
X124989044Y-92107754D01*
X125107754Y-91989044D01*
X125172000Y-91833941D01*
X125172000Y-91666059D01*
X125107754Y-91510956D01*
X124989044Y-91392246D01*
X124833941Y-91328000D01*
X124666059Y-91328000D01*
X124510956Y-91392246D01*
X124392246Y-91510956D01*
X124328000Y-91666059D01*
X124074829Y-91666059D01*
X124038424Y-91611576D01*
X123974914Y-91569140D01*
X123900000Y-91554239D01*
X123687900Y-91554239D01*
X123494262Y-91360602D01*
X123529567Y-91337762D01*
X125383737Y-89537762D01*
X125427385Y-89473475D01*
X125442000Y-89400000D01*
X125442000Y-88200000D01*
X125427385Y-88126525D01*
X125385765Y-88064235D01*
X125323475Y-88022615D01*
X125250000Y-88008000D01*
X124205500Y-88008000D01*
X124205500Y-87875162D01*
X124210505Y-87850000D01*
X124201993Y-87807205D01*
X124190675Y-87750309D01*
X124134205Y-87665795D01*
X124112875Y-87651543D01*
X122998459Y-86537128D01*
X122984205Y-86515795D01*
X122899691Y-86459325D01*
X122825162Y-86444500D01*
X122825161Y-86444500D01*
X122800000Y-86439495D01*
X122774839Y-86444500D01*
X120081069Y-86444500D01*
X120096103Y-86422000D01*
X120608440Y-86422000D01*
X120650000Y-86430267D01*
X120691560Y-86422000D01*
X120691561Y-86422000D01*
X120814656Y-86397515D01*
X120954245Y-86304245D01*
X120977791Y-86269006D01*
X121001036Y-86245761D01*
X121050000Y-86245761D01*
X121124914Y-86230860D01*
X121188424Y-86188424D01*
X121230860Y-86124914D01*
X121245761Y-86050000D01*
X121245761Y-85967281D01*
X121247515Y-85964656D01*
X121280267Y-85800000D01*
X121247515Y-85635344D01*
X121245761Y-85632719D01*
X121245761Y-85550000D01*
X121230860Y-85475086D01*
X121188424Y-85411576D01*
X121124914Y-85369140D01*
X121050000Y-85354239D01*
X120150000Y-85354239D01*
X120075086Y-85369140D01*
X120011576Y-85411576D01*
X119969140Y-85475086D01*
X119966856Y-85486570D01*
X119930000Y-85479239D01*
X118870000Y-85479239D01*
X118795086Y-85494140D01*
X118731576Y-85536576D01*
X118705500Y-85575602D01*
X118705500Y-84524398D01*
X118731576Y-84563424D01*
X118795086Y-84605860D01*
X118870000Y-84620761D01*
X119930000Y-84620761D01*
X119954000Y-84615987D01*
X119954000Y-84857235D01*
X119948994Y-84882401D01*
X119968824Y-84982091D01*
X120011041Y-85045274D01*
X120011043Y-85045276D01*
X120025295Y-85066606D01*
X120046625Y-85080858D01*
X120049140Y-85083373D01*
X120063394Y-85104706D01*
X120147908Y-85161176D01*
X120222437Y-85176001D01*
X120222438Y-85176001D01*
X120247599Y-85181006D01*
X120272761Y-85176001D01*
X122061338Y-85176001D01*
X122086499Y-85181006D01*
X122111660Y-85176001D01*
X122111661Y-85176001D01*
X122186190Y-85161176D01*
X122270704Y-85104706D01*
X122284958Y-85083373D01*
X122312872Y-85055459D01*
X122334205Y-85041205D01*
X122390675Y-84956691D01*
X122396827Y-84925761D01*
X122400000Y-84925761D01*
X122474914Y-84910860D01*
X122538424Y-84868424D01*
X122580860Y-84804914D01*
X122595761Y-84730000D01*
X122595761Y-84622000D01*
X122654239Y-84622000D01*
X122654239Y-84710000D01*
X122669140Y-84784914D01*
X122711576Y-84848424D01*
X122775086Y-84890860D01*
X122850000Y-84905761D01*
X123350000Y-84905761D01*
X123424914Y-84890860D01*
X123488424Y-84848424D01*
X123530860Y-84784914D01*
X123545761Y-84710000D01*
X123545761Y-83810000D01*
X123530860Y-83735086D01*
X123488424Y-83671576D01*
X123424914Y-83629140D01*
X123350000Y-83614239D01*
X122850000Y-83614239D01*
X122775086Y-83629140D01*
X122711576Y-83671576D01*
X122669140Y-83735086D01*
X122654239Y-83810000D01*
X122654239Y-83938000D01*
X122595761Y-83938000D01*
X122595761Y-83830000D01*
X122580860Y-83755086D01*
X122538424Y-83691576D01*
X122474914Y-83649140D01*
X122400000Y-83634239D01*
X121900000Y-83634239D01*
X121825086Y-83649140D01*
X121761576Y-83691576D01*
X121719140Y-83755086D01*
X121704239Y-83830000D01*
X121704239Y-84665001D01*
X121095761Y-84665001D01*
X121095761Y-83830000D01*
X121080860Y-83755086D01*
X121038424Y-83691576D01*
X120974914Y-83649140D01*
X120900000Y-83634239D01*
X120879938Y-83634239D01*
X120848458Y-83587126D01*
X120848457Y-83587125D01*
X120847698Y-83585989D01*
X124901658Y-83585989D01*
X125569907Y-84254239D01*
X125550000Y-84254239D01*
X125475086Y-84269140D01*
X125411576Y-84311576D01*
X125369140Y-84375086D01*
X125354239Y-84450000D01*
X125354239Y-84950000D01*
X125369140Y-85024914D01*
X125411576Y-85088424D01*
X125475086Y-85130860D01*
X125550000Y-85145761D01*
X126450000Y-85145761D01*
X126480652Y-85139664D01*
X126474300Y-85171601D01*
X126500842Y-85305042D01*
X126549449Y-85377786D01*
X126576432Y-85418169D01*
X126604987Y-85437249D01*
X126645748Y-85478010D01*
X126659439Y-85498500D01*
X126544016Y-85498500D01*
X126388913Y-85562746D01*
X126270203Y-85681456D01*
X126231889Y-85773955D01*
X126120944Y-85728000D01*
X125953062Y-85728000D01*
X125797959Y-85792246D01*
X125743502Y-85846704D01*
X125689044Y-85792246D01*
X125533941Y-85728000D01*
X125366059Y-85728000D01*
X125210956Y-85792246D01*
X125092246Y-85910956D01*
X125028000Y-86066059D01*
X125028000Y-86233941D01*
X125092246Y-86389044D01*
X125210956Y-86507754D01*
X125366059Y-86572000D01*
X125533941Y-86572000D01*
X125689044Y-86507754D01*
X125743502Y-86453297D01*
X125797959Y-86507754D01*
X125953062Y-86572000D01*
X126120944Y-86572000D01*
X126276047Y-86507754D01*
X126283801Y-86500000D01*
X126736000Y-86500000D01*
X126736000Y-88100000D01*
X126742632Y-88128371D01*
X126757856Y-88148165D01*
X126779239Y-88160478D01*
X126779239Y-89350000D01*
X126794140Y-89424914D01*
X126836576Y-89488424D01*
X126853901Y-89500000D01*
X126836576Y-89511576D01*
X126794140Y-89575086D01*
X126779239Y-89650000D01*
X126779239Y-90850000D01*
X126794140Y-90924914D01*
X126836576Y-90988424D01*
X126853901Y-91000000D01*
X126836576Y-91011576D01*
X126794140Y-91075086D01*
X126779239Y-91150000D01*
X126779239Y-92350000D01*
X126794140Y-92424914D01*
X126836576Y-92488424D01*
X126853901Y-92500000D01*
X126836576Y-92511576D01*
X126794140Y-92575086D01*
X126779239Y-92650000D01*
X126779239Y-93850000D01*
X126794140Y-93924914D01*
X126836576Y-93988424D01*
X126853901Y-94000000D01*
X126836576Y-94011576D01*
X126794140Y-94075086D01*
X126779239Y-94150000D01*
X126779239Y-95350000D01*
X126794140Y-95424914D01*
X126836576Y-95488424D01*
X126900086Y-95530860D01*
X126975000Y-95545761D01*
X128175000Y-95545761D01*
X128249914Y-95530860D01*
X128313424Y-95488424D01*
X128355860Y-95424914D01*
X128370761Y-95350000D01*
X128370761Y-94150000D01*
X128355860Y-94075086D01*
X128313424Y-94011576D01*
X128296099Y-94000000D01*
X128313424Y-93988424D01*
X128355860Y-93924914D01*
X128370761Y-93850000D01*
X128370761Y-93166059D01*
X129328000Y-93166059D01*
X129328000Y-93333941D01*
X129392246Y-93489044D01*
X129510956Y-93607754D01*
X129666059Y-93672000D01*
X129833941Y-93672000D01*
X129989044Y-93607754D01*
X130107754Y-93489044D01*
X130172000Y-93333941D01*
X130172000Y-93166059D01*
X130107754Y-93010956D01*
X129989044Y-92892246D01*
X129833941Y-92828000D01*
X129666059Y-92828000D01*
X129510956Y-92892246D01*
X129392246Y-93010956D01*
X129328000Y-93166059D01*
X128370761Y-93166059D01*
X128370761Y-92650000D01*
X128355860Y-92575086D01*
X128313424Y-92511576D01*
X128296099Y-92500000D01*
X128313424Y-92488424D01*
X128355860Y-92424914D01*
X128370761Y-92350000D01*
X128370761Y-91150000D01*
X128355860Y-91075086D01*
X128313424Y-91011576D01*
X128296099Y-91000000D01*
X128313424Y-90988424D01*
X128355860Y-90924914D01*
X128370761Y-90850000D01*
X128370761Y-89650000D01*
X128355860Y-89575086D01*
X128313424Y-89511576D01*
X128296099Y-89500000D01*
X128313424Y-89488424D01*
X128355860Y-89424914D01*
X128370761Y-89350000D01*
X128370761Y-88150000D01*
X128355860Y-88075086D01*
X128338807Y-88049564D01*
X128345255Y-88045255D01*
X128359128Y-88024492D01*
X128364000Y-88000000D01*
X128364000Y-86500000D01*
X128359128Y-86475508D01*
X128345255Y-86454745D01*
X128324492Y-86440872D01*
X128300000Y-86436000D01*
X126800000Y-86436000D01*
X126775508Y-86440872D01*
X126754745Y-86454745D01*
X126740872Y-86475508D01*
X126736000Y-86500000D01*
X126283801Y-86500000D01*
X126394757Y-86389044D01*
X126433071Y-86296545D01*
X126544016Y-86342500D01*
X126711898Y-86342500D01*
X126867001Y-86278254D01*
X126985711Y-86159544D01*
X127049957Y-86004441D01*
X127049957Y-85836559D01*
X126985711Y-85681456D01*
X126912696Y-85608441D01*
X126945077Y-85602000D01*
X128513018Y-85602000D01*
X129125339Y-86214322D01*
X129125339Y-86236602D01*
X129189585Y-86391705D01*
X129308295Y-86510415D01*
X129463398Y-86574661D01*
X129631280Y-86574661D01*
X129786383Y-86510415D01*
X129796798Y-86500000D01*
X130636000Y-86500000D01*
X130636000Y-88100000D01*
X130640872Y-88124492D01*
X130654745Y-88145255D01*
X130655131Y-88145513D01*
X130654239Y-88150000D01*
X130654239Y-89350000D01*
X130669140Y-89424914D01*
X130711576Y-89488424D01*
X130728901Y-89500000D01*
X130711576Y-89511576D01*
X130669140Y-89575086D01*
X130654239Y-89650000D01*
X130654239Y-90850000D01*
X130669140Y-90924914D01*
X130711576Y-90988424D01*
X130728901Y-91000000D01*
X130711576Y-91011576D01*
X130669140Y-91075086D01*
X130654239Y-91150000D01*
X130654239Y-92350000D01*
X130669140Y-92424914D01*
X130711576Y-92488424D01*
X130728901Y-92500000D01*
X130711576Y-92511576D01*
X130669140Y-92575086D01*
X130654239Y-92650000D01*
X130654239Y-93850000D01*
X130669140Y-93924914D01*
X130711576Y-93988424D01*
X130728901Y-94000000D01*
X130711576Y-94011576D01*
X130669140Y-94075086D01*
X130654239Y-94150000D01*
X130654239Y-95350000D01*
X130669140Y-95424914D01*
X130711576Y-95488424D01*
X130775086Y-95530860D01*
X130850000Y-95545761D01*
X132050000Y-95545761D01*
X132124914Y-95530860D01*
X132188424Y-95488424D01*
X132230860Y-95424914D01*
X132245761Y-95350000D01*
X132245761Y-94150000D01*
X132230860Y-94075086D01*
X132188424Y-94011576D01*
X132171099Y-94000000D01*
X132188424Y-93988424D01*
X132230860Y-93924914D01*
X132245761Y-93850000D01*
X132245761Y-92650000D01*
X132230860Y-92575086D01*
X132188424Y-92511576D01*
X132171099Y-92500000D01*
X132188424Y-92488424D01*
X132230860Y-92424914D01*
X132245761Y-92350000D01*
X132245761Y-91150000D01*
X132230860Y-91075086D01*
X132188424Y-91011576D01*
X132171099Y-91000000D01*
X132188424Y-90988424D01*
X132230860Y-90924914D01*
X132245761Y-90850000D01*
X132245761Y-89650000D01*
X132230860Y-89575086D01*
X132188424Y-89511576D01*
X132171099Y-89500000D01*
X132188424Y-89488424D01*
X132230860Y-89424914D01*
X132245761Y-89350000D01*
X132245761Y-88150000D01*
X132244869Y-88145513D01*
X132245255Y-88145255D01*
X132259128Y-88124492D01*
X132264000Y-88100000D01*
X132264000Y-86500000D01*
X132259128Y-86475508D01*
X132245255Y-86454745D01*
X132224492Y-86440872D01*
X132200000Y-86436000D01*
X130700000Y-86436000D01*
X130675508Y-86440872D01*
X130654745Y-86454745D01*
X130640872Y-86475508D01*
X130636000Y-86500000D01*
X129796798Y-86500000D01*
X129905093Y-86391705D01*
X129969339Y-86236602D01*
X129969339Y-86068720D01*
X129905093Y-85913617D01*
X129786383Y-85794907D01*
X129765023Y-85786059D01*
X130388000Y-85786059D01*
X130388000Y-85953941D01*
X130452246Y-86109044D01*
X130570956Y-86227754D01*
X130726059Y-86292000D01*
X130893941Y-86292000D01*
X131049044Y-86227754D01*
X131167754Y-86109044D01*
X131232000Y-85953941D01*
X131232000Y-85786059D01*
X131167754Y-85630956D01*
X131049044Y-85512246D01*
X130893941Y-85448000D01*
X130726059Y-85448000D01*
X130570956Y-85512246D01*
X130452246Y-85630956D01*
X130388000Y-85786059D01*
X129765023Y-85786059D01*
X129631280Y-85730661D01*
X129609000Y-85730661D01*
X129024099Y-85145761D01*
X129550000Y-85145761D01*
X129624914Y-85130860D01*
X129688424Y-85088424D01*
X129730860Y-85024914D01*
X129745761Y-84950000D01*
X129745761Y-84450000D01*
X129730860Y-84375086D01*
X129688424Y-84311576D01*
X129624914Y-84269140D01*
X129550000Y-84254239D01*
X128650000Y-84254239D01*
X128575086Y-84269140D01*
X128511576Y-84311576D01*
X128505144Y-84321202D01*
X128383941Y-84270998D01*
X128216059Y-84270998D01*
X128130645Y-84306378D01*
X128127791Y-84304471D01*
X128561886Y-83870377D01*
X128590441Y-83851297D01*
X128662322Y-83743720D01*
X130000339Y-83743720D01*
X130000339Y-83911602D01*
X130064585Y-84066705D01*
X130183295Y-84185415D01*
X130338398Y-84249661D01*
X130506280Y-84249661D01*
X130661383Y-84185415D01*
X130780093Y-84066705D01*
X130844339Y-83911602D01*
X130844339Y-83743720D01*
X130780093Y-83588617D01*
X130661383Y-83469907D01*
X130506280Y-83405661D01*
X130338398Y-83405661D01*
X130183295Y-83469907D01*
X130064585Y-83588617D01*
X130000339Y-83743720D01*
X128662322Y-83743720D01*
X128666030Y-83738171D01*
X128680783Y-83664000D01*
X129700000Y-83664000D01*
X129724492Y-83659128D01*
X129745255Y-83645255D01*
X129759128Y-83624492D01*
X129764000Y-83600000D01*
X129764000Y-82464000D01*
X130983680Y-82464000D01*
X132051733Y-83046574D01*
X132051733Y-83046574D01*
G37*
X132051733Y-83046574D02*
X132536000Y-84015108D01*
X132536000Y-97586000D01*
X131861743Y-97586000D01*
X131931255Y-97516488D01*
X131995501Y-97361385D01*
X131995501Y-97193503D01*
X131931255Y-97038400D01*
X131812545Y-96919690D01*
X131657442Y-96855444D01*
X131489560Y-96855444D01*
X131420761Y-96883942D01*
X131420761Y-96400000D01*
X131405860Y-96325086D01*
X131363424Y-96261576D01*
X131299914Y-96219140D01*
X131225000Y-96204239D01*
X130475000Y-96204239D01*
X130400086Y-96219140D01*
X130336576Y-96261576D01*
X130294140Y-96325086D01*
X130283615Y-96378000D01*
X130088174Y-96378000D01*
X130074914Y-96369140D01*
X130000000Y-96354239D01*
X129729002Y-96354239D01*
X129729002Y-96350060D01*
X129664756Y-96194957D01*
X129546046Y-96076247D01*
X129390943Y-96012001D01*
X129223061Y-96012001D01*
X129067958Y-96076247D01*
X128949248Y-96194957D01*
X128885002Y-96350060D01*
X128885002Y-96517942D01*
X128904239Y-96564384D01*
X128904239Y-97050000D01*
X128919140Y-97124914D01*
X128961576Y-97188424D01*
X129025086Y-97230860D01*
X129100000Y-97245761D01*
X130000000Y-97245761D01*
X130074914Y-97230860D01*
X130088174Y-97222000D01*
X130283615Y-97222000D01*
X130294140Y-97274914D01*
X130336576Y-97338424D01*
X130400086Y-97380860D01*
X130475000Y-97395761D01*
X131165740Y-97395761D01*
X131215747Y-97516488D01*
X131285259Y-97586000D01*
X129375400Y-97586000D01*
X129070392Y-97280993D01*
X129046847Y-97245755D01*
X128907258Y-97152485D01*
X128784163Y-97128000D01*
X128784162Y-97128000D01*
X128779427Y-97127058D01*
X128780860Y-97124914D01*
X128795761Y-97050000D01*
X128795761Y-96550000D01*
X128780860Y-96475086D01*
X128738424Y-96411576D01*
X128674914Y-96369140D01*
X128600000Y-96354239D01*
X128187677Y-96354239D01*
X128094828Y-96261389D01*
X128086167Y-96217849D01*
X128010578Y-96104722D01*
X127982020Y-96085640D01*
X127818611Y-95922231D01*
X127799529Y-95893673D01*
X127686403Y-95818084D01*
X127586645Y-95798241D01*
X127586640Y-95798241D01*
X127552961Y-95791542D01*
X127519282Y-95798241D01*
X127080716Y-95798241D01*
X127047038Y-95791542D01*
X127013360Y-95798241D01*
X127013355Y-95798241D01*
X126913597Y-95818084D01*
X126893653Y-95831410D01*
X126898699Y-95806041D01*
X126892000Y-95772363D01*
X126892000Y-95772358D01*
X126872157Y-95672600D01*
X126832865Y-95613796D01*
X126815648Y-95588029D01*
X126815646Y-95588027D01*
X126796567Y-95559474D01*
X126768015Y-95540396D01*
X126422000Y-95194382D01*
X126422000Y-95172101D01*
X126357754Y-95016998D01*
X126239044Y-94898288D01*
X126083941Y-94834042D01*
X125916059Y-94834042D01*
X125760956Y-94898288D01*
X125642246Y-95016998D01*
X125578000Y-95172101D01*
X125578000Y-95339983D01*
X125642246Y-95495086D01*
X125760956Y-95613796D01*
X125916059Y-95678042D01*
X125938340Y-95678042D01*
X126208000Y-95947703D01*
X126208000Y-96254239D01*
X126175000Y-96254239D01*
X126100086Y-96269140D01*
X126036576Y-96311576D01*
X125994140Y-96375086D01*
X125979239Y-96450000D01*
X125979239Y-97250000D01*
X125994140Y-97324914D01*
X126036576Y-97388424D01*
X126100086Y-97430860D01*
X126175000Y-97445761D01*
X126925000Y-97445761D01*
X126932862Y-97444197D01*
X126945484Y-97507654D01*
X126997833Y-97586000D01*
X126150000Y-97586000D01*
X126125508Y-97590872D01*
X126104745Y-97604745D01*
X125954745Y-97754745D01*
X125940872Y-97775508D01*
X125936000Y-97799756D01*
X125929394Y-99536000D01*
X120406481Y-99536000D01*
X120420521Y-99465414D01*
X120420521Y-98970141D01*
X120648663Y-98741999D01*
X121088199Y-98742000D01*
X121103954Y-98757755D01*
X121259057Y-98822001D01*
X121426939Y-98822001D01*
X121582042Y-98757755D01*
X121700752Y-98639045D01*
X121764998Y-98483942D01*
X121764998Y-98316060D01*
X121700752Y-98160957D01*
X121582042Y-98042247D01*
X121426939Y-97978001D01*
X121259057Y-97978001D01*
X121103954Y-98042247D01*
X121088200Y-98058001D01*
X120540682Y-98058000D01*
X120507002Y-98051301D01*
X120473322Y-98058000D01*
X120473319Y-98058000D01*
X120397040Y-98073173D01*
X120373560Y-98077843D01*
X120330757Y-98106443D01*
X120299674Y-98085674D01*
X120224760Y-98070773D01*
X119930407Y-98070773D01*
X120004334Y-97996846D01*
X120068580Y-97841743D01*
X120068580Y-97673861D01*
X120004334Y-97518758D01*
X119885624Y-97400048D01*
X119730521Y-97335802D01*
X119562639Y-97335802D01*
X119407536Y-97400048D01*
X119288826Y-97518758D01*
X119224580Y-97673861D01*
X119224580Y-97841743D01*
X119288826Y-97996846D01*
X119362753Y-98070773D01*
X118887405Y-98070773D01*
X118875450Y-98068395D01*
X118863495Y-98070773D01*
X118423900Y-98070773D01*
X118402176Y-98075094D01*
X117970761Y-98075094D01*
X117970761Y-98017094D01*
X117955860Y-97942180D01*
X117913424Y-97878670D01*
X117849914Y-97836234D01*
X117775000Y-97821333D01*
X117025000Y-97821333D01*
X116950086Y-97836234D01*
X116886576Y-97878670D01*
X116844140Y-97942180D01*
X116836532Y-97980431D01*
X116807754Y-97910956D01*
X116689044Y-97792246D01*
X116533941Y-97728000D01*
X116366059Y-97728000D01*
X116210956Y-97792246D01*
X116092246Y-97910956D01*
X116028000Y-98066059D01*
X116028000Y-98233941D01*
X116092246Y-98389044D01*
X116210956Y-98507754D01*
X116366059Y-98572000D01*
X116533941Y-98572000D01*
X116689044Y-98507754D01*
X116807754Y-98389044D01*
X116829239Y-98337175D01*
X116829239Y-98817094D01*
X116844140Y-98892008D01*
X116886576Y-98955518D01*
X116950086Y-98997954D01*
X117025000Y-99012855D01*
X117775000Y-99012855D01*
X117849914Y-98997954D01*
X117913424Y-98955518D01*
X117955860Y-98892008D01*
X117970761Y-98817094D01*
X117970761Y-98759094D01*
X118228139Y-98759094D01*
X118228139Y-99465414D01*
X118242179Y-99536000D01*
X115064000Y-99536000D01*
X115064000Y-95964000D01*
X115682084Y-95964000D01*
X115741470Y-96107371D01*
X115860180Y-96226081D01*
X116015283Y-96290327D01*
X116183165Y-96290327D01*
X116338268Y-96226081D01*
X116456978Y-96107371D01*
X116487529Y-96033614D01*
X116556059Y-96062000D01*
X116723941Y-96062000D01*
X116796388Y-96031991D01*
X116825322Y-96101844D01*
X116944032Y-96220554D01*
X117099135Y-96284800D01*
X117267017Y-96284800D01*
X117422120Y-96220554D01*
X117540830Y-96101844D01*
X117597927Y-95964000D01*
X122226099Y-95964000D01*
X122226099Y-97067654D01*
X122241000Y-97142568D01*
X122283436Y-97206078D01*
X122346946Y-97248514D01*
X122405505Y-97260162D01*
X122405504Y-97503004D01*
X122389750Y-97518758D01*
X122325504Y-97673861D01*
X122325504Y-97841743D01*
X122389750Y-97996846D01*
X122508460Y-98115556D01*
X122663563Y-98179802D01*
X122831445Y-98179802D01*
X122986548Y-98115556D01*
X123105258Y-97996846D01*
X123169504Y-97841743D01*
X123169504Y-97825591D01*
X123678000Y-97825591D01*
X123678000Y-97993473D01*
X123742246Y-98148576D01*
X123860956Y-98267286D01*
X124016059Y-98331532D01*
X124183941Y-98331532D01*
X124339044Y-98267286D01*
X124457754Y-98148576D01*
X124522000Y-97993473D01*
X124522000Y-97825591D01*
X124457754Y-97670488D01*
X124339044Y-97551778D01*
X124183941Y-97487532D01*
X124016059Y-97487532D01*
X123860956Y-97551778D01*
X123742246Y-97670488D01*
X123678000Y-97825591D01*
X123169504Y-97825591D01*
X123169504Y-97673861D01*
X123105258Y-97518758D01*
X123089504Y-97503004D01*
X123089504Y-97263415D01*
X123759214Y-97263415D01*
X123771169Y-97265793D01*
X123783125Y-97263415D01*
X124222720Y-97263415D01*
X124244444Y-97259094D01*
X124629239Y-97259094D01*
X124629239Y-97317094D01*
X124644140Y-97392008D01*
X124686576Y-97455518D01*
X124750086Y-97497954D01*
X124825000Y-97512855D01*
X125575000Y-97512855D01*
X125649914Y-97497954D01*
X125713424Y-97455518D01*
X125755860Y-97392008D01*
X125770761Y-97317094D01*
X125770761Y-96517094D01*
X125755860Y-96442180D01*
X125713424Y-96378670D01*
X125649914Y-96336234D01*
X125575000Y-96321333D01*
X124825000Y-96321333D01*
X124750086Y-96336234D01*
X124686576Y-96378670D01*
X124644140Y-96442180D01*
X124629239Y-96517094D01*
X124629239Y-96575094D01*
X124418481Y-96575094D01*
X124418481Y-95868774D01*
X124403580Y-95793860D01*
X124364000Y-95734624D01*
X124364000Y-95345761D01*
X125075000Y-95345761D01*
X125149914Y-95330860D01*
X125213424Y-95288424D01*
X125255860Y-95224914D01*
X125270761Y-95150000D01*
X125270761Y-94350000D01*
X125255860Y-94275086D01*
X125213424Y-94211576D01*
X125149914Y-94169140D01*
X125075000Y-94154239D01*
X124364000Y-94154239D01*
X124364000Y-92800000D01*
X124359128Y-92775508D01*
X124345255Y-92754745D01*
X124324492Y-92740872D01*
X124300000Y-92736000D01*
X124073453Y-92736000D01*
X124080860Y-92724914D01*
X124095761Y-92650000D01*
X124095761Y-91750000D01*
X124080860Y-91675086D01*
X124074829Y-91666059D01*
X124328000Y-91666059D01*
X124328000Y-91833941D01*
X124392246Y-91989044D01*
X124510956Y-92107754D01*
X124666059Y-92172000D01*
X124833941Y-92172000D01*
X124989044Y-92107754D01*
X125107754Y-91989044D01*
X125172000Y-91833941D01*
X125172000Y-91666059D01*
X125107754Y-91510956D01*
X124989044Y-91392246D01*
X124833941Y-91328000D01*
X124666059Y-91328000D01*
X124510956Y-91392246D01*
X124392246Y-91510956D01*
X124328000Y-91666059D01*
X124074829Y-91666059D01*
X124038424Y-91611576D01*
X123974914Y-91569140D01*
X123900000Y-91554239D01*
X123687900Y-91554239D01*
X123494262Y-91360602D01*
X123529567Y-91337762D01*
X125383737Y-89537762D01*
X125427385Y-89473475D01*
X125442000Y-89400000D01*
X125442000Y-88200000D01*
X125427385Y-88126525D01*
X125385765Y-88064235D01*
X125323475Y-88022615D01*
X125250000Y-88008000D01*
X124205500Y-88008000D01*
X124205500Y-87875162D01*
X124210505Y-87850000D01*
X124201993Y-87807205D01*
X124190675Y-87750309D01*
X124134205Y-87665795D01*
X124112875Y-87651543D01*
X122998459Y-86537128D01*
X122984205Y-86515795D01*
X122899691Y-86459325D01*
X122825162Y-86444500D01*
X122825161Y-86444500D01*
X122800000Y-86439495D01*
X122774839Y-86444500D01*
X120081069Y-86444500D01*
X120096103Y-86422000D01*
X120608440Y-86422000D01*
X120650000Y-86430267D01*
X120691560Y-86422000D01*
X120691561Y-86422000D01*
X120814656Y-86397515D01*
X120954245Y-86304245D01*
X120977791Y-86269006D01*
X121001036Y-86245761D01*
X121050000Y-86245761D01*
X121124914Y-86230860D01*
X121188424Y-86188424D01*
X121230860Y-86124914D01*
X121245761Y-86050000D01*
X121245761Y-85967281D01*
X121247515Y-85964656D01*
X121280267Y-85800000D01*
X121247515Y-85635344D01*
X121245761Y-85632719D01*
X121245761Y-85550000D01*
X121230860Y-85475086D01*
X121188424Y-85411576D01*
X121124914Y-85369140D01*
X121050000Y-85354239D01*
X120150000Y-85354239D01*
X120075086Y-85369140D01*
X120011576Y-85411576D01*
X119969140Y-85475086D01*
X119966856Y-85486570D01*
X119930000Y-85479239D01*
X118870000Y-85479239D01*
X118795086Y-85494140D01*
X118731576Y-85536576D01*
X118705500Y-85575602D01*
X118705500Y-84524398D01*
X118731576Y-84563424D01*
X118795086Y-84605860D01*
X118870000Y-84620761D01*
X119930000Y-84620761D01*
X119954000Y-84615987D01*
X119954000Y-84857235D01*
X119948994Y-84882401D01*
X119968824Y-84982091D01*
X120011041Y-85045274D01*
X120011043Y-85045276D01*
X120025295Y-85066606D01*
X120046625Y-85080858D01*
X120049140Y-85083373D01*
X120063394Y-85104706D01*
X120147908Y-85161176D01*
X120222437Y-85176001D01*
X120222438Y-85176001D01*
X120247599Y-85181006D01*
X120272761Y-85176001D01*
X122061338Y-85176001D01*
X122086499Y-85181006D01*
X122111660Y-85176001D01*
X122111661Y-85176001D01*
X122186190Y-85161176D01*
X122270704Y-85104706D01*
X122284958Y-85083373D01*
X122312872Y-85055459D01*
X122334205Y-85041205D01*
X122390675Y-84956691D01*
X122396827Y-84925761D01*
X122400000Y-84925761D01*
X122474914Y-84910860D01*
X122538424Y-84868424D01*
X122580860Y-84804914D01*
X122595761Y-84730000D01*
X122595761Y-84622000D01*
X122654239Y-84622000D01*
X122654239Y-84710000D01*
X122669140Y-84784914D01*
X122711576Y-84848424D01*
X122775086Y-84890860D01*
X122850000Y-84905761D01*
X123350000Y-84905761D01*
X123424914Y-84890860D01*
X123488424Y-84848424D01*
X123530860Y-84784914D01*
X123545761Y-84710000D01*
X123545761Y-83810000D01*
X123530860Y-83735086D01*
X123488424Y-83671576D01*
X123424914Y-83629140D01*
X123350000Y-83614239D01*
X122850000Y-83614239D01*
X122775086Y-83629140D01*
X122711576Y-83671576D01*
X122669140Y-83735086D01*
X122654239Y-83810000D01*
X122654239Y-83938000D01*
X122595761Y-83938000D01*
X122595761Y-83830000D01*
X122580860Y-83755086D01*
X122538424Y-83691576D01*
X122474914Y-83649140D01*
X122400000Y-83634239D01*
X121900000Y-83634239D01*
X121825086Y-83649140D01*
X121761576Y-83691576D01*
X121719140Y-83755086D01*
X121704239Y-83830000D01*
X121704239Y-84665001D01*
X121095761Y-84665001D01*
X121095761Y-83830000D01*
X121080860Y-83755086D01*
X121038424Y-83691576D01*
X120974914Y-83649140D01*
X120900000Y-83634239D01*
X120879938Y-83634239D01*
X120848458Y-83587126D01*
X120848457Y-83587125D01*
X120847698Y-83585989D01*
X124901658Y-83585989D01*
X125569907Y-84254239D01*
X125550000Y-84254239D01*
X125475086Y-84269140D01*
X125411576Y-84311576D01*
X125369140Y-84375086D01*
X125354239Y-84450000D01*
X125354239Y-84950000D01*
X125369140Y-85024914D01*
X125411576Y-85088424D01*
X125475086Y-85130860D01*
X125550000Y-85145761D01*
X126450000Y-85145761D01*
X126480652Y-85139664D01*
X126474300Y-85171601D01*
X126500842Y-85305042D01*
X126549449Y-85377786D01*
X126576432Y-85418169D01*
X126604987Y-85437249D01*
X126645748Y-85478010D01*
X126659439Y-85498500D01*
X126544016Y-85498500D01*
X126388913Y-85562746D01*
X126270203Y-85681456D01*
X126231889Y-85773955D01*
X126120944Y-85728000D01*
X125953062Y-85728000D01*
X125797959Y-85792246D01*
X125743502Y-85846704D01*
X125689044Y-85792246D01*
X125533941Y-85728000D01*
X125366059Y-85728000D01*
X125210956Y-85792246D01*
X125092246Y-85910956D01*
X125028000Y-86066059D01*
X125028000Y-86233941D01*
X125092246Y-86389044D01*
X125210956Y-86507754D01*
X125366059Y-86572000D01*
X125533941Y-86572000D01*
X125689044Y-86507754D01*
X125743502Y-86453297D01*
X125797959Y-86507754D01*
X125953062Y-86572000D01*
X126120944Y-86572000D01*
X126276047Y-86507754D01*
X126283801Y-86500000D01*
X126736000Y-86500000D01*
X126736000Y-88100000D01*
X126742632Y-88128371D01*
X126757856Y-88148165D01*
X126779239Y-88160478D01*
X126779239Y-89350000D01*
X126794140Y-89424914D01*
X126836576Y-89488424D01*
X126853901Y-89500000D01*
X126836576Y-89511576D01*
X126794140Y-89575086D01*
X126779239Y-89650000D01*
X126779239Y-90850000D01*
X126794140Y-90924914D01*
X126836576Y-90988424D01*
X126853901Y-91000000D01*
X126836576Y-91011576D01*
X126794140Y-91075086D01*
X126779239Y-91150000D01*
X126779239Y-92350000D01*
X126794140Y-92424914D01*
X126836576Y-92488424D01*
X126853901Y-92500000D01*
X126836576Y-92511576D01*
X126794140Y-92575086D01*
X126779239Y-92650000D01*
X126779239Y-93850000D01*
X126794140Y-93924914D01*
X126836576Y-93988424D01*
X126853901Y-94000000D01*
X126836576Y-94011576D01*
X126794140Y-94075086D01*
X126779239Y-94150000D01*
X126779239Y-95350000D01*
X126794140Y-95424914D01*
X126836576Y-95488424D01*
X126900086Y-95530860D01*
X126975000Y-95545761D01*
X128175000Y-95545761D01*
X128249914Y-95530860D01*
X128313424Y-95488424D01*
X128355860Y-95424914D01*
X128370761Y-95350000D01*
X128370761Y-94150000D01*
X128355860Y-94075086D01*
X128313424Y-94011576D01*
X128296099Y-94000000D01*
X128313424Y-93988424D01*
X128355860Y-93924914D01*
X128370761Y-93850000D01*
X128370761Y-93166059D01*
X129328000Y-93166059D01*
X129328000Y-93333941D01*
X129392246Y-93489044D01*
X129510956Y-93607754D01*
X129666059Y-93672000D01*
X129833941Y-93672000D01*
X129989044Y-93607754D01*
X130107754Y-93489044D01*
X130172000Y-93333941D01*
X130172000Y-93166059D01*
X130107754Y-93010956D01*
X129989044Y-92892246D01*
X129833941Y-92828000D01*
X129666059Y-92828000D01*
X129510956Y-92892246D01*
X129392246Y-93010956D01*
X129328000Y-93166059D01*
X128370761Y-93166059D01*
X128370761Y-92650000D01*
X128355860Y-92575086D01*
X128313424Y-92511576D01*
X128296099Y-92500000D01*
X128313424Y-92488424D01*
X128355860Y-92424914D01*
X128370761Y-92350000D01*
X128370761Y-91150000D01*
X128355860Y-91075086D01*
X128313424Y-91011576D01*
X128296099Y-91000000D01*
X128313424Y-90988424D01*
X128355860Y-90924914D01*
X128370761Y-90850000D01*
X128370761Y-89650000D01*
X128355860Y-89575086D01*
X128313424Y-89511576D01*
X128296099Y-89500000D01*
X128313424Y-89488424D01*
X128355860Y-89424914D01*
X128370761Y-89350000D01*
X128370761Y-88150000D01*
X128355860Y-88075086D01*
X128338807Y-88049564D01*
X128345255Y-88045255D01*
X128359128Y-88024492D01*
X128364000Y-88000000D01*
X128364000Y-86500000D01*
X128359128Y-86475508D01*
X128345255Y-86454745D01*
X128324492Y-86440872D01*
X128300000Y-86436000D01*
X126800000Y-86436000D01*
X126775508Y-86440872D01*
X126754745Y-86454745D01*
X126740872Y-86475508D01*
X126736000Y-86500000D01*
X126283801Y-86500000D01*
X126394757Y-86389044D01*
X126433071Y-86296545D01*
X126544016Y-86342500D01*
X126711898Y-86342500D01*
X126867001Y-86278254D01*
X126985711Y-86159544D01*
X127049957Y-86004441D01*
X127049957Y-85836559D01*
X126985711Y-85681456D01*
X126912696Y-85608441D01*
X126945077Y-85602000D01*
X128513018Y-85602000D01*
X129125339Y-86214322D01*
X129125339Y-86236602D01*
X129189585Y-86391705D01*
X129308295Y-86510415D01*
X129463398Y-86574661D01*
X129631280Y-86574661D01*
X129786383Y-86510415D01*
X129796798Y-86500000D01*
X130636000Y-86500000D01*
X130636000Y-88100000D01*
X130640872Y-88124492D01*
X130654745Y-88145255D01*
X130655131Y-88145513D01*
X130654239Y-88150000D01*
X130654239Y-89350000D01*
X130669140Y-89424914D01*
X130711576Y-89488424D01*
X130728901Y-89500000D01*
X130711576Y-89511576D01*
X130669140Y-89575086D01*
X130654239Y-89650000D01*
X130654239Y-90850000D01*
X130669140Y-90924914D01*
X130711576Y-90988424D01*
X130728901Y-91000000D01*
X130711576Y-91011576D01*
X130669140Y-91075086D01*
X130654239Y-91150000D01*
X130654239Y-92350000D01*
X130669140Y-92424914D01*
X130711576Y-92488424D01*
X130728901Y-92500000D01*
X130711576Y-92511576D01*
X130669140Y-92575086D01*
X130654239Y-92650000D01*
X130654239Y-93850000D01*
X130669140Y-93924914D01*
X130711576Y-93988424D01*
X130728901Y-94000000D01*
X130711576Y-94011576D01*
X130669140Y-94075086D01*
X130654239Y-94150000D01*
X130654239Y-95350000D01*
X130669140Y-95424914D01*
X130711576Y-95488424D01*
X130775086Y-95530860D01*
X130850000Y-95545761D01*
X132050000Y-95545761D01*
X132124914Y-95530860D01*
X132188424Y-95488424D01*
X132230860Y-95424914D01*
X132245761Y-95350000D01*
X132245761Y-94150000D01*
X132230860Y-94075086D01*
X132188424Y-94011576D01*
X132171099Y-94000000D01*
X132188424Y-93988424D01*
X132230860Y-93924914D01*
X132245761Y-93850000D01*
X132245761Y-92650000D01*
X132230860Y-92575086D01*
X132188424Y-92511576D01*
X132171099Y-92500000D01*
X132188424Y-92488424D01*
X132230860Y-92424914D01*
X132245761Y-92350000D01*
X132245761Y-91150000D01*
X132230860Y-91075086D01*
X132188424Y-91011576D01*
X132171099Y-91000000D01*
X132188424Y-90988424D01*
X132230860Y-90924914D01*
X132245761Y-90850000D01*
X132245761Y-89650000D01*
X132230860Y-89575086D01*
X132188424Y-89511576D01*
X132171099Y-89500000D01*
X132188424Y-89488424D01*
X132230860Y-89424914D01*
X132245761Y-89350000D01*
X132245761Y-88150000D01*
X132244869Y-88145513D01*
X132245255Y-88145255D01*
X132259128Y-88124492D01*
X132264000Y-88100000D01*
X132264000Y-86500000D01*
X132259128Y-86475508D01*
X132245255Y-86454745D01*
X132224492Y-86440872D01*
X132200000Y-86436000D01*
X130700000Y-86436000D01*
X130675508Y-86440872D01*
X130654745Y-86454745D01*
X130640872Y-86475508D01*
X130636000Y-86500000D01*
X129796798Y-86500000D01*
X129905093Y-86391705D01*
X129969339Y-86236602D01*
X129969339Y-86068720D01*
X129905093Y-85913617D01*
X129786383Y-85794907D01*
X129765023Y-85786059D01*
X130388000Y-85786059D01*
X130388000Y-85953941D01*
X130452246Y-86109044D01*
X130570956Y-86227754D01*
X130726059Y-86292000D01*
X130893941Y-86292000D01*
X131049044Y-86227754D01*
X131167754Y-86109044D01*
X131232000Y-85953941D01*
X131232000Y-85786059D01*
X131167754Y-85630956D01*
X131049044Y-85512246D01*
X130893941Y-85448000D01*
X130726059Y-85448000D01*
X130570956Y-85512246D01*
X130452246Y-85630956D01*
X130388000Y-85786059D01*
X129765023Y-85786059D01*
X129631280Y-85730661D01*
X129609000Y-85730661D01*
X129024099Y-85145761D01*
X129550000Y-85145761D01*
X129624914Y-85130860D01*
X129688424Y-85088424D01*
X129730860Y-85024914D01*
X129745761Y-84950000D01*
X129745761Y-84450000D01*
X129730860Y-84375086D01*
X129688424Y-84311576D01*
X129624914Y-84269140D01*
X129550000Y-84254239D01*
X128650000Y-84254239D01*
X128575086Y-84269140D01*
X128511576Y-84311576D01*
X128505144Y-84321202D01*
X128383941Y-84270998D01*
X128216059Y-84270998D01*
X128130645Y-84306378D01*
X128127791Y-84304471D01*
X128561886Y-83870377D01*
X128590441Y-83851297D01*
X128662322Y-83743720D01*
X130000339Y-83743720D01*
X130000339Y-83911602D01*
X130064585Y-84066705D01*
X130183295Y-84185415D01*
X130338398Y-84249661D01*
X130506280Y-84249661D01*
X130661383Y-84185415D01*
X130780093Y-84066705D01*
X130844339Y-83911602D01*
X130844339Y-83743720D01*
X130780093Y-83588617D01*
X130661383Y-83469907D01*
X130506280Y-83405661D01*
X130338398Y-83405661D01*
X130183295Y-83469907D01*
X130064585Y-83588617D01*
X130000339Y-83743720D01*
X128662322Y-83743720D01*
X128666030Y-83738171D01*
X128680783Y-83664000D01*
X129700000Y-83664000D01*
X129724492Y-83659128D01*
X129745255Y-83645255D01*
X129759128Y-83624492D01*
X129764000Y-83600000D01*
X129764000Y-82464000D01*
X130983680Y-82464000D01*
X132051733Y-83046574D01*
G36*
X115228001Y-84006037D02*
X115219733Y-84047602D01*
X115247263Y-84186000D01*
X115252486Y-84212258D01*
X115345756Y-84351847D01*
X115380991Y-84375390D01*
X116224609Y-85219009D01*
X116248153Y-85254245D01*
X116387742Y-85347515D01*
X116474239Y-85364720D01*
X116474239Y-85375000D01*
X116489140Y-85449914D01*
X116511166Y-85482878D01*
X116464235Y-85514235D01*
X116422615Y-85576525D01*
X116408000Y-85650000D01*
X116408000Y-87000000D01*
X116422615Y-87073475D01*
X116464235Y-87135765D01*
X116482709Y-87154239D01*
X115925000Y-87154239D01*
X115850086Y-87169140D01*
X115786576Y-87211576D01*
X115744140Y-87275086D01*
X115729239Y-87350000D01*
X115729239Y-88150000D01*
X115744140Y-88224914D01*
X115786576Y-88288424D01*
X115850086Y-88330860D01*
X115925000Y-88345761D01*
X116624109Y-88345761D01*
X116668490Y-88452906D01*
X116724124Y-88508540D01*
X116670849Y-88561815D01*
X116606603Y-88716918D01*
X116606603Y-88884800D01*
X116670849Y-89039903D01*
X116727150Y-89096204D01*
X116674548Y-89148806D01*
X116610302Y-89303909D01*
X116610302Y-89471791D01*
X116674548Y-89626894D01*
X116793258Y-89745604D01*
X116814105Y-89754239D01*
X116400000Y-89754239D01*
X116325086Y-89769140D01*
X116261576Y-89811576D01*
X116219140Y-89875086D01*
X116204239Y-89950000D01*
X116204239Y-90850000D01*
X116219140Y-90924914D01*
X116261576Y-90988424D01*
X116278901Y-91000000D01*
X116261576Y-91011576D01*
X116219140Y-91075086D01*
X116204239Y-91150000D01*
X116204239Y-92050000D01*
X116219140Y-92124914D01*
X116261576Y-92188424D01*
X116325086Y-92230860D01*
X116400000Y-92245761D01*
X116812100Y-92245761D01*
X116984352Y-92418013D01*
X117003432Y-92446568D01*
X117116558Y-92522157D01*
X117216316Y-92542000D01*
X117216320Y-92542000D01*
X117249999Y-92548699D01*
X117283679Y-92542000D01*
X118804239Y-92542000D01*
X118804239Y-92650000D01*
X118819140Y-92724914D01*
X118826547Y-92736000D01*
X117400000Y-92736000D01*
X117375508Y-92740872D01*
X117352577Y-92757023D01*
X116895761Y-93261096D01*
X116895761Y-93050000D01*
X116880860Y-92975086D01*
X116838424Y-92911576D01*
X116774914Y-92869140D01*
X116700000Y-92854239D01*
X116200000Y-92854239D01*
X116125086Y-92869140D01*
X116071960Y-92904638D01*
X116055557Y-92888235D01*
X115900454Y-92823989D01*
X115732572Y-92823989D01*
X115577469Y-92888235D01*
X115458759Y-93006945D01*
X115397748Y-93154239D01*
X114725000Y-93154239D01*
X114650086Y-93169140D01*
X114586576Y-93211576D01*
X114544140Y-93275086D01*
X114529239Y-93350000D01*
X114529239Y-94150000D01*
X114544140Y-94224914D01*
X114586576Y-94288424D01*
X114650086Y-94330860D01*
X114725000Y-94345761D01*
X115475000Y-94345761D01*
X115549914Y-94330860D01*
X115613424Y-94288424D01*
X115655860Y-94224914D01*
X115670761Y-94150000D01*
X115670761Y-93642386D01*
X115732572Y-93667989D01*
X115900454Y-93667989D01*
X116004239Y-93625000D01*
X116004239Y-93950000D01*
X116019140Y-94024914D01*
X116061576Y-94088424D01*
X116108000Y-94119444D01*
X116108000Y-94130349D01*
X116011428Y-94236911D01*
X115975086Y-94244140D01*
X115911576Y-94286576D01*
X115869140Y-94350086D01*
X115857970Y-94406245D01*
X114471629Y-95936000D01*
X111263370Y-95936000D01*
X111244202Y-94000000D01*
X111486000Y-94000000D01*
X111486000Y-95500000D01*
X111490872Y-95524492D01*
X111504745Y-95545255D01*
X111525508Y-95559128D01*
X111550000Y-95564000D01*
X113050000Y-95564000D01*
X113074492Y-95559128D01*
X113095255Y-95545255D01*
X113109128Y-95524492D01*
X113114000Y-95500000D01*
X113114000Y-95147536D01*
X113173061Y-95172000D01*
X113340943Y-95172000D01*
X113496046Y-95107754D01*
X113614756Y-94989044D01*
X113679002Y-94833941D01*
X113679002Y-94666059D01*
X113614756Y-94510956D01*
X113496046Y-94392246D01*
X113340943Y-94328000D01*
X113173061Y-94328000D01*
X113114000Y-94352464D01*
X113114000Y-94000000D01*
X113109128Y-93975508D01*
X113095255Y-93954745D01*
X113074492Y-93940872D01*
X113070701Y-93940118D01*
X113080860Y-93924914D01*
X113095761Y-93850000D01*
X113095761Y-92650000D01*
X113080860Y-92575086D01*
X113038424Y-92511576D01*
X113021099Y-92500000D01*
X113038424Y-92488424D01*
X113080860Y-92424914D01*
X113095761Y-92350000D01*
X113095761Y-91632981D01*
X113173061Y-91665000D01*
X113340943Y-91665000D01*
X113496046Y-91600754D01*
X113614756Y-91482044D01*
X113679002Y-91326941D01*
X113679002Y-91159059D01*
X113614756Y-91003956D01*
X113496046Y-90885246D01*
X113340943Y-90821000D01*
X113173061Y-90821000D01*
X113095107Y-90853290D01*
X113095761Y-90850000D01*
X113095761Y-89950000D01*
X114704239Y-89950000D01*
X114704239Y-90850000D01*
X114719140Y-90924914D01*
X114761576Y-90988424D01*
X114778901Y-91000000D01*
X114761576Y-91011576D01*
X114719140Y-91075086D01*
X114704239Y-91150000D01*
X114704239Y-92050000D01*
X114719140Y-92124914D01*
X114761576Y-92188424D01*
X114825086Y-92230860D01*
X114900000Y-92245761D01*
X115302742Y-92245761D01*
X115302742Y-92282243D01*
X115366988Y-92437346D01*
X115485698Y-92556056D01*
X115640801Y-92620302D01*
X115808683Y-92620302D01*
X115963786Y-92556056D01*
X116082496Y-92437346D01*
X116146742Y-92282243D01*
X116146742Y-92114361D01*
X116082496Y-91959258D01*
X116013553Y-91890315D01*
X116027789Y-91869009D01*
X116057754Y-91839044D01*
X116073972Y-91799891D01*
X116097515Y-91764656D01*
X116105782Y-91723094D01*
X116122000Y-91683941D01*
X116122000Y-91641561D01*
X116130267Y-91600000D01*
X116122000Y-91558439D01*
X116122000Y-91516059D01*
X116105782Y-91476906D01*
X116097515Y-91435344D01*
X116073972Y-91400109D01*
X116057754Y-91360956D01*
X116027789Y-91330991D01*
X116004245Y-91295755D01*
X115969009Y-91272211D01*
X115939044Y-91242246D01*
X115899891Y-91226028D01*
X115864656Y-91202485D01*
X115823094Y-91194218D01*
X115783941Y-91178000D01*
X115595761Y-91178000D01*
X115595761Y-91150000D01*
X115580860Y-91075086D01*
X115538424Y-91011576D01*
X115521099Y-91000000D01*
X115538424Y-90988424D01*
X115580860Y-90924914D01*
X115595761Y-90850000D01*
X115595761Y-90822000D01*
X115783941Y-90822000D01*
X115823094Y-90805782D01*
X115864656Y-90797515D01*
X115899891Y-90773972D01*
X115939044Y-90757754D01*
X115969009Y-90727789D01*
X116004245Y-90704245D01*
X116027789Y-90669009D01*
X116057754Y-90639044D01*
X116073972Y-90599891D01*
X116097515Y-90564656D01*
X116105782Y-90523094D01*
X116122000Y-90483941D01*
X116122000Y-90441561D01*
X116130267Y-90400000D01*
X116122000Y-90358439D01*
X116122000Y-90316059D01*
X116105782Y-90276906D01*
X116097515Y-90235344D01*
X116073972Y-90200109D01*
X116057754Y-90160956D01*
X116027789Y-90130991D01*
X116004245Y-90095755D01*
X115969009Y-90072211D01*
X115939044Y-90042246D01*
X115899891Y-90026028D01*
X115864656Y-90002485D01*
X115823094Y-89994218D01*
X115783941Y-89978000D01*
X115595761Y-89978000D01*
X115595761Y-89950000D01*
X115580860Y-89875086D01*
X115538424Y-89811576D01*
X115474914Y-89769140D01*
X115400000Y-89754239D01*
X114900000Y-89754239D01*
X114825086Y-89769140D01*
X114761576Y-89811576D01*
X114719140Y-89875086D01*
X114704239Y-89950000D01*
X113095761Y-89950000D01*
X113095761Y-89650000D01*
X113080860Y-89575086D01*
X113038424Y-89511576D01*
X113021099Y-89500000D01*
X113038424Y-89488424D01*
X113080860Y-89424914D01*
X113095761Y-89350000D01*
X113095761Y-89155154D01*
X113173061Y-89187173D01*
X113340943Y-89187173D01*
X113496046Y-89122927D01*
X113614756Y-89004217D01*
X113679002Y-88849114D01*
X113679002Y-88681232D01*
X113614756Y-88526129D01*
X113570665Y-88482038D01*
X113635134Y-88417569D01*
X113699380Y-88262466D01*
X113699380Y-88094584D01*
X113635134Y-87939481D01*
X113516424Y-87820771D01*
X113467127Y-87800351D01*
X113433441Y-87777843D01*
X113393705Y-87769939D01*
X113361321Y-87756525D01*
X113326268Y-87756525D01*
X113300000Y-87751300D01*
X113273732Y-87756525D01*
X113193439Y-87756525D01*
X113095761Y-87796985D01*
X113095761Y-87350000D01*
X114529239Y-87350000D01*
X114529239Y-88150000D01*
X114544140Y-88224914D01*
X114586576Y-88288424D01*
X114650086Y-88330860D01*
X114725000Y-88345761D01*
X115475000Y-88345761D01*
X115549914Y-88330860D01*
X115613424Y-88288424D01*
X115655860Y-88224914D01*
X115670761Y-88150000D01*
X115670761Y-87350000D01*
X115655860Y-87275086D01*
X115613424Y-87211576D01*
X115549914Y-87169140D01*
X115475000Y-87154239D01*
X114725000Y-87154239D01*
X114650086Y-87169140D01*
X114586576Y-87211576D01*
X114544140Y-87275086D01*
X114529239Y-87350000D01*
X113095761Y-87350000D01*
X113095761Y-86650000D01*
X113080860Y-86575086D01*
X113038424Y-86511576D01*
X112974914Y-86469140D01*
X112900000Y-86454239D01*
X111700000Y-86454239D01*
X111625086Y-86469140D01*
X111561576Y-86511576D01*
X111519140Y-86575086D01*
X111504239Y-86650000D01*
X111504239Y-87850000D01*
X111519140Y-87924914D01*
X111561576Y-87988424D01*
X111578901Y-88000000D01*
X111561576Y-88011576D01*
X111519140Y-88075086D01*
X111504239Y-88150000D01*
X111504239Y-89350000D01*
X111519140Y-89424914D01*
X111561576Y-89488424D01*
X111578901Y-89500000D01*
X111561576Y-89511576D01*
X111519140Y-89575086D01*
X111504239Y-89650000D01*
X111504239Y-90850000D01*
X111519140Y-90924914D01*
X111561576Y-90988424D01*
X111578901Y-91000000D01*
X111561576Y-91011576D01*
X111519140Y-91075086D01*
X111504239Y-91150000D01*
X111504239Y-92350000D01*
X111519140Y-92424914D01*
X111561576Y-92488424D01*
X111578901Y-92500000D01*
X111561576Y-92511576D01*
X111519140Y-92575086D01*
X111504239Y-92650000D01*
X111504239Y-93850000D01*
X111519140Y-93924914D01*
X111529299Y-93940118D01*
X111525508Y-93940872D01*
X111504745Y-93954745D01*
X111490872Y-93975508D01*
X111486000Y-94000000D01*
X111244202Y-94000000D01*
X111164637Y-85964000D01*
X114800000Y-85964000D01*
X114824492Y-85959128D01*
X114845255Y-85945255D01*
X114859128Y-85924492D01*
X114864000Y-85900000D01*
X114864000Y-83545761D01*
X115228001Y-83545761D01*
X115228001Y-84006037D01*
X115228001Y-84006037D01*
G37*
X115228001Y-84006037D02*
X115219733Y-84047602D01*
X115247263Y-84186000D01*
X115252486Y-84212258D01*
X115345756Y-84351847D01*
X115380991Y-84375390D01*
X116224609Y-85219009D01*
X116248153Y-85254245D01*
X116387742Y-85347515D01*
X116474239Y-85364720D01*
X116474239Y-85375000D01*
X116489140Y-85449914D01*
X116511166Y-85482878D01*
X116464235Y-85514235D01*
X116422615Y-85576525D01*
X116408000Y-85650000D01*
X116408000Y-87000000D01*
X116422615Y-87073475D01*
X116464235Y-87135765D01*
X116482709Y-87154239D01*
X115925000Y-87154239D01*
X115850086Y-87169140D01*
X115786576Y-87211576D01*
X115744140Y-87275086D01*
X115729239Y-87350000D01*
X115729239Y-88150000D01*
X115744140Y-88224914D01*
X115786576Y-88288424D01*
X115850086Y-88330860D01*
X115925000Y-88345761D01*
X116624109Y-88345761D01*
X116668490Y-88452906D01*
X116724124Y-88508540D01*
X116670849Y-88561815D01*
X116606603Y-88716918D01*
X116606603Y-88884800D01*
X116670849Y-89039903D01*
X116727150Y-89096204D01*
X116674548Y-89148806D01*
X116610302Y-89303909D01*
X116610302Y-89471791D01*
X116674548Y-89626894D01*
X116793258Y-89745604D01*
X116814105Y-89754239D01*
X116400000Y-89754239D01*
X116325086Y-89769140D01*
X116261576Y-89811576D01*
X116219140Y-89875086D01*
X116204239Y-89950000D01*
X116204239Y-90850000D01*
X116219140Y-90924914D01*
X116261576Y-90988424D01*
X116278901Y-91000000D01*
X116261576Y-91011576D01*
X116219140Y-91075086D01*
X116204239Y-91150000D01*
X116204239Y-92050000D01*
X116219140Y-92124914D01*
X116261576Y-92188424D01*
X116325086Y-92230860D01*
X116400000Y-92245761D01*
X116812100Y-92245761D01*
X116984352Y-92418013D01*
X117003432Y-92446568D01*
X117116558Y-92522157D01*
X117216316Y-92542000D01*
X117216320Y-92542000D01*
X117249999Y-92548699D01*
X117283679Y-92542000D01*
X118804239Y-92542000D01*
X118804239Y-92650000D01*
X118819140Y-92724914D01*
X118826547Y-92736000D01*
X117400000Y-92736000D01*
X117375508Y-92740872D01*
X117352577Y-92757023D01*
X116895761Y-93261096D01*
X116895761Y-93050000D01*
X116880860Y-92975086D01*
X116838424Y-92911576D01*
X116774914Y-92869140D01*
X116700000Y-92854239D01*
X116200000Y-92854239D01*
X116125086Y-92869140D01*
X116071960Y-92904638D01*
X116055557Y-92888235D01*
X115900454Y-92823989D01*
X115732572Y-92823989D01*
X115577469Y-92888235D01*
X115458759Y-93006945D01*
X115397748Y-93154239D01*
X114725000Y-93154239D01*
X114650086Y-93169140D01*
X114586576Y-93211576D01*
X114544140Y-93275086D01*
X114529239Y-93350000D01*
X114529239Y-94150000D01*
X114544140Y-94224914D01*
X114586576Y-94288424D01*
X114650086Y-94330860D01*
X114725000Y-94345761D01*
X115475000Y-94345761D01*
X115549914Y-94330860D01*
X115613424Y-94288424D01*
X115655860Y-94224914D01*
X115670761Y-94150000D01*
X115670761Y-93642386D01*
X115732572Y-93667989D01*
X115900454Y-93667989D01*
X116004239Y-93625000D01*
X116004239Y-93950000D01*
X116019140Y-94024914D01*
X116061576Y-94088424D01*
X116108000Y-94119444D01*
X116108000Y-94130349D01*
X116011428Y-94236911D01*
X115975086Y-94244140D01*
X115911576Y-94286576D01*
X115869140Y-94350086D01*
X115857970Y-94406245D01*
X114471629Y-95936000D01*
X111263370Y-95936000D01*
X111244202Y-94000000D01*
X111486000Y-94000000D01*
X111486000Y-95500000D01*
X111490872Y-95524492D01*
X111504745Y-95545255D01*
X111525508Y-95559128D01*
X111550000Y-95564000D01*
X113050000Y-95564000D01*
X113074492Y-95559128D01*
X113095255Y-95545255D01*
X113109128Y-95524492D01*
X113114000Y-95500000D01*
X113114000Y-95147536D01*
X113173061Y-95172000D01*
X113340943Y-95172000D01*
X113496046Y-95107754D01*
X113614756Y-94989044D01*
X113679002Y-94833941D01*
X113679002Y-94666059D01*
X113614756Y-94510956D01*
X113496046Y-94392246D01*
X113340943Y-94328000D01*
X113173061Y-94328000D01*
X113114000Y-94352464D01*
X113114000Y-94000000D01*
X113109128Y-93975508D01*
X113095255Y-93954745D01*
X113074492Y-93940872D01*
X113070701Y-93940118D01*
X113080860Y-93924914D01*
X113095761Y-93850000D01*
X113095761Y-92650000D01*
X113080860Y-92575086D01*
X113038424Y-92511576D01*
X113021099Y-92500000D01*
X113038424Y-92488424D01*
X113080860Y-92424914D01*
X113095761Y-92350000D01*
X113095761Y-91632981D01*
X113173061Y-91665000D01*
X113340943Y-91665000D01*
X113496046Y-91600754D01*
X113614756Y-91482044D01*
X113679002Y-91326941D01*
X113679002Y-91159059D01*
X113614756Y-91003956D01*
X113496046Y-90885246D01*
X113340943Y-90821000D01*
X113173061Y-90821000D01*
X113095107Y-90853290D01*
X113095761Y-90850000D01*
X113095761Y-89950000D01*
X114704239Y-89950000D01*
X114704239Y-90850000D01*
X114719140Y-90924914D01*
X114761576Y-90988424D01*
X114778901Y-91000000D01*
X114761576Y-91011576D01*
X114719140Y-91075086D01*
X114704239Y-91150000D01*
X114704239Y-92050000D01*
X114719140Y-92124914D01*
X114761576Y-92188424D01*
X114825086Y-92230860D01*
X114900000Y-92245761D01*
X115302742Y-92245761D01*
X115302742Y-92282243D01*
X115366988Y-92437346D01*
X115485698Y-92556056D01*
X115640801Y-92620302D01*
X115808683Y-92620302D01*
X115963786Y-92556056D01*
X116082496Y-92437346D01*
X116146742Y-92282243D01*
X116146742Y-92114361D01*
X116082496Y-91959258D01*
X116013553Y-91890315D01*
X116027789Y-91869009D01*
X116057754Y-91839044D01*
X116073972Y-91799891D01*
X116097515Y-91764656D01*
X116105782Y-91723094D01*
X116122000Y-91683941D01*
X116122000Y-91641561D01*
X116130267Y-91600000D01*
X116122000Y-91558439D01*
X116122000Y-91516059D01*
X116105782Y-91476906D01*
X116097515Y-91435344D01*
X116073972Y-91400109D01*
X116057754Y-91360956D01*
X116027789Y-91330991D01*
X116004245Y-91295755D01*
X115969009Y-91272211D01*
X115939044Y-91242246D01*
X115899891Y-91226028D01*
X115864656Y-91202485D01*
X115823094Y-91194218D01*
X115783941Y-91178000D01*
X115595761Y-91178000D01*
X115595761Y-91150000D01*
X115580860Y-91075086D01*
X115538424Y-91011576D01*
X115521099Y-91000000D01*
X115538424Y-90988424D01*
X115580860Y-90924914D01*
X115595761Y-90850000D01*
X115595761Y-90822000D01*
X115783941Y-90822000D01*
X115823094Y-90805782D01*
X115864656Y-90797515D01*
X115899891Y-90773972D01*
X115939044Y-90757754D01*
X115969009Y-90727789D01*
X116004245Y-90704245D01*
X116027789Y-90669009D01*
X116057754Y-90639044D01*
X116073972Y-90599891D01*
X116097515Y-90564656D01*
X116105782Y-90523094D01*
X116122000Y-90483941D01*
X116122000Y-90441561D01*
X116130267Y-90400000D01*
X116122000Y-90358439D01*
X116122000Y-90316059D01*
X116105782Y-90276906D01*
X116097515Y-90235344D01*
X116073972Y-90200109D01*
X116057754Y-90160956D01*
X116027789Y-90130991D01*
X116004245Y-90095755D01*
X115969009Y-90072211D01*
X115939044Y-90042246D01*
X115899891Y-90026028D01*
X115864656Y-90002485D01*
X115823094Y-89994218D01*
X115783941Y-89978000D01*
X115595761Y-89978000D01*
X115595761Y-89950000D01*
X115580860Y-89875086D01*
X115538424Y-89811576D01*
X115474914Y-89769140D01*
X115400000Y-89754239D01*
X114900000Y-89754239D01*
X114825086Y-89769140D01*
X114761576Y-89811576D01*
X114719140Y-89875086D01*
X114704239Y-89950000D01*
X113095761Y-89950000D01*
X113095761Y-89650000D01*
X113080860Y-89575086D01*
X113038424Y-89511576D01*
X113021099Y-89500000D01*
X113038424Y-89488424D01*
X113080860Y-89424914D01*
X113095761Y-89350000D01*
X113095761Y-89155154D01*
X113173061Y-89187173D01*
X113340943Y-89187173D01*
X113496046Y-89122927D01*
X113614756Y-89004217D01*
X113679002Y-88849114D01*
X113679002Y-88681232D01*
X113614756Y-88526129D01*
X113570665Y-88482038D01*
X113635134Y-88417569D01*
X113699380Y-88262466D01*
X113699380Y-88094584D01*
X113635134Y-87939481D01*
X113516424Y-87820771D01*
X113467127Y-87800351D01*
X113433441Y-87777843D01*
X113393705Y-87769939D01*
X113361321Y-87756525D01*
X113326268Y-87756525D01*
X113300000Y-87751300D01*
X113273732Y-87756525D01*
X113193439Y-87756525D01*
X113095761Y-87796985D01*
X113095761Y-87350000D01*
X114529239Y-87350000D01*
X114529239Y-88150000D01*
X114544140Y-88224914D01*
X114586576Y-88288424D01*
X114650086Y-88330860D01*
X114725000Y-88345761D01*
X115475000Y-88345761D01*
X115549914Y-88330860D01*
X115613424Y-88288424D01*
X115655860Y-88224914D01*
X115670761Y-88150000D01*
X115670761Y-87350000D01*
X115655860Y-87275086D01*
X115613424Y-87211576D01*
X115549914Y-87169140D01*
X115475000Y-87154239D01*
X114725000Y-87154239D01*
X114650086Y-87169140D01*
X114586576Y-87211576D01*
X114544140Y-87275086D01*
X114529239Y-87350000D01*
X113095761Y-87350000D01*
X113095761Y-86650000D01*
X113080860Y-86575086D01*
X113038424Y-86511576D01*
X112974914Y-86469140D01*
X112900000Y-86454239D01*
X111700000Y-86454239D01*
X111625086Y-86469140D01*
X111561576Y-86511576D01*
X111519140Y-86575086D01*
X111504239Y-86650000D01*
X111504239Y-87850000D01*
X111519140Y-87924914D01*
X111561576Y-87988424D01*
X111578901Y-88000000D01*
X111561576Y-88011576D01*
X111519140Y-88075086D01*
X111504239Y-88150000D01*
X111504239Y-89350000D01*
X111519140Y-89424914D01*
X111561576Y-89488424D01*
X111578901Y-89500000D01*
X111561576Y-89511576D01*
X111519140Y-89575086D01*
X111504239Y-89650000D01*
X111504239Y-90850000D01*
X111519140Y-90924914D01*
X111561576Y-90988424D01*
X111578901Y-91000000D01*
X111561576Y-91011576D01*
X111519140Y-91075086D01*
X111504239Y-91150000D01*
X111504239Y-92350000D01*
X111519140Y-92424914D01*
X111561576Y-92488424D01*
X111578901Y-92500000D01*
X111561576Y-92511576D01*
X111519140Y-92575086D01*
X111504239Y-92650000D01*
X111504239Y-93850000D01*
X111519140Y-93924914D01*
X111529299Y-93940118D01*
X111525508Y-93940872D01*
X111504745Y-93954745D01*
X111490872Y-93975508D01*
X111486000Y-94000000D01*
X111244202Y-94000000D01*
X111164637Y-85964000D01*
X114800000Y-85964000D01*
X114824492Y-85959128D01*
X114845255Y-85945255D01*
X114859128Y-85924492D01*
X114864000Y-85900000D01*
X114864000Y-83545761D01*
X115228001Y-83545761D01*
X115228001Y-84006037D01*
G36*
X123204239Y-92037900D02*
X123204239Y-92650000D01*
X123219140Y-92724914D01*
X123226547Y-92736000D01*
X119673453Y-92736000D01*
X119680860Y-92724914D01*
X119695761Y-92650000D01*
X119695761Y-91769001D01*
X122935341Y-91769001D01*
X123204239Y-92037900D01*
X123204239Y-92037900D01*
G37*
X123204239Y-92037900D02*
X123204239Y-92650000D01*
X123219140Y-92724914D01*
X123226547Y-92736000D01*
X119673453Y-92736000D01*
X119680860Y-92724914D01*
X119695761Y-92650000D01*
X119695761Y-91769001D01*
X122935341Y-91769001D01*
X123204239Y-92037900D01*
D38*
G36*
X117673000Y-86400000D02*
X117682667Y-86448601D01*
X117724897Y-86502413D01*
X118474897Y-87052413D01*
X118519806Y-87073358D01*
X118550000Y-87077000D01*
X121229390Y-87077000D01*
X121931396Y-87311002D01*
X122448580Y-87828186D01*
X122773000Y-88384335D01*
X122773000Y-88923000D01*
X117502971Y-88923000D01*
X117513603Y-88897332D01*
X117513603Y-88704386D01*
X117439766Y-88526128D01*
X117419819Y-88506181D01*
X117437407Y-88488593D01*
X117511244Y-88310335D01*
X117511244Y-88117389D01*
X117437407Y-87939131D01*
X117327000Y-87828724D01*
X117327000Y-87600000D01*
X117317333Y-87551399D01*
X117289803Y-87510197D01*
X116982119Y-87202513D01*
X117124159Y-87143678D01*
X117260591Y-87007246D01*
X117334428Y-86828988D01*
X117334428Y-86636042D01*
X117260591Y-86457784D01*
X117124159Y-86321352D01*
X116945901Y-86247515D01*
X116759995Y-86247515D01*
X116759995Y-85777000D01*
X117673000Y-85777000D01*
X117673000Y-86400000D01*
X117673000Y-86400000D01*
G37*
X117673000Y-86400000D02*
X117682667Y-86448601D01*
X117724897Y-86502413D01*
X118474897Y-87052413D01*
X118519806Y-87073358D01*
X118550000Y-87077000D01*
X121229390Y-87077000D01*
X121931396Y-87311002D01*
X122448580Y-87828186D01*
X122773000Y-88384335D01*
X122773000Y-88923000D01*
X117502971Y-88923000D01*
X117513603Y-88897332D01*
X117513603Y-88704386D01*
X117439766Y-88526128D01*
X117419819Y-88506181D01*
X117437407Y-88488593D01*
X117511244Y-88310335D01*
X117511244Y-88117389D01*
X117437407Y-87939131D01*
X117327000Y-87828724D01*
X117327000Y-87600000D01*
X117317333Y-87551399D01*
X117289803Y-87510197D01*
X116982119Y-87202513D01*
X117124159Y-87143678D01*
X117260591Y-87007246D01*
X117334428Y-86828988D01*
X117334428Y-86636042D01*
X117260591Y-86457784D01*
X117124159Y-86321352D01*
X116945901Y-86247515D01*
X116759995Y-86247515D01*
X116759995Y-85777000D01*
X117673000Y-85777000D01*
X117673000Y-86400000D01*
G36*
X128602482Y-98095773D02*
X128840005Y-98333296D01*
X128840005Y-98550000D01*
X128859796Y-98649496D01*
X128916156Y-98733844D01*
X129000504Y-98790204D01*
X129100000Y-98809995D01*
X130000000Y-98809995D01*
X130099496Y-98790204D01*
X130183844Y-98733844D01*
X130240204Y-98649496D01*
X130259995Y-98550000D01*
X130259995Y-98108723D01*
X132408241Y-98125506D01*
X132004539Y-98811800D01*
X131059967Y-99473000D01*
X126327000Y-99473000D01*
X126327000Y-98077996D01*
X128602482Y-98095773D01*
X128602482Y-98095773D01*
G37*
X128602482Y-98095773D02*
X128840005Y-98333296D01*
X128840005Y-98550000D01*
X128859796Y-98649496D01*
X128916156Y-98733844D01*
X129000504Y-98790204D01*
X129100000Y-98809995D01*
X130000000Y-98809995D01*
X130099496Y-98790204D01*
X130183844Y-98733844D01*
X130240204Y-98649496D01*
X130259995Y-98550000D01*
X130259995Y-98108723D01*
X132408241Y-98125506D01*
X132004539Y-98811800D01*
X131059967Y-99473000D01*
X126327000Y-99473000D01*
X126327000Y-98077996D01*
X128602482Y-98095773D01*
M02*
