%TF.GenerationSoftware,KiCad,Pcbnew,(5.0.0-rc2-dev-387-ge7ed41593)*%
%TF.CreationDate,2018-04-19T15:37:23+02:00*%
%TF.ProjectId,MINI VESC,4D494E4920564553432E6B696361645F,rev?*%
%TF.SameCoordinates,Original*%
%TF.FileFunction,Paste,Top*%
%TF.FilePolarity,Positive*%
%FSLAX46Y46*%
G04 Gerber Fmt 4.6, Leading zero omitted, Abs format (unit mm)*
G04 Created by KiCad (PCBNEW (5.0.0-rc2-dev-387-ge7ed41593)) date 04/19/18 15:37:23*
%MOMM*%
%LPD*%
G01*
G04 APERTURE LIST*
%ADD10R,0.900000X1.700000*%
%ADD11R,0.900000X0.500000*%
%ADD12R,0.750000X0.800000*%
%ADD13R,0.500000X0.900000*%
%ADD14R,1.800860X1.198880*%
%ADD15R,0.848000X0.520000*%
%ADD16R,1.200000X0.900000*%
%ADD17R,1.700000X0.900000*%
%ADD18R,0.800000X0.750000*%
%ADD19R,0.712000X0.336000*%
%ADD20R,0.340000X0.600000*%
%ADD21R,0.800000X0.600000*%
%ADD22R,3.284000X3.648000*%
%ADD23R,0.724000X0.396000*%
%ADD24R,3.400000X1.300000*%
G04 APERTURE END LIST*
D10*
X95200000Y-94900000D03*
X98100000Y-94900000D03*
D11*
X129550000Y-98300000D03*
X129550000Y-96800000D03*
D12*
X130850000Y-98300000D03*
X130850000Y-96800000D03*
D11*
X126000000Y-83200000D03*
X126000000Y-84700000D03*
D13*
X79850000Y-88100000D03*
X81350000Y-88100000D03*
D11*
X128150000Y-98300000D03*
X128150000Y-96800000D03*
D12*
X126550000Y-98350000D03*
X126550000Y-96850000D03*
D10*
X103300000Y-91000000D03*
X106200000Y-91000000D03*
X95200000Y-87100000D03*
X98100000Y-87100000D03*
X95200000Y-89050000D03*
X98100000Y-89050000D03*
X102150000Y-87100000D03*
X99250000Y-87100000D03*
X94050000Y-96850000D03*
X91150000Y-96850000D03*
X110250000Y-89050000D03*
X107350000Y-89050000D03*
X110250000Y-96850000D03*
X107350000Y-96850000D03*
X102150000Y-89050000D03*
X99250000Y-89050000D03*
X94050000Y-91000000D03*
X91150000Y-91000000D03*
X95200000Y-91000000D03*
X98100000Y-91000000D03*
X102150000Y-96850000D03*
X99250000Y-96850000D03*
X103300000Y-92950000D03*
X106200000Y-92950000D03*
X95200000Y-96850000D03*
X98100000Y-96850000D03*
X102150000Y-94900000D03*
X99250000Y-94900000D03*
X103300000Y-94900000D03*
X106200000Y-94900000D03*
X103300000Y-87100000D03*
X106200000Y-87100000D03*
X102150000Y-92950000D03*
X99250000Y-92950000D03*
X103300000Y-85150000D03*
X106200000Y-85150000D03*
X103300000Y-96850000D03*
X106200000Y-96850000D03*
X110250000Y-92950000D03*
X107350000Y-92950000D03*
X95200000Y-92950000D03*
X98100000Y-92950000D03*
X95200000Y-85150000D03*
X98100000Y-85150000D03*
X102150000Y-85150000D03*
X99250000Y-85150000D03*
X94050000Y-94900000D03*
X91150000Y-94900000D03*
X110250000Y-91000000D03*
X107350000Y-91000000D03*
X102150000Y-91000000D03*
X99250000Y-91000000D03*
X110250000Y-94900000D03*
X107350000Y-94900000D03*
D14*
X123322290Y-98865974D03*
X119324330Y-98865974D03*
X123322290Y-96468214D03*
X119324330Y-96468214D03*
D12*
X117400000Y-98417094D03*
X117400000Y-96917094D03*
X125200000Y-96917094D03*
X125200000Y-98417094D03*
D13*
X120750000Y-92200000D03*
X119250000Y-92200000D03*
X122150000Y-92200000D03*
X123650000Y-92200000D03*
X116650000Y-90400000D03*
X115150000Y-90400000D03*
X116650000Y-91600000D03*
X115150000Y-91600000D03*
D15*
X119400000Y-86000000D03*
X119400000Y-85050000D03*
X119400000Y-84100000D03*
X117200000Y-84100000D03*
X117200000Y-86000000D03*
X117200000Y-85050000D03*
D13*
X120650000Y-84280000D03*
X122150000Y-84280000D03*
X124600000Y-84260000D03*
X123100000Y-84260000D03*
D16*
X122050000Y-88900000D03*
X122050000Y-85600000D03*
D17*
X123950000Y-85850000D03*
X123950000Y-88750000D03*
X115650000Y-85800000D03*
X115650000Y-82900000D03*
D11*
X120600000Y-87300000D03*
X120600000Y-85800000D03*
D13*
X117950000Y-93500000D03*
X116450000Y-93500000D03*
X120750000Y-93500000D03*
X119250000Y-93500000D03*
X123650000Y-93500000D03*
X122150000Y-93500000D03*
D11*
X78500000Y-87150000D03*
X78500000Y-85650000D03*
X78500000Y-84900000D03*
X78500000Y-83400000D03*
X78500000Y-99100000D03*
X78500000Y-97600000D03*
X78500000Y-96350000D03*
X78500000Y-94850000D03*
X78500000Y-93000000D03*
X78500000Y-91500000D03*
X78500000Y-90500000D03*
X78500000Y-89000000D03*
X129100000Y-83200000D03*
X129100000Y-84700000D03*
X127550000Y-83200000D03*
X127550000Y-84700000D03*
D12*
X124700000Y-94750000D03*
X124700000Y-93250000D03*
X115100000Y-89250000D03*
X115100000Y-87750000D03*
D18*
X117950000Y-94800000D03*
X116450000Y-94800000D03*
X120750000Y-94800000D03*
X119250000Y-94800000D03*
X123650000Y-94800000D03*
X122150000Y-94800000D03*
X74250000Y-83600000D03*
X75750000Y-83600000D03*
X74250000Y-89400000D03*
X75750000Y-89400000D03*
X74300000Y-95200000D03*
X75800000Y-95200000D03*
D19*
X77105000Y-91025000D03*
X77105000Y-91675000D03*
X77105000Y-92325000D03*
X77105000Y-92975000D03*
X72895000Y-92975000D03*
X72895000Y-92325000D03*
X72895000Y-91675000D03*
X72895000Y-91025000D03*
X77105000Y-96825000D03*
X77105000Y-97475000D03*
X77105000Y-98125000D03*
X77105000Y-98775000D03*
X72895000Y-98775000D03*
X72895000Y-98125000D03*
X72895000Y-97475000D03*
X72895000Y-96825000D03*
X77105000Y-85225000D03*
X77105000Y-85875000D03*
X77105000Y-86525000D03*
X77105000Y-87175000D03*
X72895000Y-87175000D03*
X72895000Y-86525000D03*
X72895000Y-85875000D03*
X72895000Y-85225000D03*
D10*
X94050000Y-87100000D03*
X91150000Y-87100000D03*
X110250000Y-85150000D03*
X107350000Y-85150000D03*
X94050000Y-92950000D03*
X91150000Y-92950000D03*
X94050000Y-85150000D03*
X91150000Y-85150000D03*
X103300000Y-89050000D03*
X106200000Y-89050000D03*
X110250000Y-87100000D03*
X107350000Y-87100000D03*
X94050000Y-89050000D03*
X91150000Y-89050000D03*
D20*
X82312500Y-89095000D03*
D21*
X88095000Y-89095000D03*
X88095000Y-90365000D03*
X88095000Y-91635000D03*
X88095000Y-92905000D03*
D22*
X84577500Y-91000000D03*
D20*
X82312500Y-92905000D03*
D23*
X85752500Y-93527500D03*
X85752500Y-88472500D03*
D20*
X82317500Y-94895000D03*
D21*
X88100000Y-94895000D03*
X88100000Y-96165000D03*
X88100000Y-97435000D03*
X88100000Y-98705000D03*
D22*
X84582500Y-96800000D03*
D20*
X82317500Y-98705000D03*
D23*
X85757500Y-99327500D03*
X85757500Y-94272500D03*
D20*
X82317500Y-83295000D03*
D21*
X88100000Y-83295000D03*
X88100000Y-84565000D03*
X88100000Y-85835000D03*
X88100000Y-87105000D03*
D22*
X84582500Y-85200000D03*
D20*
X82317500Y-87105000D03*
D23*
X85757500Y-87727500D03*
X85757500Y-82672500D03*
D12*
X115100000Y-95250000D03*
X115100000Y-93750000D03*
X116300000Y-89250000D03*
X116300000Y-87750000D03*
D24*
X119250000Y-88400000D03*
X119250000Y-90500000D03*
M02*
