%TF.GenerationSoftware,KiCad,Pcbnew,(5.0.0-rc2-dev-387-ge7ed41593)*%
%TF.CreationDate,2018-04-19T15:37:23+02:00*%
%TF.ProjectId,MINI VESC,4D494E4920564553432E6B696361645F,rev?*%
%TF.SameCoordinates,Original*%
%TF.FileFunction,Copper,L4,Bot,Signal*%
%TF.FilePolarity,Positive*%
%FSLAX46Y46*%
G04 Gerber Fmt 4.6, Leading zero omitted, Abs format (unit mm)*
G04 Created by KiCad (PCBNEW (5.0.0-rc2-dev-387-ge7ed41593)) date 04/19/18 15:37:23*
%MOMM*%
%LPD*%
G01*
G04 APERTURE LIST*
%ADD10R,0.500000X0.900000*%
%ADD11R,0.900000X1.700000*%
%ADD12R,0.900000X0.500000*%
%ADD13R,0.750000X0.800000*%
%ADD14R,0.800000X0.750000*%
%ADD15R,0.300000X1.300480*%
%ADD16R,1.300480X0.300000*%
%ADD17R,1.200000X1.200000*%
%ADD18R,0.700000X0.700000*%
%ADD19R,0.425000X0.750000*%
%ADD20R,1.000000X0.750000*%
%ADD21R,4.105000X4.560000*%
%ADD22R,0.905000X0.495000*%
%ADD23R,0.600000X0.300000*%
%ADD24R,2.600000X3.000000*%
%ADD25R,1.800000X3.400000*%
%ADD26R,0.900000X0.800000*%
%ADD27C,0.800000*%
%ADD28C,0.460000*%
%ADD29C,0.700000*%
%ADD30C,0.500000*%
%ADD31C,0.800000*%
%ADD32C,0.300000*%
%ADD33C,0.460000*%
%ADD34C,0.127000*%
%ADD35C,0.600000*%
%ADD36C,0.200000*%
%ADD37C,0.030000*%
%ADD38C,0.254000*%
%ADD39C,0.128000*%
G04 APERTURE END LIST*
D10*
X130250000Y-88750000D03*
X128750000Y-88750000D03*
X130250000Y-87200000D03*
X128750000Y-87200000D03*
D11*
X102150000Y-92950000D03*
X99250000Y-92950000D03*
X103300000Y-92950000D03*
X106200000Y-92950000D03*
X103300000Y-87100000D03*
X106200000Y-87100000D03*
X102150000Y-89050000D03*
X99250000Y-89050000D03*
X102150000Y-96850000D03*
X99250000Y-96850000D03*
X103300000Y-89050000D03*
X106200000Y-89050000D03*
X103300000Y-91000000D03*
X106200000Y-91000000D03*
X102150000Y-87100000D03*
X99250000Y-87100000D03*
X103300000Y-85150000D03*
X106200000Y-85150000D03*
X102150000Y-94900000D03*
X99250000Y-94900000D03*
D12*
X129550000Y-91000000D03*
X129550000Y-92500000D03*
X129600000Y-95400000D03*
X129600000Y-93900000D03*
X97750000Y-88150000D03*
X97750000Y-86650000D03*
X91250000Y-85050000D03*
X91250000Y-86550000D03*
X97800000Y-97150000D03*
X97800000Y-95650000D03*
X91250000Y-94150000D03*
X91250000Y-95650000D03*
X97800000Y-92650000D03*
X97800000Y-91150000D03*
X91250000Y-89600000D03*
X91250000Y-91100000D03*
D13*
X125500000Y-98150000D03*
X125500000Y-96650000D03*
D14*
X118250000Y-98500000D03*
X119750000Y-98500000D03*
X121150000Y-83500000D03*
X122650000Y-83500000D03*
X91150000Y-87800000D03*
X89650000Y-87800000D03*
X91250000Y-96900000D03*
X89750000Y-96900000D03*
X91250000Y-92350000D03*
X89750000Y-92350000D03*
D13*
X89750000Y-86550000D03*
X89750000Y-85050000D03*
X89750000Y-95650000D03*
X89750000Y-94150000D03*
X89750000Y-91000000D03*
X89750000Y-89500000D03*
D15*
X122150440Y-96750560D03*
X121650060Y-96750560D03*
X121149680Y-96750560D03*
X120649300Y-96750560D03*
X120148920Y-96750560D03*
X123649040Y-96750560D03*
X123151200Y-96750560D03*
X122650820Y-96750560D03*
D16*
X114149440Y-94749040D03*
X114149440Y-94251200D03*
X114149440Y-93750820D03*
X114149440Y-93250440D03*
X114149440Y-92750060D03*
X114149440Y-92249680D03*
X114149440Y-91749300D03*
X114149440Y-91248920D03*
D15*
X116150960Y-85249440D03*
X116648800Y-85249440D03*
X117149180Y-85249440D03*
X117649560Y-85249440D03*
X118149940Y-85249440D03*
X118650320Y-85249440D03*
X119150700Y-85249440D03*
X119651080Y-85249440D03*
D16*
X125650560Y-87250960D03*
X125650560Y-87748800D03*
X125650560Y-88249180D03*
X125650560Y-88749560D03*
X125650560Y-89249940D03*
X125650560Y-89750320D03*
X125650560Y-90250700D03*
X125650560Y-90751080D03*
D15*
X119651080Y-96750560D03*
X119150700Y-96750560D03*
X118650320Y-96750560D03*
D16*
X114149440Y-90751080D03*
X114149440Y-90250700D03*
X114149440Y-89750320D03*
D15*
X120148920Y-85249440D03*
X120649300Y-85249440D03*
X121149680Y-85249440D03*
D16*
X125650560Y-91248920D03*
X125650560Y-91749300D03*
X125650560Y-92249680D03*
D15*
X118149940Y-96750560D03*
X117649560Y-96750560D03*
X117149180Y-96750560D03*
X116648800Y-96750560D03*
X116150960Y-96750560D03*
D16*
X114149440Y-89249940D03*
X114149440Y-88749560D03*
X114149440Y-88249180D03*
X114149440Y-87748800D03*
X114149440Y-87250960D03*
D15*
X121650060Y-85249440D03*
X122150440Y-85249440D03*
X122650820Y-85249440D03*
X123151200Y-85249440D03*
X123649040Y-85249440D03*
D16*
X125650560Y-92750060D03*
X125650560Y-93250440D03*
X125650560Y-93750820D03*
X125650560Y-94251200D03*
X125650560Y-94749040D03*
D17*
X112300000Y-90250000D03*
X112300000Y-91750000D03*
X112300000Y-88750000D03*
X112300000Y-87250000D03*
X112300000Y-93250000D03*
X112300000Y-94750000D03*
X127575000Y-91750000D03*
X127575000Y-90250000D03*
X127575000Y-93250000D03*
X127575000Y-94750000D03*
X127575000Y-88750000D03*
X127575000Y-87250000D03*
X131450000Y-91750000D03*
X131450000Y-90250000D03*
X131450000Y-93250000D03*
X131450000Y-94750000D03*
X131450000Y-88750000D03*
X131450000Y-87250000D03*
D18*
X68600000Y-92050000D03*
X69300000Y-92050000D03*
X70000000Y-92050000D03*
X70000000Y-91350000D03*
X69300000Y-91350000D03*
X68600000Y-91350000D03*
X68600000Y-90650000D03*
X69300000Y-90650000D03*
X70000000Y-90650000D03*
X70000000Y-89950000D03*
X69300000Y-89950000D03*
X68600000Y-89950000D03*
X70000000Y-95750000D03*
X69300000Y-95750000D03*
X68600000Y-95750000D03*
X68600000Y-96450000D03*
X69300000Y-96450000D03*
X70000000Y-96450000D03*
X70000000Y-97150000D03*
X69300000Y-97150000D03*
X68600000Y-97150000D03*
X68600000Y-97850000D03*
X69300000Y-97850000D03*
X70000000Y-97850000D03*
X68600000Y-86250000D03*
X69300000Y-86250000D03*
X70000000Y-86250000D03*
X70000000Y-85550000D03*
X69300000Y-85550000D03*
X68600000Y-85550000D03*
X68600000Y-84850000D03*
X69300000Y-84850000D03*
X70000000Y-84850000D03*
X70000000Y-84150000D03*
X69300000Y-84150000D03*
X68600000Y-84150000D03*
X81300000Y-90000000D03*
X80600000Y-90000000D03*
X79900000Y-90000000D03*
X79900000Y-90700000D03*
X80600000Y-90700000D03*
X81300000Y-90700000D03*
X81300000Y-91400000D03*
X80600000Y-91400000D03*
X79900000Y-91400000D03*
X79900000Y-92100000D03*
X80600000Y-92100000D03*
X81300000Y-92100000D03*
X79900000Y-97850000D03*
X80600000Y-97850000D03*
X81300000Y-97850000D03*
X81300000Y-97150000D03*
X80600000Y-97150000D03*
X79900000Y-97150000D03*
X79900000Y-96450000D03*
X80600000Y-96450000D03*
X81300000Y-96450000D03*
X81300000Y-95750000D03*
X80600000Y-95750000D03*
X79900000Y-95750000D03*
X79900000Y-86350000D03*
X80600000Y-86350000D03*
X81300000Y-86350000D03*
X81300000Y-85650000D03*
X80600000Y-85650000D03*
X79900000Y-85650000D03*
X79900000Y-84950000D03*
X80600000Y-84950000D03*
X81300000Y-84950000D03*
X81300000Y-84250000D03*
X80600000Y-84250000D03*
X79900000Y-84250000D03*
D11*
X103300000Y-94900000D03*
X106200000Y-94900000D03*
X102150000Y-85150000D03*
X99250000Y-85150000D03*
X102150000Y-91000000D03*
X99250000Y-91000000D03*
X103300000Y-96850000D03*
X106200000Y-96850000D03*
X110250000Y-85150000D03*
X107350000Y-85150000D03*
X110250000Y-87100000D03*
X107350000Y-87100000D03*
X110250000Y-94900000D03*
X107350000Y-94900000D03*
X110250000Y-96850000D03*
X107350000Y-96850000D03*
X110250000Y-89050000D03*
X107350000Y-89050000D03*
X110250000Y-91000000D03*
X107350000Y-91000000D03*
X110250000Y-92950000D03*
X107350000Y-92950000D03*
D19*
X88282500Y-89095000D03*
D20*
X82500000Y-89095000D03*
X82500000Y-90365000D03*
X82500000Y-91635000D03*
X82500000Y-92905000D03*
D21*
X86017500Y-91000000D03*
D19*
X88282500Y-92905000D03*
D22*
X84842500Y-93527500D03*
X84842500Y-88472500D03*
D19*
X88282500Y-94895000D03*
D20*
X82500000Y-94895000D03*
X82500000Y-96165000D03*
X82500000Y-97435000D03*
X82500000Y-98705000D03*
D21*
X86017500Y-96800000D03*
D19*
X88282500Y-98705000D03*
D22*
X84842500Y-99327500D03*
X84842500Y-94272500D03*
D19*
X88282500Y-83295000D03*
D20*
X82500000Y-83295000D03*
X82500000Y-84565000D03*
X82500000Y-85835000D03*
X82500000Y-87105000D03*
D21*
X86017500Y-85200000D03*
D19*
X88282500Y-87105000D03*
D22*
X84842500Y-87727500D03*
X84842500Y-82672500D03*
D23*
X96400000Y-89950000D03*
D24*
X94500000Y-90750000D03*
D23*
X96400000Y-89150000D03*
X92600000Y-89150000D03*
X96400000Y-90750000D03*
X92600000Y-90750000D03*
X92600000Y-91550000D03*
X92600000Y-92350000D03*
X92600000Y-89950000D03*
X96400000Y-91550000D03*
X96400000Y-92350000D03*
X96400000Y-94450000D03*
D24*
X94500000Y-95250000D03*
D23*
X96400000Y-93650000D03*
X92600000Y-93650000D03*
X96400000Y-95250000D03*
X92600000Y-95250000D03*
X92600000Y-96050000D03*
X92600000Y-96850000D03*
X92600000Y-94450000D03*
X96400000Y-96050000D03*
X96400000Y-96850000D03*
X96400000Y-85450000D03*
D24*
X94500000Y-86250000D03*
D23*
X96400000Y-84650000D03*
X92600000Y-84650000D03*
X96400000Y-86250000D03*
X92600000Y-86250000D03*
X92600000Y-87050000D03*
X92600000Y-87850000D03*
X92600000Y-85450000D03*
X96400000Y-87050000D03*
X96400000Y-87850000D03*
D25*
X72400000Y-91000000D03*
X77600000Y-91000000D03*
X72400000Y-96800000D03*
X77600000Y-96800000D03*
X72400000Y-85200000D03*
X77600000Y-85200000D03*
D14*
X125650000Y-83500000D03*
X124150000Y-83500000D03*
X122100000Y-98500000D03*
X123600000Y-98500000D03*
X115550000Y-98500000D03*
X117050000Y-98500000D03*
D13*
X131700000Y-98167242D03*
X131700000Y-96667242D03*
X127300000Y-85250000D03*
X127300000Y-83750000D03*
X131700000Y-85250000D03*
X131700000Y-83750000D03*
X127300000Y-98167242D03*
X127300000Y-96667242D03*
D26*
X128500000Y-85450000D03*
X128500000Y-83550000D03*
X130500000Y-84500000D03*
X128500000Y-98367242D03*
X128500000Y-96467242D03*
X130500000Y-97417242D03*
D27*
X89550000Y-83200000D03*
X113900000Y-83200000D03*
X113000000Y-83200000D03*
X112100000Y-83200000D03*
X111200000Y-83200000D03*
X110200000Y-83200000D03*
X109300000Y-83200000D03*
X108400000Y-83200000D03*
X107500000Y-83200000D03*
X106600000Y-83200000D03*
X105700000Y-83200000D03*
X104800000Y-83200000D03*
X103900000Y-83200000D03*
X103000000Y-83200000D03*
X102100000Y-83200000D03*
X101200000Y-83200000D03*
X100300000Y-83200000D03*
X99400000Y-83200000D03*
X98500000Y-83200000D03*
X97600000Y-83200000D03*
X96700000Y-83200000D03*
X95800000Y-83200000D03*
X94900000Y-83200000D03*
X94000000Y-83200000D03*
X93100000Y-83200000D03*
X92200000Y-83200000D03*
X91300000Y-83200000D03*
X90400000Y-83200000D03*
D28*
X127550000Y-82750000D03*
D27*
X89113216Y-99199750D03*
D28*
X92010000Y-89950000D03*
X81742998Y-89100000D03*
X97000000Y-91587000D03*
X88100000Y-88362998D03*
X124600000Y-84700000D03*
D27*
X113500000Y-98800000D03*
X112600000Y-98800000D03*
X111700000Y-98800000D03*
X110800000Y-98800000D03*
X109900000Y-98800000D03*
X109000000Y-98800000D03*
X108100000Y-98800000D03*
X107200000Y-98800000D03*
X106300000Y-98800000D03*
X105400000Y-98800000D03*
X104500000Y-98800000D03*
X103600000Y-98800000D03*
X102700000Y-98800000D03*
X101800000Y-98800000D03*
X100900000Y-98800000D03*
X100000000Y-98800000D03*
X99100000Y-98800000D03*
X98200000Y-98800000D03*
X97300000Y-98800000D03*
X96400000Y-98800000D03*
X95500000Y-98800000D03*
X94600000Y-98800000D03*
X93700000Y-98800000D03*
X92800000Y-98800000D03*
X91900000Y-98800000D03*
X91000000Y-98800000D03*
D28*
X121248148Y-83750989D03*
X125500000Y-98370500D03*
X129100000Y-82750000D03*
X124156042Y-84800000D03*
X124156042Y-85200000D03*
X115400000Y-84850000D03*
X115150000Y-84604009D03*
X115150000Y-85100000D03*
X115643958Y-85100000D03*
X128250000Y-99050000D03*
X128700000Y-99050000D03*
X129150000Y-99050000D03*
X129600000Y-99050000D03*
X130050000Y-99050000D03*
X130500000Y-99050000D03*
X130950000Y-99050000D03*
X118600000Y-94000000D03*
X118600000Y-93499999D03*
X124643318Y-93250000D03*
X115100000Y-95250000D03*
D27*
X88847998Y-86207000D03*
D28*
X96992928Y-95463041D03*
X96992998Y-91000000D03*
X74500000Y-94500000D03*
X74400000Y-88700000D03*
X74300000Y-82900000D03*
X87512997Y-94162998D03*
X87512997Y-82562998D03*
X87512997Y-88362998D03*
X96997562Y-86247562D03*
X92020000Y-94450000D03*
X81747998Y-94900000D03*
X92000000Y-85450000D03*
X81747998Y-83300000D03*
X97000000Y-87050000D03*
X88100000Y-82562998D03*
D29*
X68000000Y-92650000D03*
X68000000Y-91550000D03*
X68000000Y-91000000D03*
X68000000Y-90450000D03*
X68000000Y-89900000D03*
X68000000Y-92100000D03*
X68600000Y-92650000D03*
X69300000Y-92650000D03*
X70000000Y-92650000D03*
X68000000Y-89350000D03*
X68600000Y-89350000D03*
X69300000Y-89350000D03*
X70000000Y-89350000D03*
D28*
X73600000Y-91000000D03*
D29*
X68000000Y-95150000D03*
X68600000Y-95150000D03*
X69300000Y-95150000D03*
X70000000Y-95150000D03*
X70000000Y-98450000D03*
X69300000Y-98450000D03*
X68600000Y-98450000D03*
X68000000Y-98450000D03*
X68000000Y-97900000D03*
X68000000Y-97350000D03*
X68000000Y-96800000D03*
X68000000Y-96250000D03*
X68000000Y-95700000D03*
D28*
X73600000Y-96800000D03*
D29*
X68000000Y-86900000D03*
X70000000Y-86900000D03*
X69300000Y-86900000D03*
X68600000Y-86900000D03*
X68000000Y-86350000D03*
X70000000Y-83550000D03*
X69300000Y-83550000D03*
X68600000Y-83550000D03*
X68000000Y-83600000D03*
X68000000Y-85800000D03*
X68000000Y-85250000D03*
X68000000Y-84700000D03*
X68000000Y-84150000D03*
D28*
X73600000Y-85200000D03*
X92057559Y-89364928D03*
X81680260Y-89683640D03*
X76400000Y-91000000D03*
X92054015Y-93853916D03*
X81678063Y-95482821D03*
X76400000Y-96800000D03*
X81691906Y-83884316D03*
X92000000Y-84650000D03*
X76400000Y-85200000D03*
X122800000Y-94800000D03*
X119900000Y-94800000D03*
X117100000Y-94800000D03*
X115100000Y-87750000D03*
X129547339Y-86152661D03*
X124100000Y-97909532D03*
X128343873Y-82766324D03*
X116300000Y-87750000D03*
X124700000Y-94750000D03*
X115100000Y-93750000D03*
X121450000Y-93499999D03*
X128300000Y-84692998D03*
X119646580Y-97757802D03*
X117183076Y-95862800D03*
X76400000Y-90100000D03*
X116640000Y-95640000D03*
X76387000Y-95916215D03*
X116099224Y-95868327D03*
X76337000Y-84300000D03*
X123100000Y-93500000D03*
X76400000Y-92900000D03*
X120200000Y-93500000D03*
X76400000Y-98700000D03*
X117400000Y-93500000D03*
X76400000Y-87000000D03*
X116312998Y-83778520D03*
X96950000Y-90050000D03*
X119375994Y-82650000D03*
X96950000Y-89100000D03*
X116849428Y-86732515D03*
X97000000Y-94500000D03*
X119962997Y-82650000D03*
X97000000Y-93650000D03*
X117500000Y-83270500D03*
X97000000Y-85500000D03*
X120550000Y-82650000D03*
X97000000Y-84600000D03*
X130810000Y-85870000D03*
X122050000Y-82642998D03*
X126037003Y-86150000D03*
X129750000Y-93250000D03*
X115700000Y-91600000D03*
X115700000Y-90400000D03*
X117026244Y-88213862D03*
X117028603Y-88800859D03*
X117032302Y-89387850D03*
X126627957Y-85920500D03*
X125450000Y-86150000D03*
X122747504Y-97757802D03*
X121342998Y-98400001D03*
X124750000Y-91750000D03*
X129307002Y-96434001D03*
X113257002Y-91243000D03*
X113277380Y-88178525D03*
X113257002Y-88765173D03*
X126000000Y-95256042D03*
X105150000Y-87600000D03*
X113257002Y-94750000D03*
X80900000Y-88100000D03*
X97000000Y-96050000D03*
X88100000Y-94162998D03*
X131573501Y-97277444D03*
X130422339Y-83827661D03*
X123950000Y-88750000D03*
X92017271Y-96663041D03*
X91957002Y-92174000D03*
X91957001Y-87584001D03*
X116450000Y-98150000D03*
D30*
X127300000Y-96667242D03*
D28*
X80312997Y-88100000D03*
X75700000Y-94500000D03*
X75600000Y-88700000D03*
X75700000Y-82900000D03*
X115724742Y-92198302D03*
X122610000Y-90390000D03*
X115816513Y-93245989D03*
D31*
X113000000Y-83200000D02*
X113900000Y-83200000D01*
X111200000Y-83200000D02*
X112100000Y-83200000D01*
X110200000Y-83200000D02*
X111200000Y-83200000D01*
X108400000Y-83200000D02*
X109300000Y-83200000D01*
X106600000Y-83200000D02*
X107500000Y-83200000D01*
X104800000Y-83200000D02*
X105700000Y-83200000D01*
X103000000Y-83200000D02*
X103900000Y-83200000D01*
X101200000Y-83200000D02*
X102100000Y-83200000D01*
X99400000Y-83200000D02*
X100300000Y-83200000D01*
X97600000Y-83200000D02*
X98500000Y-83200000D01*
X95800000Y-83200000D02*
X96700000Y-83200000D01*
X94000000Y-83200000D02*
X94900000Y-83200000D01*
X92200000Y-83200000D02*
X93100000Y-83200000D01*
X90400000Y-83200000D02*
X91300000Y-83200000D01*
D32*
X89455000Y-83295000D02*
X89550000Y-83200000D01*
X89550000Y-83200000D02*
X89950000Y-82800000D01*
D31*
X86017500Y-85200000D02*
X87550000Y-85200000D01*
X87550000Y-85200000D02*
X89550000Y-83200000D01*
X87200000Y-85200000D02*
X89500000Y-82900000D01*
X86017500Y-85200000D02*
X87200000Y-85200000D01*
D33*
X84842500Y-99327500D02*
X88985466Y-99327500D01*
X88985466Y-99327500D02*
X89113216Y-99199750D01*
X86017500Y-96800000D02*
X87177002Y-96800000D01*
D32*
X88282500Y-83295000D02*
X89455000Y-83295000D01*
X92010000Y-89950000D02*
X91600000Y-89950000D01*
X92600000Y-89950000D02*
X92010000Y-89950000D01*
X91600000Y-89950000D02*
X91250000Y-89600000D01*
X82500000Y-89095000D02*
X81747998Y-89095000D01*
X81747998Y-89095000D02*
X81742998Y-89100000D01*
X96400000Y-91550000D02*
X96963000Y-91550000D01*
X96963000Y-91550000D02*
X97000000Y-91587000D01*
X96400000Y-91550000D02*
X97400000Y-91550000D01*
X97400000Y-91550000D02*
X97800000Y-91150000D01*
X88100000Y-88362998D02*
X88100000Y-88442999D01*
D34*
X114149440Y-94251200D02*
X112798800Y-94251200D01*
X112798800Y-94251200D02*
X112300000Y-94750000D01*
D33*
X112300000Y-94750000D02*
X111450000Y-94750000D01*
X112300000Y-94750000D02*
X112300000Y-95650000D01*
X131450000Y-87250000D02*
X131450000Y-85500000D01*
X131450000Y-85500000D02*
X131700000Y-85250000D01*
X131450000Y-87250000D02*
X130300000Y-87250000D01*
X130300000Y-87250000D02*
X130250000Y-87200000D01*
D31*
X111700000Y-98800000D02*
X112600000Y-98800000D01*
X109900000Y-98800000D02*
X110800000Y-98800000D01*
X108100000Y-98800000D02*
X109000000Y-98800000D01*
X106300000Y-98800000D02*
X107200000Y-98800000D01*
X104500000Y-98800000D02*
X105400000Y-98800000D01*
X102700000Y-98800000D02*
X103600000Y-98800000D01*
X100900000Y-98800000D02*
X101800000Y-98800000D01*
X99100000Y-98800000D02*
X100000000Y-98800000D01*
X97300000Y-98800000D02*
X98200000Y-98800000D01*
X95500000Y-98800000D02*
X96400000Y-98800000D01*
X93700000Y-98800000D02*
X94600000Y-98800000D01*
X91900000Y-98800000D02*
X92800000Y-98800000D01*
X91000000Y-98800000D02*
X91900000Y-98800000D01*
D34*
X125500000Y-98150000D02*
X125500000Y-98370500D01*
X121150000Y-83500000D02*
X121150000Y-83643987D01*
X121150000Y-83643987D02*
X121257002Y-83750989D01*
X115150000Y-84604009D02*
X115154009Y-84604009D01*
X115154009Y-84604009D02*
X115400000Y-84850000D01*
X128700000Y-99050000D02*
X128250000Y-99050000D01*
X129600000Y-99050000D02*
X129150000Y-99050000D01*
X130500000Y-99050000D02*
X130050000Y-99050000D01*
X131700000Y-98167242D02*
X131700000Y-98300000D01*
X131700000Y-98300000D02*
X130950000Y-99050000D01*
X127767242Y-99032758D02*
X127767242Y-98167242D01*
X119750000Y-98500000D02*
X119750000Y-99002000D01*
X118149940Y-96750560D02*
X118149940Y-93950059D01*
X118149940Y-93950059D02*
X118600000Y-93499999D01*
X118149940Y-96750560D02*
X118149940Y-97527800D01*
X118149940Y-97527800D02*
X118482140Y-97860000D01*
X118482140Y-97860000D02*
X119085000Y-97860000D01*
X119085000Y-97860000D02*
X119725000Y-98500000D01*
X119725000Y-98500000D02*
X119750000Y-98500000D01*
D35*
X127767242Y-98167242D02*
X127967242Y-98367242D01*
X127967242Y-98367242D02*
X128500000Y-98367242D01*
X127300000Y-98167242D02*
X127767242Y-98167242D01*
X131700000Y-98167242D02*
X131500000Y-98367242D01*
X131500000Y-98367242D02*
X128500000Y-98367242D01*
X131700000Y-85250000D02*
X131500000Y-85450000D01*
X127750000Y-85250000D02*
X127950000Y-85450000D01*
X127950000Y-85450000D02*
X128500000Y-85450000D01*
X127300000Y-85250000D02*
X127750000Y-85250000D01*
D32*
X124643318Y-93250000D02*
X124643318Y-94042420D01*
X124643318Y-94042420D02*
X124852098Y-94251200D01*
X124852098Y-94251200D02*
X125650560Y-94251200D01*
X115100000Y-95250000D02*
X115100000Y-94400758D01*
X115100000Y-94400758D02*
X114950442Y-94251200D01*
X114950442Y-94251200D02*
X114149440Y-94251200D01*
X96400000Y-95250000D02*
X96779887Y-95250000D01*
X96779887Y-95250000D02*
X96992928Y-95463041D01*
X96400000Y-90750000D02*
X96742998Y-90750000D01*
X96742998Y-90750000D02*
X96992998Y-91000000D01*
X89750000Y-96900000D02*
X89775000Y-96900000D01*
X89775000Y-96900000D02*
X90427001Y-97552001D01*
X90427001Y-97552001D02*
X92747999Y-97552001D01*
X92747999Y-97552001D02*
X94500000Y-95800000D01*
X94500000Y-95800000D02*
X94500000Y-95250000D01*
X89650000Y-87800000D02*
X89675000Y-87800000D01*
X89675000Y-87800000D02*
X90327001Y-88452001D01*
X90327001Y-88452001D02*
X92946601Y-88452001D01*
X92946601Y-88452001D02*
X94500000Y-86898602D01*
X94500000Y-86898602D02*
X94500000Y-86250000D01*
X89750000Y-92350000D02*
X89775000Y-92350000D01*
X89775000Y-92350000D02*
X90427001Y-93002001D01*
X90427001Y-93002001D02*
X92847999Y-93002001D01*
X92847999Y-93002001D02*
X94500000Y-91350000D01*
X94500000Y-91350000D02*
X94500000Y-90750000D01*
X96400000Y-86250000D02*
X96995124Y-86250000D01*
X96995124Y-86250000D02*
X96997562Y-86247562D01*
X96400000Y-86250000D02*
X94500000Y-86250000D01*
X89750000Y-88000000D02*
X89775000Y-88000000D01*
X92020000Y-94450000D02*
X91550000Y-94450000D01*
X92600000Y-94450000D02*
X92020000Y-94450000D01*
X91550000Y-94450000D02*
X91250000Y-94150000D01*
X82500000Y-94895000D02*
X81752998Y-94895000D01*
X81752998Y-94895000D02*
X81747998Y-94900000D01*
X92000000Y-85450000D02*
X91500000Y-85450000D01*
X91500000Y-85450000D02*
X91100000Y-85050000D01*
X92600000Y-85450000D02*
X92000000Y-85450000D01*
X82500000Y-83295000D02*
X81752998Y-83295000D01*
X81752998Y-83295000D02*
X81747998Y-83300000D01*
X97000000Y-87050000D02*
X97400000Y-87050000D01*
X96400000Y-87050000D02*
X97000000Y-87050000D01*
X97400000Y-87050000D02*
X97700000Y-86750000D01*
X88100000Y-82562998D02*
X88100000Y-82642999D01*
X89750000Y-91000000D02*
X89750000Y-91025000D01*
X92000000Y-91550000D02*
X92600000Y-91550000D01*
X89750000Y-91025000D02*
X90352001Y-91627001D01*
X90352001Y-91627001D02*
X91922999Y-91627001D01*
X91922999Y-91627001D02*
X92000000Y-91550000D01*
X89750000Y-95650000D02*
X89750000Y-95675000D01*
X89750000Y-95675000D02*
X90252001Y-96177001D01*
X90252001Y-96177001D02*
X91872999Y-96177001D01*
X91872999Y-96177001D02*
X92000000Y-96050000D01*
X92000000Y-96050000D02*
X92600000Y-96050000D01*
X92600000Y-87050000D02*
X92000000Y-87050000D01*
X92000000Y-87050000D02*
X91972999Y-87077001D01*
X91972999Y-87077001D02*
X90428399Y-87077001D01*
X90428399Y-87077001D02*
X89901398Y-86550000D01*
X89901398Y-86550000D02*
X89750000Y-86550000D01*
X89750000Y-86750000D02*
X89750000Y-86775000D01*
D33*
X73600000Y-91000000D02*
X72400000Y-91000000D01*
D32*
X68000000Y-92100000D02*
X68000000Y-92650000D01*
X68000000Y-90550000D02*
X68000000Y-91150000D01*
X68000000Y-89350000D02*
X68000000Y-89950000D01*
X69300000Y-92650000D02*
X68600000Y-92650000D01*
X70000000Y-92050000D02*
X70000000Y-92650000D01*
X69500000Y-89350000D02*
X68800000Y-89350000D01*
X70200000Y-89950000D02*
X70200000Y-89350000D01*
X72000000Y-92400000D02*
X70550000Y-92400000D01*
X70550000Y-92400000D02*
X70200000Y-92050000D01*
X72000000Y-89600000D02*
X70550000Y-89600000D01*
X70550000Y-89600000D02*
X70200000Y-89950000D01*
D33*
X73600000Y-96800000D02*
X72400000Y-96800000D01*
D32*
X68600000Y-95150000D02*
X68050000Y-95150000D01*
X68050000Y-95150000D02*
X68000000Y-95200000D01*
X70000000Y-95150000D02*
X69300000Y-95150000D01*
X69300000Y-98450000D02*
X70000000Y-98450000D01*
X68000000Y-98500000D02*
X68550000Y-98500000D01*
X68550000Y-98500000D02*
X68600000Y-98450000D01*
X68000000Y-97400000D02*
X68000000Y-97950000D01*
X68000000Y-96300000D02*
X68000000Y-96850000D01*
X68800000Y-95750000D02*
X68000000Y-95750000D01*
D33*
X73600000Y-85200000D02*
X72400000Y-85200000D01*
D32*
X72000000Y-83800000D02*
X70500000Y-83800000D01*
X70500000Y-83800000D02*
X70150000Y-84150000D01*
X72000000Y-86600000D02*
X69800000Y-86600000D01*
X69800000Y-86600000D02*
X69450000Y-86250000D01*
X68000000Y-86250000D02*
X68000000Y-86750000D01*
X68000000Y-86750000D02*
X68000000Y-86950000D01*
X68700000Y-86950000D02*
X69400000Y-86950000D01*
X68750000Y-83450000D02*
X69450000Y-83450000D01*
X68000000Y-84150000D02*
X68000000Y-83450000D01*
X68000000Y-85550000D02*
X68000000Y-86250000D01*
X68050000Y-84150000D02*
X68050000Y-84800000D01*
X68050000Y-84800000D02*
X68000000Y-84850000D01*
D33*
X76400000Y-91000000D02*
X77600000Y-91000000D01*
D32*
X92600000Y-89150000D02*
X92272487Y-89150000D01*
X92272487Y-89150000D02*
X92057559Y-89364928D01*
X89750000Y-89500000D02*
X89750000Y-89429139D01*
X89750000Y-89429139D02*
X90150128Y-89029011D01*
X92179011Y-89029011D02*
X92300000Y-89150000D01*
X90150128Y-89029011D02*
X92179011Y-89029011D01*
X92300000Y-89150000D02*
X92600000Y-89150000D01*
D33*
X82500000Y-90365000D02*
X82361620Y-90365000D01*
X82361620Y-90365000D02*
X81680260Y-89683640D01*
D32*
X82445000Y-91635000D02*
X81535000Y-91635000D01*
X81535000Y-91635000D02*
X81300000Y-91400000D01*
D33*
X76400000Y-96800000D02*
X77600000Y-96800000D01*
D32*
X92600000Y-93650000D02*
X92257931Y-93650000D01*
X92257931Y-93650000D02*
X92054015Y-93853916D01*
X89750000Y-94150000D02*
X89750000Y-94079139D01*
X89750000Y-94079139D02*
X90250128Y-93579011D01*
X90250128Y-93579011D02*
X92529011Y-93579011D01*
X92529011Y-93579011D02*
X92600000Y-93650000D01*
D33*
X82500000Y-96165000D02*
X82360242Y-96165000D01*
X82360242Y-96165000D02*
X81678063Y-95482821D01*
X76400000Y-85200000D02*
X77600000Y-85200000D01*
D32*
X89750000Y-85050000D02*
X90277001Y-84522999D01*
X90277001Y-84522999D02*
X91771601Y-84522999D01*
X91771601Y-84522999D02*
X91898602Y-84650000D01*
X91898602Y-84650000D02*
X92000000Y-84650000D01*
D33*
X82500000Y-84565000D02*
X82372590Y-84565000D01*
X82372590Y-84565000D02*
X81691906Y-83884316D01*
D32*
X92600000Y-84650000D02*
X92000000Y-84650000D01*
X80250000Y-83700000D02*
X80250000Y-83900000D01*
X80250000Y-83900000D02*
X79900000Y-84250000D01*
X80250000Y-86900000D02*
X80250000Y-86700000D01*
X80250000Y-86700000D02*
X80600000Y-86350000D01*
X122800000Y-94800000D02*
X121149240Y-94800000D01*
X121149240Y-94800000D02*
X120148920Y-95800320D01*
X120148920Y-95800320D02*
X120148920Y-96750560D01*
X119651080Y-96750560D02*
X119651080Y-95048920D01*
X119651080Y-95048920D02*
X119900000Y-94800000D01*
X117100000Y-94800000D02*
X117786352Y-94113648D01*
X117786352Y-94113648D02*
X117786352Y-93832094D01*
X117786352Y-93832094D02*
X118092999Y-93525447D01*
X118092999Y-93525447D02*
X118092999Y-93256638D01*
X118356639Y-92992998D02*
X118843361Y-92992998D01*
X118092999Y-93256638D02*
X118356639Y-92992998D01*
X118843361Y-92992998D02*
X119150700Y-93300337D01*
X119150700Y-93300337D02*
X119150700Y-95800320D01*
X119150700Y-95800320D02*
X119150700Y-96750560D01*
D36*
X119150700Y-96750560D02*
X119150700Y-95900000D01*
X119150700Y-95900000D02*
X119150700Y-95727062D01*
D34*
X118398159Y-93079498D02*
X118801841Y-93079498D01*
X118801841Y-93079498D02*
X119150700Y-93428357D01*
X118179499Y-93342843D02*
X118179499Y-93298158D01*
X118179499Y-93298158D02*
X118398159Y-93079498D01*
X119150700Y-93428357D02*
X119150700Y-95900000D01*
D32*
X114149440Y-87748800D02*
X115098800Y-87748800D01*
X115098800Y-87748800D02*
X115100000Y-87750000D01*
X123151200Y-85249440D02*
X123151200Y-83701200D01*
X123151200Y-83701200D02*
X122950000Y-83500000D01*
X122950000Y-83500000D02*
X122650000Y-83500000D01*
X123150000Y-85248240D02*
X123151200Y-85249440D01*
X123649040Y-84633970D02*
X123728210Y-83640000D01*
D35*
X124150000Y-83500000D02*
X123950000Y-83500000D01*
X123950000Y-83500000D02*
X123728210Y-83721790D01*
X123728210Y-83721790D02*
X123728210Y-84255470D01*
D32*
X114856639Y-87242999D02*
X115000000Y-87092999D01*
D35*
X116300000Y-87750000D02*
X116072362Y-87750000D01*
X116072362Y-87750000D02*
X115415361Y-87092999D01*
X115415361Y-87092999D02*
X115000000Y-87092999D01*
X124100000Y-97909532D02*
X123770492Y-97909532D01*
X123770492Y-97909532D02*
X123600000Y-97739040D01*
D32*
X123649040Y-96750560D02*
X123649040Y-97690000D01*
D35*
X123600000Y-98500000D02*
X123600000Y-97739040D01*
X123600000Y-97739040D02*
X123649040Y-97690000D01*
D32*
X130271601Y-95927001D02*
X129260000Y-95927001D01*
X129547339Y-86152661D02*
X129547339Y-86477930D01*
X129547339Y-86477930D02*
X129722999Y-86653590D01*
X129722999Y-86653590D02*
X129722999Y-89648545D01*
X129722999Y-89648545D02*
X130572999Y-90498545D01*
X130572999Y-95625603D02*
X130271601Y-95927001D01*
X130572999Y-90498545D02*
X130572999Y-95625603D01*
X127297000Y-83220000D02*
X126902000Y-82825000D01*
X126902000Y-82825000D02*
X124850000Y-82825000D01*
X124850000Y-82825000D02*
X124175000Y-83500000D01*
X124175000Y-83500000D02*
X124150000Y-83500000D01*
X127300000Y-83750000D02*
X127300000Y-83725000D01*
X127300000Y-83725000D02*
X127297000Y-83722000D01*
X127297000Y-83722000D02*
X127297000Y-83220000D01*
X128500000Y-83550000D02*
X128500000Y-82922451D01*
X128500000Y-82922451D02*
X128343873Y-82766324D01*
D34*
X129870260Y-95906500D02*
X128520000Y-95820000D01*
D32*
X126091161Y-95876741D02*
X126177661Y-95790241D01*
X126177661Y-95790241D02*
X127828399Y-95790241D01*
X127828399Y-95790241D02*
X128872999Y-95790241D01*
X125708403Y-97472999D02*
X125950603Y-97472999D01*
X126152001Y-96028399D02*
X125886645Y-95763043D01*
X125950603Y-97472999D02*
X126152001Y-97271601D01*
X126152001Y-97271601D02*
X126152001Y-96028399D01*
X125886645Y-95763043D02*
X125688043Y-95763043D01*
X125688043Y-95763043D02*
X124700000Y-94775000D01*
X124700000Y-94775000D02*
X124700000Y-94750000D01*
D34*
X125708403Y-97472999D02*
X125708403Y-97559499D01*
D32*
X124100000Y-97909532D02*
X124536533Y-97472999D01*
X124536533Y-97472999D02*
X124903399Y-97472999D01*
X124903399Y-97472999D02*
X125708403Y-97472999D01*
D33*
X116403514Y-93527750D02*
X116403514Y-92806486D01*
X116403514Y-92806486D02*
X117010000Y-92200000D01*
X115100000Y-93750000D02*
X115451762Y-93750000D01*
X116098274Y-93832990D02*
X116403514Y-93527750D01*
X115451762Y-93750000D02*
X115534752Y-93832990D01*
X115534752Y-93832990D02*
X116098274Y-93832990D01*
X123766728Y-93946728D02*
X124380000Y-94560000D01*
X124633878Y-94750000D02*
X124700000Y-94750000D01*
X124380000Y-94560000D02*
X124443878Y-94560000D01*
X124443878Y-94560000D02*
X124633878Y-94750000D01*
D34*
X123766728Y-93730000D02*
X123687001Y-93645000D01*
D33*
X123766728Y-93730000D02*
X123766728Y-93946728D01*
X122422342Y-92200000D02*
X122668762Y-92200000D01*
X122668762Y-92200000D02*
X123687001Y-93218239D01*
X123687001Y-93218239D02*
X123687001Y-93645000D01*
X116300000Y-91490000D02*
X117010000Y-92200000D01*
X117010000Y-92200000D02*
X122422342Y-92200000D01*
X116300000Y-87750000D02*
X116300000Y-91490000D01*
D34*
X129547339Y-86152661D02*
X129547339Y-89595213D01*
X129547339Y-89595213D02*
X130600000Y-90647874D01*
X130600000Y-95500000D02*
X130223259Y-95876741D01*
X130600000Y-90647874D02*
X130600000Y-95500000D01*
X126091161Y-95876741D02*
X125967902Y-96000000D01*
X126065501Y-96097599D02*
X125967902Y-96000000D01*
X125967902Y-96000000D02*
X125567902Y-95600000D01*
X116300000Y-87750000D02*
X116300000Y-91600000D01*
X116300000Y-91600000D02*
X116900000Y-92200000D01*
X116900000Y-92200000D02*
X116237014Y-92862986D01*
X116237014Y-92862986D02*
X116237014Y-93447830D01*
X116237014Y-93447830D02*
X115934844Y-93750000D01*
X115934844Y-93750000D02*
X115602000Y-93750000D01*
X115602000Y-93750000D02*
X115100000Y-93750000D01*
X122422342Y-92200000D02*
X116900000Y-92200000D01*
X125708403Y-97559499D02*
X126065501Y-97202401D01*
X126065501Y-97202401D02*
X126065501Y-96097599D01*
X123600000Y-98500000D02*
X123600000Y-98409532D01*
X123600000Y-98409532D02*
X124100000Y-97909532D01*
D35*
X127750000Y-83750000D02*
X127950000Y-83550000D01*
X127950000Y-83550000D02*
X128500000Y-83550000D01*
X127300000Y-83750000D02*
X127750000Y-83750000D01*
D32*
X114149440Y-87250960D02*
X114848678Y-87250960D01*
X114848678Y-87250960D02*
X114856639Y-87242999D01*
X124700000Y-94750000D02*
X125649600Y-94750000D01*
X125649600Y-94750000D02*
X125650560Y-94749040D01*
X115100000Y-93750000D02*
X114150260Y-93750000D01*
X114150260Y-93750000D02*
X114149440Y-93750820D01*
D34*
X118650320Y-96750560D02*
X118650320Y-97527800D01*
X118650320Y-97527800D02*
X118713821Y-97591301D01*
X118713821Y-97591301D02*
X119401301Y-97591301D01*
X119401301Y-97591301D02*
X119567802Y-97757802D01*
X119567802Y-97757802D02*
X119646580Y-97757802D01*
D32*
X92600000Y-90750000D02*
X91600000Y-90750000D01*
X91600000Y-90750000D02*
X91250000Y-91100000D01*
X92010000Y-95250000D02*
X91650000Y-95250000D01*
X92600000Y-95250000D02*
X92010000Y-95250000D01*
X91650000Y-95250000D02*
X91250000Y-95650000D01*
X92600000Y-86250000D02*
X91400000Y-86250000D01*
X91400000Y-86250000D02*
X91100000Y-86550000D01*
X117149180Y-96750560D02*
X117149180Y-95896696D01*
X117149180Y-95896696D02*
X117183076Y-95862800D01*
X116648800Y-96750560D02*
X116648800Y-95648800D01*
X116648800Y-95648800D02*
X116640000Y-95640000D01*
X116150960Y-96750560D02*
X116150960Y-95920063D01*
X116150960Y-95920063D02*
X116099224Y-95868327D01*
X116312998Y-83778520D02*
X116648800Y-84114322D01*
X116648800Y-84114322D02*
X116648800Y-85249440D01*
D34*
X116648800Y-84351200D02*
X116648800Y-84114322D01*
X116648800Y-85249440D02*
X116648800Y-84351200D01*
X116648800Y-84351200D02*
X116650000Y-84350000D01*
D32*
X96400000Y-89950000D02*
X96850000Y-89950000D01*
X96850000Y-89950000D02*
X96950000Y-90050000D01*
X120148920Y-85249440D02*
X120148920Y-84457598D01*
X120148920Y-84457598D02*
X119375994Y-83684672D01*
X119375994Y-83684672D02*
X119375994Y-82975269D01*
X119375994Y-82975269D02*
X119375994Y-82650000D01*
X96400000Y-89150000D02*
X96900000Y-89150000D01*
X96900000Y-89150000D02*
X96950000Y-89100000D01*
X116849428Y-86732515D02*
X117149180Y-86432763D01*
X117149180Y-86432763D02*
X117149180Y-85249440D01*
X96400000Y-94450000D02*
X96950000Y-94450000D01*
X96950000Y-94450000D02*
X97000000Y-94500000D01*
D34*
X120649300Y-85249440D02*
X120649300Y-84476426D01*
X120649300Y-84476426D02*
X119962997Y-83790123D01*
X119962997Y-83790123D02*
X119962997Y-82650000D01*
D32*
X96400000Y-93650000D02*
X97000000Y-93650000D01*
X117649560Y-85249440D02*
X117649560Y-83420060D01*
X117649560Y-83420060D02*
X117500000Y-83270500D01*
X96400000Y-85450000D02*
X96950000Y-85450000D01*
X96950000Y-85450000D02*
X97000000Y-85500000D01*
D34*
X121149680Y-84617582D02*
X120550000Y-84017902D01*
X120550000Y-84017902D02*
X120550000Y-82650000D01*
X121149680Y-85249440D02*
X121149680Y-84617582D01*
D32*
X96400000Y-84650000D02*
X96950000Y-84650000D01*
X96950000Y-84650000D02*
X97000000Y-84600000D01*
X122050000Y-82642998D02*
X121827001Y-82865997D01*
X121827001Y-82865997D02*
X121827001Y-84122259D01*
X121827001Y-84122259D02*
X121650060Y-84299200D01*
X121650060Y-84299200D02*
X121650060Y-85249440D01*
D34*
X129230000Y-87270000D02*
X129230000Y-86637098D01*
X129120000Y-86527098D02*
X129120000Y-85957658D01*
X129230000Y-86637098D02*
X129120000Y-86527098D01*
X130124020Y-86107000D02*
X130573000Y-86107000D01*
X129120000Y-85957658D02*
X129345498Y-85732160D01*
X129345498Y-85732160D02*
X129749180Y-85732160D01*
X129749180Y-85732160D02*
X130124020Y-86107000D01*
X130573000Y-86107000D02*
X130810000Y-85870000D01*
X129230000Y-87177098D02*
X129230000Y-87270000D01*
X129230000Y-87270000D02*
X129230000Y-89637098D01*
X130190501Y-90597599D02*
X130190501Y-93509499D01*
X130190501Y-93509499D02*
X129800000Y-93900000D01*
X129800000Y-93900000D02*
X129600000Y-93900000D01*
X129230000Y-89637098D02*
X130190501Y-90597599D01*
X129750000Y-94050000D02*
X129600000Y-93900000D01*
D32*
X122150440Y-85249440D02*
X122150440Y-86199680D01*
X122150440Y-86199680D02*
X122650760Y-86700000D01*
X122650760Y-86700000D02*
X125618447Y-86700000D01*
X125618447Y-86700000D02*
X126037003Y-86281444D01*
X126037003Y-86281444D02*
X126037003Y-86150000D01*
X126037003Y-86150000D02*
X126037003Y-86281445D01*
D34*
X129750000Y-93250000D02*
X129750000Y-92700000D01*
X129750000Y-92700000D02*
X129550000Y-92500000D01*
D32*
X114149440Y-90250700D02*
X114850700Y-90250700D01*
X114850700Y-90250700D02*
X115192999Y-90592999D01*
X115192999Y-90592999D02*
X115192999Y-90643361D01*
X115700000Y-91150362D02*
X115700000Y-91600000D01*
X115192999Y-90643361D02*
X115700000Y-91150362D01*
X114149440Y-89750320D02*
X115050320Y-89750320D01*
X115050320Y-89750320D02*
X115700000Y-90400000D01*
D34*
X117076620Y-87100000D02*
X117026244Y-87150376D01*
X117026244Y-87150376D02*
X117026244Y-88213862D01*
X118149940Y-85249440D02*
X118149940Y-86026680D01*
X118149940Y-86026680D02*
X117076620Y-87100000D01*
X118403949Y-86131895D02*
X117446745Y-87089099D01*
X117446745Y-87089099D02*
X117446745Y-88415703D01*
X117446745Y-88415703D02*
X117061589Y-88800859D01*
X117061589Y-88800859D02*
X117028603Y-88800859D01*
X118650320Y-85249440D02*
X118650320Y-85885524D01*
X118650320Y-85885524D02*
X118403949Y-86131895D01*
D32*
X118517396Y-86500000D02*
X117787255Y-87230141D01*
X117787255Y-87230141D02*
X117787255Y-88792569D01*
X117787255Y-88792569D02*
X117271964Y-89307860D01*
X117271964Y-89307860D02*
X117112292Y-89307860D01*
X117112292Y-89307860D02*
X117032302Y-89387850D01*
X119150700Y-85249440D02*
X119150700Y-86047902D01*
X119150700Y-86047902D02*
X118698602Y-86500000D01*
X118698602Y-86500000D02*
X118517396Y-86500000D01*
D34*
X125650560Y-87250960D02*
X125650560Y-87169440D01*
X125650560Y-87169440D02*
X125840000Y-86980000D01*
X125840000Y-86960000D02*
X126627957Y-86172043D01*
X125840000Y-86980000D02*
X125840000Y-86960000D01*
X126627957Y-86172043D02*
X126627957Y-85920500D01*
X125650560Y-87250960D02*
X126150800Y-87250960D01*
D32*
X122650820Y-85249440D02*
X122650820Y-86045508D01*
X122835303Y-86229991D02*
X125044740Y-86229991D01*
X122650820Y-86045508D02*
X122835303Y-86229991D01*
X125044740Y-86229991D02*
X125124731Y-86150000D01*
X125124731Y-86150000D02*
X125450000Y-86150000D01*
X127600000Y-93250000D02*
X127575000Y-93275000D01*
X122747504Y-97757802D02*
X121957802Y-97757802D01*
X121957802Y-97757802D02*
X121650060Y-97450060D01*
X121650060Y-97450060D02*
X121650060Y-96750560D01*
X121149680Y-97757322D02*
X121149680Y-98206683D01*
X121149680Y-98206683D02*
X121342998Y-98400001D01*
X121149680Y-97757322D02*
X121149680Y-96750560D01*
D34*
X125650560Y-91749300D02*
X126427800Y-91749300D01*
X126427800Y-91749300D02*
X126660000Y-91517100D01*
X126660000Y-86622098D02*
X126932098Y-86350000D01*
X126660000Y-91517100D02*
X126660000Y-86622098D01*
X126932098Y-86350000D02*
X128477000Y-86350000D01*
X128477000Y-86350000D02*
X128750000Y-86623000D01*
X128750000Y-86623000D02*
X128750000Y-87200000D01*
D32*
X125650560Y-91749300D02*
X124750700Y-91749300D01*
X124750700Y-91749300D02*
X124750000Y-91750000D01*
X128750000Y-87200000D02*
X128750000Y-88750000D01*
X114149440Y-91248920D02*
X113262922Y-91248920D01*
X113262922Y-91248920D02*
X113257002Y-91243000D01*
X114149440Y-88249180D02*
X113449180Y-88249180D01*
X113449180Y-88249180D02*
X113300000Y-88100000D01*
X114149440Y-88749560D02*
X113272615Y-88749560D01*
X113272615Y-88749560D02*
X113257002Y-88765173D01*
X130250000Y-88750000D02*
X131450000Y-88750000D01*
X113257002Y-94750000D02*
X114148480Y-94750000D01*
X114148480Y-94750000D02*
X114149440Y-94749040D01*
X97000000Y-96050000D02*
X97400000Y-96050000D01*
X96400000Y-96050000D02*
X97000000Y-96050000D01*
X96400000Y-96050000D02*
X96700000Y-96050000D01*
X97400000Y-96050000D02*
X97800000Y-95650000D01*
X88100000Y-94162998D02*
X88100000Y-94242999D01*
X130422339Y-83827661D02*
X130422339Y-84422339D01*
X130422339Y-84422339D02*
X130500000Y-84500000D01*
D34*
X131700000Y-96667242D02*
X131700000Y-97150945D01*
X131700000Y-97150945D02*
X131573501Y-97277444D01*
D35*
X130500000Y-97417242D02*
X130682758Y-97417242D01*
X130682758Y-97417242D02*
X131432758Y-96667242D01*
X131432758Y-96667242D02*
X131700000Y-96667242D01*
X130500000Y-84500000D02*
X130700000Y-84500000D01*
X131450000Y-83750000D02*
X131700000Y-83750000D01*
X130700000Y-84500000D02*
X131450000Y-83750000D01*
D33*
X91250000Y-96900000D02*
X91780312Y-96900000D01*
X91780312Y-96900000D02*
X92017271Y-96663041D01*
X91250000Y-92350000D02*
X91781002Y-92350000D01*
X91781002Y-92350000D02*
X91957002Y-92174000D01*
X91150000Y-87800000D02*
X91741002Y-87800000D01*
X91741002Y-87800000D02*
X91957001Y-87584001D01*
D32*
X92600000Y-96850000D02*
X91300000Y-96850000D01*
X91300000Y-96850000D02*
X91250000Y-96900000D01*
X92600000Y-92350000D02*
X91250000Y-92350000D01*
X92600000Y-87850000D02*
X91400000Y-87850000D01*
X91400000Y-87850000D02*
X91250000Y-88000000D01*
X96400000Y-92350000D02*
X97500000Y-92350000D01*
X97500000Y-92350000D02*
X97800000Y-92650000D01*
X96400000Y-96850000D02*
X97500000Y-96850000D01*
X97500000Y-96850000D02*
X97800000Y-97150000D01*
X96400000Y-87850000D02*
X97300000Y-87850000D01*
X97300000Y-87850000D02*
X97700000Y-88250000D01*
D35*
X117050000Y-98500000D02*
X118250000Y-98500000D01*
D34*
X116450000Y-98150000D02*
X116700000Y-98150000D01*
X116700000Y-98150000D02*
X117050000Y-98500000D01*
X118250000Y-98500000D02*
X117640000Y-98500000D01*
X117640000Y-98500000D02*
X117050000Y-98500000D01*
X117649560Y-96750560D02*
X117649560Y-98490440D01*
X117649560Y-98490440D02*
X117640000Y-98500000D01*
D35*
X127832758Y-96467242D02*
X128500000Y-96467242D01*
D32*
X117649560Y-96750560D02*
X117649560Y-97600000D01*
D33*
X117650000Y-98500000D02*
X117650000Y-97600440D01*
X117650000Y-97600440D02*
X117649560Y-97600000D01*
D35*
X127632758Y-96667242D02*
X127832758Y-96467242D01*
X127300000Y-96667242D02*
X127632758Y-96667242D01*
D32*
X120649300Y-96750560D02*
X120649300Y-95952098D01*
X120649300Y-95952098D02*
X121188399Y-95412999D01*
X123587999Y-95412999D02*
X124825000Y-96650000D01*
X121188399Y-95412999D02*
X123587999Y-95412999D01*
X124825000Y-96650000D02*
X125500000Y-96650000D01*
X129600000Y-95400000D02*
X129400000Y-95400000D01*
X129400000Y-95400000D02*
X128452001Y-94452001D01*
X128452001Y-94452001D02*
X128452001Y-90928399D01*
X128452001Y-90928399D02*
X127773602Y-90250000D01*
X127773602Y-90250000D02*
X127575000Y-90250000D01*
X114149440Y-92249680D02*
X115673364Y-92249680D01*
X115673364Y-92249680D02*
X115724742Y-92198302D01*
X127600000Y-94750000D02*
X127575000Y-94775000D01*
D34*
X129550000Y-91000000D02*
X129550000Y-90623000D01*
X129550000Y-90623000D02*
X127677000Y-88750000D01*
X127677000Y-88750000D02*
X127575000Y-88750000D01*
D32*
X114149440Y-92750060D02*
X115320584Y-92750060D01*
X115320584Y-92750060D02*
X115816513Y-93245989D01*
D37*
G36*
X71106590Y-82658484D02*
X71536621Y-83506782D01*
X71540235Y-83511386D01*
X71545335Y-83514256D01*
X71550000Y-83515000D01*
X73285000Y-83515000D01*
X73285000Y-86885000D01*
X71500000Y-86885000D01*
X71494260Y-86886142D01*
X71489393Y-86889393D01*
X71486409Y-86893654D01*
X71125122Y-87667420D01*
X70695061Y-87985000D01*
X68045500Y-87985000D01*
X68045500Y-84003238D01*
X68124505Y-83451570D01*
X68353819Y-82947221D01*
X68715464Y-82527511D01*
X68889048Y-82415000D01*
X70646277Y-82415000D01*
X71106590Y-82658484D01*
X71106590Y-82658484D01*
G37*
X71106590Y-82658484D02*
X71536621Y-83506782D01*
X71540235Y-83511386D01*
X71545335Y-83514256D01*
X71550000Y-83515000D01*
X73285000Y-83515000D01*
X73285000Y-86885000D01*
X71500000Y-86885000D01*
X71494260Y-86886142D01*
X71489393Y-86889393D01*
X71486409Y-86893654D01*
X71125122Y-87667420D01*
X70695061Y-87985000D01*
X68045500Y-87985000D01*
X68045500Y-84003238D01*
X68124505Y-83451570D01*
X68353819Y-82947221D01*
X68715464Y-82527511D01*
X68889048Y-82415000D01*
X70646277Y-82415000D01*
X71106590Y-82658484D01*
G36*
X71104279Y-88487188D02*
X71536733Y-89306999D01*
X71540421Y-89311543D01*
X71545567Y-89314330D01*
X71550000Y-89315000D01*
X73285000Y-89315000D01*
X73285000Y-92685000D01*
X71500000Y-92685000D01*
X71494260Y-92686142D01*
X71489393Y-92689393D01*
X71486402Y-92693668D01*
X71074921Y-93577247D01*
X70745663Y-93785000D01*
X68045500Y-93785000D01*
X68045500Y-88215000D01*
X70744960Y-88215000D01*
X71104279Y-88487188D01*
X71104279Y-88487188D01*
G37*
X71104279Y-88487188D02*
X71536733Y-89306999D01*
X71540421Y-89311543D01*
X71545567Y-89314330D01*
X71550000Y-89315000D01*
X73285000Y-89315000D01*
X73285000Y-92685000D01*
X71500000Y-92685000D01*
X71494260Y-92686142D01*
X71489393Y-92689393D01*
X71486402Y-92693668D01*
X71074921Y-93577247D01*
X70745663Y-93785000D01*
X68045500Y-93785000D01*
X68045500Y-88215000D01*
X70744960Y-88215000D01*
X71104279Y-88487188D01*
G36*
X71096895Y-94249417D02*
X71486345Y-95106207D01*
X71489759Y-95110960D01*
X71494733Y-95114045D01*
X71500000Y-95115000D01*
X73285000Y-95115000D01*
X73285000Y-98485000D01*
X71500000Y-98485000D01*
X71494260Y-98486142D01*
X71489393Y-98489393D01*
X71486345Y-98493793D01*
X71117027Y-99306294D01*
X70745004Y-99585000D01*
X68876217Y-99585000D01*
X68527510Y-99284534D01*
X68226170Y-98819623D01*
X68066977Y-98287320D01*
X68045500Y-97998310D01*
X68045500Y-94015000D01*
X70745455Y-94015000D01*
X71096895Y-94249417D01*
X71096895Y-94249417D01*
G37*
X71096895Y-94249417D02*
X71486345Y-95106207D01*
X71489759Y-95110960D01*
X71494733Y-95114045D01*
X71500000Y-95115000D01*
X73285000Y-95115000D01*
X73285000Y-98485000D01*
X71500000Y-98485000D01*
X71494260Y-98486142D01*
X71489393Y-98489393D01*
X71486345Y-98493793D01*
X71117027Y-99306294D01*
X70745004Y-99585000D01*
X68876217Y-99585000D01*
X68527510Y-99284534D01*
X68226170Y-98819623D01*
X68066977Y-98287320D01*
X68045500Y-97998310D01*
X68045500Y-94015000D01*
X70745455Y-94015000D01*
X71096895Y-94249417D01*
D38*
G36*
X81262998Y-83203527D02*
X81262998Y-83396473D01*
X81336835Y-83574731D01*
X81473267Y-83711163D01*
X81651525Y-83785000D01*
X81770156Y-83785000D01*
X81816156Y-83853844D01*
X81900504Y-83910204D01*
X82000000Y-83929995D01*
X82973000Y-83929995D01*
X82973000Y-87373000D01*
X79226031Y-87373000D01*
X78968389Y-87262747D01*
X78597479Y-86818595D01*
X78558907Y-86787488D01*
X78500000Y-86773000D01*
X76830934Y-86773000D01*
X76827000Y-86763503D01*
X76827000Y-83627000D01*
X78500000Y-83627000D01*
X78548601Y-83617333D01*
X78598208Y-83580524D01*
X78972375Y-83124183D01*
X79223701Y-83027000D01*
X81336118Y-83027000D01*
X81262998Y-83203527D01*
X81262998Y-83203527D01*
G37*
X81262998Y-83203527D02*
X81262998Y-83396473D01*
X81336835Y-83574731D01*
X81473267Y-83711163D01*
X81651525Y-83785000D01*
X81770156Y-83785000D01*
X81816156Y-83853844D01*
X81900504Y-83910204D01*
X82000000Y-83929995D01*
X82973000Y-83929995D01*
X82973000Y-87373000D01*
X79226031Y-87373000D01*
X78968389Y-87262747D01*
X78597479Y-86818595D01*
X78558907Y-86787488D01*
X78500000Y-86773000D01*
X76830934Y-86773000D01*
X76827000Y-86763503D01*
X76827000Y-83627000D01*
X78500000Y-83627000D01*
X78548601Y-83617333D01*
X78598208Y-83580524D01*
X78972375Y-83124183D01*
X79223701Y-83027000D01*
X81336118Y-83027000D01*
X81262998Y-83203527D01*
G36*
X81257998Y-89003527D02*
X81257998Y-89196473D01*
X81331835Y-89374731D01*
X81468267Y-89511163D01*
X81646525Y-89585000D01*
X81770156Y-89585000D01*
X81816156Y-89653844D01*
X81900504Y-89710204D01*
X82000000Y-89729995D01*
X82973000Y-89729995D01*
X82973000Y-93173000D01*
X79275195Y-93173000D01*
X78947859Y-93037807D01*
X78597445Y-92618554D01*
X78558860Y-92587463D01*
X78500000Y-92573000D01*
X76827000Y-92573000D01*
X76827000Y-90336497D01*
X76885000Y-90196473D01*
X76885000Y-90003527D01*
X76827000Y-89863503D01*
X76827000Y-89427000D01*
X78500000Y-89427000D01*
X78548601Y-89417333D01*
X78597331Y-89381583D01*
X78951876Y-88958599D01*
X79228656Y-88827000D01*
X81331118Y-88827000D01*
X81257998Y-89003527D01*
X81257998Y-89003527D01*
G37*
X81257998Y-89003527D02*
X81257998Y-89196473D01*
X81331835Y-89374731D01*
X81468267Y-89511163D01*
X81646525Y-89585000D01*
X81770156Y-89585000D01*
X81816156Y-89653844D01*
X81900504Y-89710204D01*
X82000000Y-89729995D01*
X82973000Y-89729995D01*
X82973000Y-93173000D01*
X79275195Y-93173000D01*
X78947859Y-93037807D01*
X78597445Y-92618554D01*
X78558860Y-92587463D01*
X78500000Y-92573000D01*
X76827000Y-92573000D01*
X76827000Y-90336497D01*
X76885000Y-90196473D01*
X76885000Y-90003527D01*
X76827000Y-89863503D01*
X76827000Y-89427000D01*
X78500000Y-89427000D01*
X78548601Y-89417333D01*
X78597331Y-89381583D01*
X78951876Y-88958599D01*
X79228656Y-88827000D01*
X81331118Y-88827000D01*
X81257998Y-89003527D01*
G36*
X81262998Y-94803527D02*
X81262998Y-94996473D01*
X81336835Y-95174731D01*
X81473267Y-95311163D01*
X81651525Y-95385000D01*
X81770156Y-95385000D01*
X81816156Y-95453844D01*
X81900504Y-95510204D01*
X82000000Y-95529995D01*
X82973000Y-95529995D01*
X82973000Y-98973000D01*
X79279877Y-98973000D01*
X78903107Y-98785348D01*
X78597564Y-98418697D01*
X78559024Y-98387549D01*
X78500000Y-98373000D01*
X76827000Y-98373000D01*
X76827000Y-96121327D01*
X76872000Y-96012688D01*
X76872000Y-95819742D01*
X76827000Y-95711103D01*
X76827000Y-95227000D01*
X78500000Y-95227000D01*
X78548601Y-95217333D01*
X78597564Y-95181303D01*
X78910571Y-94805695D01*
X79326147Y-94627000D01*
X81336118Y-94627000D01*
X81262998Y-94803527D01*
X81262998Y-94803527D01*
G37*
X81262998Y-94803527D02*
X81262998Y-94996473D01*
X81336835Y-95174731D01*
X81473267Y-95311163D01*
X81651525Y-95385000D01*
X81770156Y-95385000D01*
X81816156Y-95453844D01*
X81900504Y-95510204D01*
X82000000Y-95529995D01*
X82973000Y-95529995D01*
X82973000Y-98973000D01*
X79279877Y-98973000D01*
X78903107Y-98785348D01*
X78597564Y-98418697D01*
X78559024Y-98387549D01*
X78500000Y-98373000D01*
X76827000Y-98373000D01*
X76827000Y-96121327D01*
X76872000Y-96012688D01*
X76872000Y-95819742D01*
X76827000Y-95711103D01*
X76827000Y-95227000D01*
X78500000Y-95227000D01*
X78548601Y-95217333D01*
X78597564Y-95181303D01*
X78910571Y-94805695D01*
X79326147Y-94627000D01*
X81336118Y-94627000D01*
X81262998Y-94803527D01*
G36*
X87027997Y-82659471D02*
X87101834Y-82837729D01*
X87238266Y-82974161D01*
X87416524Y-83047998D01*
X87609470Y-83047998D01*
X87787728Y-82974161D01*
X87806499Y-82955391D01*
X87825269Y-82974161D01*
X87934117Y-83019247D01*
X87941978Y-83024500D01*
X87951251Y-83026345D01*
X88003527Y-83047998D01*
X88060109Y-83047998D01*
X88100000Y-83055933D01*
X88139892Y-83047998D01*
X88196473Y-83047998D01*
X88248748Y-83026345D01*
X88258023Y-83024500D01*
X88265886Y-83019246D01*
X88374731Y-82974161D01*
X88511163Y-82837729D01*
X88585000Y-82659471D01*
X88585000Y-82527000D01*
X114523000Y-82527000D01*
X114523000Y-85523000D01*
X110800000Y-85523000D01*
X110751399Y-85532667D01*
X110710197Y-85560197D01*
X110682667Y-85601399D01*
X110673000Y-85650000D01*
X110673000Y-97573000D01*
X109910263Y-97573000D01*
X108059995Y-84523745D01*
X108059995Y-84300000D01*
X108040204Y-84200504D01*
X107983844Y-84116156D01*
X107899496Y-84059796D01*
X107800000Y-84040005D01*
X106900000Y-84040005D01*
X106800504Y-84059796D01*
X106775000Y-84076837D01*
X106749496Y-84059796D01*
X106650000Y-84040005D01*
X105750000Y-84040005D01*
X105650504Y-84059796D01*
X105566156Y-84116156D01*
X105509796Y-84200504D01*
X105506881Y-84215160D01*
X105482667Y-84251399D01*
X105474131Y-84283092D01*
X105093725Y-87115000D01*
X105053527Y-87115000D01*
X104875269Y-87188837D01*
X104738837Y-87325269D01*
X104665000Y-87503527D01*
X104665000Y-87696473D01*
X104738837Y-87874731D01*
X104875269Y-88011163D01*
X104968176Y-88049646D01*
X103688919Y-97573000D01*
X101810490Y-97573000D01*
X99959995Y-84327350D01*
X99959995Y-84300000D01*
X99947158Y-84235465D01*
X99925778Y-84082428D01*
X99909480Y-84035632D01*
X99876514Y-83998636D01*
X99831899Y-83977071D01*
X99800000Y-83973000D01*
X89600000Y-83973000D01*
X89551399Y-83982667D01*
X89504771Y-84015974D01*
X88754771Y-84865974D01*
X88729864Y-84908813D01*
X88723000Y-84950000D01*
X88723000Y-85552000D01*
X88717710Y-85552000D01*
X88476970Y-85651718D01*
X88292716Y-85835972D01*
X88192998Y-86076712D01*
X88192998Y-86337288D01*
X88292716Y-86578028D01*
X88476970Y-86762282D01*
X88717710Y-86862000D01*
X88723000Y-86862000D01*
X88723000Y-97676419D01*
X88481465Y-98304410D01*
X88473000Y-98350000D01*
X88473000Y-99473000D01*
X84276606Y-99473000D01*
X84259816Y-94066525D01*
X87027997Y-94066525D01*
X87027997Y-94259471D01*
X87101834Y-94437729D01*
X87238266Y-94574161D01*
X87416524Y-94647998D01*
X87609470Y-94647998D01*
X87787728Y-94574161D01*
X87806499Y-94555391D01*
X87825269Y-94574161D01*
X87934117Y-94619247D01*
X87941978Y-94624500D01*
X87951251Y-94626345D01*
X88003527Y-94647998D01*
X88060109Y-94647998D01*
X88100000Y-94655933D01*
X88139892Y-94647998D01*
X88196473Y-94647998D01*
X88248748Y-94626345D01*
X88258023Y-94624500D01*
X88265886Y-94619246D01*
X88374731Y-94574161D01*
X88511163Y-94437729D01*
X88585000Y-94259471D01*
X88585000Y-94066525D01*
X88511163Y-93888267D01*
X88374731Y-93751835D01*
X88196473Y-93677998D01*
X88003527Y-93677998D01*
X87825269Y-93751835D01*
X87806499Y-93770606D01*
X87787728Y-93751835D01*
X87609470Y-93677998D01*
X87416524Y-93677998D01*
X87238266Y-93751835D01*
X87101834Y-93888267D01*
X87027997Y-94066525D01*
X84259816Y-94066525D01*
X84241804Y-88266525D01*
X87027997Y-88266525D01*
X87027997Y-88459471D01*
X87101834Y-88637729D01*
X87238266Y-88774161D01*
X87416524Y-88847998D01*
X87609470Y-88847998D01*
X87787728Y-88774161D01*
X87806499Y-88755391D01*
X87825269Y-88774161D01*
X87934117Y-88819247D01*
X87941978Y-88824500D01*
X87951251Y-88826345D01*
X88003527Y-88847998D01*
X88060109Y-88847998D01*
X88100000Y-88855933D01*
X88139892Y-88847998D01*
X88196473Y-88847998D01*
X88248748Y-88826345D01*
X88258023Y-88824500D01*
X88265886Y-88819246D01*
X88374731Y-88774161D01*
X88511163Y-88637729D01*
X88585000Y-88459471D01*
X88585000Y-88266525D01*
X88511163Y-88088267D01*
X88374731Y-87951835D01*
X88196473Y-87877998D01*
X88003527Y-87877998D01*
X87825269Y-87951835D01*
X87806499Y-87970606D01*
X87787728Y-87951835D01*
X87609470Y-87877998D01*
X87416524Y-87877998D01*
X87238266Y-87951835D01*
X87101834Y-88088267D01*
X87027997Y-88266525D01*
X84241804Y-88266525D01*
X84227000Y-83500000D01*
X84227000Y-82527000D01*
X87027997Y-82527000D01*
X87027997Y-82659471D01*
X87027997Y-82659471D01*
G37*
X87027997Y-82659471D02*
X87101834Y-82837729D01*
X87238266Y-82974161D01*
X87416524Y-83047998D01*
X87609470Y-83047998D01*
X87787728Y-82974161D01*
X87806499Y-82955391D01*
X87825269Y-82974161D01*
X87934117Y-83019247D01*
X87941978Y-83024500D01*
X87951251Y-83026345D01*
X88003527Y-83047998D01*
X88060109Y-83047998D01*
X88100000Y-83055933D01*
X88139892Y-83047998D01*
X88196473Y-83047998D01*
X88248748Y-83026345D01*
X88258023Y-83024500D01*
X88265886Y-83019246D01*
X88374731Y-82974161D01*
X88511163Y-82837729D01*
X88585000Y-82659471D01*
X88585000Y-82527000D01*
X114523000Y-82527000D01*
X114523000Y-85523000D01*
X110800000Y-85523000D01*
X110751399Y-85532667D01*
X110710197Y-85560197D01*
X110682667Y-85601399D01*
X110673000Y-85650000D01*
X110673000Y-97573000D01*
X109910263Y-97573000D01*
X108059995Y-84523745D01*
X108059995Y-84300000D01*
X108040204Y-84200504D01*
X107983844Y-84116156D01*
X107899496Y-84059796D01*
X107800000Y-84040005D01*
X106900000Y-84040005D01*
X106800504Y-84059796D01*
X106775000Y-84076837D01*
X106749496Y-84059796D01*
X106650000Y-84040005D01*
X105750000Y-84040005D01*
X105650504Y-84059796D01*
X105566156Y-84116156D01*
X105509796Y-84200504D01*
X105506881Y-84215160D01*
X105482667Y-84251399D01*
X105474131Y-84283092D01*
X105093725Y-87115000D01*
X105053527Y-87115000D01*
X104875269Y-87188837D01*
X104738837Y-87325269D01*
X104665000Y-87503527D01*
X104665000Y-87696473D01*
X104738837Y-87874731D01*
X104875269Y-88011163D01*
X104968176Y-88049646D01*
X103688919Y-97573000D01*
X101810490Y-97573000D01*
X99959995Y-84327350D01*
X99959995Y-84300000D01*
X99947158Y-84235465D01*
X99925778Y-84082428D01*
X99909480Y-84035632D01*
X99876514Y-83998636D01*
X99831899Y-83977071D01*
X99800000Y-83973000D01*
X89600000Y-83973000D01*
X89551399Y-83982667D01*
X89504771Y-84015974D01*
X88754771Y-84865974D01*
X88729864Y-84908813D01*
X88723000Y-84950000D01*
X88723000Y-85552000D01*
X88717710Y-85552000D01*
X88476970Y-85651718D01*
X88292716Y-85835972D01*
X88192998Y-86076712D01*
X88192998Y-86337288D01*
X88292716Y-86578028D01*
X88476970Y-86762282D01*
X88717710Y-86862000D01*
X88723000Y-86862000D01*
X88723000Y-97676419D01*
X88481465Y-98304410D01*
X88473000Y-98350000D01*
X88473000Y-99473000D01*
X84276606Y-99473000D01*
X84259816Y-94066525D01*
X87027997Y-94066525D01*
X87027997Y-94259471D01*
X87101834Y-94437729D01*
X87238266Y-94574161D01*
X87416524Y-94647998D01*
X87609470Y-94647998D01*
X87787728Y-94574161D01*
X87806499Y-94555391D01*
X87825269Y-94574161D01*
X87934117Y-94619247D01*
X87941978Y-94624500D01*
X87951251Y-94626345D01*
X88003527Y-94647998D01*
X88060109Y-94647998D01*
X88100000Y-94655933D01*
X88139892Y-94647998D01*
X88196473Y-94647998D01*
X88248748Y-94626345D01*
X88258023Y-94624500D01*
X88265886Y-94619246D01*
X88374731Y-94574161D01*
X88511163Y-94437729D01*
X88585000Y-94259471D01*
X88585000Y-94066525D01*
X88511163Y-93888267D01*
X88374731Y-93751835D01*
X88196473Y-93677998D01*
X88003527Y-93677998D01*
X87825269Y-93751835D01*
X87806499Y-93770606D01*
X87787728Y-93751835D01*
X87609470Y-93677998D01*
X87416524Y-93677998D01*
X87238266Y-93751835D01*
X87101834Y-93888267D01*
X87027997Y-94066525D01*
X84259816Y-94066525D01*
X84241804Y-88266525D01*
X87027997Y-88266525D01*
X87027997Y-88459471D01*
X87101834Y-88637729D01*
X87238266Y-88774161D01*
X87416524Y-88847998D01*
X87609470Y-88847998D01*
X87787728Y-88774161D01*
X87806499Y-88755391D01*
X87825269Y-88774161D01*
X87934117Y-88819247D01*
X87941978Y-88824500D01*
X87951251Y-88826345D01*
X88003527Y-88847998D01*
X88060109Y-88847998D01*
X88100000Y-88855933D01*
X88139892Y-88847998D01*
X88196473Y-88847998D01*
X88248748Y-88826345D01*
X88258023Y-88824500D01*
X88265886Y-88819246D01*
X88374731Y-88774161D01*
X88511163Y-88637729D01*
X88585000Y-88459471D01*
X88585000Y-88266525D01*
X88511163Y-88088267D01*
X88374731Y-87951835D01*
X88196473Y-87877998D01*
X88003527Y-87877998D01*
X87825269Y-87951835D01*
X87806499Y-87970606D01*
X87787728Y-87951835D01*
X87609470Y-87877998D01*
X87416524Y-87877998D01*
X87238266Y-87951835D01*
X87101834Y-88088267D01*
X87027997Y-88266525D01*
X84241804Y-88266525D01*
X84227000Y-83500000D01*
X84227000Y-82527000D01*
X87027997Y-82527000D01*
X87027997Y-82659471D01*
G36*
X101440005Y-97681970D02*
X101440005Y-97700000D01*
X101452842Y-97764535D01*
X101474222Y-97917572D01*
X101490520Y-97964368D01*
X101523486Y-98001364D01*
X101568101Y-98022929D01*
X101600000Y-98027000D01*
X103850000Y-98027000D01*
X103898601Y-98017333D01*
X103939803Y-97989803D01*
X103967333Y-97948601D01*
X103975961Y-97916208D01*
X103981627Y-97872172D01*
X104020500Y-97828080D01*
X104052730Y-97733949D01*
X105354890Y-88040092D01*
X105424731Y-88011163D01*
X105561163Y-87874731D01*
X105635000Y-87696473D01*
X105635000Y-87503527D01*
X105561163Y-87325269D01*
X105463967Y-87228073D01*
X105823037Y-84555000D01*
X107678606Y-84555000D01*
X109540005Y-97682763D01*
X109540005Y-97700000D01*
X109556193Y-97781384D01*
X109574098Y-97916664D01*
X109590059Y-97963576D01*
X109622757Y-98000809D01*
X109667214Y-98022695D01*
X109700000Y-98027000D01*
X110850000Y-98027000D01*
X110898601Y-98017333D01*
X110939803Y-97989803D01*
X110967333Y-97948601D01*
X110977000Y-97900000D01*
X110977000Y-97882525D01*
X110980312Y-97880312D01*
X111035589Y-97797584D01*
X111055000Y-97700000D01*
X111055000Y-96477000D01*
X114523000Y-96477000D01*
X114523000Y-99473000D01*
X89708999Y-99473000D01*
X89768216Y-99330038D01*
X89768216Y-99069462D01*
X89668498Y-98828722D01*
X89484244Y-98644468D01*
X89243504Y-98544750D01*
X88982928Y-98544750D01*
X88977000Y-98547205D01*
X88977000Y-98515634D01*
X89021453Y-98337823D01*
X89138011Y-98027000D01*
X98300000Y-98027000D01*
X98348601Y-98017333D01*
X98401600Y-97976200D01*
X98551600Y-97776200D01*
X98573027Y-97731519D01*
X98577000Y-97700000D01*
X98577000Y-84427000D01*
X99588208Y-84427000D01*
X101440005Y-97681970D01*
X101440005Y-97681970D01*
G37*
X101440005Y-97681970D02*
X101440005Y-97700000D01*
X101452842Y-97764535D01*
X101474222Y-97917572D01*
X101490520Y-97964368D01*
X101523486Y-98001364D01*
X101568101Y-98022929D01*
X101600000Y-98027000D01*
X103850000Y-98027000D01*
X103898601Y-98017333D01*
X103939803Y-97989803D01*
X103967333Y-97948601D01*
X103975961Y-97916208D01*
X103981627Y-97872172D01*
X104020500Y-97828080D01*
X104052730Y-97733949D01*
X105354890Y-88040092D01*
X105424731Y-88011163D01*
X105561163Y-87874731D01*
X105635000Y-87696473D01*
X105635000Y-87503527D01*
X105561163Y-87325269D01*
X105463967Y-87228073D01*
X105823037Y-84555000D01*
X107678606Y-84555000D01*
X109540005Y-97682763D01*
X109540005Y-97700000D01*
X109556193Y-97781384D01*
X109574098Y-97916664D01*
X109590059Y-97963576D01*
X109622757Y-98000809D01*
X109667214Y-98022695D01*
X109700000Y-98027000D01*
X110850000Y-98027000D01*
X110898601Y-98017333D01*
X110939803Y-97989803D01*
X110967333Y-97948601D01*
X110977000Y-97900000D01*
X110977000Y-97882525D01*
X110980312Y-97880312D01*
X111035589Y-97797584D01*
X111055000Y-97700000D01*
X111055000Y-96477000D01*
X114523000Y-96477000D01*
X114523000Y-99473000D01*
X89708999Y-99473000D01*
X89768216Y-99330038D01*
X89768216Y-99069462D01*
X89668498Y-98828722D01*
X89484244Y-98644468D01*
X89243504Y-98544750D01*
X88982928Y-98544750D01*
X88977000Y-98547205D01*
X88977000Y-98515634D01*
X89021453Y-98337823D01*
X89138011Y-98027000D01*
X98300000Y-98027000D01*
X98348601Y-98017333D01*
X98401600Y-97976200D01*
X98551600Y-97776200D01*
X98573027Y-97731519D01*
X98577000Y-97700000D01*
X98577000Y-84427000D01*
X99588208Y-84427000D01*
X101440005Y-97681970D01*
G36*
X95840005Y-89300000D02*
X95859796Y-89399496D01*
X95916156Y-89483844D01*
X96000504Y-89540204D01*
X96049752Y-89550000D01*
X96000504Y-89559796D01*
X95916156Y-89616156D01*
X95859796Y-89700504D01*
X95840005Y-89800000D01*
X95840005Y-90100000D01*
X95859796Y-90199496D01*
X95916156Y-90283844D01*
X96000504Y-90340204D01*
X96100000Y-90359995D01*
X96574101Y-90359995D01*
X96675269Y-90461163D01*
X96853527Y-90535000D01*
X97046473Y-90535000D01*
X97224731Y-90461163D01*
X97361163Y-90324731D01*
X97435000Y-90146473D01*
X97435000Y-89953527D01*
X97361163Y-89775269D01*
X97224731Y-89638837D01*
X97070615Y-89575000D01*
X97224731Y-89511163D01*
X97361163Y-89374731D01*
X97435000Y-89196473D01*
X97435000Y-89027000D01*
X98173000Y-89027000D01*
X98173000Y-90640005D01*
X97350000Y-90640005D01*
X97250504Y-90659796D01*
X97166156Y-90716156D01*
X97109796Y-90800504D01*
X97090005Y-90900000D01*
X97090005Y-91102000D01*
X96903527Y-91102000D01*
X96799716Y-91145000D01*
X96725112Y-91145000D01*
X96700000Y-91140005D01*
X96100000Y-91140005D01*
X96000504Y-91159796D01*
X95916156Y-91216156D01*
X95859796Y-91300504D01*
X95840005Y-91400000D01*
X95840005Y-91700000D01*
X95859796Y-91799496D01*
X95916156Y-91883844D01*
X96000504Y-91940204D01*
X96049752Y-91950000D01*
X96000504Y-91959796D01*
X95916156Y-92016156D01*
X95859796Y-92100504D01*
X95840005Y-92200000D01*
X95840005Y-92500000D01*
X95859796Y-92599496D01*
X95916156Y-92683844D01*
X96000504Y-92740204D01*
X96100000Y-92759995D01*
X96700000Y-92759995D01*
X96725112Y-92755000D01*
X97090005Y-92755000D01*
X97090005Y-92900000D01*
X97109796Y-92999496D01*
X97166156Y-93083844D01*
X97224757Y-93123000D01*
X89427000Y-93123000D01*
X89427000Y-92077000D01*
X90590005Y-92077000D01*
X90590005Y-92725000D01*
X90609796Y-92824496D01*
X90666156Y-92908844D01*
X90750504Y-92965204D01*
X90850000Y-92984995D01*
X91650000Y-92984995D01*
X91749496Y-92965204D01*
X91833844Y-92908844D01*
X91890204Y-92824496D01*
X91890560Y-92822708D01*
X91970239Y-92806859D01*
X92047852Y-92755000D01*
X92274888Y-92755000D01*
X92300000Y-92759995D01*
X92900000Y-92759995D01*
X92999496Y-92740204D01*
X93083844Y-92683844D01*
X93140204Y-92599496D01*
X93159995Y-92500000D01*
X93159995Y-92200000D01*
X93140204Y-92100504D01*
X93083844Y-92016156D01*
X92999496Y-91959796D01*
X92950248Y-91950000D01*
X92999496Y-91940204D01*
X93083844Y-91883844D01*
X93140204Y-91799496D01*
X93159995Y-91700000D01*
X93159995Y-91400000D01*
X93140204Y-91300504D01*
X93083844Y-91216156D01*
X92999496Y-91159796D01*
X92950248Y-91150000D01*
X92999496Y-91140204D01*
X93083844Y-91083844D01*
X93140204Y-90999496D01*
X93159995Y-90900000D01*
X93159995Y-90600000D01*
X93140204Y-90500504D01*
X93083844Y-90416156D01*
X92999496Y-90359796D01*
X92950248Y-90350000D01*
X92999496Y-90340204D01*
X93083844Y-90283844D01*
X93140204Y-90199496D01*
X93159995Y-90100000D01*
X93159995Y-89800000D01*
X93140204Y-89700504D01*
X93083844Y-89616156D01*
X92999496Y-89559796D01*
X92950248Y-89550000D01*
X92999496Y-89540204D01*
X93083844Y-89483844D01*
X93140204Y-89399496D01*
X93159995Y-89300000D01*
X93159995Y-89027000D01*
X95840005Y-89027000D01*
X95840005Y-89300000D01*
X95840005Y-89300000D01*
G37*
X95840005Y-89300000D02*
X95859796Y-89399496D01*
X95916156Y-89483844D01*
X96000504Y-89540204D01*
X96049752Y-89550000D01*
X96000504Y-89559796D01*
X95916156Y-89616156D01*
X95859796Y-89700504D01*
X95840005Y-89800000D01*
X95840005Y-90100000D01*
X95859796Y-90199496D01*
X95916156Y-90283844D01*
X96000504Y-90340204D01*
X96100000Y-90359995D01*
X96574101Y-90359995D01*
X96675269Y-90461163D01*
X96853527Y-90535000D01*
X97046473Y-90535000D01*
X97224731Y-90461163D01*
X97361163Y-90324731D01*
X97435000Y-90146473D01*
X97435000Y-89953527D01*
X97361163Y-89775269D01*
X97224731Y-89638837D01*
X97070615Y-89575000D01*
X97224731Y-89511163D01*
X97361163Y-89374731D01*
X97435000Y-89196473D01*
X97435000Y-89027000D01*
X98173000Y-89027000D01*
X98173000Y-90640005D01*
X97350000Y-90640005D01*
X97250504Y-90659796D01*
X97166156Y-90716156D01*
X97109796Y-90800504D01*
X97090005Y-90900000D01*
X97090005Y-91102000D01*
X96903527Y-91102000D01*
X96799716Y-91145000D01*
X96725112Y-91145000D01*
X96700000Y-91140005D01*
X96100000Y-91140005D01*
X96000504Y-91159796D01*
X95916156Y-91216156D01*
X95859796Y-91300504D01*
X95840005Y-91400000D01*
X95840005Y-91700000D01*
X95859796Y-91799496D01*
X95916156Y-91883844D01*
X96000504Y-91940204D01*
X96049752Y-91950000D01*
X96000504Y-91959796D01*
X95916156Y-92016156D01*
X95859796Y-92100504D01*
X95840005Y-92200000D01*
X95840005Y-92500000D01*
X95859796Y-92599496D01*
X95916156Y-92683844D01*
X96000504Y-92740204D01*
X96100000Y-92759995D01*
X96700000Y-92759995D01*
X96725112Y-92755000D01*
X97090005Y-92755000D01*
X97090005Y-92900000D01*
X97109796Y-92999496D01*
X97166156Y-93083844D01*
X97224757Y-93123000D01*
X89427000Y-93123000D01*
X89427000Y-92077000D01*
X90590005Y-92077000D01*
X90590005Y-92725000D01*
X90609796Y-92824496D01*
X90666156Y-92908844D01*
X90750504Y-92965204D01*
X90850000Y-92984995D01*
X91650000Y-92984995D01*
X91749496Y-92965204D01*
X91833844Y-92908844D01*
X91890204Y-92824496D01*
X91890560Y-92822708D01*
X91970239Y-92806859D01*
X92047852Y-92755000D01*
X92274888Y-92755000D01*
X92300000Y-92759995D01*
X92900000Y-92759995D01*
X92999496Y-92740204D01*
X93083844Y-92683844D01*
X93140204Y-92599496D01*
X93159995Y-92500000D01*
X93159995Y-92200000D01*
X93140204Y-92100504D01*
X93083844Y-92016156D01*
X92999496Y-91959796D01*
X92950248Y-91950000D01*
X92999496Y-91940204D01*
X93083844Y-91883844D01*
X93140204Y-91799496D01*
X93159995Y-91700000D01*
X93159995Y-91400000D01*
X93140204Y-91300504D01*
X93083844Y-91216156D01*
X92999496Y-91159796D01*
X92950248Y-91150000D01*
X92999496Y-91140204D01*
X93083844Y-91083844D01*
X93140204Y-90999496D01*
X93159995Y-90900000D01*
X93159995Y-90600000D01*
X93140204Y-90500504D01*
X93083844Y-90416156D01*
X92999496Y-90359796D01*
X92950248Y-90350000D01*
X92999496Y-90340204D01*
X93083844Y-90283844D01*
X93140204Y-90199496D01*
X93159995Y-90100000D01*
X93159995Y-89800000D01*
X93140204Y-89700504D01*
X93083844Y-89616156D01*
X92999496Y-89559796D01*
X92950248Y-89550000D01*
X92999496Y-89540204D01*
X93083844Y-89483844D01*
X93140204Y-89399496D01*
X93159995Y-89300000D01*
X93159995Y-89027000D01*
X95840005Y-89027000D01*
X95840005Y-89300000D01*
G36*
X95840005Y-84800000D02*
X95859796Y-84899496D01*
X95916156Y-84983844D01*
X96000504Y-85040204D01*
X96049752Y-85050000D01*
X96000504Y-85059796D01*
X95916156Y-85116156D01*
X95859796Y-85200504D01*
X95840005Y-85300000D01*
X95840005Y-85600000D01*
X95859796Y-85699496D01*
X95916156Y-85783844D01*
X96000504Y-85840204D01*
X96100000Y-85859995D01*
X96674101Y-85859995D01*
X96725269Y-85911163D01*
X96903527Y-85985000D01*
X97096473Y-85985000D01*
X97274731Y-85911163D01*
X97411163Y-85774731D01*
X97485000Y-85596473D01*
X97485000Y-85403527D01*
X97411163Y-85225269D01*
X97274731Y-85088837D01*
X97180970Y-85050000D01*
X97274731Y-85011163D01*
X97411163Y-84874731D01*
X97485000Y-84696473D01*
X97485000Y-84527000D01*
X98173000Y-84527000D01*
X98173000Y-86140005D01*
X97300000Y-86140005D01*
X97200504Y-86159796D01*
X97116156Y-86216156D01*
X97059796Y-86300504D01*
X97040005Y-86400000D01*
X97040005Y-86565000D01*
X96903527Y-86565000D01*
X96725269Y-86638837D01*
X96720102Y-86644004D01*
X96700000Y-86640005D01*
X96100000Y-86640005D01*
X96000504Y-86659796D01*
X95916156Y-86716156D01*
X95859796Y-86800504D01*
X95840005Y-86900000D01*
X95840005Y-87200000D01*
X95859796Y-87299496D01*
X95916156Y-87383844D01*
X96000504Y-87440204D01*
X96049752Y-87450000D01*
X96000504Y-87459796D01*
X95916156Y-87516156D01*
X95859796Y-87600504D01*
X95840005Y-87700000D01*
X95840005Y-88000000D01*
X95859796Y-88099496D01*
X95916156Y-88183844D01*
X96000504Y-88240204D01*
X96100000Y-88259995D01*
X96700000Y-88259995D01*
X96725112Y-88255000D01*
X97040005Y-88255000D01*
X97040005Y-88400000D01*
X97059796Y-88499496D01*
X97108910Y-88573000D01*
X89377000Y-88573000D01*
X89377000Y-87527000D01*
X90490005Y-87527000D01*
X90490005Y-88175000D01*
X90509796Y-88274496D01*
X90566156Y-88358844D01*
X90650504Y-88415204D01*
X90750000Y-88434995D01*
X91550000Y-88434995D01*
X91649496Y-88415204D01*
X91733844Y-88358844D01*
X91782331Y-88286279D01*
X91788761Y-88285000D01*
X91788766Y-88285000D01*
X91930239Y-88256859D01*
X91933021Y-88255000D01*
X92274888Y-88255000D01*
X92300000Y-88259995D01*
X92900000Y-88259995D01*
X92999496Y-88240204D01*
X93083844Y-88183844D01*
X93140204Y-88099496D01*
X93159995Y-88000000D01*
X93159995Y-87700000D01*
X93140204Y-87600504D01*
X93083844Y-87516156D01*
X92999496Y-87459796D01*
X92950248Y-87450000D01*
X92999496Y-87440204D01*
X93083844Y-87383844D01*
X93140204Y-87299496D01*
X93159995Y-87200000D01*
X93159995Y-86900000D01*
X93140204Y-86800504D01*
X93083844Y-86716156D01*
X92999496Y-86659796D01*
X92950248Y-86650000D01*
X92999496Y-86640204D01*
X93083844Y-86583844D01*
X93140204Y-86499496D01*
X93159995Y-86400000D01*
X93159995Y-86100000D01*
X93140204Y-86000504D01*
X93083844Y-85916156D01*
X92999496Y-85859796D01*
X92950248Y-85850000D01*
X92999496Y-85840204D01*
X93083844Y-85783844D01*
X93140204Y-85699496D01*
X93159995Y-85600000D01*
X93159995Y-85300000D01*
X93140204Y-85200504D01*
X93083844Y-85116156D01*
X92999496Y-85059796D01*
X92950248Y-85050000D01*
X92999496Y-85040204D01*
X93083844Y-84983844D01*
X93140204Y-84899496D01*
X93159995Y-84800000D01*
X93159995Y-84527000D01*
X95840005Y-84527000D01*
X95840005Y-84800000D01*
X95840005Y-84800000D01*
G37*
X95840005Y-84800000D02*
X95859796Y-84899496D01*
X95916156Y-84983844D01*
X96000504Y-85040204D01*
X96049752Y-85050000D01*
X96000504Y-85059796D01*
X95916156Y-85116156D01*
X95859796Y-85200504D01*
X95840005Y-85300000D01*
X95840005Y-85600000D01*
X95859796Y-85699496D01*
X95916156Y-85783844D01*
X96000504Y-85840204D01*
X96100000Y-85859995D01*
X96674101Y-85859995D01*
X96725269Y-85911163D01*
X96903527Y-85985000D01*
X97096473Y-85985000D01*
X97274731Y-85911163D01*
X97411163Y-85774731D01*
X97485000Y-85596473D01*
X97485000Y-85403527D01*
X97411163Y-85225269D01*
X97274731Y-85088837D01*
X97180970Y-85050000D01*
X97274731Y-85011163D01*
X97411163Y-84874731D01*
X97485000Y-84696473D01*
X97485000Y-84527000D01*
X98173000Y-84527000D01*
X98173000Y-86140005D01*
X97300000Y-86140005D01*
X97200504Y-86159796D01*
X97116156Y-86216156D01*
X97059796Y-86300504D01*
X97040005Y-86400000D01*
X97040005Y-86565000D01*
X96903527Y-86565000D01*
X96725269Y-86638837D01*
X96720102Y-86644004D01*
X96700000Y-86640005D01*
X96100000Y-86640005D01*
X96000504Y-86659796D01*
X95916156Y-86716156D01*
X95859796Y-86800504D01*
X95840005Y-86900000D01*
X95840005Y-87200000D01*
X95859796Y-87299496D01*
X95916156Y-87383844D01*
X96000504Y-87440204D01*
X96049752Y-87450000D01*
X96000504Y-87459796D01*
X95916156Y-87516156D01*
X95859796Y-87600504D01*
X95840005Y-87700000D01*
X95840005Y-88000000D01*
X95859796Y-88099496D01*
X95916156Y-88183844D01*
X96000504Y-88240204D01*
X96100000Y-88259995D01*
X96700000Y-88259995D01*
X96725112Y-88255000D01*
X97040005Y-88255000D01*
X97040005Y-88400000D01*
X97059796Y-88499496D01*
X97108910Y-88573000D01*
X89377000Y-88573000D01*
X89377000Y-87527000D01*
X90490005Y-87527000D01*
X90490005Y-88175000D01*
X90509796Y-88274496D01*
X90566156Y-88358844D01*
X90650504Y-88415204D01*
X90750000Y-88434995D01*
X91550000Y-88434995D01*
X91649496Y-88415204D01*
X91733844Y-88358844D01*
X91782331Y-88286279D01*
X91788761Y-88285000D01*
X91788766Y-88285000D01*
X91930239Y-88256859D01*
X91933021Y-88255000D01*
X92274888Y-88255000D01*
X92300000Y-88259995D01*
X92900000Y-88259995D01*
X92999496Y-88240204D01*
X93083844Y-88183844D01*
X93140204Y-88099496D01*
X93159995Y-88000000D01*
X93159995Y-87700000D01*
X93140204Y-87600504D01*
X93083844Y-87516156D01*
X92999496Y-87459796D01*
X92950248Y-87450000D01*
X92999496Y-87440204D01*
X93083844Y-87383844D01*
X93140204Y-87299496D01*
X93159995Y-87200000D01*
X93159995Y-86900000D01*
X93140204Y-86800504D01*
X93083844Y-86716156D01*
X92999496Y-86659796D01*
X92950248Y-86650000D01*
X92999496Y-86640204D01*
X93083844Y-86583844D01*
X93140204Y-86499496D01*
X93159995Y-86400000D01*
X93159995Y-86100000D01*
X93140204Y-86000504D01*
X93083844Y-85916156D01*
X92999496Y-85859796D01*
X92950248Y-85850000D01*
X92999496Y-85840204D01*
X93083844Y-85783844D01*
X93140204Y-85699496D01*
X93159995Y-85600000D01*
X93159995Y-85300000D01*
X93140204Y-85200504D01*
X93083844Y-85116156D01*
X92999496Y-85059796D01*
X92950248Y-85050000D01*
X92999496Y-85040204D01*
X93083844Y-84983844D01*
X93140204Y-84899496D01*
X93159995Y-84800000D01*
X93159995Y-84527000D01*
X95840005Y-84527000D01*
X95840005Y-84800000D01*
G36*
X95840005Y-93800000D02*
X95859796Y-93899496D01*
X95916156Y-93983844D01*
X96000504Y-94040204D01*
X96049752Y-94050000D01*
X96000504Y-94059796D01*
X95916156Y-94116156D01*
X95859796Y-94200504D01*
X95840005Y-94300000D01*
X95840005Y-94600000D01*
X95859796Y-94699496D01*
X95916156Y-94783844D01*
X96000504Y-94840204D01*
X96100000Y-94859995D01*
X96674101Y-94859995D01*
X96725269Y-94911163D01*
X96903527Y-94985000D01*
X97096473Y-94985000D01*
X97274731Y-94911163D01*
X97411163Y-94774731D01*
X97485000Y-94596473D01*
X97485000Y-94403527D01*
X97411163Y-94225269D01*
X97274731Y-94088837D01*
X97241326Y-94075000D01*
X97274731Y-94061163D01*
X97411163Y-93924731D01*
X97485000Y-93746473D01*
X97485000Y-93553527D01*
X97474012Y-93527000D01*
X98173000Y-93527000D01*
X98173000Y-95140005D01*
X97350000Y-95140005D01*
X97250504Y-95159796D01*
X97166156Y-95216156D01*
X97109796Y-95300504D01*
X97090005Y-95400000D01*
X97090005Y-95565000D01*
X96903527Y-95565000D01*
X96725269Y-95638837D01*
X96720102Y-95644004D01*
X96700000Y-95640005D01*
X96100000Y-95640005D01*
X96000504Y-95659796D01*
X95916156Y-95716156D01*
X95859796Y-95800504D01*
X95840005Y-95900000D01*
X95840005Y-96200000D01*
X95859796Y-96299496D01*
X95916156Y-96383844D01*
X96000504Y-96440204D01*
X96049752Y-96450000D01*
X96000504Y-96459796D01*
X95916156Y-96516156D01*
X95859796Y-96600504D01*
X95840005Y-96700000D01*
X95840005Y-97000000D01*
X95859796Y-97099496D01*
X95916156Y-97183844D01*
X96000504Y-97240204D01*
X96100000Y-97259995D01*
X96700000Y-97259995D01*
X96725112Y-97255000D01*
X97090005Y-97255000D01*
X97090005Y-97400000D01*
X97109796Y-97499496D01*
X97166156Y-97583844D01*
X97224757Y-97623000D01*
X89426627Y-97623000D01*
X89423557Y-96577000D01*
X90186973Y-96577000D01*
X90212114Y-96582001D01*
X90212118Y-96582001D01*
X90252001Y-96589934D01*
X90291884Y-96582001D01*
X90590005Y-96582001D01*
X90590005Y-97275000D01*
X90609796Y-97374496D01*
X90666156Y-97458844D01*
X90750504Y-97515204D01*
X90850000Y-97534995D01*
X91650000Y-97534995D01*
X91749496Y-97515204D01*
X91833844Y-97458844D01*
X91890204Y-97374496D01*
X91890588Y-97372565D01*
X91969549Y-97356859D01*
X92121993Y-97255000D01*
X92274888Y-97255000D01*
X92300000Y-97259995D01*
X92900000Y-97259995D01*
X92999496Y-97240204D01*
X93083844Y-97183844D01*
X93140204Y-97099496D01*
X93159995Y-97000000D01*
X93159995Y-96700000D01*
X93140204Y-96600504D01*
X93083844Y-96516156D01*
X92999496Y-96459796D01*
X92950248Y-96450000D01*
X92999496Y-96440204D01*
X93083844Y-96383844D01*
X93140204Y-96299496D01*
X93159995Y-96200000D01*
X93159995Y-95900000D01*
X93140204Y-95800504D01*
X93083844Y-95716156D01*
X92999496Y-95659796D01*
X92950248Y-95650000D01*
X92999496Y-95640204D01*
X93083844Y-95583844D01*
X93140204Y-95499496D01*
X93159995Y-95400000D01*
X93159995Y-95100000D01*
X93140204Y-95000504D01*
X93083844Y-94916156D01*
X92999496Y-94859796D01*
X92950248Y-94850000D01*
X92999496Y-94840204D01*
X93083844Y-94783844D01*
X93140204Y-94699496D01*
X93159995Y-94600000D01*
X93159995Y-94300000D01*
X93140204Y-94200504D01*
X93083844Y-94116156D01*
X92999496Y-94059796D01*
X92950248Y-94050000D01*
X92999496Y-94040204D01*
X93083844Y-93983844D01*
X93140204Y-93899496D01*
X93159995Y-93800000D01*
X93159995Y-93527000D01*
X95840005Y-93527000D01*
X95840005Y-93800000D01*
X95840005Y-93800000D01*
G37*
X95840005Y-93800000D02*
X95859796Y-93899496D01*
X95916156Y-93983844D01*
X96000504Y-94040204D01*
X96049752Y-94050000D01*
X96000504Y-94059796D01*
X95916156Y-94116156D01*
X95859796Y-94200504D01*
X95840005Y-94300000D01*
X95840005Y-94600000D01*
X95859796Y-94699496D01*
X95916156Y-94783844D01*
X96000504Y-94840204D01*
X96100000Y-94859995D01*
X96674101Y-94859995D01*
X96725269Y-94911163D01*
X96903527Y-94985000D01*
X97096473Y-94985000D01*
X97274731Y-94911163D01*
X97411163Y-94774731D01*
X97485000Y-94596473D01*
X97485000Y-94403527D01*
X97411163Y-94225269D01*
X97274731Y-94088837D01*
X97241326Y-94075000D01*
X97274731Y-94061163D01*
X97411163Y-93924731D01*
X97485000Y-93746473D01*
X97485000Y-93553527D01*
X97474012Y-93527000D01*
X98173000Y-93527000D01*
X98173000Y-95140005D01*
X97350000Y-95140005D01*
X97250504Y-95159796D01*
X97166156Y-95216156D01*
X97109796Y-95300504D01*
X97090005Y-95400000D01*
X97090005Y-95565000D01*
X96903527Y-95565000D01*
X96725269Y-95638837D01*
X96720102Y-95644004D01*
X96700000Y-95640005D01*
X96100000Y-95640005D01*
X96000504Y-95659796D01*
X95916156Y-95716156D01*
X95859796Y-95800504D01*
X95840005Y-95900000D01*
X95840005Y-96200000D01*
X95859796Y-96299496D01*
X95916156Y-96383844D01*
X96000504Y-96440204D01*
X96049752Y-96450000D01*
X96000504Y-96459796D01*
X95916156Y-96516156D01*
X95859796Y-96600504D01*
X95840005Y-96700000D01*
X95840005Y-97000000D01*
X95859796Y-97099496D01*
X95916156Y-97183844D01*
X96000504Y-97240204D01*
X96100000Y-97259995D01*
X96700000Y-97259995D01*
X96725112Y-97255000D01*
X97090005Y-97255000D01*
X97090005Y-97400000D01*
X97109796Y-97499496D01*
X97166156Y-97583844D01*
X97224757Y-97623000D01*
X89426627Y-97623000D01*
X89423557Y-96577000D01*
X90186973Y-96577000D01*
X90212114Y-96582001D01*
X90212118Y-96582001D01*
X90252001Y-96589934D01*
X90291884Y-96582001D01*
X90590005Y-96582001D01*
X90590005Y-97275000D01*
X90609796Y-97374496D01*
X90666156Y-97458844D01*
X90750504Y-97515204D01*
X90850000Y-97534995D01*
X91650000Y-97534995D01*
X91749496Y-97515204D01*
X91833844Y-97458844D01*
X91890204Y-97374496D01*
X91890588Y-97372565D01*
X91969549Y-97356859D01*
X92121993Y-97255000D01*
X92274888Y-97255000D01*
X92300000Y-97259995D01*
X92900000Y-97259995D01*
X92999496Y-97240204D01*
X93083844Y-97183844D01*
X93140204Y-97099496D01*
X93159995Y-97000000D01*
X93159995Y-96700000D01*
X93140204Y-96600504D01*
X93083844Y-96516156D01*
X92999496Y-96459796D01*
X92950248Y-96450000D01*
X92999496Y-96440204D01*
X93083844Y-96383844D01*
X93140204Y-96299496D01*
X93159995Y-96200000D01*
X93159995Y-95900000D01*
X93140204Y-95800504D01*
X93083844Y-95716156D01*
X92999496Y-95659796D01*
X92950248Y-95650000D01*
X92999496Y-95640204D01*
X93083844Y-95583844D01*
X93140204Y-95499496D01*
X93159995Y-95400000D01*
X93159995Y-95100000D01*
X93140204Y-95000504D01*
X93083844Y-94916156D01*
X92999496Y-94859796D01*
X92950248Y-94850000D01*
X92999496Y-94840204D01*
X93083844Y-94783844D01*
X93140204Y-94699496D01*
X93159995Y-94600000D01*
X93159995Y-94300000D01*
X93140204Y-94200504D01*
X93083844Y-94116156D01*
X92999496Y-94059796D01*
X92950248Y-94050000D01*
X92999496Y-94040204D01*
X93083844Y-93983844D01*
X93140204Y-93899496D01*
X93159995Y-93800000D01*
X93159995Y-93527000D01*
X95840005Y-93527000D01*
X95840005Y-93800000D01*
D39*
G36*
X132536000Y-97983416D02*
X132051217Y-98856026D01*
X131079825Y-99536000D01*
X126524000Y-99536000D01*
X126524000Y-98949771D01*
X126514095Y-96176415D01*
X126558269Y-96132241D01*
X126784289Y-96132241D01*
X126744140Y-96192328D01*
X126729239Y-96267242D01*
X126729239Y-97067242D01*
X126744140Y-97142156D01*
X126786576Y-97205666D01*
X126850086Y-97248102D01*
X126925000Y-97263003D01*
X127675000Y-97263003D01*
X127749914Y-97248102D01*
X127813424Y-97205666D01*
X127855860Y-97142156D01*
X127863261Y-97104947D01*
X127961711Y-97039165D01*
X127975086Y-97048102D01*
X128050000Y-97063003D01*
X128950000Y-97063003D01*
X129024914Y-97048102D01*
X129071099Y-97017242D01*
X129854239Y-97017242D01*
X129854239Y-97817242D01*
X129869140Y-97892156D01*
X129911576Y-97955666D01*
X129975086Y-97998102D01*
X130050000Y-98013003D01*
X130950000Y-98013003D01*
X131024914Y-97998102D01*
X131088424Y-97955666D01*
X131130860Y-97892156D01*
X131145761Y-97817242D01*
X131145761Y-97650031D01*
X131247526Y-97548267D01*
X131334457Y-97635198D01*
X131489560Y-97699444D01*
X131657442Y-97699444D01*
X131812545Y-97635198D01*
X131931255Y-97516488D01*
X131995501Y-97361385D01*
X131995501Y-97263003D01*
X132075000Y-97263003D01*
X132149914Y-97248102D01*
X132213424Y-97205666D01*
X132255860Y-97142156D01*
X132270761Y-97067242D01*
X132270761Y-96267242D01*
X132255860Y-96192328D01*
X132213424Y-96128818D01*
X132149914Y-96086382D01*
X132075000Y-96071481D01*
X131325000Y-96071481D01*
X131250086Y-96086382D01*
X131186576Y-96128818D01*
X131144140Y-96192328D01*
X131129239Y-96267242D01*
X131129239Y-96278324D01*
X131078046Y-96312530D01*
X131050599Y-96353608D01*
X130582727Y-96821481D01*
X130050000Y-96821481D01*
X129975086Y-96836382D01*
X129911576Y-96878818D01*
X129869140Y-96942328D01*
X129854239Y-97017242D01*
X129071099Y-97017242D01*
X129088424Y-97005666D01*
X129130860Y-96942156D01*
X129145761Y-96867242D01*
X129145761Y-96823982D01*
X129223061Y-96856001D01*
X129390943Y-96856001D01*
X129546046Y-96791755D01*
X129664756Y-96673045D01*
X129729002Y-96517942D01*
X129729002Y-96350060D01*
X129695426Y-96269001D01*
X130237922Y-96269001D01*
X130271601Y-96275700D01*
X130305280Y-96269001D01*
X130305285Y-96269001D01*
X130405043Y-96249158D01*
X130518169Y-96173569D01*
X130537251Y-96145011D01*
X130618262Y-96064000D01*
X132536000Y-96064000D01*
X132536000Y-97983416D01*
X132536000Y-97983416D01*
G37*
X132536000Y-97983416D02*
X132051217Y-98856026D01*
X131079825Y-99536000D01*
X126524000Y-99536000D01*
X126524000Y-98949771D01*
X126514095Y-96176415D01*
X126558269Y-96132241D01*
X126784289Y-96132241D01*
X126744140Y-96192328D01*
X126729239Y-96267242D01*
X126729239Y-97067242D01*
X126744140Y-97142156D01*
X126786576Y-97205666D01*
X126850086Y-97248102D01*
X126925000Y-97263003D01*
X127675000Y-97263003D01*
X127749914Y-97248102D01*
X127813424Y-97205666D01*
X127855860Y-97142156D01*
X127863261Y-97104947D01*
X127961711Y-97039165D01*
X127975086Y-97048102D01*
X128050000Y-97063003D01*
X128950000Y-97063003D01*
X129024914Y-97048102D01*
X129071099Y-97017242D01*
X129854239Y-97017242D01*
X129854239Y-97817242D01*
X129869140Y-97892156D01*
X129911576Y-97955666D01*
X129975086Y-97998102D01*
X130050000Y-98013003D01*
X130950000Y-98013003D01*
X131024914Y-97998102D01*
X131088424Y-97955666D01*
X131130860Y-97892156D01*
X131145761Y-97817242D01*
X131145761Y-97650031D01*
X131247526Y-97548267D01*
X131334457Y-97635198D01*
X131489560Y-97699444D01*
X131657442Y-97699444D01*
X131812545Y-97635198D01*
X131931255Y-97516488D01*
X131995501Y-97361385D01*
X131995501Y-97263003D01*
X132075000Y-97263003D01*
X132149914Y-97248102D01*
X132213424Y-97205666D01*
X132255860Y-97142156D01*
X132270761Y-97067242D01*
X132270761Y-96267242D01*
X132255860Y-96192328D01*
X132213424Y-96128818D01*
X132149914Y-96086382D01*
X132075000Y-96071481D01*
X131325000Y-96071481D01*
X131250086Y-96086382D01*
X131186576Y-96128818D01*
X131144140Y-96192328D01*
X131129239Y-96267242D01*
X131129239Y-96278324D01*
X131078046Y-96312530D01*
X131050599Y-96353608D01*
X130582727Y-96821481D01*
X130050000Y-96821481D01*
X129975086Y-96836382D01*
X129911576Y-96878818D01*
X129869140Y-96942328D01*
X129854239Y-97017242D01*
X129071099Y-97017242D01*
X129088424Y-97005666D01*
X129130860Y-96942156D01*
X129145761Y-96867242D01*
X129145761Y-96823982D01*
X129223061Y-96856001D01*
X129390943Y-96856001D01*
X129546046Y-96791755D01*
X129664756Y-96673045D01*
X129729002Y-96517942D01*
X129729002Y-96350060D01*
X129695426Y-96269001D01*
X130237922Y-96269001D01*
X130271601Y-96275700D01*
X130305280Y-96269001D01*
X130305285Y-96269001D01*
X130405043Y-96249158D01*
X130518169Y-96173569D01*
X130537251Y-96145011D01*
X130618262Y-96064000D01*
X132536000Y-96064000D01*
X132536000Y-97983416D01*
G36*
X122829272Y-93173930D02*
X122742246Y-93260956D01*
X122678000Y-93416059D01*
X122678000Y-93583941D01*
X122742246Y-93739044D01*
X122860956Y-93857754D01*
X123016059Y-93922000D01*
X123183941Y-93922000D01*
X123286000Y-93879726D01*
X123286000Y-95070999D01*
X123125799Y-95070999D01*
X123157754Y-95039044D01*
X123222000Y-94883941D01*
X123222000Y-94716059D01*
X123157754Y-94560956D01*
X123039044Y-94442246D01*
X122883941Y-94378000D01*
X122716059Y-94378000D01*
X122560956Y-94442246D01*
X122545202Y-94458000D01*
X121182919Y-94458000D01*
X121149239Y-94451301D01*
X121115560Y-94458000D01*
X121115556Y-94458000D01*
X121015798Y-94477843D01*
X120902672Y-94553432D01*
X120883592Y-94581987D01*
X119993080Y-95472500D01*
X119993080Y-95218214D01*
X120139044Y-95157754D01*
X120257754Y-95039044D01*
X120322000Y-94883941D01*
X120322000Y-94716059D01*
X120257754Y-94560956D01*
X120139044Y-94442246D01*
X119983941Y-94378000D01*
X119816059Y-94378000D01*
X119660956Y-94442246D01*
X119542246Y-94560956D01*
X119492700Y-94680570D01*
X119492700Y-93416059D01*
X119778000Y-93416059D01*
X119778000Y-93583941D01*
X119842246Y-93739044D01*
X119960956Y-93857754D01*
X120116059Y-93922000D01*
X120283941Y-93922000D01*
X120439044Y-93857754D01*
X120557754Y-93739044D01*
X120622000Y-93583941D01*
X120622000Y-93416059D01*
X120622000Y-93416058D01*
X121028000Y-93416058D01*
X121028000Y-93583940D01*
X121092246Y-93739043D01*
X121210956Y-93857753D01*
X121366059Y-93921999D01*
X121533941Y-93921999D01*
X121689044Y-93857753D01*
X121807754Y-93739043D01*
X121872000Y-93583940D01*
X121872000Y-93416058D01*
X121807754Y-93260955D01*
X121689044Y-93142245D01*
X121533941Y-93077999D01*
X121366059Y-93077999D01*
X121210956Y-93142245D01*
X121092246Y-93260955D01*
X121028000Y-93416058D01*
X120622000Y-93416058D01*
X120557754Y-93260956D01*
X120439044Y-93142246D01*
X120283941Y-93078000D01*
X120116059Y-93078000D01*
X119960956Y-93142246D01*
X119842246Y-93260956D01*
X119778000Y-93416059D01*
X119492700Y-93416059D01*
X119492700Y-93334016D01*
X119499399Y-93300337D01*
X119492700Y-93266657D01*
X119492700Y-93266653D01*
X119472857Y-93166895D01*
X119455928Y-93141559D01*
X119416348Y-93082324D01*
X119416346Y-93082322D01*
X119397267Y-93053769D01*
X119368715Y-93034691D01*
X119109011Y-92774988D01*
X119089929Y-92746430D01*
X118976803Y-92670841D01*
X118877045Y-92650998D01*
X118877040Y-92650998D01*
X118843361Y-92644299D01*
X118809682Y-92650998D01*
X118390316Y-92650998D01*
X118356638Y-92644299D01*
X118322960Y-92650998D01*
X118322955Y-92650998D01*
X118223197Y-92670841D01*
X118110071Y-92746430D01*
X118090991Y-92774985D01*
X117874987Y-92990990D01*
X117846432Y-93010070D01*
X117770842Y-93123196D01*
X117750999Y-93222954D01*
X117750999Y-93222959D01*
X117745816Y-93249018D01*
X117639044Y-93142246D01*
X117483941Y-93078000D01*
X117316059Y-93078000D01*
X117160956Y-93142246D01*
X117042246Y-93260956D01*
X116978000Y-93416059D01*
X116978000Y-93583941D01*
X117042246Y-93739044D01*
X117160956Y-93857754D01*
X117316059Y-93922000D01*
X117444352Y-93922000D01*
X117444352Y-93971987D01*
X117038340Y-94378000D01*
X117016059Y-94378000D01*
X116860956Y-94442246D01*
X116742246Y-94560956D01*
X116678000Y-94716059D01*
X116678000Y-94883941D01*
X116742246Y-95039044D01*
X116860956Y-95157754D01*
X117016059Y-95222000D01*
X117183941Y-95222000D01*
X117339044Y-95157754D01*
X117457754Y-95039044D01*
X117522000Y-94883941D01*
X117522000Y-94861660D01*
X118004367Y-94379294D01*
X118032919Y-94360216D01*
X118051998Y-94331663D01*
X118052000Y-94331661D01*
X118102718Y-94255756D01*
X118108509Y-94247090D01*
X118128352Y-94147332D01*
X118128352Y-94147327D01*
X118135051Y-94113649D01*
X118128352Y-94079971D01*
X118128352Y-93973754D01*
X118311014Y-93791093D01*
X118339566Y-93772015D01*
X118358645Y-93743462D01*
X118358647Y-93743460D01*
X118382850Y-93707237D01*
X118415156Y-93658889D01*
X118434999Y-93559131D01*
X118434999Y-93559126D01*
X118441698Y-93525448D01*
X118434999Y-93491770D01*
X118434999Y-93403989D01*
X118503991Y-93334998D01*
X118696010Y-93334998D01*
X118808700Y-93447688D01*
X118808701Y-95766632D01*
X118808700Y-95766637D01*
X118808700Y-95906226D01*
X118800320Y-95904559D01*
X118500320Y-95904559D01*
X118425406Y-95919460D01*
X118361896Y-95961896D01*
X118319460Y-96025406D01*
X118304559Y-96100320D01*
X118304559Y-97400800D01*
X118319460Y-97475714D01*
X118361896Y-97539224D01*
X118396715Y-97562490D01*
X118409645Y-97627490D01*
X118451862Y-97690673D01*
X118451864Y-97690675D01*
X118466116Y-97712005D01*
X118487446Y-97726257D01*
X118515362Y-97754173D01*
X118529616Y-97775506D01*
X118614130Y-97831976D01*
X118688659Y-97846801D01*
X118688660Y-97846801D01*
X118713821Y-97851806D01*
X118738982Y-97846801D01*
X119226675Y-97846801D01*
X119288826Y-97996846D01*
X119407536Y-98115556D01*
X119562639Y-98179802D01*
X119730521Y-98179802D01*
X119885624Y-98115556D01*
X120004334Y-97996846D01*
X120068580Y-97841743D01*
X120068580Y-97673861D01*
X120036561Y-97596561D01*
X120298920Y-97596561D01*
X120373834Y-97581660D01*
X120399110Y-97564771D01*
X120424386Y-97581660D01*
X120499300Y-97596561D01*
X120799300Y-97596561D01*
X120807680Y-97594894D01*
X120807680Y-97723639D01*
X120807681Y-98172999D01*
X120800981Y-98206683D01*
X120827523Y-98340124D01*
X120873901Y-98409532D01*
X120903113Y-98453251D01*
X120920998Y-98465201D01*
X120920998Y-98483942D01*
X120985244Y-98639045D01*
X121103954Y-98757755D01*
X121224992Y-98807891D01*
X121235105Y-99536000D01*
X115064000Y-99536000D01*
X115064000Y-95784386D01*
X115677224Y-95784386D01*
X115677224Y-95952268D01*
X115741470Y-96107371D01*
X115805199Y-96171100D01*
X115805199Y-97400800D01*
X115820100Y-97475714D01*
X115862536Y-97539224D01*
X115926046Y-97581660D01*
X116000960Y-97596561D01*
X116300960Y-97596561D01*
X116375874Y-97581660D01*
X116399880Y-97565620D01*
X116423886Y-97581660D01*
X116498800Y-97596561D01*
X116798800Y-97596561D01*
X116873714Y-97581660D01*
X116898990Y-97564771D01*
X116924266Y-97581660D01*
X116999180Y-97596561D01*
X117219977Y-97596561D01*
X117219293Y-97600000D01*
X117228001Y-97643776D01*
X117228001Y-97929239D01*
X116829495Y-97929239D01*
X116809905Y-97916150D01*
X116807754Y-97910956D01*
X116689044Y-97792246D01*
X116533941Y-97728000D01*
X116366059Y-97728000D01*
X116210956Y-97792246D01*
X116092246Y-97910956D01*
X116028000Y-98066059D01*
X116028000Y-98233941D01*
X116092246Y-98389044D01*
X116210956Y-98507754D01*
X116366059Y-98572000D01*
X116454239Y-98572000D01*
X116454239Y-98875000D01*
X116469140Y-98949914D01*
X116511576Y-99013424D01*
X116575086Y-99055860D01*
X116650000Y-99070761D01*
X117450000Y-99070761D01*
X117524914Y-99055860D01*
X117588424Y-99013424D01*
X117602739Y-98992000D01*
X117697261Y-98992000D01*
X117711576Y-99013424D01*
X117775086Y-99055860D01*
X117850000Y-99070761D01*
X118650000Y-99070761D01*
X118724914Y-99055860D01*
X118788424Y-99013424D01*
X118830860Y-98949914D01*
X118845761Y-98875000D01*
X118845761Y-98125000D01*
X118830860Y-98050086D01*
X118788424Y-97986576D01*
X118724914Y-97944140D01*
X118650000Y-97929239D01*
X118072000Y-97929239D01*
X118072000Y-97641999D01*
X118080267Y-97600439D01*
X118070823Y-97552962D01*
X118047515Y-97435784D01*
X117995321Y-97357670D01*
X117995321Y-96100320D01*
X117980420Y-96025406D01*
X117937984Y-95961896D01*
X117874474Y-95919460D01*
X117799560Y-95904559D01*
X117605076Y-95904559D01*
X117605076Y-95778859D01*
X117540830Y-95623756D01*
X117422120Y-95505046D01*
X117267017Y-95440800D01*
X117099135Y-95440800D01*
X117026688Y-95470809D01*
X116997754Y-95400956D01*
X116879044Y-95282246D01*
X116723941Y-95218000D01*
X116556059Y-95218000D01*
X116400956Y-95282246D01*
X116282246Y-95400956D01*
X116251695Y-95474713D01*
X116183165Y-95446327D01*
X116015283Y-95446327D01*
X115860180Y-95510573D01*
X115741470Y-95629283D01*
X115677224Y-95784386D01*
X115064000Y-95784386D01*
X115064000Y-95714000D01*
X115250000Y-95714000D01*
X115274492Y-95709128D01*
X115295255Y-95695255D01*
X115545255Y-95445255D01*
X115559128Y-95424492D01*
X115564000Y-95400000D01*
X115564000Y-94257439D01*
X115576313Y-94254990D01*
X116056714Y-94254990D01*
X116098274Y-94263257D01*
X116139834Y-94254990D01*
X116139835Y-94254990D01*
X116262930Y-94230505D01*
X116402519Y-94137235D01*
X116426064Y-94101997D01*
X116672523Y-93855538D01*
X116707759Y-93831995D01*
X116801029Y-93692406D01*
X116825514Y-93569311D01*
X116825514Y-93569310D01*
X116833781Y-93527750D01*
X116825514Y-93486189D01*
X116825514Y-92981283D01*
X117184798Y-92622000D01*
X122030904Y-92622000D01*
X122829272Y-93173930D01*
X122829272Y-93173930D01*
G37*
X122829272Y-93173930D02*
X122742246Y-93260956D01*
X122678000Y-93416059D01*
X122678000Y-93583941D01*
X122742246Y-93739044D01*
X122860956Y-93857754D01*
X123016059Y-93922000D01*
X123183941Y-93922000D01*
X123286000Y-93879726D01*
X123286000Y-95070999D01*
X123125799Y-95070999D01*
X123157754Y-95039044D01*
X123222000Y-94883941D01*
X123222000Y-94716059D01*
X123157754Y-94560956D01*
X123039044Y-94442246D01*
X122883941Y-94378000D01*
X122716059Y-94378000D01*
X122560956Y-94442246D01*
X122545202Y-94458000D01*
X121182919Y-94458000D01*
X121149239Y-94451301D01*
X121115560Y-94458000D01*
X121115556Y-94458000D01*
X121015798Y-94477843D01*
X120902672Y-94553432D01*
X120883592Y-94581987D01*
X119993080Y-95472500D01*
X119993080Y-95218214D01*
X120139044Y-95157754D01*
X120257754Y-95039044D01*
X120322000Y-94883941D01*
X120322000Y-94716059D01*
X120257754Y-94560956D01*
X120139044Y-94442246D01*
X119983941Y-94378000D01*
X119816059Y-94378000D01*
X119660956Y-94442246D01*
X119542246Y-94560956D01*
X119492700Y-94680570D01*
X119492700Y-93416059D01*
X119778000Y-93416059D01*
X119778000Y-93583941D01*
X119842246Y-93739044D01*
X119960956Y-93857754D01*
X120116059Y-93922000D01*
X120283941Y-93922000D01*
X120439044Y-93857754D01*
X120557754Y-93739044D01*
X120622000Y-93583941D01*
X120622000Y-93416059D01*
X120622000Y-93416058D01*
X121028000Y-93416058D01*
X121028000Y-93583940D01*
X121092246Y-93739043D01*
X121210956Y-93857753D01*
X121366059Y-93921999D01*
X121533941Y-93921999D01*
X121689044Y-93857753D01*
X121807754Y-93739043D01*
X121872000Y-93583940D01*
X121872000Y-93416058D01*
X121807754Y-93260955D01*
X121689044Y-93142245D01*
X121533941Y-93077999D01*
X121366059Y-93077999D01*
X121210956Y-93142245D01*
X121092246Y-93260955D01*
X121028000Y-93416058D01*
X120622000Y-93416058D01*
X120557754Y-93260956D01*
X120439044Y-93142246D01*
X120283941Y-93078000D01*
X120116059Y-93078000D01*
X119960956Y-93142246D01*
X119842246Y-93260956D01*
X119778000Y-93416059D01*
X119492700Y-93416059D01*
X119492700Y-93334016D01*
X119499399Y-93300337D01*
X119492700Y-93266657D01*
X119492700Y-93266653D01*
X119472857Y-93166895D01*
X119455928Y-93141559D01*
X119416348Y-93082324D01*
X119416346Y-93082322D01*
X119397267Y-93053769D01*
X119368715Y-93034691D01*
X119109011Y-92774988D01*
X119089929Y-92746430D01*
X118976803Y-92670841D01*
X118877045Y-92650998D01*
X118877040Y-92650998D01*
X118843361Y-92644299D01*
X118809682Y-92650998D01*
X118390316Y-92650998D01*
X118356638Y-92644299D01*
X118322960Y-92650998D01*
X118322955Y-92650998D01*
X118223197Y-92670841D01*
X118110071Y-92746430D01*
X118090991Y-92774985D01*
X117874987Y-92990990D01*
X117846432Y-93010070D01*
X117770842Y-93123196D01*
X117750999Y-93222954D01*
X117750999Y-93222959D01*
X117745816Y-93249018D01*
X117639044Y-93142246D01*
X117483941Y-93078000D01*
X117316059Y-93078000D01*
X117160956Y-93142246D01*
X117042246Y-93260956D01*
X116978000Y-93416059D01*
X116978000Y-93583941D01*
X117042246Y-93739044D01*
X117160956Y-93857754D01*
X117316059Y-93922000D01*
X117444352Y-93922000D01*
X117444352Y-93971987D01*
X117038340Y-94378000D01*
X117016059Y-94378000D01*
X116860956Y-94442246D01*
X116742246Y-94560956D01*
X116678000Y-94716059D01*
X116678000Y-94883941D01*
X116742246Y-95039044D01*
X116860956Y-95157754D01*
X117016059Y-95222000D01*
X117183941Y-95222000D01*
X117339044Y-95157754D01*
X117457754Y-95039044D01*
X117522000Y-94883941D01*
X117522000Y-94861660D01*
X118004367Y-94379294D01*
X118032919Y-94360216D01*
X118051998Y-94331663D01*
X118052000Y-94331661D01*
X118102718Y-94255756D01*
X118108509Y-94247090D01*
X118128352Y-94147332D01*
X118128352Y-94147327D01*
X118135051Y-94113649D01*
X118128352Y-94079971D01*
X118128352Y-93973754D01*
X118311014Y-93791093D01*
X118339566Y-93772015D01*
X118358645Y-93743462D01*
X118358647Y-93743460D01*
X118382850Y-93707237D01*
X118415156Y-93658889D01*
X118434999Y-93559131D01*
X118434999Y-93559126D01*
X118441698Y-93525448D01*
X118434999Y-93491770D01*
X118434999Y-93403989D01*
X118503991Y-93334998D01*
X118696010Y-93334998D01*
X118808700Y-93447688D01*
X118808701Y-95766632D01*
X118808700Y-95766637D01*
X118808700Y-95906226D01*
X118800320Y-95904559D01*
X118500320Y-95904559D01*
X118425406Y-95919460D01*
X118361896Y-95961896D01*
X118319460Y-96025406D01*
X118304559Y-96100320D01*
X118304559Y-97400800D01*
X118319460Y-97475714D01*
X118361896Y-97539224D01*
X118396715Y-97562490D01*
X118409645Y-97627490D01*
X118451862Y-97690673D01*
X118451864Y-97690675D01*
X118466116Y-97712005D01*
X118487446Y-97726257D01*
X118515362Y-97754173D01*
X118529616Y-97775506D01*
X118614130Y-97831976D01*
X118688659Y-97846801D01*
X118688660Y-97846801D01*
X118713821Y-97851806D01*
X118738982Y-97846801D01*
X119226675Y-97846801D01*
X119288826Y-97996846D01*
X119407536Y-98115556D01*
X119562639Y-98179802D01*
X119730521Y-98179802D01*
X119885624Y-98115556D01*
X120004334Y-97996846D01*
X120068580Y-97841743D01*
X120068580Y-97673861D01*
X120036561Y-97596561D01*
X120298920Y-97596561D01*
X120373834Y-97581660D01*
X120399110Y-97564771D01*
X120424386Y-97581660D01*
X120499300Y-97596561D01*
X120799300Y-97596561D01*
X120807680Y-97594894D01*
X120807680Y-97723639D01*
X120807681Y-98172999D01*
X120800981Y-98206683D01*
X120827523Y-98340124D01*
X120873901Y-98409532D01*
X120903113Y-98453251D01*
X120920998Y-98465201D01*
X120920998Y-98483942D01*
X120985244Y-98639045D01*
X121103954Y-98757755D01*
X121224992Y-98807891D01*
X121235105Y-99536000D01*
X115064000Y-99536000D01*
X115064000Y-95784386D01*
X115677224Y-95784386D01*
X115677224Y-95952268D01*
X115741470Y-96107371D01*
X115805199Y-96171100D01*
X115805199Y-97400800D01*
X115820100Y-97475714D01*
X115862536Y-97539224D01*
X115926046Y-97581660D01*
X116000960Y-97596561D01*
X116300960Y-97596561D01*
X116375874Y-97581660D01*
X116399880Y-97565620D01*
X116423886Y-97581660D01*
X116498800Y-97596561D01*
X116798800Y-97596561D01*
X116873714Y-97581660D01*
X116898990Y-97564771D01*
X116924266Y-97581660D01*
X116999180Y-97596561D01*
X117219977Y-97596561D01*
X117219293Y-97600000D01*
X117228001Y-97643776D01*
X117228001Y-97929239D01*
X116829495Y-97929239D01*
X116809905Y-97916150D01*
X116807754Y-97910956D01*
X116689044Y-97792246D01*
X116533941Y-97728000D01*
X116366059Y-97728000D01*
X116210956Y-97792246D01*
X116092246Y-97910956D01*
X116028000Y-98066059D01*
X116028000Y-98233941D01*
X116092246Y-98389044D01*
X116210956Y-98507754D01*
X116366059Y-98572000D01*
X116454239Y-98572000D01*
X116454239Y-98875000D01*
X116469140Y-98949914D01*
X116511576Y-99013424D01*
X116575086Y-99055860D01*
X116650000Y-99070761D01*
X117450000Y-99070761D01*
X117524914Y-99055860D01*
X117588424Y-99013424D01*
X117602739Y-98992000D01*
X117697261Y-98992000D01*
X117711576Y-99013424D01*
X117775086Y-99055860D01*
X117850000Y-99070761D01*
X118650000Y-99070761D01*
X118724914Y-99055860D01*
X118788424Y-99013424D01*
X118830860Y-98949914D01*
X118845761Y-98875000D01*
X118845761Y-98125000D01*
X118830860Y-98050086D01*
X118788424Y-97986576D01*
X118724914Y-97944140D01*
X118650000Y-97929239D01*
X118072000Y-97929239D01*
X118072000Y-97641999D01*
X118080267Y-97600439D01*
X118070823Y-97552962D01*
X118047515Y-97435784D01*
X117995321Y-97357670D01*
X117995321Y-96100320D01*
X117980420Y-96025406D01*
X117937984Y-95961896D01*
X117874474Y-95919460D01*
X117799560Y-95904559D01*
X117605076Y-95904559D01*
X117605076Y-95778859D01*
X117540830Y-95623756D01*
X117422120Y-95505046D01*
X117267017Y-95440800D01*
X117099135Y-95440800D01*
X117026688Y-95470809D01*
X116997754Y-95400956D01*
X116879044Y-95282246D01*
X116723941Y-95218000D01*
X116556059Y-95218000D01*
X116400956Y-95282246D01*
X116282246Y-95400956D01*
X116251695Y-95474713D01*
X116183165Y-95446327D01*
X116015283Y-95446327D01*
X115860180Y-95510573D01*
X115741470Y-95629283D01*
X115677224Y-95784386D01*
X115064000Y-95784386D01*
X115064000Y-95714000D01*
X115250000Y-95714000D01*
X115274492Y-95709128D01*
X115295255Y-95695255D01*
X115545255Y-95445255D01*
X115559128Y-95424492D01*
X115564000Y-95400000D01*
X115564000Y-94257439D01*
X115576313Y-94254990D01*
X116056714Y-94254990D01*
X116098274Y-94263257D01*
X116139834Y-94254990D01*
X116139835Y-94254990D01*
X116262930Y-94230505D01*
X116402519Y-94137235D01*
X116426064Y-94101997D01*
X116672523Y-93855538D01*
X116707759Y-93831995D01*
X116801029Y-93692406D01*
X116825514Y-93569311D01*
X116825514Y-93569310D01*
X116833781Y-93527750D01*
X116825514Y-93486189D01*
X116825514Y-92981283D01*
X117184798Y-92622000D01*
X122030904Y-92622000D01*
X122829272Y-93173930D01*
G36*
X126236000Y-99536000D02*
X121564000Y-99536000D01*
X121564000Y-98765228D01*
X121582042Y-98757755D01*
X121700752Y-98639045D01*
X121764998Y-98483942D01*
X121764998Y-98316060D01*
X121700752Y-98160957D01*
X121582042Y-98042247D01*
X121564000Y-98034774D01*
X121564000Y-97847660D01*
X121692154Y-97975815D01*
X121711234Y-98004370D01*
X121824360Y-98079959D01*
X121924118Y-98099802D01*
X121924122Y-98099802D01*
X121957802Y-98106501D01*
X121991481Y-98099802D01*
X122492706Y-98099802D01*
X122508460Y-98115556D01*
X122663563Y-98179802D01*
X122831445Y-98179802D01*
X122986548Y-98115556D01*
X123010977Y-98091127D01*
X123004239Y-98125000D01*
X123004239Y-98875000D01*
X123019140Y-98949914D01*
X123061576Y-99013424D01*
X123125086Y-99055860D01*
X123200000Y-99070761D01*
X124000000Y-99070761D01*
X124074914Y-99055860D01*
X124138424Y-99013424D01*
X124180860Y-98949914D01*
X124195761Y-98875000D01*
X124195761Y-98392122D01*
X124291969Y-98372985D01*
X124454712Y-98264244D01*
X124563453Y-98101501D01*
X124601638Y-97909532D01*
X124598655Y-97894537D01*
X124678194Y-97814999D01*
X125683242Y-97814999D01*
X125708403Y-97820004D01*
X125733565Y-97814999D01*
X125916924Y-97814999D01*
X125950603Y-97821698D01*
X125984282Y-97814999D01*
X125984287Y-97814999D01*
X126084045Y-97795156D01*
X126197171Y-97719567D01*
X126216253Y-97691009D01*
X126236000Y-97671262D01*
X126236000Y-99536000D01*
X126236000Y-99536000D01*
G37*
X126236000Y-99536000D02*
X121564000Y-99536000D01*
X121564000Y-98765228D01*
X121582042Y-98757755D01*
X121700752Y-98639045D01*
X121764998Y-98483942D01*
X121764998Y-98316060D01*
X121700752Y-98160957D01*
X121582042Y-98042247D01*
X121564000Y-98034774D01*
X121564000Y-97847660D01*
X121692154Y-97975815D01*
X121711234Y-98004370D01*
X121824360Y-98079959D01*
X121924118Y-98099802D01*
X121924122Y-98099802D01*
X121957802Y-98106501D01*
X121991481Y-98099802D01*
X122492706Y-98099802D01*
X122508460Y-98115556D01*
X122663563Y-98179802D01*
X122831445Y-98179802D01*
X122986548Y-98115556D01*
X123010977Y-98091127D01*
X123004239Y-98125000D01*
X123004239Y-98875000D01*
X123019140Y-98949914D01*
X123061576Y-99013424D01*
X123125086Y-99055860D01*
X123200000Y-99070761D01*
X124000000Y-99070761D01*
X124074914Y-99055860D01*
X124138424Y-99013424D01*
X124180860Y-98949914D01*
X124195761Y-98875000D01*
X124195761Y-98392122D01*
X124291969Y-98372985D01*
X124454712Y-98264244D01*
X124563453Y-98101501D01*
X124601638Y-97909532D01*
X124598655Y-97894537D01*
X124678194Y-97814999D01*
X125683242Y-97814999D01*
X125708403Y-97820004D01*
X125733565Y-97814999D01*
X125916924Y-97814999D01*
X125950603Y-97821698D01*
X125984282Y-97814999D01*
X125984287Y-97814999D01*
X126084045Y-97795156D01*
X126197171Y-97719567D01*
X126216253Y-97691009D01*
X126236000Y-97671262D01*
X126236000Y-99536000D01*
D38*
G36*
X118890994Y-82553527D02*
X118890994Y-82746473D01*
X118964831Y-82924731D01*
X118970994Y-82930894D01*
X118970994Y-83015155D01*
X118970995Y-83015160D01*
X118970994Y-83644789D01*
X118963061Y-83684672D01*
X118970994Y-83724555D01*
X118970994Y-83724558D01*
X118994493Y-83842694D01*
X119084006Y-83976660D01*
X119117822Y-83999255D01*
X119464956Y-84346390D01*
X119401584Y-84358996D01*
X119400890Y-84359460D01*
X119400196Y-84358996D01*
X119300700Y-84339205D01*
X119000700Y-84339205D01*
X118901204Y-84358996D01*
X118900510Y-84359460D01*
X118899816Y-84358996D01*
X118800320Y-84339205D01*
X118500320Y-84339205D01*
X118400824Y-84358996D01*
X118400130Y-84359460D01*
X118399436Y-84358996D01*
X118299940Y-84339205D01*
X118054560Y-84339205D01*
X118054560Y-83459943D01*
X118062493Y-83420060D01*
X118054560Y-83380177D01*
X118054560Y-83380173D01*
X118031061Y-83262037D01*
X117985000Y-83193102D01*
X117985000Y-83174027D01*
X117911163Y-82995769D01*
X117774731Y-82859337D01*
X117596473Y-82785500D01*
X117403527Y-82785500D01*
X117225269Y-82859337D01*
X117088837Y-82995769D01*
X117015000Y-83174027D01*
X117015000Y-83366973D01*
X117088837Y-83545231D01*
X117225269Y-83681663D01*
X117244561Y-83689654D01*
X117244560Y-84339205D01*
X117053800Y-84339205D01*
X117053800Y-84154205D01*
X117061733Y-84114322D01*
X117053800Y-84074439D01*
X117053800Y-84074435D01*
X117030301Y-83956299D01*
X116992890Y-83900310D01*
X116963382Y-83856148D01*
X116940788Y-83822334D01*
X116906974Y-83799741D01*
X116797998Y-83690764D01*
X116797998Y-83682047D01*
X116724161Y-83503789D01*
X116587729Y-83367357D01*
X116409471Y-83293520D01*
X116216525Y-83293520D01*
X116038267Y-83367357D01*
X115901835Y-83503789D01*
X115827998Y-83682047D01*
X115827998Y-83874993D01*
X115901835Y-84053251D01*
X116038267Y-84189683D01*
X116216525Y-84263520D01*
X116225242Y-84263520D01*
X116243800Y-84282078D01*
X116243800Y-84339205D01*
X116000960Y-84339205D01*
X115901464Y-84358996D01*
X115817116Y-84415356D01*
X115760756Y-84499704D01*
X115740965Y-84599200D01*
X115740965Y-85899680D01*
X115760756Y-85999176D01*
X115817116Y-86083524D01*
X115901464Y-86139884D01*
X116000960Y-86159675D01*
X116300960Y-86159675D01*
X116399880Y-86139999D01*
X116498800Y-86159675D01*
X116744180Y-86159675D01*
X116744180Y-86251150D01*
X116574697Y-86321352D01*
X116438265Y-86457784D01*
X116364428Y-86636042D01*
X116364428Y-86828988D01*
X116438265Y-87007246D01*
X116574697Y-87143678D01*
X116707744Y-87198788D01*
X116707744Y-87361258D01*
X116700133Y-87349867D01*
X116516550Y-87227202D01*
X116354662Y-87195000D01*
X116302251Y-87195000D01*
X115846459Y-86739209D01*
X115815494Y-86692866D01*
X115631911Y-86570201D01*
X115470023Y-86537999D01*
X115470021Y-86537999D01*
X115415361Y-86527126D01*
X115360701Y-86537999D01*
X114945338Y-86537999D01*
X114783450Y-86570201D01*
X114599867Y-86692866D01*
X114500911Y-86840965D01*
X113499200Y-86840965D01*
X113399704Y-86860756D01*
X113315356Y-86917116D01*
X113258996Y-87001464D01*
X113239205Y-87100960D01*
X113239205Y-87400960D01*
X113258881Y-87499880D01*
X113239205Y-87598800D01*
X113239205Y-87693525D01*
X113180907Y-87693525D01*
X113159995Y-87702187D01*
X113159995Y-86650000D01*
X113140204Y-86550504D01*
X113083844Y-86466156D01*
X112999496Y-86409796D01*
X112900000Y-86390005D01*
X111700000Y-86390005D01*
X111600504Y-86409796D01*
X111516156Y-86466156D01*
X111459796Y-86550504D01*
X111440005Y-86650000D01*
X111440005Y-87850000D01*
X111459796Y-87949496D01*
X111493542Y-88000000D01*
X111459796Y-88050504D01*
X111440005Y-88150000D01*
X111440005Y-89350000D01*
X111459796Y-89449496D01*
X111493542Y-89500000D01*
X111459796Y-89550504D01*
X111440005Y-89650000D01*
X111440005Y-90850000D01*
X111459796Y-90949496D01*
X111493542Y-91000000D01*
X111459796Y-91050504D01*
X111440005Y-91150000D01*
X111440005Y-92350000D01*
X111459796Y-92449496D01*
X111493542Y-92500000D01*
X111459796Y-92550504D01*
X111440005Y-92650000D01*
X111440005Y-93850000D01*
X111446200Y-93881145D01*
X111432667Y-93901399D01*
X111423000Y-93950000D01*
X111423000Y-95500000D01*
X111432667Y-95548601D01*
X111460197Y-95589803D01*
X111501399Y-95617333D01*
X111550000Y-95627000D01*
X113050000Y-95627000D01*
X113098601Y-95617333D01*
X113139803Y-95589803D01*
X113167333Y-95548601D01*
X113177000Y-95500000D01*
X113177000Y-95235000D01*
X113353475Y-95235000D01*
X113531733Y-95161163D01*
X113533861Y-95159035D01*
X114128883Y-95159035D01*
X114148480Y-95162933D01*
X114168077Y-95159035D01*
X114799680Y-95159035D01*
X114899176Y-95139244D01*
X114983524Y-95082884D01*
X115039884Y-94998536D01*
X115059675Y-94899040D01*
X115059675Y-94599040D01*
X115039884Y-94499544D01*
X114983524Y-94415196D01*
X114899176Y-94358836D01*
X114799680Y-94339045D01*
X114164211Y-94339045D01*
X114149440Y-94336107D01*
X114134669Y-94339045D01*
X113531941Y-94339045D01*
X113531733Y-94338837D01*
X113353475Y-94265000D01*
X113177000Y-94265000D01*
X113177000Y-93950000D01*
X113167333Y-93901399D01*
X113153800Y-93881145D01*
X113159995Y-93850000D01*
X113159995Y-92650000D01*
X113140204Y-92550504D01*
X113106458Y-92500000D01*
X113140204Y-92449496D01*
X113159995Y-92350000D01*
X113159995Y-91727779D01*
X113160529Y-91728000D01*
X113239205Y-91728000D01*
X113239205Y-91899300D01*
X113258996Y-91998796D01*
X113259460Y-91999490D01*
X113258996Y-92000184D01*
X113239205Y-92099680D01*
X113239205Y-92399680D01*
X113258996Y-92499176D01*
X113259460Y-92499870D01*
X113258996Y-92500564D01*
X113239205Y-92600060D01*
X113239205Y-92900060D01*
X113258996Y-92999556D01*
X113259460Y-93000250D01*
X113258996Y-93000944D01*
X113239205Y-93100440D01*
X113239205Y-93400440D01*
X113258996Y-93499936D01*
X113259460Y-93500630D01*
X113258996Y-93501324D01*
X113239205Y-93600820D01*
X113239205Y-93900820D01*
X113258996Y-94000316D01*
X113315356Y-94084664D01*
X113399704Y-94141024D01*
X113499200Y-94160815D01*
X114134669Y-94160815D01*
X114149440Y-94163753D01*
X114164211Y-94160815D01*
X114799680Y-94160815D01*
X114820733Y-94156627D01*
X114825269Y-94161163D01*
X114870272Y-94179804D01*
X114910763Y-94206859D01*
X114958525Y-94216360D01*
X115003527Y-94235000D01*
X115223000Y-94235000D01*
X115223000Y-95289076D01*
X115116543Y-95374499D01*
X114700457Y-95373001D01*
X114651822Y-95382493D01*
X114610197Y-95410197D01*
X114247394Y-95773000D01*
X111327000Y-95773000D01*
X111327000Y-86227000D01*
X114900000Y-86227000D01*
X114948601Y-86217333D01*
X114989803Y-86189803D01*
X115017333Y-86148601D01*
X115027000Y-86100000D01*
X115027000Y-82527000D01*
X118901982Y-82527000D01*
X118890994Y-82553527D01*
X118890994Y-82553527D01*
G37*
X118890994Y-82553527D02*
X118890994Y-82746473D01*
X118964831Y-82924731D01*
X118970994Y-82930894D01*
X118970994Y-83015155D01*
X118970995Y-83015160D01*
X118970994Y-83644789D01*
X118963061Y-83684672D01*
X118970994Y-83724555D01*
X118970994Y-83724558D01*
X118994493Y-83842694D01*
X119084006Y-83976660D01*
X119117822Y-83999255D01*
X119464956Y-84346390D01*
X119401584Y-84358996D01*
X119400890Y-84359460D01*
X119400196Y-84358996D01*
X119300700Y-84339205D01*
X119000700Y-84339205D01*
X118901204Y-84358996D01*
X118900510Y-84359460D01*
X118899816Y-84358996D01*
X118800320Y-84339205D01*
X118500320Y-84339205D01*
X118400824Y-84358996D01*
X118400130Y-84359460D01*
X118399436Y-84358996D01*
X118299940Y-84339205D01*
X118054560Y-84339205D01*
X118054560Y-83459943D01*
X118062493Y-83420060D01*
X118054560Y-83380177D01*
X118054560Y-83380173D01*
X118031061Y-83262037D01*
X117985000Y-83193102D01*
X117985000Y-83174027D01*
X117911163Y-82995769D01*
X117774731Y-82859337D01*
X117596473Y-82785500D01*
X117403527Y-82785500D01*
X117225269Y-82859337D01*
X117088837Y-82995769D01*
X117015000Y-83174027D01*
X117015000Y-83366973D01*
X117088837Y-83545231D01*
X117225269Y-83681663D01*
X117244561Y-83689654D01*
X117244560Y-84339205D01*
X117053800Y-84339205D01*
X117053800Y-84154205D01*
X117061733Y-84114322D01*
X117053800Y-84074439D01*
X117053800Y-84074435D01*
X117030301Y-83956299D01*
X116992890Y-83900310D01*
X116963382Y-83856148D01*
X116940788Y-83822334D01*
X116906974Y-83799741D01*
X116797998Y-83690764D01*
X116797998Y-83682047D01*
X116724161Y-83503789D01*
X116587729Y-83367357D01*
X116409471Y-83293520D01*
X116216525Y-83293520D01*
X116038267Y-83367357D01*
X115901835Y-83503789D01*
X115827998Y-83682047D01*
X115827998Y-83874993D01*
X115901835Y-84053251D01*
X116038267Y-84189683D01*
X116216525Y-84263520D01*
X116225242Y-84263520D01*
X116243800Y-84282078D01*
X116243800Y-84339205D01*
X116000960Y-84339205D01*
X115901464Y-84358996D01*
X115817116Y-84415356D01*
X115760756Y-84499704D01*
X115740965Y-84599200D01*
X115740965Y-85899680D01*
X115760756Y-85999176D01*
X115817116Y-86083524D01*
X115901464Y-86139884D01*
X116000960Y-86159675D01*
X116300960Y-86159675D01*
X116399880Y-86139999D01*
X116498800Y-86159675D01*
X116744180Y-86159675D01*
X116744180Y-86251150D01*
X116574697Y-86321352D01*
X116438265Y-86457784D01*
X116364428Y-86636042D01*
X116364428Y-86828988D01*
X116438265Y-87007246D01*
X116574697Y-87143678D01*
X116707744Y-87198788D01*
X116707744Y-87361258D01*
X116700133Y-87349867D01*
X116516550Y-87227202D01*
X116354662Y-87195000D01*
X116302251Y-87195000D01*
X115846459Y-86739209D01*
X115815494Y-86692866D01*
X115631911Y-86570201D01*
X115470023Y-86537999D01*
X115470021Y-86537999D01*
X115415361Y-86527126D01*
X115360701Y-86537999D01*
X114945338Y-86537999D01*
X114783450Y-86570201D01*
X114599867Y-86692866D01*
X114500911Y-86840965D01*
X113499200Y-86840965D01*
X113399704Y-86860756D01*
X113315356Y-86917116D01*
X113258996Y-87001464D01*
X113239205Y-87100960D01*
X113239205Y-87400960D01*
X113258881Y-87499880D01*
X113239205Y-87598800D01*
X113239205Y-87693525D01*
X113180907Y-87693525D01*
X113159995Y-87702187D01*
X113159995Y-86650000D01*
X113140204Y-86550504D01*
X113083844Y-86466156D01*
X112999496Y-86409796D01*
X112900000Y-86390005D01*
X111700000Y-86390005D01*
X111600504Y-86409796D01*
X111516156Y-86466156D01*
X111459796Y-86550504D01*
X111440005Y-86650000D01*
X111440005Y-87850000D01*
X111459796Y-87949496D01*
X111493542Y-88000000D01*
X111459796Y-88050504D01*
X111440005Y-88150000D01*
X111440005Y-89350000D01*
X111459796Y-89449496D01*
X111493542Y-89500000D01*
X111459796Y-89550504D01*
X111440005Y-89650000D01*
X111440005Y-90850000D01*
X111459796Y-90949496D01*
X111493542Y-91000000D01*
X111459796Y-91050504D01*
X111440005Y-91150000D01*
X111440005Y-92350000D01*
X111459796Y-92449496D01*
X111493542Y-92500000D01*
X111459796Y-92550504D01*
X111440005Y-92650000D01*
X111440005Y-93850000D01*
X111446200Y-93881145D01*
X111432667Y-93901399D01*
X111423000Y-93950000D01*
X111423000Y-95500000D01*
X111432667Y-95548601D01*
X111460197Y-95589803D01*
X111501399Y-95617333D01*
X111550000Y-95627000D01*
X113050000Y-95627000D01*
X113098601Y-95617333D01*
X113139803Y-95589803D01*
X113167333Y-95548601D01*
X113177000Y-95500000D01*
X113177000Y-95235000D01*
X113353475Y-95235000D01*
X113531733Y-95161163D01*
X113533861Y-95159035D01*
X114128883Y-95159035D01*
X114148480Y-95162933D01*
X114168077Y-95159035D01*
X114799680Y-95159035D01*
X114899176Y-95139244D01*
X114983524Y-95082884D01*
X115039884Y-94998536D01*
X115059675Y-94899040D01*
X115059675Y-94599040D01*
X115039884Y-94499544D01*
X114983524Y-94415196D01*
X114899176Y-94358836D01*
X114799680Y-94339045D01*
X114164211Y-94339045D01*
X114149440Y-94336107D01*
X114134669Y-94339045D01*
X113531941Y-94339045D01*
X113531733Y-94338837D01*
X113353475Y-94265000D01*
X113177000Y-94265000D01*
X113177000Y-93950000D01*
X113167333Y-93901399D01*
X113153800Y-93881145D01*
X113159995Y-93850000D01*
X113159995Y-92650000D01*
X113140204Y-92550504D01*
X113106458Y-92500000D01*
X113140204Y-92449496D01*
X113159995Y-92350000D01*
X113159995Y-91727779D01*
X113160529Y-91728000D01*
X113239205Y-91728000D01*
X113239205Y-91899300D01*
X113258996Y-91998796D01*
X113259460Y-91999490D01*
X113258996Y-92000184D01*
X113239205Y-92099680D01*
X113239205Y-92399680D01*
X113258996Y-92499176D01*
X113259460Y-92499870D01*
X113258996Y-92500564D01*
X113239205Y-92600060D01*
X113239205Y-92900060D01*
X113258996Y-92999556D01*
X113259460Y-93000250D01*
X113258996Y-93000944D01*
X113239205Y-93100440D01*
X113239205Y-93400440D01*
X113258996Y-93499936D01*
X113259460Y-93500630D01*
X113258996Y-93501324D01*
X113239205Y-93600820D01*
X113239205Y-93900820D01*
X113258996Y-94000316D01*
X113315356Y-94084664D01*
X113399704Y-94141024D01*
X113499200Y-94160815D01*
X114134669Y-94160815D01*
X114149440Y-94163753D01*
X114164211Y-94160815D01*
X114799680Y-94160815D01*
X114820733Y-94156627D01*
X114825269Y-94161163D01*
X114870272Y-94179804D01*
X114910763Y-94206859D01*
X114958525Y-94216360D01*
X115003527Y-94235000D01*
X115223000Y-94235000D01*
X115223000Y-95289076D01*
X115116543Y-95374499D01*
X114700457Y-95373001D01*
X114651822Y-95382493D01*
X114610197Y-95410197D01*
X114247394Y-95773000D01*
X111327000Y-95773000D01*
X111327000Y-86227000D01*
X114900000Y-86227000D01*
X114948601Y-86217333D01*
X114989803Y-86189803D01*
X115017333Y-86148601D01*
X115027000Y-86100000D01*
X115027000Y-82527000D01*
X118901982Y-82527000D01*
X118890994Y-82553527D01*
G36*
X132013689Y-83082152D02*
X132017529Y-83090005D01*
X131325000Y-83090005D01*
X131225504Y-83109796D01*
X131141156Y-83166156D01*
X131084796Y-83250504D01*
X131067356Y-83338181D01*
X131049867Y-83349867D01*
X131018904Y-83396208D01*
X130841902Y-83573209D01*
X130833502Y-83552930D01*
X130697070Y-83416498D01*
X130518812Y-83342661D01*
X130325866Y-83342661D01*
X130147608Y-83416498D01*
X130011176Y-83552930D01*
X129937339Y-83731188D01*
X129937339Y-83868593D01*
X129866156Y-83916156D01*
X129809796Y-84000504D01*
X129790005Y-84100000D01*
X129790005Y-84900000D01*
X129809796Y-84999496D01*
X129866156Y-85083844D01*
X129950504Y-85140204D01*
X130050000Y-85159995D01*
X130950000Y-85159995D01*
X131049496Y-85140204D01*
X131133844Y-85083844D01*
X131190204Y-84999496D01*
X131209995Y-84900000D01*
X131209995Y-84774893D01*
X131574894Y-84409995D01*
X132075000Y-84409995D01*
X132174496Y-84390204D01*
X132258844Y-84333844D01*
X132315204Y-84249496D01*
X132334995Y-84150000D01*
X132334995Y-83739291D01*
X132473000Y-84021541D01*
X132473000Y-95373000D01*
X132305420Y-95373000D01*
X132309995Y-95350000D01*
X132309995Y-94150000D01*
X132290204Y-94050504D01*
X132256458Y-94000000D01*
X132290204Y-93949496D01*
X132309995Y-93850000D01*
X132309995Y-92650000D01*
X132290204Y-92550504D01*
X132256458Y-92500000D01*
X132290204Y-92449496D01*
X132309995Y-92350000D01*
X132309995Y-91150000D01*
X132290204Y-91050504D01*
X132256458Y-91000000D01*
X132290204Y-90949496D01*
X132309995Y-90850000D01*
X132309995Y-89650000D01*
X132290204Y-89550504D01*
X132256458Y-89500000D01*
X132290204Y-89449496D01*
X132309995Y-89350000D01*
X132309995Y-88150000D01*
X132296136Y-88080325D01*
X132317333Y-88048601D01*
X132327000Y-88000000D01*
X132327000Y-86500000D01*
X132317333Y-86451399D01*
X132289803Y-86410197D01*
X132248601Y-86382667D01*
X132200000Y-86373000D01*
X130748186Y-86373000D01*
X130775125Y-86355000D01*
X130906473Y-86355000D01*
X131084731Y-86281163D01*
X131221163Y-86144731D01*
X131295000Y-85966473D01*
X131295000Y-85773527D01*
X131221163Y-85595269D01*
X131084731Y-85458837D01*
X130906473Y-85385000D01*
X130713527Y-85385000D01*
X130535269Y-85458837D01*
X130398837Y-85595269D01*
X130325000Y-85773527D01*
X130325000Y-85788500D01*
X130255947Y-85788500D01*
X129996574Y-85529128D01*
X129978805Y-85502535D01*
X129873452Y-85432140D01*
X129780546Y-85413660D01*
X129780541Y-85413660D01*
X129749180Y-85407422D01*
X129717819Y-85413660D01*
X129376858Y-85413660D01*
X129345497Y-85407422D01*
X129314136Y-85413660D01*
X129314132Y-85413660D01*
X129221226Y-85432140D01*
X129115873Y-85502535D01*
X129098106Y-85529125D01*
X128916965Y-85710266D01*
X128890376Y-85728033D01*
X128872609Y-85754623D01*
X128872608Y-85754624D01*
X128819981Y-85833386D01*
X128795262Y-85957658D01*
X128801501Y-85989023D01*
X128801501Y-86224074D01*
X128724394Y-86146967D01*
X128706625Y-86120375D01*
X128601272Y-86049980D01*
X128508366Y-86031500D01*
X128508361Y-86031500D01*
X128477000Y-86025262D01*
X128445639Y-86031500D01*
X127106940Y-86031500D01*
X127112957Y-86016973D01*
X127112957Y-85824027D01*
X127039120Y-85645769D01*
X126902688Y-85509337D01*
X126724430Y-85435500D01*
X126531484Y-85435500D01*
X126353226Y-85509337D01*
X126216794Y-85645769D01*
X126197793Y-85691641D01*
X126133476Y-85665000D01*
X125940530Y-85665000D01*
X125762272Y-85738837D01*
X125743502Y-85757608D01*
X125724731Y-85738837D01*
X125546473Y-85665000D01*
X125353527Y-85665000D01*
X125175269Y-85738837D01*
X125169106Y-85745000D01*
X125164612Y-85745000D01*
X125124730Y-85737067D01*
X125084849Y-85745000D01*
X125084844Y-85745000D01*
X124966708Y-85768499D01*
X124882162Y-85824991D01*
X124059035Y-85824991D01*
X124059035Y-84701913D01*
X124128343Y-84655603D01*
X124251008Y-84472020D01*
X124283210Y-84310132D01*
X124283210Y-84134995D01*
X124550000Y-84134995D01*
X124649496Y-84115204D01*
X124733844Y-84058844D01*
X124790204Y-83974496D01*
X124809995Y-83875000D01*
X124809995Y-83437761D01*
X125017756Y-83230000D01*
X126698496Y-83230000D01*
X126684796Y-83250504D01*
X126665005Y-83350000D01*
X126665005Y-84150000D01*
X126684796Y-84249496D01*
X126741156Y-84333844D01*
X126825504Y-84390204D01*
X126925000Y-84409995D01*
X127675000Y-84409995D01*
X127774496Y-84390204D01*
X127858844Y-84333844D01*
X127889377Y-84288149D01*
X127966550Y-84272798D01*
X128060542Y-84209995D01*
X128198706Y-84209995D01*
X128025269Y-84281835D01*
X127888837Y-84418267D01*
X127815000Y-84596525D01*
X127815000Y-84789471D01*
X127888837Y-84967729D01*
X128025269Y-85104161D01*
X128203527Y-85177998D01*
X128396473Y-85177998D01*
X128574731Y-85104161D01*
X128711163Y-84967729D01*
X128785000Y-84789471D01*
X128785000Y-84596525D01*
X128711163Y-84418267D01*
X128574731Y-84281835D01*
X128401294Y-84209995D01*
X128950000Y-84209995D01*
X129049496Y-84190204D01*
X129133844Y-84133844D01*
X129190204Y-84049496D01*
X129209995Y-83950000D01*
X129209995Y-83227000D01*
X129300000Y-83227000D01*
X129348601Y-83217333D01*
X129389803Y-83189803D01*
X129589803Y-82989803D01*
X129617333Y-82948601D01*
X129627000Y-82900000D01*
X129627000Y-82600000D01*
X129617333Y-82551399D01*
X129601030Y-82527000D01*
X130994812Y-82527000D01*
X132013689Y-83082152D01*
X132013689Y-83082152D01*
G37*
X132013689Y-83082152D02*
X132017529Y-83090005D01*
X131325000Y-83090005D01*
X131225504Y-83109796D01*
X131141156Y-83166156D01*
X131084796Y-83250504D01*
X131067356Y-83338181D01*
X131049867Y-83349867D01*
X131018904Y-83396208D01*
X130841902Y-83573209D01*
X130833502Y-83552930D01*
X130697070Y-83416498D01*
X130518812Y-83342661D01*
X130325866Y-83342661D01*
X130147608Y-83416498D01*
X130011176Y-83552930D01*
X129937339Y-83731188D01*
X129937339Y-83868593D01*
X129866156Y-83916156D01*
X129809796Y-84000504D01*
X129790005Y-84100000D01*
X129790005Y-84900000D01*
X129809796Y-84999496D01*
X129866156Y-85083844D01*
X129950504Y-85140204D01*
X130050000Y-85159995D01*
X130950000Y-85159995D01*
X131049496Y-85140204D01*
X131133844Y-85083844D01*
X131190204Y-84999496D01*
X131209995Y-84900000D01*
X131209995Y-84774893D01*
X131574894Y-84409995D01*
X132075000Y-84409995D01*
X132174496Y-84390204D01*
X132258844Y-84333844D01*
X132315204Y-84249496D01*
X132334995Y-84150000D01*
X132334995Y-83739291D01*
X132473000Y-84021541D01*
X132473000Y-95373000D01*
X132305420Y-95373000D01*
X132309995Y-95350000D01*
X132309995Y-94150000D01*
X132290204Y-94050504D01*
X132256458Y-94000000D01*
X132290204Y-93949496D01*
X132309995Y-93850000D01*
X132309995Y-92650000D01*
X132290204Y-92550504D01*
X132256458Y-92500000D01*
X132290204Y-92449496D01*
X132309995Y-92350000D01*
X132309995Y-91150000D01*
X132290204Y-91050504D01*
X132256458Y-91000000D01*
X132290204Y-90949496D01*
X132309995Y-90850000D01*
X132309995Y-89650000D01*
X132290204Y-89550504D01*
X132256458Y-89500000D01*
X132290204Y-89449496D01*
X132309995Y-89350000D01*
X132309995Y-88150000D01*
X132296136Y-88080325D01*
X132317333Y-88048601D01*
X132327000Y-88000000D01*
X132327000Y-86500000D01*
X132317333Y-86451399D01*
X132289803Y-86410197D01*
X132248601Y-86382667D01*
X132200000Y-86373000D01*
X130748186Y-86373000D01*
X130775125Y-86355000D01*
X130906473Y-86355000D01*
X131084731Y-86281163D01*
X131221163Y-86144731D01*
X131295000Y-85966473D01*
X131295000Y-85773527D01*
X131221163Y-85595269D01*
X131084731Y-85458837D01*
X130906473Y-85385000D01*
X130713527Y-85385000D01*
X130535269Y-85458837D01*
X130398837Y-85595269D01*
X130325000Y-85773527D01*
X130325000Y-85788500D01*
X130255947Y-85788500D01*
X129996574Y-85529128D01*
X129978805Y-85502535D01*
X129873452Y-85432140D01*
X129780546Y-85413660D01*
X129780541Y-85413660D01*
X129749180Y-85407422D01*
X129717819Y-85413660D01*
X129376858Y-85413660D01*
X129345497Y-85407422D01*
X129314136Y-85413660D01*
X129314132Y-85413660D01*
X129221226Y-85432140D01*
X129115873Y-85502535D01*
X129098106Y-85529125D01*
X128916965Y-85710266D01*
X128890376Y-85728033D01*
X128872609Y-85754623D01*
X128872608Y-85754624D01*
X128819981Y-85833386D01*
X128795262Y-85957658D01*
X128801501Y-85989023D01*
X128801501Y-86224074D01*
X128724394Y-86146967D01*
X128706625Y-86120375D01*
X128601272Y-86049980D01*
X128508366Y-86031500D01*
X128508361Y-86031500D01*
X128477000Y-86025262D01*
X128445639Y-86031500D01*
X127106940Y-86031500D01*
X127112957Y-86016973D01*
X127112957Y-85824027D01*
X127039120Y-85645769D01*
X126902688Y-85509337D01*
X126724430Y-85435500D01*
X126531484Y-85435500D01*
X126353226Y-85509337D01*
X126216794Y-85645769D01*
X126197793Y-85691641D01*
X126133476Y-85665000D01*
X125940530Y-85665000D01*
X125762272Y-85738837D01*
X125743502Y-85757608D01*
X125724731Y-85738837D01*
X125546473Y-85665000D01*
X125353527Y-85665000D01*
X125175269Y-85738837D01*
X125169106Y-85745000D01*
X125164612Y-85745000D01*
X125124730Y-85737067D01*
X125084849Y-85745000D01*
X125084844Y-85745000D01*
X124966708Y-85768499D01*
X124882162Y-85824991D01*
X124059035Y-85824991D01*
X124059035Y-84701913D01*
X124128343Y-84655603D01*
X124251008Y-84472020D01*
X124283210Y-84310132D01*
X124283210Y-84134995D01*
X124550000Y-84134995D01*
X124649496Y-84115204D01*
X124733844Y-84058844D01*
X124790204Y-83974496D01*
X124809995Y-83875000D01*
X124809995Y-83437761D01*
X125017756Y-83230000D01*
X126698496Y-83230000D01*
X126684796Y-83250504D01*
X126665005Y-83350000D01*
X126665005Y-84150000D01*
X126684796Y-84249496D01*
X126741156Y-84333844D01*
X126825504Y-84390204D01*
X126925000Y-84409995D01*
X127675000Y-84409995D01*
X127774496Y-84390204D01*
X127858844Y-84333844D01*
X127889377Y-84288149D01*
X127966550Y-84272798D01*
X128060542Y-84209995D01*
X128198706Y-84209995D01*
X128025269Y-84281835D01*
X127888837Y-84418267D01*
X127815000Y-84596525D01*
X127815000Y-84789471D01*
X127888837Y-84967729D01*
X128025269Y-85104161D01*
X128203527Y-85177998D01*
X128396473Y-85177998D01*
X128574731Y-85104161D01*
X128711163Y-84967729D01*
X128785000Y-84789471D01*
X128785000Y-84596525D01*
X128711163Y-84418267D01*
X128574731Y-84281835D01*
X128401294Y-84209995D01*
X128950000Y-84209995D01*
X129049496Y-84190204D01*
X129133844Y-84133844D01*
X129190204Y-84049496D01*
X129209995Y-83950000D01*
X129209995Y-83227000D01*
X129300000Y-83227000D01*
X129348601Y-83217333D01*
X129389803Y-83189803D01*
X129589803Y-82989803D01*
X129617333Y-82948601D01*
X129627000Y-82900000D01*
X129627000Y-82600000D01*
X129617333Y-82551399D01*
X129601030Y-82527000D01*
X130994812Y-82527000D01*
X132013689Y-83082152D01*
G36*
X121400564Y-86139884D02*
X121500060Y-86159675D01*
X121745441Y-86159675D01*
X121745441Y-86159793D01*
X121737507Y-86199680D01*
X121768939Y-86357702D01*
X121825258Y-86441988D01*
X121858453Y-86491668D01*
X121892266Y-86514261D01*
X122336180Y-86958177D01*
X122358772Y-86991988D01*
X122392583Y-87014580D01*
X122392585Y-87014582D01*
X122457166Y-87057733D01*
X122492737Y-87081501D01*
X122610873Y-87105000D01*
X122610877Y-87105000D01*
X122650759Y-87112933D01*
X122690641Y-87105000D01*
X124740325Y-87105000D01*
X124740325Y-87400960D01*
X124760001Y-87499880D01*
X124740325Y-87598800D01*
X124740325Y-87898800D01*
X124760116Y-87998296D01*
X124760580Y-87998990D01*
X124760116Y-87999684D01*
X124740325Y-88099180D01*
X124740325Y-88399180D01*
X124760116Y-88498676D01*
X124760580Y-88499370D01*
X124760116Y-88500064D01*
X124740325Y-88599560D01*
X124740325Y-88899560D01*
X124760116Y-88999056D01*
X124760580Y-88999750D01*
X124760116Y-89000444D01*
X124740325Y-89099940D01*
X124740325Y-89399940D01*
X124760116Y-89499436D01*
X124760580Y-89500130D01*
X124760116Y-89500824D01*
X124740325Y-89600320D01*
X124740325Y-89900320D01*
X124760116Y-89999816D01*
X124760580Y-90000510D01*
X124760116Y-90001204D01*
X124740325Y-90100700D01*
X124740325Y-90400700D01*
X124760116Y-90500196D01*
X124760580Y-90500890D01*
X124760116Y-90501584D01*
X124740325Y-90601080D01*
X124740325Y-90901080D01*
X124760001Y-91000000D01*
X124740325Y-91098920D01*
X124740325Y-91265000D01*
X124653527Y-91265000D01*
X124475269Y-91338837D01*
X124338837Y-91475269D01*
X124265000Y-91653527D01*
X124265000Y-91846473D01*
X124338837Y-92024731D01*
X124475269Y-92161163D01*
X124653527Y-92235000D01*
X124740325Y-92235000D01*
X124740325Y-92399680D01*
X124760116Y-92499176D01*
X124816476Y-92583524D01*
X124900824Y-92639884D01*
X125000320Y-92659675D01*
X126300800Y-92659675D01*
X126400296Y-92639884D01*
X126484644Y-92583524D01*
X126541004Y-92499176D01*
X126560795Y-92399680D01*
X126560795Y-92099680D01*
X126550827Y-92049568D01*
X126552072Y-92049320D01*
X126657425Y-91978925D01*
X126675194Y-91952333D01*
X126715005Y-91912521D01*
X126715005Y-92350000D01*
X126734796Y-92449496D01*
X126768542Y-92500000D01*
X126734796Y-92550504D01*
X126715005Y-92650000D01*
X126715005Y-93850000D01*
X126734796Y-93949496D01*
X126768542Y-94000000D01*
X126734796Y-94050504D01*
X126715005Y-94150000D01*
X126715005Y-95350000D01*
X126719580Y-95373000D01*
X126476515Y-95373000D01*
X126485000Y-95352515D01*
X126485000Y-95159569D01*
X126460044Y-95099321D01*
X126484644Y-95082884D01*
X126541004Y-94998536D01*
X126560795Y-94899040D01*
X126560795Y-94599040D01*
X126541004Y-94499544D01*
X126484644Y-94415196D01*
X126400296Y-94358836D01*
X126300800Y-94339045D01*
X125665331Y-94339045D01*
X125650560Y-94336107D01*
X125635789Y-94339045D01*
X125000320Y-94339045D01*
X124979150Y-94343256D01*
X124974731Y-94338837D01*
X124929728Y-94320196D01*
X124889237Y-94293141D01*
X124856375Y-94286604D01*
X124820600Y-94250829D01*
X124793543Y-94210335D01*
X124633115Y-94103141D01*
X124603056Y-94097162D01*
X124251728Y-93745835D01*
X124251728Y-93682236D01*
X124223587Y-93540763D01*
X124172001Y-93463559D01*
X124172001Y-93265997D01*
X124181501Y-93218238D01*
X124172001Y-93170479D01*
X124172001Y-93170475D01*
X124158071Y-93100440D01*
X124740325Y-93100440D01*
X124740325Y-93400440D01*
X124760116Y-93499936D01*
X124760580Y-93500630D01*
X124760116Y-93501324D01*
X124740325Y-93600820D01*
X124740325Y-93900820D01*
X124760116Y-94000316D01*
X124816476Y-94084664D01*
X124900824Y-94141024D01*
X125000320Y-94160815D01*
X126300800Y-94160815D01*
X126400296Y-94141024D01*
X126484644Y-94084664D01*
X126541004Y-94000316D01*
X126560795Y-93900820D01*
X126560795Y-93600820D01*
X126541004Y-93501324D01*
X126540540Y-93500630D01*
X126541004Y-93499936D01*
X126560795Y-93400440D01*
X126560795Y-93100440D01*
X126541004Y-93000944D01*
X126484644Y-92916596D01*
X126400296Y-92860236D01*
X126300800Y-92840445D01*
X125000320Y-92840445D01*
X124900824Y-92860236D01*
X124816476Y-92916596D01*
X124760116Y-93000944D01*
X124740325Y-93100440D01*
X124158071Y-93100440D01*
X124143860Y-93029002D01*
X124036666Y-92868574D01*
X123996172Y-92841517D01*
X123045484Y-91890829D01*
X123018427Y-91850335D01*
X122857999Y-91743141D01*
X122716526Y-91715000D01*
X122716521Y-91715000D01*
X122668762Y-91705500D01*
X122621003Y-91715000D01*
X117210894Y-91715000D01*
X116785000Y-91289107D01*
X116785000Y-90293527D01*
X122125000Y-90293527D01*
X122125000Y-90486473D01*
X122198837Y-90664731D01*
X122335269Y-90801163D01*
X122513527Y-90875000D01*
X122706473Y-90875000D01*
X122884731Y-90801163D01*
X123021163Y-90664731D01*
X123095000Y-90486473D01*
X123095000Y-90293527D01*
X123021163Y-90115269D01*
X122884731Y-89978837D01*
X122706473Y-89905000D01*
X122513527Y-89905000D01*
X122335269Y-89978837D01*
X122198837Y-90115269D01*
X122125000Y-90293527D01*
X116785000Y-90293527D01*
X116785000Y-89810374D01*
X116935829Y-89872850D01*
X117128775Y-89872850D01*
X117307033Y-89799013D01*
X117413382Y-89692664D01*
X117429987Y-89689361D01*
X117563952Y-89599848D01*
X117586548Y-89566032D01*
X118045429Y-89107151D01*
X118079243Y-89084557D01*
X118168756Y-88950592D01*
X118192255Y-88832456D01*
X118192255Y-88832452D01*
X118200188Y-88792569D01*
X118192255Y-88752686D01*
X118192255Y-88653527D01*
X123465000Y-88653527D01*
X123465000Y-88846473D01*
X123538837Y-89024731D01*
X123675269Y-89161163D01*
X123853527Y-89235000D01*
X124046473Y-89235000D01*
X124224731Y-89161163D01*
X124361163Y-89024731D01*
X124435000Y-88846473D01*
X124435000Y-88653527D01*
X124361163Y-88475269D01*
X124224731Y-88338837D01*
X124046473Y-88265000D01*
X123853527Y-88265000D01*
X123675269Y-88338837D01*
X123538837Y-88475269D01*
X123465000Y-88653527D01*
X118192255Y-88653527D01*
X118192255Y-87397896D01*
X118680767Y-86909385D01*
X118698602Y-86912933D01*
X118738485Y-86905000D01*
X118738489Y-86905000D01*
X118856625Y-86881501D01*
X118990590Y-86791988D01*
X119013186Y-86758172D01*
X119408874Y-86362484D01*
X119442688Y-86339890D01*
X119532201Y-86205925D01*
X119541401Y-86159675D01*
X119801080Y-86159675D01*
X119900000Y-86139999D01*
X119998920Y-86159675D01*
X120298920Y-86159675D01*
X120398416Y-86139884D01*
X120399110Y-86139420D01*
X120399804Y-86139884D01*
X120499300Y-86159675D01*
X120799300Y-86159675D01*
X120898796Y-86139884D01*
X120899490Y-86139420D01*
X120900184Y-86139884D01*
X120999680Y-86159675D01*
X121299680Y-86159675D01*
X121399176Y-86139884D01*
X121399870Y-86139420D01*
X121400564Y-86139884D01*
X121400564Y-86139884D01*
G37*
X121400564Y-86139884D02*
X121500060Y-86159675D01*
X121745441Y-86159675D01*
X121745441Y-86159793D01*
X121737507Y-86199680D01*
X121768939Y-86357702D01*
X121825258Y-86441988D01*
X121858453Y-86491668D01*
X121892266Y-86514261D01*
X122336180Y-86958177D01*
X122358772Y-86991988D01*
X122392583Y-87014580D01*
X122392585Y-87014582D01*
X122457166Y-87057733D01*
X122492737Y-87081501D01*
X122610873Y-87105000D01*
X122610877Y-87105000D01*
X122650759Y-87112933D01*
X122690641Y-87105000D01*
X124740325Y-87105000D01*
X124740325Y-87400960D01*
X124760001Y-87499880D01*
X124740325Y-87598800D01*
X124740325Y-87898800D01*
X124760116Y-87998296D01*
X124760580Y-87998990D01*
X124760116Y-87999684D01*
X124740325Y-88099180D01*
X124740325Y-88399180D01*
X124760116Y-88498676D01*
X124760580Y-88499370D01*
X124760116Y-88500064D01*
X124740325Y-88599560D01*
X124740325Y-88899560D01*
X124760116Y-88999056D01*
X124760580Y-88999750D01*
X124760116Y-89000444D01*
X124740325Y-89099940D01*
X124740325Y-89399940D01*
X124760116Y-89499436D01*
X124760580Y-89500130D01*
X124760116Y-89500824D01*
X124740325Y-89600320D01*
X124740325Y-89900320D01*
X124760116Y-89999816D01*
X124760580Y-90000510D01*
X124760116Y-90001204D01*
X124740325Y-90100700D01*
X124740325Y-90400700D01*
X124760116Y-90500196D01*
X124760580Y-90500890D01*
X124760116Y-90501584D01*
X124740325Y-90601080D01*
X124740325Y-90901080D01*
X124760001Y-91000000D01*
X124740325Y-91098920D01*
X124740325Y-91265000D01*
X124653527Y-91265000D01*
X124475269Y-91338837D01*
X124338837Y-91475269D01*
X124265000Y-91653527D01*
X124265000Y-91846473D01*
X124338837Y-92024731D01*
X124475269Y-92161163D01*
X124653527Y-92235000D01*
X124740325Y-92235000D01*
X124740325Y-92399680D01*
X124760116Y-92499176D01*
X124816476Y-92583524D01*
X124900824Y-92639884D01*
X125000320Y-92659675D01*
X126300800Y-92659675D01*
X126400296Y-92639884D01*
X126484644Y-92583524D01*
X126541004Y-92499176D01*
X126560795Y-92399680D01*
X126560795Y-92099680D01*
X126550827Y-92049568D01*
X126552072Y-92049320D01*
X126657425Y-91978925D01*
X126675194Y-91952333D01*
X126715005Y-91912521D01*
X126715005Y-92350000D01*
X126734796Y-92449496D01*
X126768542Y-92500000D01*
X126734796Y-92550504D01*
X126715005Y-92650000D01*
X126715005Y-93850000D01*
X126734796Y-93949496D01*
X126768542Y-94000000D01*
X126734796Y-94050504D01*
X126715005Y-94150000D01*
X126715005Y-95350000D01*
X126719580Y-95373000D01*
X126476515Y-95373000D01*
X126485000Y-95352515D01*
X126485000Y-95159569D01*
X126460044Y-95099321D01*
X126484644Y-95082884D01*
X126541004Y-94998536D01*
X126560795Y-94899040D01*
X126560795Y-94599040D01*
X126541004Y-94499544D01*
X126484644Y-94415196D01*
X126400296Y-94358836D01*
X126300800Y-94339045D01*
X125665331Y-94339045D01*
X125650560Y-94336107D01*
X125635789Y-94339045D01*
X125000320Y-94339045D01*
X124979150Y-94343256D01*
X124974731Y-94338837D01*
X124929728Y-94320196D01*
X124889237Y-94293141D01*
X124856375Y-94286604D01*
X124820600Y-94250829D01*
X124793543Y-94210335D01*
X124633115Y-94103141D01*
X124603056Y-94097162D01*
X124251728Y-93745835D01*
X124251728Y-93682236D01*
X124223587Y-93540763D01*
X124172001Y-93463559D01*
X124172001Y-93265997D01*
X124181501Y-93218238D01*
X124172001Y-93170479D01*
X124172001Y-93170475D01*
X124158071Y-93100440D01*
X124740325Y-93100440D01*
X124740325Y-93400440D01*
X124760116Y-93499936D01*
X124760580Y-93500630D01*
X124760116Y-93501324D01*
X124740325Y-93600820D01*
X124740325Y-93900820D01*
X124760116Y-94000316D01*
X124816476Y-94084664D01*
X124900824Y-94141024D01*
X125000320Y-94160815D01*
X126300800Y-94160815D01*
X126400296Y-94141024D01*
X126484644Y-94084664D01*
X126541004Y-94000316D01*
X126560795Y-93900820D01*
X126560795Y-93600820D01*
X126541004Y-93501324D01*
X126540540Y-93500630D01*
X126541004Y-93499936D01*
X126560795Y-93400440D01*
X126560795Y-93100440D01*
X126541004Y-93000944D01*
X126484644Y-92916596D01*
X126400296Y-92860236D01*
X126300800Y-92840445D01*
X125000320Y-92840445D01*
X124900824Y-92860236D01*
X124816476Y-92916596D01*
X124760116Y-93000944D01*
X124740325Y-93100440D01*
X124158071Y-93100440D01*
X124143860Y-93029002D01*
X124036666Y-92868574D01*
X123996172Y-92841517D01*
X123045484Y-91890829D01*
X123018427Y-91850335D01*
X122857999Y-91743141D01*
X122716526Y-91715000D01*
X122716521Y-91715000D01*
X122668762Y-91705500D01*
X122621003Y-91715000D01*
X117210894Y-91715000D01*
X116785000Y-91289107D01*
X116785000Y-90293527D01*
X122125000Y-90293527D01*
X122125000Y-90486473D01*
X122198837Y-90664731D01*
X122335269Y-90801163D01*
X122513527Y-90875000D01*
X122706473Y-90875000D01*
X122884731Y-90801163D01*
X123021163Y-90664731D01*
X123095000Y-90486473D01*
X123095000Y-90293527D01*
X123021163Y-90115269D01*
X122884731Y-89978837D01*
X122706473Y-89905000D01*
X122513527Y-89905000D01*
X122335269Y-89978837D01*
X122198837Y-90115269D01*
X122125000Y-90293527D01*
X116785000Y-90293527D01*
X116785000Y-89810374D01*
X116935829Y-89872850D01*
X117128775Y-89872850D01*
X117307033Y-89799013D01*
X117413382Y-89692664D01*
X117429987Y-89689361D01*
X117563952Y-89599848D01*
X117586548Y-89566032D01*
X118045429Y-89107151D01*
X118079243Y-89084557D01*
X118168756Y-88950592D01*
X118192255Y-88832456D01*
X118192255Y-88832452D01*
X118200188Y-88792569D01*
X118192255Y-88752686D01*
X118192255Y-88653527D01*
X123465000Y-88653527D01*
X123465000Y-88846473D01*
X123538837Y-89024731D01*
X123675269Y-89161163D01*
X123853527Y-89235000D01*
X124046473Y-89235000D01*
X124224731Y-89161163D01*
X124361163Y-89024731D01*
X124435000Y-88846473D01*
X124435000Y-88653527D01*
X124361163Y-88475269D01*
X124224731Y-88338837D01*
X124046473Y-88265000D01*
X123853527Y-88265000D01*
X123675269Y-88338837D01*
X123538837Y-88475269D01*
X123465000Y-88653527D01*
X118192255Y-88653527D01*
X118192255Y-87397896D01*
X118680767Y-86909385D01*
X118698602Y-86912933D01*
X118738485Y-86905000D01*
X118738489Y-86905000D01*
X118856625Y-86881501D01*
X118990590Y-86791988D01*
X119013186Y-86758172D01*
X119408874Y-86362484D01*
X119442688Y-86339890D01*
X119532201Y-86205925D01*
X119541401Y-86159675D01*
X119801080Y-86159675D01*
X119900000Y-86139999D01*
X119998920Y-86159675D01*
X120298920Y-86159675D01*
X120398416Y-86139884D01*
X120399110Y-86139420D01*
X120399804Y-86139884D01*
X120499300Y-86159675D01*
X120799300Y-86159675D01*
X120898796Y-86139884D01*
X120899490Y-86139420D01*
X120900184Y-86139884D01*
X120999680Y-86159675D01*
X121299680Y-86159675D01*
X121399176Y-86139884D01*
X121399870Y-86139420D01*
X121400564Y-86139884D01*
G36*
X130092654Y-86425500D02*
X130092659Y-86425500D01*
X130124020Y-86431738D01*
X130155381Y-86425500D01*
X130541639Y-86425500D01*
X130573000Y-86431738D01*
X130599299Y-86426507D01*
X130582667Y-86451399D01*
X130573000Y-86500000D01*
X130573000Y-88000000D01*
X130582667Y-88048601D01*
X130588714Y-88057651D01*
X130500000Y-88040005D01*
X130127999Y-88040005D01*
X130127999Y-86693473D01*
X130135932Y-86653590D01*
X130127999Y-86613707D01*
X130127999Y-86613703D01*
X130104500Y-86495567D01*
X130052322Y-86417478D01*
X130092654Y-86425500D01*
X130092654Y-86425500D01*
G37*
X130092654Y-86425500D02*
X130092659Y-86425500D01*
X130124020Y-86431738D01*
X130155381Y-86425500D01*
X130541639Y-86425500D01*
X130573000Y-86431738D01*
X130599299Y-86426507D01*
X130582667Y-86451399D01*
X130573000Y-86500000D01*
X130573000Y-88000000D01*
X130582667Y-88048601D01*
X130588714Y-88057651D01*
X130500000Y-88040005D01*
X130127999Y-88040005D01*
X130127999Y-86693473D01*
X130135932Y-86653590D01*
X130127999Y-86613707D01*
X130127999Y-86613703D01*
X130104500Y-86495567D01*
X130052322Y-86417478D01*
X130092654Y-86425500D01*
G36*
X128240005Y-86750000D02*
X128240005Y-87650000D01*
X128259796Y-87749496D01*
X128316156Y-87833844D01*
X128345000Y-87853117D01*
X128345000Y-87956906D01*
X128274496Y-87909796D01*
X128175000Y-87890005D01*
X126978500Y-87890005D01*
X126978500Y-86754024D01*
X127064025Y-86668500D01*
X128256216Y-86668500D01*
X128240005Y-86750000D01*
X128240005Y-86750000D01*
G37*
X128240005Y-86750000D02*
X128240005Y-87650000D01*
X128259796Y-87749496D01*
X128316156Y-87833844D01*
X128345000Y-87853117D01*
X128345000Y-87956906D01*
X128274496Y-87909796D01*
X128175000Y-87890005D01*
X126978500Y-87890005D01*
X126978500Y-86754024D01*
X127064025Y-86668500D01*
X128256216Y-86668500D01*
X128240005Y-86750000D01*
G36*
X121565000Y-82546525D02*
X121565000Y-82553972D01*
X121535013Y-82574009D01*
X121445500Y-82707975D01*
X121422001Y-82826111D01*
X121422001Y-82826114D01*
X121414068Y-82865997D01*
X121422001Y-82905880D01*
X121422002Y-83954503D01*
X121391888Y-83984617D01*
X121358072Y-84007212D01*
X121268559Y-84141178D01*
X121245060Y-84259314D01*
X121245060Y-84259317D01*
X121244526Y-84262001D01*
X120868500Y-83885976D01*
X120868500Y-83017394D01*
X120961163Y-82924731D01*
X121035000Y-82746473D01*
X121035000Y-82553527D01*
X121024012Y-82527000D01*
X121573088Y-82527000D01*
X121565000Y-82546525D01*
X121565000Y-82546525D01*
G37*
X121565000Y-82546525D02*
X121565000Y-82553972D01*
X121535013Y-82574009D01*
X121445500Y-82707975D01*
X121422001Y-82826111D01*
X121422001Y-82826114D01*
X121414068Y-82865997D01*
X121422001Y-82905880D01*
X121422002Y-83954503D01*
X121391888Y-83984617D01*
X121358072Y-84007212D01*
X121268559Y-84141178D01*
X121245060Y-84259314D01*
X121245060Y-84259317D01*
X121244526Y-84262001D01*
X120868500Y-83885976D01*
X120868500Y-83017394D01*
X120961163Y-82924731D01*
X121035000Y-82746473D01*
X121035000Y-82553527D01*
X121024012Y-82527000D01*
X121573088Y-82527000D01*
X121565000Y-82546525D01*
M02*
