M48
;DRILL file {KiCad (5.0.0-rc2-dev-387-ge7ed41593)} date 04/19/18 15:37:33
;FORMAT={-:-/ absolute / metric / decimal}
FMAT,2
METRIC,TZ
T1C0.254
T2C0.300
T3C0.500
T4C0.600
%
G90
G05
M71
T1
X73.6Y-85.2
X73.6Y-91.
X73.6Y-96.8
X74.3Y-82.9
X74.4Y-88.7
X74.5Y-94.5
X75.6Y-88.7
X75.7Y-82.9
X75.7Y-94.5
X76.337Y-84.3
X76.387Y-95.916
X76.4Y-85.2
X76.4Y-87.
X76.4Y-90.1
X76.4Y-91.
X76.4Y-92.9
X76.4Y-96.8
X76.4Y-98.7
X80.313Y-88.1
X80.9Y-88.1
X81.678Y-95.483
X81.68Y-89.684
X81.692Y-83.884
X81.743Y-89.1
X81.748Y-83.3
X81.748Y-94.9
X87.513Y-82.563
X87.513Y-88.363
X87.513Y-94.163
X88.1Y-82.563
X88.1Y-88.363
X88.1Y-94.163
X91.957Y-87.584
X91.957Y-92.174
X92.Y-84.65
X92.Y-85.45
X92.01Y-89.95
X92.017Y-96.663
X92.02Y-94.45
X92.054Y-93.854
X92.058Y-89.365
X96.95Y-89.1
X96.95Y-90.05
X96.993Y-95.463
X96.993Y-91.
X96.998Y-86.248
X97.Y-84.6
X97.Y-85.5
X97.Y-87.05
X97.Y-91.587
X97.Y-93.65
X97.Y-94.5
X97.Y-96.05
X105.15Y-87.6
X113.257Y-88.765
X113.257Y-91.243
X113.257Y-94.75
X113.277Y-88.179
X115.1Y-87.75
X115.1Y-93.75
X115.1Y-95.25
X115.15Y-84.604
X115.15Y-85.1
X115.4Y-84.85
X115.644Y-85.1
X115.7Y-90.4
X115.7Y-91.6
X115.725Y-92.198
X115.817Y-93.246
X116.099Y-95.868
X116.3Y-87.75
X116.313Y-83.779
X116.45Y-98.15
X116.64Y-95.64
X116.849Y-86.733
X117.026Y-88.214
X117.029Y-88.801
X117.032Y-89.388
X117.1Y-94.8
X117.183Y-95.863
X117.4Y-93.5
X117.5Y-83.27
X118.6Y-93.5
X118.6Y-94.
X119.376Y-82.65
X119.647Y-97.758
X119.9Y-94.8
X119.963Y-82.65
X120.2Y-93.5
X120.55Y-82.65
X121.248Y-83.751
X121.343Y-98.4
X121.45Y-93.5
X122.05Y-82.643
X122.61Y-90.39
X122.748Y-97.758
X122.8Y-94.8
X123.1Y-93.5
X123.95Y-88.75
X124.1Y-97.91
X124.156Y-84.8
X124.156Y-85.2
X124.6Y-84.7
X124.643Y-93.25
X124.7Y-94.75
X124.75Y-91.75
X125.45Y-86.15
X125.5Y-98.37
X126.Y-95.256
X126.037Y-86.15
X126.628Y-85.92
X127.55Y-82.75
X128.25Y-99.05
X128.3Y-84.693
X128.344Y-82.766
X128.7Y-99.05
X129.1Y-82.75
X129.15Y-99.05
X129.307Y-96.434
X129.547Y-86.153
X129.6Y-99.05
X129.75Y-93.25
X130.05Y-99.05
X130.422Y-83.828
X130.5Y-99.05
X130.81Y-85.87
X130.95Y-99.05
X131.574Y-97.277
T2
X127.3Y-96.667
T3
X68.Y-83.6
X68.Y-84.15
X68.Y-84.7
X68.Y-85.25
X68.Y-85.8
X68.Y-86.35
X68.Y-86.9
X68.Y-89.35
X68.Y-89.9
X68.Y-90.45
X68.Y-91.
X68.Y-91.55
X68.Y-92.1
X68.Y-92.65
X68.Y-95.15
X68.Y-95.7
X68.Y-96.25
X68.Y-96.8
X68.Y-97.35
X68.Y-97.9
X68.Y-98.45
X68.6Y-83.55
X68.6Y-86.9
X68.6Y-89.35
X68.6Y-92.65
X68.6Y-95.15
X68.6Y-98.45
X69.3Y-83.55
X69.3Y-86.9
X69.3Y-89.35
X69.3Y-92.65
X69.3Y-95.15
X69.3Y-98.45
X70.Y-83.55
X70.Y-86.9
X70.Y-89.35
X70.Y-92.65
X70.Y-95.15
X70.Y-98.45
X88.848Y-86.207
X89.113Y-99.2
X89.55Y-83.2
X90.4Y-83.2
X91.Y-98.8
X91.3Y-83.2
X91.9Y-98.8
X92.2Y-83.2
X92.8Y-98.8
X93.1Y-83.2
X93.7Y-98.8
X94.Y-83.2
X94.6Y-98.8
X94.9Y-83.2
X95.5Y-98.8
X95.8Y-83.2
X96.4Y-98.8
X96.7Y-83.2
X97.3Y-98.8
X97.6Y-83.2
X98.2Y-98.8
X98.5Y-83.2
X99.1Y-98.8
X99.4Y-83.2
X100.Y-98.8
X100.3Y-83.2
X100.9Y-98.8
X101.2Y-83.2
X101.8Y-98.8
X102.1Y-83.2
X102.7Y-98.8
X103.Y-83.2
X103.6Y-98.8
X103.9Y-83.2
X104.5Y-98.8
X104.8Y-83.2
X105.4Y-98.8
X105.7Y-83.2
X106.3Y-98.8
X106.6Y-83.2
X107.2Y-98.8
X107.5Y-83.2
X108.1Y-98.8
X108.4Y-83.2
X109.Y-98.8
X109.3Y-83.2
X109.9Y-98.8
X110.2Y-83.2
X110.8Y-98.8
X111.2Y-83.2
X111.7Y-98.8
X112.1Y-83.2
X112.6Y-98.8
X113.Y-83.2
X113.5Y-98.8
X113.9Y-83.2
X68.6Y-89.95
X68.6Y-90.65
X68.6Y-91.35
X68.6Y-92.05
X69.3Y-89.95
X69.3Y-90.65
X69.3Y-91.35
X69.3Y-92.05
X70.Y-89.95
X70.Y-90.65
X70.Y-91.35
X70.Y-92.05
X79.9Y-90.
X79.9Y-90.7
X79.9Y-91.4
X79.9Y-92.1
X80.6Y-90.
X80.6Y-90.7
X80.6Y-91.4
X80.6Y-92.1
X81.3Y-90.
X81.3Y-90.7
X81.3Y-91.4
X81.3Y-92.1
X79.9Y-84.25
X79.9Y-84.95
X79.9Y-85.65
X79.9Y-86.35
X80.6Y-84.25
X80.6Y-84.95
X80.6Y-85.65
X80.6Y-86.35
X81.3Y-84.25
X81.3Y-84.95
X81.3Y-85.65
X81.3Y-86.35
X68.6Y-84.15
X68.6Y-84.85
X68.6Y-85.55
X68.6Y-86.25
X69.3Y-84.15
X69.3Y-84.85
X69.3Y-85.55
X69.3Y-86.25
X70.Y-84.15
X70.Y-84.85
X70.Y-85.55
X70.Y-86.25
X68.6Y-95.75
X68.6Y-96.45
X68.6Y-97.15
X68.6Y-97.85
X69.3Y-95.75
X69.3Y-96.45
X69.3Y-97.15
X69.3Y-97.85
X70.Y-95.75
X70.Y-96.45
X70.Y-97.15
X70.Y-97.85
X79.9Y-95.75
X79.9Y-96.45
X79.9Y-97.15
X79.9Y-97.85
X80.6Y-95.75
X80.6Y-96.45
X80.6Y-97.15
X80.6Y-97.85
X81.3Y-95.75
X81.3Y-96.45
X81.3Y-97.15
X81.3Y-97.85
T4
X131.45Y-87.25
X131.45Y-88.75
X131.45Y-90.25
X131.45Y-91.75
X131.45Y-93.25
X131.45Y-94.75
X127.575Y-87.25
X127.575Y-88.75
X127.575Y-90.25
X127.575Y-91.75
X127.575Y-93.25
X127.575Y-94.75
X112.3Y-87.25
X112.3Y-88.75
X112.3Y-90.25
X112.3Y-91.75
X112.3Y-93.25
X112.3Y-94.75
T0
M30
