%TF.GenerationSoftware,KiCad,Pcbnew,(5.0.0-rc2-dev-387-ge7ed41593)*%
%TF.CreationDate,2018-04-19T15:37:23+02:00*%
%TF.ProjectId,MINI VESC,4D494E4920564553432E6B696361645F,rev?*%
%TF.SameCoordinates,Original*%
%TF.FileFunction,Copper,L3,Inr,Signal*%
%TF.FilePolarity,Positive*%
%FSLAX46Y46*%
G04 Gerber Fmt 4.6, Leading zero omitted, Abs format (unit mm)*
G04 Created by KiCad (PCBNEW (5.0.0-rc2-dev-387-ge7ed41593)) date 04/19/18 15:37:23*
%MOMM*%
%LPD*%
G01*
G04 APERTURE LIST*
%ADD10R,1.200000X1.200000*%
%ADD11R,0.700000X0.700000*%
%ADD12C,0.800000*%
%ADD13C,0.460000*%
%ADD14C,0.700000*%
%ADD15C,0.500000*%
%ADD16C,0.460000*%
%ADD17C,0.300000*%
%ADD18C,0.127000*%
%ADD19C,0.200000*%
%ADD20C,0.128000*%
%ADD21C,0.030000*%
G04 APERTURE END LIST*
D10*
X112300000Y-90250000D03*
X112300000Y-91750000D03*
X112300000Y-88750000D03*
X112300000Y-87250000D03*
X112300000Y-93250000D03*
X112300000Y-94750000D03*
X127575000Y-91750000D03*
X127575000Y-90250000D03*
X127575000Y-93250000D03*
X127575000Y-94750000D03*
X127575000Y-88750000D03*
X127575000Y-87250000D03*
X131450000Y-91750000D03*
X131450000Y-90250000D03*
X131450000Y-93250000D03*
X131450000Y-94750000D03*
X131450000Y-88750000D03*
X131450000Y-87250000D03*
D11*
X68600000Y-92050000D03*
X69300000Y-92050000D03*
X70000000Y-92050000D03*
X70000000Y-91350000D03*
X69300000Y-91350000D03*
X68600000Y-91350000D03*
X68600000Y-90650000D03*
X69300000Y-90650000D03*
X70000000Y-90650000D03*
X70000000Y-89950000D03*
X69300000Y-89950000D03*
X68600000Y-89950000D03*
X70000000Y-95750000D03*
X69300000Y-95750000D03*
X68600000Y-95750000D03*
X68600000Y-96450000D03*
X69300000Y-96450000D03*
X70000000Y-96450000D03*
X70000000Y-97150000D03*
X69300000Y-97150000D03*
X68600000Y-97150000D03*
X68600000Y-97850000D03*
X69300000Y-97850000D03*
X70000000Y-97850000D03*
X68600000Y-86250000D03*
X69300000Y-86250000D03*
X70000000Y-86250000D03*
X70000000Y-85550000D03*
X69300000Y-85550000D03*
X68600000Y-85550000D03*
X68600000Y-84850000D03*
X69300000Y-84850000D03*
X70000000Y-84850000D03*
X70000000Y-84150000D03*
X69300000Y-84150000D03*
X68600000Y-84150000D03*
X81300000Y-90000000D03*
X80600000Y-90000000D03*
X79900000Y-90000000D03*
X79900000Y-90700000D03*
X80600000Y-90700000D03*
X81300000Y-90700000D03*
X81300000Y-91400000D03*
X80600000Y-91400000D03*
X79900000Y-91400000D03*
X79900000Y-92100000D03*
X80600000Y-92100000D03*
X81300000Y-92100000D03*
X79900000Y-97850000D03*
X80600000Y-97850000D03*
X81300000Y-97850000D03*
X81300000Y-97150000D03*
X80600000Y-97150000D03*
X79900000Y-97150000D03*
X79900000Y-96450000D03*
X80600000Y-96450000D03*
X81300000Y-96450000D03*
X81300000Y-95750000D03*
X80600000Y-95750000D03*
X79900000Y-95750000D03*
X79900000Y-86350000D03*
X80600000Y-86350000D03*
X81300000Y-86350000D03*
X81300000Y-85650000D03*
X80600000Y-85650000D03*
X79900000Y-85650000D03*
X79900000Y-84950000D03*
X80600000Y-84950000D03*
X81300000Y-84950000D03*
X81300000Y-84250000D03*
X80600000Y-84250000D03*
X79900000Y-84250000D03*
D12*
X89550000Y-83200000D03*
X113900000Y-83200000D03*
X113000000Y-83200000D03*
X112100000Y-83200000D03*
X111200000Y-83200000D03*
X110200000Y-83200000D03*
X109300000Y-83200000D03*
X108400000Y-83200000D03*
X107500000Y-83200000D03*
X106600000Y-83200000D03*
X105700000Y-83200000D03*
X104800000Y-83200000D03*
X103900000Y-83200000D03*
X103000000Y-83200000D03*
X102100000Y-83200000D03*
X101200000Y-83200000D03*
X100300000Y-83200000D03*
X99400000Y-83200000D03*
X98500000Y-83200000D03*
X97600000Y-83200000D03*
X96700000Y-83200000D03*
X95800000Y-83200000D03*
X94900000Y-83200000D03*
X94000000Y-83200000D03*
X93100000Y-83200000D03*
X92200000Y-83200000D03*
X91300000Y-83200000D03*
X90400000Y-83200000D03*
D13*
X127550000Y-82750000D03*
D12*
X89113216Y-99199750D03*
D13*
X92010000Y-89950000D03*
X81742998Y-89100000D03*
X97000000Y-91587000D03*
X88100000Y-88362998D03*
X124600000Y-84700000D03*
D12*
X113500000Y-98800000D03*
X112600000Y-98800000D03*
X111700000Y-98800000D03*
X110800000Y-98800000D03*
X109900000Y-98800000D03*
X109000000Y-98800000D03*
X108100000Y-98800000D03*
X107200000Y-98800000D03*
X106300000Y-98800000D03*
X105400000Y-98800000D03*
X104500000Y-98800000D03*
X103600000Y-98800000D03*
X102700000Y-98800000D03*
X101800000Y-98800000D03*
X100900000Y-98800000D03*
X100000000Y-98800000D03*
X99100000Y-98800000D03*
X98200000Y-98800000D03*
X97300000Y-98800000D03*
X96400000Y-98800000D03*
X95500000Y-98800000D03*
X94600000Y-98800000D03*
X93700000Y-98800000D03*
X92800000Y-98800000D03*
X91900000Y-98800000D03*
X91000000Y-98800000D03*
D13*
X121248148Y-83750989D03*
X125500000Y-98370500D03*
X129100000Y-82750000D03*
X124156042Y-84800000D03*
X124156042Y-85200000D03*
X115400000Y-84850000D03*
X115150000Y-84604009D03*
X115150000Y-85100000D03*
X115643958Y-85100000D03*
X128250000Y-99050000D03*
X128700000Y-99050000D03*
X129150000Y-99050000D03*
X129600000Y-99050000D03*
X130050000Y-99050000D03*
X130500000Y-99050000D03*
X130950000Y-99050000D03*
X118600000Y-94000000D03*
X118600000Y-93499999D03*
X124643318Y-93250000D03*
X115100000Y-95250000D03*
D12*
X88847998Y-86207000D03*
D13*
X96992928Y-95463041D03*
X96992998Y-91000000D03*
X74500000Y-94500000D03*
X74400000Y-88700000D03*
X74300000Y-82900000D03*
X87512997Y-94162998D03*
X87512997Y-82562998D03*
X87512997Y-88362998D03*
X96997562Y-86247562D03*
X92020000Y-94450000D03*
X81747998Y-94900000D03*
X92000000Y-85450000D03*
X81747998Y-83300000D03*
X97000000Y-87050000D03*
X88100000Y-82562998D03*
D14*
X68000000Y-92650000D03*
X68000000Y-91550000D03*
X68000000Y-91000000D03*
X68000000Y-90450000D03*
X68000000Y-89900000D03*
X68000000Y-92100000D03*
X68600000Y-92650000D03*
X69300000Y-92650000D03*
X70000000Y-92650000D03*
X68000000Y-89350000D03*
X68600000Y-89350000D03*
X69300000Y-89350000D03*
X70000000Y-89350000D03*
D13*
X73600000Y-91000000D03*
D14*
X68000000Y-95150000D03*
X68600000Y-95150000D03*
X69300000Y-95150000D03*
X70000000Y-95150000D03*
X70000000Y-98450000D03*
X69300000Y-98450000D03*
X68600000Y-98450000D03*
X68000000Y-98450000D03*
X68000000Y-97900000D03*
X68000000Y-97350000D03*
X68000000Y-96800000D03*
X68000000Y-96250000D03*
X68000000Y-95700000D03*
D13*
X73600000Y-96800000D03*
D14*
X68000000Y-86900000D03*
X70000000Y-86900000D03*
X69300000Y-86900000D03*
X68600000Y-86900000D03*
X68000000Y-86350000D03*
X70000000Y-83550000D03*
X69300000Y-83550000D03*
X68600000Y-83550000D03*
X68000000Y-83600000D03*
X68000000Y-85800000D03*
X68000000Y-85250000D03*
X68000000Y-84700000D03*
X68000000Y-84150000D03*
D13*
X73600000Y-85200000D03*
X92057559Y-89364928D03*
X81680260Y-89683640D03*
X76400000Y-91000000D03*
X92054015Y-93853916D03*
X81678063Y-95482821D03*
X76400000Y-96800000D03*
X81691906Y-83884316D03*
X92000000Y-84650000D03*
X76400000Y-85200000D03*
X122800000Y-94800000D03*
X119900000Y-94800000D03*
X117100000Y-94800000D03*
X115100000Y-87750000D03*
X129547339Y-86152661D03*
X124100000Y-97909532D03*
X128343873Y-82766324D03*
X116300000Y-87750000D03*
X124700000Y-94750000D03*
X115100000Y-93750000D03*
X121450000Y-93499999D03*
X128300000Y-84692998D03*
X119646580Y-97757802D03*
X117183076Y-95862800D03*
X76400000Y-90100000D03*
X116640000Y-95640000D03*
X76387000Y-95916215D03*
X116099224Y-95868327D03*
X76337000Y-84300000D03*
X123100000Y-93500000D03*
X76400000Y-92900000D03*
X120200000Y-93500000D03*
X76400000Y-98700000D03*
X117400000Y-93500000D03*
X76400000Y-87000000D03*
X116312998Y-83778520D03*
X96950000Y-90050000D03*
X119375994Y-82650000D03*
X96950000Y-89100000D03*
X116849428Y-86732515D03*
X97000000Y-94500000D03*
X119962997Y-82650000D03*
X97000000Y-93650000D03*
X117500000Y-83270500D03*
X97000000Y-85500000D03*
X120550000Y-82650000D03*
X97000000Y-84600000D03*
X130810000Y-85870000D03*
X122050000Y-82642998D03*
X126037003Y-86150000D03*
X129750000Y-93250000D03*
X115700000Y-91600000D03*
X115700000Y-90400000D03*
X117026244Y-88213862D03*
X117028603Y-88800859D03*
X117032302Y-89387850D03*
X126627957Y-85920500D03*
X125450000Y-86150000D03*
X122747504Y-97757802D03*
X121342998Y-98400001D03*
X124750000Y-91750000D03*
X129307002Y-96434001D03*
X113257002Y-91243000D03*
X113277380Y-88178525D03*
X113257002Y-88765173D03*
X126000000Y-95256042D03*
X105150000Y-87600000D03*
X113257002Y-94750000D03*
X80900000Y-88100000D03*
X97000000Y-96050000D03*
X88100000Y-94162998D03*
X131573501Y-97277444D03*
X130422339Y-83827661D03*
X123950000Y-88750000D03*
X92017271Y-96663041D03*
X91957002Y-92174000D03*
X91957001Y-87584001D03*
X116450000Y-98150000D03*
D15*
X127300000Y-96667242D03*
D13*
X80312997Y-88100000D03*
X75700000Y-94500000D03*
X75600000Y-88700000D03*
X75700000Y-82900000D03*
X115724742Y-92198302D03*
X122610000Y-90390000D03*
X115816513Y-93245989D03*
D16*
X83988267Y-87180000D02*
X88914731Y-87180000D01*
X88914731Y-87180000D02*
X91684731Y-89950000D01*
X91684731Y-89950000D02*
X92010000Y-89950000D01*
X81742998Y-89100000D02*
X82068267Y-89100000D01*
X82068267Y-89100000D02*
X83988267Y-87180000D01*
X97000000Y-91587000D02*
X96674731Y-91587000D01*
X96405997Y-91055997D02*
X95875000Y-90525000D01*
X96674731Y-91587000D02*
X96405997Y-91318266D01*
X96405997Y-91318266D02*
X96405997Y-91055997D01*
X92303762Y-90525000D02*
X92291752Y-90537010D01*
X95875000Y-90525000D02*
X92303762Y-90525000D01*
X92291752Y-90537010D02*
X91441584Y-90537010D01*
X91093147Y-90188572D02*
X89267573Y-88362998D01*
X91441584Y-90537010D02*
X91097721Y-90193147D01*
X89267573Y-88362998D02*
X88100000Y-88362998D01*
X91097721Y-90193147D02*
X91093147Y-90193147D01*
X91093147Y-90193147D02*
X91093147Y-90188572D01*
D17*
X110510000Y-96320000D02*
X107770000Y-93580000D01*
X113050000Y-96320000D02*
X110510000Y-96320000D01*
X113982990Y-95387010D02*
X113050000Y-96320000D01*
X113982990Y-94482990D02*
X113982990Y-95387010D01*
X113130000Y-94080000D02*
X113580000Y-94080000D01*
X113580000Y-94080000D02*
X113982990Y-94482990D01*
X112460000Y-94750000D02*
X113130000Y-94080000D01*
X112300000Y-94750000D02*
X112460000Y-94750000D01*
D18*
X127550000Y-96120000D02*
X123470564Y-96120000D01*
X123470564Y-96120000D02*
X121910564Y-97680000D01*
X128250000Y-96820000D02*
X127550000Y-96120000D01*
X128250000Y-99050000D02*
X128250000Y-96820000D01*
X132494511Y-84694511D02*
X130550000Y-82750000D01*
X130550000Y-82750000D02*
X129100000Y-82750000D01*
X130950000Y-99050000D02*
X131275269Y-99050000D01*
X131275269Y-99050000D02*
X132494511Y-97830758D01*
X132494511Y-97830758D02*
X132494511Y-84694511D01*
D16*
X88847998Y-86207000D02*
X83661762Y-86207000D01*
X83661762Y-86207000D02*
X81181761Y-88687001D01*
X81181761Y-88687001D02*
X76455763Y-88687001D01*
X76455763Y-88687001D02*
X75881761Y-88112999D01*
X75881761Y-88112999D02*
X74987001Y-88112999D01*
X74987001Y-88112999D02*
X74629999Y-88470001D01*
X74629999Y-88470001D02*
X74400000Y-88700000D01*
X96992998Y-91000000D02*
X97000000Y-91000000D01*
X81747998Y-94900000D02*
X91570000Y-94900000D01*
X91570000Y-94900000D02*
X92020000Y-94450000D01*
X85390000Y-83890000D02*
X82566352Y-83890000D01*
X82566352Y-83890000D02*
X81973667Y-83297315D01*
X81973667Y-83297315D02*
X81750683Y-83297315D01*
X81750683Y-83297315D02*
X81747998Y-83300000D01*
X86165269Y-84665269D02*
X85390000Y-83890000D01*
X90890000Y-84665269D02*
X86165269Y-84665269D01*
X92000000Y-85450000D02*
X91674731Y-85450000D01*
X91674731Y-85450000D02*
X90890000Y-84665269D01*
X88100000Y-82562998D02*
X88100000Y-83470000D01*
X88100000Y-83470000D02*
X88692999Y-84062999D01*
X92281761Y-84062999D02*
X88692999Y-84062999D01*
X96160000Y-86250000D02*
X94468762Y-86250000D01*
X94468762Y-86250000D02*
X92281761Y-84062999D01*
X96730001Y-86820001D02*
X96160000Y-86250000D01*
X97000000Y-87050000D02*
X96770001Y-86820001D01*
X96770001Y-86820001D02*
X96730001Y-86820001D01*
X81683621Y-89687001D02*
X81680260Y-89683640D01*
X81682243Y-95487001D02*
X81678063Y-95482821D01*
D18*
X122480000Y-91490000D02*
X121450000Y-92520000D01*
X121450000Y-92520000D02*
X121450000Y-93499999D01*
X123150000Y-91490000D02*
X122480000Y-91490000D01*
X125740000Y-88900000D02*
X123150000Y-91490000D01*
X125740000Y-88070000D02*
X125740000Y-88900000D01*
X125720000Y-88090000D02*
X125740000Y-88070000D01*
X125029499Y-86419499D02*
X125029499Y-85920501D01*
X125740000Y-88070000D02*
X125740000Y-87130000D01*
X125740000Y-87130000D02*
X125029499Y-86419499D01*
X125029499Y-85920501D02*
X126257002Y-84692998D01*
X126257002Y-84692998D02*
X128300000Y-84692998D01*
X96950000Y-90050000D02*
X96950000Y-89722342D01*
X97318332Y-89354010D02*
X97380484Y-89354009D01*
X97380484Y-89354009D02*
X102550984Y-84183509D01*
X96950000Y-89722342D02*
X97318332Y-89354010D01*
X116184478Y-83650000D02*
X116312998Y-83778520D01*
X102550984Y-84183509D02*
X114775716Y-84183508D01*
X114775716Y-84183508D02*
X115309224Y-83650000D01*
X115309224Y-83650000D02*
X116184478Y-83650000D01*
X96950000Y-89100000D02*
X97275269Y-89100000D01*
X97275269Y-89100000D02*
X102445770Y-83929499D01*
X119050725Y-82650000D02*
X119375994Y-82650000D01*
X102445770Y-83929499D02*
X114670501Y-83929499D01*
X114670501Y-83929499D02*
X116100000Y-82500000D01*
X116100000Y-82500000D02*
X118900725Y-82500000D01*
X118900725Y-82500000D02*
X119050725Y-82650000D01*
X116670304Y-86565839D02*
X116682752Y-86565839D01*
X116682752Y-86565839D02*
X116849428Y-86732515D01*
X97000000Y-94500000D02*
X105040501Y-86459499D01*
X105040501Y-86459499D02*
X116563964Y-86459499D01*
X116563964Y-86459499D02*
X116670304Y-86565839D01*
X115594511Y-86205489D02*
X104935287Y-86205489D01*
X116070501Y-85729499D02*
X115594511Y-86205489D01*
X116929571Y-85729499D02*
X116070501Y-85729499D01*
X116929571Y-85729499D02*
X116929571Y-85718765D01*
X116929571Y-85718765D02*
X119732998Y-82915338D01*
X119732998Y-82915338D02*
X119732998Y-82879999D01*
X119732998Y-82879999D02*
X119962997Y-82650000D01*
X97720775Y-93420001D02*
X104935287Y-86205489D01*
X97000000Y-93650000D02*
X97229999Y-93420001D01*
X97229999Y-93420001D02*
X97720775Y-93420001D01*
X129160000Y-83700000D02*
X130810000Y-85350000D01*
X130810000Y-85350000D02*
X130810000Y-85870000D01*
X128550000Y-83700000D02*
X129160000Y-83700000D01*
X123107002Y-83700000D02*
X122050000Y-82642998D01*
X128550000Y-83700000D02*
X123107002Y-83700000D01*
X126037003Y-86150000D02*
X126037003Y-85824731D01*
X126037003Y-85824731D02*
X126030000Y-85817728D01*
X126030000Y-85817728D02*
X126030000Y-85580000D01*
X126030000Y-85580000D02*
X126380000Y-85230000D01*
X126380000Y-85230000D02*
X127457126Y-85230000D01*
X127457126Y-85230000D02*
X129500000Y-87272874D01*
X129500000Y-87272874D02*
X129500000Y-93000000D01*
X129500000Y-93000000D02*
X129750000Y-93250000D01*
D17*
X112300000Y-90250000D02*
X112522537Y-90250000D01*
X112522537Y-90250000D02*
X114515536Y-88257001D01*
X114515536Y-88257001D02*
X116657836Y-88257001D01*
X116657836Y-88257001D02*
X116700975Y-88213862D01*
X116700975Y-88213862D02*
X117026244Y-88213862D01*
X112300000Y-91750000D02*
X113500364Y-91750000D01*
X113500364Y-91750000D02*
X116449505Y-88800859D01*
X116449505Y-88800859D02*
X116703334Y-88800859D01*
X116703334Y-88800859D02*
X117028603Y-88800859D01*
X112300000Y-93250000D02*
X113200000Y-93250000D01*
X117032302Y-89818060D02*
X117032302Y-89713119D01*
X113200000Y-93250000D02*
X115542999Y-90907001D01*
X117032302Y-89713119D02*
X117032302Y-89387850D01*
X115542999Y-90907001D02*
X115943361Y-90907001D01*
X115943361Y-90907001D02*
X117032302Y-89818060D01*
D18*
X126624006Y-86150000D02*
X126624006Y-85924451D01*
X126624006Y-85924451D02*
X126627957Y-85920500D01*
X126250000Y-88100000D02*
X126624006Y-87725994D01*
X126624006Y-87725994D02*
X126624006Y-86150000D01*
X126250000Y-91152000D02*
X126250000Y-88100000D01*
X127575000Y-91750000D02*
X126848000Y-91750000D01*
X126848000Y-91750000D02*
X126250000Y-91152000D01*
X127575000Y-93250000D02*
X126800000Y-93250000D01*
X126800000Y-93250000D02*
X126700000Y-93150000D01*
X126700000Y-93150000D02*
X126700000Y-92417902D01*
X125600000Y-86400000D02*
X125600000Y-86300000D01*
X126700000Y-92417902D02*
X125995991Y-91713893D01*
X125995991Y-91713893D02*
X125995990Y-86704010D01*
X125862481Y-86570501D02*
X125770501Y-86570501D01*
X125995990Y-86704010D02*
X125862481Y-86570501D01*
X125770501Y-86570501D02*
X125600000Y-86400000D01*
X125600000Y-86300000D02*
X125450000Y-86150000D01*
X130390000Y-91030000D02*
X130390000Y-91417000D01*
X130390000Y-91417000D02*
X130723000Y-91750000D01*
X130723000Y-91750000D02*
X131450000Y-91750000D01*
X130390000Y-89450000D02*
X130390000Y-91030000D01*
X130389499Y-85668159D02*
X130389499Y-89449499D01*
X130389499Y-89449499D02*
X130390000Y-89450000D01*
X129049284Y-84460716D02*
X129182056Y-84460716D01*
X129182056Y-84460716D02*
X130389499Y-85668159D01*
X128607056Y-84018488D02*
X129049284Y-84460716D01*
X128110000Y-84018487D02*
X128607056Y-84018488D01*
X126213065Y-84018487D02*
X128110000Y-84018487D01*
X125625776Y-84605776D02*
X126213065Y-84018487D01*
X124521481Y-85710071D02*
X125625776Y-84605776D01*
X123515287Y-87075489D02*
X124365990Y-86224786D01*
X124365990Y-86224786D02*
X124365990Y-85865562D01*
X124365990Y-85865562D02*
X124521481Y-85710071D01*
X118574511Y-87075489D02*
X118154010Y-87495990D01*
X123515287Y-87075489D02*
X118574511Y-87075489D01*
X116584714Y-87075490D02*
X114380416Y-87075489D01*
X118154010Y-87495990D02*
X117005214Y-87495990D01*
X117005214Y-87495990D02*
X116584714Y-87075490D01*
X114380416Y-87075489D02*
X113277380Y-88178525D01*
X113257002Y-88765173D02*
X113313074Y-88765173D01*
X124620000Y-86330000D02*
X124620000Y-86070000D01*
X116479499Y-87329499D02*
X116900000Y-87750000D01*
X124620000Y-86070000D02*
X124775489Y-85914511D01*
X113313074Y-88765173D02*
X114748748Y-87329499D01*
X114748748Y-87329499D02*
X115429499Y-87329499D01*
X130723000Y-93250000D02*
X131450000Y-93250000D01*
X115429499Y-87329499D02*
X115550000Y-87450000D01*
X129060000Y-84830656D02*
X129192772Y-84830656D01*
X115550000Y-87450000D02*
X115977658Y-87450000D01*
X124775490Y-85815286D02*
X126318279Y-84272497D01*
X126318279Y-84272497D02*
X128501841Y-84272497D01*
X115977658Y-87450000D02*
X116098159Y-87329499D01*
X116098159Y-87329499D02*
X116479499Y-87329499D01*
X116900000Y-87750000D02*
X118259225Y-87749999D01*
X118259225Y-87749999D02*
X118679725Y-87329499D01*
X118679725Y-87329499D02*
X123620502Y-87329498D01*
X128501841Y-84272497D02*
X129060000Y-84830656D01*
X123620502Y-87329498D02*
X124620000Y-86330000D01*
X124775489Y-85914511D02*
X124775490Y-85815286D01*
X129192772Y-84830656D02*
X130135489Y-85773373D01*
X130135489Y-85773373D02*
X130135489Y-92662489D01*
X130135489Y-92662489D02*
X130723000Y-93250000D01*
X112750000Y-95900000D02*
X113257002Y-95392998D01*
X113257002Y-95392998D02*
X113257002Y-94750000D01*
X111907098Y-95900000D02*
X112750000Y-95900000D01*
X111509499Y-87359499D02*
X111509499Y-95502401D01*
X111509499Y-95502401D02*
X111907098Y-95900000D01*
X106036491Y-86713509D02*
X110863509Y-86713509D01*
X110863509Y-86713509D02*
X111509499Y-87359499D01*
X105150000Y-87600000D02*
X106036491Y-86713509D01*
D16*
X88100000Y-94162998D02*
X88996083Y-93266915D01*
X88996083Y-93266915D02*
X93928040Y-93266915D01*
X93928040Y-93266915D02*
X96711167Y-96050042D01*
X96711167Y-96050042D02*
X97000000Y-96050042D01*
X99890000Y-96100000D02*
X108750000Y-96100000D01*
X108750000Y-96100000D02*
X109550000Y-96900000D01*
X115233740Y-92960000D02*
X115425709Y-92768031D01*
X109550000Y-96900000D02*
X113570000Y-96900000D01*
X113570000Y-96900000D02*
X114490000Y-95980000D01*
X114490000Y-95980000D02*
X114490000Y-93870000D01*
X114490000Y-93870000D02*
X114512999Y-93847001D01*
X114512999Y-93847001D02*
X114512999Y-93468239D01*
X114512999Y-93468239D02*
X115021238Y-92960000D01*
X115021238Y-92960000D02*
X115233740Y-92960000D01*
D19*
X96364659Y-90165341D02*
X96300000Y-90230000D01*
X96442999Y-90165341D02*
X96364659Y-90165341D01*
D17*
X96442999Y-90293361D02*
X96660000Y-90510362D01*
X96660000Y-90510362D02*
X96696137Y-90546499D01*
D19*
X97246861Y-90503501D02*
X97172861Y-90503501D01*
X97172861Y-90503501D02*
X97166000Y-90510362D01*
X97166000Y-90510362D02*
X96660000Y-90510362D01*
X96696137Y-90546499D02*
X96853501Y-90546499D01*
X96853501Y-90546499D02*
X96892999Y-90507001D01*
X96892999Y-90507001D02*
X97243361Y-90507001D01*
X97243361Y-90507001D02*
X97246861Y-90503501D01*
D18*
X97383706Y-94985056D02*
X97290000Y-94984045D01*
D19*
X97283939Y-94977984D02*
X97290000Y-94984045D01*
D18*
X97290000Y-94984045D02*
X97170000Y-94982752D01*
D19*
X96727622Y-94977984D02*
X97283939Y-94977984D01*
X115850950Y-92730000D02*
X116231743Y-92349207D01*
X116231743Y-92349207D02*
X116231743Y-92236069D01*
D18*
X115490000Y-92776450D02*
X115425709Y-92768031D01*
X119940000Y-88750000D02*
X115875647Y-92705303D01*
D17*
X115535690Y-92776450D02*
X115582140Y-92730000D01*
X115490000Y-92776450D02*
X115535690Y-92776450D01*
X115582140Y-92730000D02*
X115850950Y-92730000D01*
X115850950Y-92730000D02*
X115875647Y-92705303D01*
X116231743Y-92348257D02*
X116231743Y-92236069D01*
X116231743Y-92236069D02*
X116328906Y-92138906D01*
D18*
X97170000Y-94982752D02*
X96727622Y-94977984D01*
D17*
X97448261Y-94920501D02*
X97329861Y-94920501D01*
X97267610Y-94982752D02*
X97170000Y-94982752D01*
X97329861Y-94920501D02*
X97267610Y-94982752D01*
X96609222Y-94977984D02*
X96727622Y-94977984D01*
D18*
X96696137Y-90546499D02*
X96857148Y-90579490D01*
D17*
X96277658Y-90000000D02*
X96442999Y-90165341D01*
X96442999Y-90165341D02*
X96442999Y-90293361D01*
X97246861Y-90503501D02*
X97322850Y-90579490D01*
X97429490Y-90579490D02*
X97322850Y-90579490D01*
D16*
X119051932Y-89415880D02*
X116328906Y-92138906D01*
X119940000Y-88750000D02*
X119717812Y-88750000D01*
X119717812Y-88750000D02*
X119051932Y-89415880D01*
X123950000Y-88750000D02*
X122640000Y-88750000D01*
X122640000Y-88750000D02*
X119940000Y-88750000D01*
X98620501Y-94920501D02*
X98710501Y-94920501D01*
X98710501Y-94920501D02*
X99890000Y-96100000D01*
D18*
X99890000Y-96100000D02*
X99800000Y-96100000D01*
D16*
X97217158Y-96663041D02*
X97780199Y-96100000D01*
X92017271Y-96663041D02*
X97217158Y-96663041D01*
X97780199Y-96100000D02*
X99890000Y-96100000D01*
X98620501Y-94920501D02*
X97448261Y-94920501D01*
X97448261Y-94920501D02*
X97383706Y-94985056D01*
X95900000Y-94022342D02*
X95900000Y-94110000D01*
X95900000Y-94110000D02*
X96412999Y-94622999D01*
X96412999Y-94622999D02*
X96412999Y-94781761D01*
X96412999Y-94781761D02*
X96609222Y-94977984D01*
X94051658Y-92174000D02*
X95900000Y-94022342D01*
X91957002Y-92174000D02*
X94051658Y-92174000D01*
D18*
X95900000Y-93790000D02*
X95900000Y-94022342D01*
D16*
X97850000Y-91000000D02*
X97850000Y-91840000D01*
X97850000Y-91840000D02*
X95900000Y-93790000D01*
X97429490Y-90579490D02*
X97850000Y-91000000D01*
X91957001Y-87584001D02*
X92187000Y-87814000D01*
X92187000Y-87814000D02*
X94091658Y-87814000D01*
X94091658Y-87814000D02*
X96277658Y-90000000D01*
D18*
X99800000Y-96100000D02*
X98620501Y-94920501D01*
X96857148Y-90579490D02*
X97429490Y-90579490D01*
D16*
X127300000Y-96667242D02*
X127300000Y-97550000D01*
X127300000Y-97550000D02*
X125500000Y-99350000D01*
X125500000Y-99350000D02*
X116680000Y-99350000D01*
X116680000Y-99350000D02*
X115290000Y-97960000D01*
X89140000Y-97960000D02*
X87750000Y-99350000D01*
X87750000Y-99350000D02*
X72850000Y-99350000D01*
X115290000Y-97960000D02*
X89140000Y-97960000D01*
X71650000Y-88900000D02*
X72093148Y-88456852D01*
X72093148Y-88456852D02*
X73812992Y-88456852D01*
X72850000Y-99350000D02*
X71650000Y-98150000D01*
X71650000Y-98150000D02*
X71650000Y-88900000D01*
D19*
X123930000Y-98857001D02*
X124032999Y-98857001D01*
X117482270Y-98857001D02*
X123930000Y-98857001D01*
D18*
X123930000Y-98857001D02*
X126119759Y-96667242D01*
X126119759Y-96667242D02*
X127300000Y-96667242D01*
D19*
X116450000Y-98150000D02*
X116775269Y-98150000D01*
X116775269Y-98150000D02*
X117482270Y-98857001D01*
X124032999Y-98857001D02*
X124160000Y-98730000D01*
D16*
X126802758Y-96667242D02*
X126222758Y-96667242D01*
X126222758Y-96667242D02*
X124160000Y-98730000D01*
X127300000Y-96667242D02*
X126802758Y-96667242D01*
X80312997Y-88100000D02*
X80082998Y-87870001D01*
X80082998Y-87870001D02*
X76468919Y-87870001D01*
X76468919Y-87870001D02*
X76124908Y-87525989D01*
X76124908Y-87525989D02*
X74743855Y-87525989D01*
X74743855Y-87525989D02*
X74187001Y-88082843D01*
X75700000Y-94500000D02*
X75700000Y-90830156D01*
X75700000Y-90830156D02*
X74156852Y-89287008D01*
X75700000Y-82900000D02*
X74187001Y-84412999D01*
X74187001Y-84412999D02*
X74187001Y-88082843D01*
X74187001Y-88082843D02*
X73812992Y-88456852D01*
X73812992Y-88456852D02*
X73812992Y-88943148D01*
X73812992Y-88943148D02*
X74156852Y-89287008D01*
X74156852Y-89287008D02*
X75012992Y-89287008D01*
X75012992Y-89287008D02*
X75370001Y-88929999D01*
X75370001Y-88929999D02*
X75600000Y-88700000D01*
D18*
X115816513Y-93245989D02*
X119226114Y-89836388D01*
X119226114Y-89836388D02*
X122056388Y-89836388D01*
X122056388Y-89836388D02*
X122610000Y-90390000D01*
D20*
G36*
X87086000Y-82480000D02*
X87086000Y-82630000D01*
X87090266Y-82652975D01*
X87140266Y-82782975D01*
X87154745Y-82805255D01*
X87264745Y-82915255D01*
X87287025Y-82929734D01*
X87417025Y-82979734D01*
X87440000Y-82984000D01*
X87580000Y-82984000D01*
X87601526Y-82980271D01*
X87678000Y-82952959D01*
X87678001Y-83428436D01*
X87669733Y-83470000D01*
X87695633Y-83600203D01*
X87702486Y-83634656D01*
X87795756Y-83774245D01*
X87830991Y-83797788D01*
X88276471Y-84243269D01*
X86340067Y-84243269D01*
X85717790Y-83620993D01*
X85694245Y-83585755D01*
X85554656Y-83492485D01*
X85431561Y-83468000D01*
X85431560Y-83468000D01*
X85390000Y-83459733D01*
X85348440Y-83468000D01*
X82741151Y-83468000D01*
X82301457Y-83028308D01*
X82277912Y-82993070D01*
X82138323Y-82899800D01*
X82015228Y-82875315D01*
X82015227Y-82875315D01*
X81973667Y-82867048D01*
X81932107Y-82875315D01*
X81792242Y-82875315D01*
X81750682Y-82867048D01*
X81709122Y-82875315D01*
X81695624Y-82878000D01*
X81664057Y-82878000D01*
X81634894Y-82890080D01*
X81586027Y-82899800D01*
X81544599Y-82927481D01*
X81508954Y-82942246D01*
X81481674Y-82969526D01*
X81446438Y-82993070D01*
X81422894Y-83028306D01*
X81390244Y-83060956D01*
X81374025Y-83100113D01*
X81350484Y-83135344D01*
X81342217Y-83176902D01*
X81325998Y-83216059D01*
X81325998Y-83258440D01*
X81317731Y-83300000D01*
X81325998Y-83341560D01*
X81325998Y-83383941D01*
X81342217Y-83423098D01*
X81350484Y-83464656D01*
X81374024Y-83499887D01*
X81390244Y-83539044D01*
X81415312Y-83564112D01*
X81334152Y-83645272D01*
X81309727Y-83704239D01*
X79550000Y-83704239D01*
X79475086Y-83719140D01*
X79411576Y-83761576D01*
X79369140Y-83825086D01*
X79354239Y-83900000D01*
X79354239Y-86700000D01*
X79369140Y-86774914D01*
X79411576Y-86838424D01*
X79475086Y-86880860D01*
X79550000Y-86895761D01*
X81650000Y-86895761D01*
X81724914Y-86880860D01*
X81788424Y-86838424D01*
X81830860Y-86774914D01*
X81845761Y-86700000D01*
X81845761Y-84277357D01*
X81930950Y-84242070D01*
X82049660Y-84123360D01*
X82094547Y-84014993D01*
X82238565Y-84159012D01*
X82262107Y-84194245D01*
X82297340Y-84217787D01*
X82312109Y-84227655D01*
X82401696Y-84287515D01*
X82524791Y-84312000D01*
X82566351Y-84320267D01*
X82607911Y-84312000D01*
X85215203Y-84312000D01*
X85837480Y-84934278D01*
X85861024Y-84969514D01*
X86000613Y-85062784D01*
X86123708Y-85087269D01*
X86123709Y-85087269D01*
X86165269Y-85095536D01*
X86206829Y-85087269D01*
X90715203Y-85087269D01*
X91346942Y-85719009D01*
X91370486Y-85754245D01*
X91510075Y-85847515D01*
X91633170Y-85872000D01*
X91674730Y-85880267D01*
X91716290Y-85872000D01*
X92083941Y-85872000D01*
X92123094Y-85855782D01*
X92164656Y-85847515D01*
X92199891Y-85823972D01*
X92239044Y-85807754D01*
X92269009Y-85777789D01*
X92304245Y-85754245D01*
X92327789Y-85719009D01*
X92357754Y-85689044D01*
X92373972Y-85649891D01*
X92397515Y-85614656D01*
X92405782Y-85573094D01*
X92422000Y-85533941D01*
X92422000Y-85491561D01*
X92430267Y-85450000D01*
X92422000Y-85408439D01*
X92422000Y-85366059D01*
X92405782Y-85326906D01*
X92397515Y-85285344D01*
X92373972Y-85250109D01*
X92357754Y-85210956D01*
X92327789Y-85180991D01*
X92304245Y-85145755D01*
X92269009Y-85122211D01*
X92239044Y-85092246D01*
X92199891Y-85076028D01*
X92164656Y-85052485D01*
X92141955Y-85047970D01*
X92239044Y-85007754D01*
X92357754Y-84889044D01*
X92402641Y-84780677D01*
X94140973Y-86519009D01*
X94164517Y-86554245D01*
X94304106Y-86647515D01*
X94427201Y-86672000D01*
X94468761Y-86680267D01*
X94510321Y-86672000D01*
X95985203Y-86672000D01*
X96402214Y-87089013D01*
X96425756Y-87124246D01*
X96460989Y-87147788D01*
X96489181Y-87166625D01*
X96565345Y-87217516D01*
X96572053Y-87218850D01*
X96642245Y-87289042D01*
X96642246Y-87289044D01*
X96760956Y-87407754D01*
X96800110Y-87423972D01*
X96835344Y-87447515D01*
X96876906Y-87455782D01*
X96916059Y-87472000D01*
X96958439Y-87472000D01*
X97000000Y-87480267D01*
X97041561Y-87472000D01*
X97083941Y-87472000D01*
X97123094Y-87455782D01*
X97164656Y-87447515D01*
X97199890Y-87423972D01*
X97239044Y-87407754D01*
X97269013Y-87377785D01*
X97304244Y-87354244D01*
X97327785Y-87319013D01*
X97357754Y-87289044D01*
X97373972Y-87249890D01*
X97397515Y-87214656D01*
X97405782Y-87173094D01*
X97422000Y-87133941D01*
X97422000Y-87091561D01*
X97430267Y-87050000D01*
X97422000Y-87008439D01*
X97422000Y-86966059D01*
X97405782Y-86926906D01*
X97397515Y-86885344D01*
X97373972Y-86850110D01*
X97357754Y-86810956D01*
X97239044Y-86692246D01*
X97239042Y-86692245D01*
X97174031Y-86627234D01*
X97221526Y-86610271D01*
X97245255Y-86595255D01*
X97345255Y-86495255D01*
X97360271Y-86471526D01*
X97410271Y-86331526D01*
X97414000Y-86310000D01*
X97414000Y-86170000D01*
X97410271Y-86148474D01*
X97360271Y-86008474D01*
X97345255Y-85984745D01*
X97245255Y-85884745D01*
X97221526Y-85869729D01*
X97215409Y-85867544D01*
X97239044Y-85857754D01*
X97357754Y-85739044D01*
X97422000Y-85583941D01*
X97422000Y-85416059D01*
X97357754Y-85260956D01*
X97239044Y-85142246D01*
X97083941Y-85078000D01*
X96916059Y-85078000D01*
X96760956Y-85142246D01*
X96642246Y-85260956D01*
X96578000Y-85416059D01*
X96578000Y-85583941D01*
X96642246Y-85739044D01*
X96760956Y-85857754D01*
X96779541Y-85865452D01*
X96767025Y-85870266D01*
X96744745Y-85884745D01*
X96634745Y-85994745D01*
X96620923Y-86015385D01*
X96591882Y-86085084D01*
X96487790Y-85980993D01*
X96464245Y-85945755D01*
X96324656Y-85852485D01*
X96201561Y-85828000D01*
X96201560Y-85828000D01*
X96160000Y-85819733D01*
X96118440Y-85828000D01*
X94643560Y-85828000D01*
X93079559Y-84264000D01*
X96739202Y-84264000D01*
X96642246Y-84360956D01*
X96578000Y-84516059D01*
X96578000Y-84683941D01*
X96642246Y-84839044D01*
X96760956Y-84957754D01*
X96916059Y-85022000D01*
X97083941Y-85022000D01*
X97239044Y-84957754D01*
X97357754Y-84839044D01*
X97422000Y-84683941D01*
X97422000Y-84516059D01*
X97357754Y-84360956D01*
X97260798Y-84264000D01*
X101749937Y-84264000D01*
X97230368Y-88783570D01*
X97189044Y-88742246D01*
X97033941Y-88678000D01*
X96866059Y-88678000D01*
X96710956Y-88742246D01*
X96592246Y-88860956D01*
X96528000Y-89016059D01*
X96528000Y-89183941D01*
X96592246Y-89339044D01*
X96710956Y-89457754D01*
X96811578Y-89499433D01*
X96787126Y-89523885D01*
X96765796Y-89538137D01*
X96751544Y-89559467D01*
X96751542Y-89559469D01*
X96709325Y-89622652D01*
X96691639Y-89711563D01*
X96632189Y-89771013D01*
X96605445Y-89730989D01*
X94419448Y-87544993D01*
X94395903Y-87509755D01*
X94256314Y-87416485D01*
X94133219Y-87392000D01*
X94133218Y-87392000D01*
X94091658Y-87383733D01*
X94050098Y-87392000D01*
X92361797Y-87392000D01*
X92314756Y-87344959D01*
X92314755Y-87344957D01*
X92196045Y-87226247D01*
X92156888Y-87210028D01*
X92121657Y-87186487D01*
X92080099Y-87178220D01*
X92040942Y-87162001D01*
X91998561Y-87162001D01*
X91957001Y-87153734D01*
X91915441Y-87162001D01*
X91873060Y-87162001D01*
X91833903Y-87178220D01*
X91792345Y-87186487D01*
X91757114Y-87210027D01*
X91717957Y-87226247D01*
X91687987Y-87256217D01*
X91652757Y-87279757D01*
X91629217Y-87314987D01*
X91599247Y-87344957D01*
X91583027Y-87384114D01*
X91559487Y-87419345D01*
X91551220Y-87460903D01*
X91535001Y-87500060D01*
X91535001Y-87542441D01*
X91526734Y-87584001D01*
X91535001Y-87625561D01*
X91535001Y-87667942D01*
X91551220Y-87707099D01*
X91559487Y-87748657D01*
X91583028Y-87783888D01*
X91599247Y-87823045D01*
X91717957Y-87941755D01*
X91717959Y-87941756D01*
X91859209Y-88083006D01*
X91882755Y-88118245D01*
X92001799Y-88197787D01*
X92022344Y-88211515D01*
X92187000Y-88244267D01*
X92228561Y-88236000D01*
X93916861Y-88236000D01*
X95783860Y-90103000D01*
X92409834Y-90103000D01*
X92415782Y-90073094D01*
X92432000Y-90033941D01*
X92432000Y-89991561D01*
X92440267Y-89950000D01*
X92432000Y-89908439D01*
X92432000Y-89866059D01*
X92415782Y-89826906D01*
X92407515Y-89785344D01*
X92383972Y-89750109D01*
X92367754Y-89710956D01*
X92338042Y-89681244D01*
X92415313Y-89603972D01*
X92479559Y-89448869D01*
X92479559Y-89280987D01*
X92415313Y-89125884D01*
X92296603Y-89007174D01*
X92141500Y-88942928D01*
X91973618Y-88942928D01*
X91818515Y-89007174D01*
X91699805Y-89125884D01*
X91635559Y-89280987D01*
X91635559Y-89304030D01*
X89242522Y-86910993D01*
X89218976Y-86875755D01*
X89079387Y-86782485D01*
X88956292Y-86758000D01*
X88956291Y-86758000D01*
X88914731Y-86749733D01*
X88873171Y-86758000D01*
X84029826Y-86758000D01*
X83988266Y-86749733D01*
X83946706Y-86758000D01*
X83823611Y-86782485D01*
X83684022Y-86875755D01*
X83660480Y-86910988D01*
X81893470Y-88678000D01*
X81659057Y-88678000D01*
X81619904Y-88694218D01*
X81578342Y-88702485D01*
X81543107Y-88726028D01*
X81503954Y-88742246D01*
X81473989Y-88772211D01*
X81438753Y-88795755D01*
X81415210Y-88830990D01*
X81385244Y-88860956D01*
X81369026Y-88900109D01*
X81345483Y-88935344D01*
X81337216Y-88976906D01*
X81320998Y-89016059D01*
X81320998Y-89058439D01*
X81312731Y-89100000D01*
X81320998Y-89141561D01*
X81320998Y-89183941D01*
X81337216Y-89223094D01*
X81345483Y-89264656D01*
X81369026Y-89299891D01*
X81385244Y-89339044D01*
X81405737Y-89359537D01*
X81376016Y-89379396D01*
X81352476Y-89414626D01*
X81322506Y-89444596D01*
X81318512Y-89454239D01*
X79550000Y-89454239D01*
X79475086Y-89469140D01*
X79411576Y-89511576D01*
X79369140Y-89575086D01*
X79354239Y-89650000D01*
X79354239Y-92450000D01*
X79369140Y-92524914D01*
X79411576Y-92588424D01*
X79475086Y-92630860D01*
X79550000Y-92645761D01*
X81650000Y-92645761D01*
X81724914Y-92630860D01*
X81788424Y-92588424D01*
X81830860Y-92524914D01*
X81845761Y-92450000D01*
X81845761Y-90085015D01*
X81848277Y-90084515D01*
X81902223Y-90048469D01*
X81919304Y-90041394D01*
X81932377Y-90028321D01*
X81987865Y-89991245D01*
X82024941Y-89935757D01*
X82038014Y-89922684D01*
X82045089Y-89905603D01*
X82081135Y-89851657D01*
X82093793Y-89788022D01*
X82102260Y-89767581D01*
X82102260Y-89745457D01*
X82113888Y-89687000D01*
X82102260Y-89628544D01*
X82102260Y-89599699D01*
X82091221Y-89573048D01*
X82082161Y-89527503D01*
X82109827Y-89522000D01*
X82109828Y-89522000D01*
X82232923Y-89497515D01*
X82372512Y-89404245D01*
X82396057Y-89369007D01*
X84163066Y-87602000D01*
X88739934Y-87602000D01*
X89078932Y-87940998D01*
X88016059Y-87940998D01*
X87976906Y-87957216D01*
X87935344Y-87965483D01*
X87900109Y-87989026D01*
X87860956Y-88005244D01*
X87830991Y-88035209D01*
X87803852Y-88053342D01*
X87765255Y-88014745D01*
X87741526Y-87999729D01*
X87601526Y-87949729D01*
X87580000Y-87946000D01*
X87440000Y-87946000D01*
X87417025Y-87950266D01*
X87287025Y-88000266D01*
X87264745Y-88014745D01*
X87154745Y-88124745D01*
X87140923Y-88145385D01*
X87090923Y-88265385D01*
X87086000Y-88290000D01*
X87086000Y-88440000D01*
X87090266Y-88462975D01*
X87140266Y-88592975D01*
X87154745Y-88615255D01*
X87264745Y-88725255D01*
X87287025Y-88739734D01*
X87417025Y-88789734D01*
X87440000Y-88794000D01*
X87580000Y-88794000D01*
X87601526Y-88790271D01*
X87741526Y-88740271D01*
X87765255Y-88725255D01*
X87812247Y-88678263D01*
X87830991Y-88690787D01*
X87860956Y-88720752D01*
X87900109Y-88736970D01*
X87935344Y-88760513D01*
X87976906Y-88768780D01*
X88016059Y-88784998D01*
X89092776Y-88784998D01*
X90756147Y-90448370D01*
X90788902Y-90497392D01*
X90837924Y-90530148D01*
X91113795Y-90806019D01*
X91137339Y-90841255D01*
X91249292Y-90916059D01*
X91276928Y-90934525D01*
X91441584Y-90967277D01*
X91483145Y-90959010D01*
X92250192Y-90959010D01*
X92291752Y-90967277D01*
X92333312Y-90959010D01*
X92333313Y-90959010D01*
X92393692Y-90947000D01*
X95700202Y-90947000D01*
X95983997Y-91230795D01*
X95983997Y-91276706D01*
X95975730Y-91318266D01*
X95983997Y-91359826D01*
X96008482Y-91482921D01*
X96101752Y-91622511D01*
X96136991Y-91646057D01*
X96346940Y-91856006D01*
X96370486Y-91891245D01*
X96510075Y-91984515D01*
X96633170Y-92009000D01*
X96674730Y-92017267D01*
X96716290Y-92009000D01*
X97083941Y-92009000D01*
X97084387Y-92008815D01*
X95783829Y-93309374D01*
X94379448Y-91904993D01*
X94355903Y-91869755D01*
X94216314Y-91776485D01*
X94093219Y-91752000D01*
X94093218Y-91752000D01*
X94051658Y-91743733D01*
X94010098Y-91752000D01*
X91873061Y-91752000D01*
X91833908Y-91768218D01*
X91792346Y-91776485D01*
X91757111Y-91800028D01*
X91717958Y-91816246D01*
X91687993Y-91846211D01*
X91652757Y-91869755D01*
X91629213Y-91904991D01*
X91599248Y-91934956D01*
X91583030Y-91974109D01*
X91559487Y-92009344D01*
X91551220Y-92050906D01*
X91535002Y-92090059D01*
X91535002Y-92132439D01*
X91526735Y-92174000D01*
X91535002Y-92215561D01*
X91535002Y-92257941D01*
X91551220Y-92297094D01*
X91559487Y-92338656D01*
X91583030Y-92373891D01*
X91599248Y-92413044D01*
X91629213Y-92443009D01*
X91652757Y-92478245D01*
X91687993Y-92501789D01*
X91717958Y-92531754D01*
X91757111Y-92547972D01*
X91792346Y-92571515D01*
X91833908Y-92579782D01*
X91873061Y-92596000D01*
X93876861Y-92596000D01*
X95489317Y-94208457D01*
X95495013Y-94237090D01*
X94255831Y-92997908D01*
X94232285Y-92962670D01*
X94092696Y-92869400D01*
X93969601Y-92844915D01*
X93969600Y-92844915D01*
X93928040Y-92836648D01*
X93886480Y-92844915D01*
X89037644Y-92844915D01*
X88996083Y-92836648D01*
X88954522Y-92844915D01*
X88831427Y-92869400D01*
X88691838Y-92962670D01*
X88668294Y-92997906D01*
X87860958Y-93805243D01*
X87860956Y-93805244D01*
X87808355Y-93857845D01*
X87763537Y-93813027D01*
X87739808Y-93798011D01*
X87599808Y-93748011D01*
X87578282Y-93744282D01*
X87438282Y-93744282D01*
X87415307Y-93748548D01*
X87285307Y-93798548D01*
X87263027Y-93813027D01*
X87153027Y-93923027D01*
X87139205Y-93943667D01*
X87089205Y-94063667D01*
X87084282Y-94088282D01*
X87084282Y-94238282D01*
X87088548Y-94261257D01*
X87138548Y-94391257D01*
X87153027Y-94413537D01*
X87217490Y-94478000D01*
X81664057Y-94478000D01*
X81624904Y-94494218D01*
X81583342Y-94502485D01*
X81548107Y-94526028D01*
X81508954Y-94542246D01*
X81478989Y-94572211D01*
X81443753Y-94595755D01*
X81420210Y-94630990D01*
X81390244Y-94660956D01*
X81374026Y-94700109D01*
X81350483Y-94735344D01*
X81342216Y-94776906D01*
X81325998Y-94816059D01*
X81325998Y-94858439D01*
X81317731Y-94900000D01*
X81325998Y-94941561D01*
X81325998Y-94983941D01*
X81342216Y-95023094D01*
X81350483Y-95064656D01*
X81374026Y-95099891D01*
X81390244Y-95139044D01*
X81407363Y-95156163D01*
X81373819Y-95178577D01*
X81356672Y-95204239D01*
X79550000Y-95204239D01*
X79475086Y-95219140D01*
X79411576Y-95261576D01*
X79369140Y-95325086D01*
X79354239Y-95400000D01*
X79354239Y-98200000D01*
X79369140Y-98274914D01*
X79411576Y-98338424D01*
X79475086Y-98380860D01*
X79550000Y-98395761D01*
X81650000Y-98395761D01*
X81724914Y-98380860D01*
X81788424Y-98338424D01*
X81830860Y-98274914D01*
X81845761Y-98200000D01*
X81845761Y-95884741D01*
X81846898Y-95884515D01*
X81905405Y-95845422D01*
X81917107Y-95840575D01*
X81926063Y-95831619D01*
X81986487Y-95791245D01*
X82026861Y-95730821D01*
X82035817Y-95721865D01*
X82040664Y-95710163D01*
X82079757Y-95651656D01*
X82093485Y-95582643D01*
X82100063Y-95566762D01*
X82100063Y-95549574D01*
X82112510Y-95487000D01*
X82100063Y-95424427D01*
X82100063Y-95398880D01*
X82090286Y-95375277D01*
X82079757Y-95322345D01*
X82079526Y-95322000D01*
X91528440Y-95322000D01*
X91570000Y-95330267D01*
X91611560Y-95322000D01*
X91611561Y-95322000D01*
X91734656Y-95297515D01*
X91874245Y-95204245D01*
X91897790Y-95169007D01*
X92347787Y-94719012D01*
X92347789Y-94719009D01*
X92377754Y-94689044D01*
X92393972Y-94649891D01*
X92417514Y-94614657D01*
X92425781Y-94573097D01*
X92442000Y-94533941D01*
X92442000Y-94491561D01*
X92450267Y-94450001D01*
X92442000Y-94408441D01*
X92442000Y-94366059D01*
X92425781Y-94326902D01*
X92417514Y-94285344D01*
X92393974Y-94250113D01*
X92377754Y-94210956D01*
X92347784Y-94180986D01*
X92338155Y-94166574D01*
X92411769Y-94092960D01*
X92476015Y-93937857D01*
X92476015Y-93769975D01*
X92442439Y-93688915D01*
X93753243Y-93688915D01*
X96305368Y-96241041D01*
X91933330Y-96241041D01*
X91894177Y-96257259D01*
X91852615Y-96265526D01*
X91817380Y-96289069D01*
X91778227Y-96305287D01*
X91748262Y-96335252D01*
X91713026Y-96358796D01*
X91689483Y-96394031D01*
X91659517Y-96423997D01*
X91643299Y-96463150D01*
X91619756Y-96498385D01*
X91611489Y-96539947D01*
X91595271Y-96579100D01*
X91595271Y-96621480D01*
X91587004Y-96663041D01*
X91595271Y-96704602D01*
X91595271Y-96746982D01*
X91611489Y-96786135D01*
X91619756Y-96827697D01*
X91643299Y-96862932D01*
X91659517Y-96902085D01*
X91689482Y-96932050D01*
X91713026Y-96967286D01*
X91748262Y-96990830D01*
X91778227Y-97020795D01*
X91817380Y-97037013D01*
X91852615Y-97060556D01*
X91894177Y-97068823D01*
X91933330Y-97085041D01*
X97175598Y-97085041D01*
X97217158Y-97093308D01*
X97258718Y-97085041D01*
X97258719Y-97085041D01*
X97381814Y-97060556D01*
X97521403Y-96967286D01*
X97544948Y-96932048D01*
X97954997Y-96522000D01*
X99848439Y-96522000D01*
X99889999Y-96530267D01*
X99931559Y-96522000D01*
X108575203Y-96522000D01*
X109222211Y-97169009D01*
X109245755Y-97204245D01*
X109307881Y-97245756D01*
X109385343Y-97297515D01*
X109550000Y-97330267D01*
X109591561Y-97322000D01*
X113528440Y-97322000D01*
X113570000Y-97330267D01*
X113611560Y-97322000D01*
X113611561Y-97322000D01*
X113734656Y-97297515D01*
X113874245Y-97204245D01*
X113897790Y-97169007D01*
X114759010Y-96307788D01*
X114794245Y-96284245D01*
X114887515Y-96144656D01*
X114912000Y-96021561D01*
X114912000Y-96021560D01*
X114920267Y-95980001D01*
X114912000Y-95938441D01*
X114912000Y-95784386D01*
X115677224Y-95784386D01*
X115677224Y-95952268D01*
X115741470Y-96107371D01*
X115860180Y-96226081D01*
X116015283Y-96290327D01*
X116183165Y-96290327D01*
X116338268Y-96226081D01*
X116456978Y-96107371D01*
X116487529Y-96033614D01*
X116556059Y-96062000D01*
X116723941Y-96062000D01*
X116796388Y-96031991D01*
X116825322Y-96101844D01*
X116944032Y-96220554D01*
X117099135Y-96284800D01*
X117267017Y-96284800D01*
X117422120Y-96220554D01*
X117540830Y-96101844D01*
X117605076Y-95946741D01*
X117605076Y-95778859D01*
X117540830Y-95623756D01*
X117422120Y-95505046D01*
X117267017Y-95440800D01*
X117099135Y-95440800D01*
X117026688Y-95470809D01*
X116997754Y-95400956D01*
X116879044Y-95282246D01*
X116723941Y-95218000D01*
X116556059Y-95218000D01*
X116400956Y-95282246D01*
X116282246Y-95400956D01*
X116251695Y-95474713D01*
X116183165Y-95446327D01*
X116015283Y-95446327D01*
X115860180Y-95510573D01*
X115741470Y-95629283D01*
X115677224Y-95784386D01*
X114912000Y-95784386D01*
X114912000Y-95664000D01*
X115450000Y-95664000D01*
X115474492Y-95659128D01*
X115495255Y-95645255D01*
X115509128Y-95624492D01*
X115514000Y-95600000D01*
X115514000Y-94900000D01*
X115509128Y-94875508D01*
X115495255Y-94854745D01*
X115474492Y-94840872D01*
X115450000Y-94836000D01*
X114912000Y-94836000D01*
X114912000Y-94716059D01*
X116678000Y-94716059D01*
X116678000Y-94883941D01*
X116742246Y-95039044D01*
X116860956Y-95157754D01*
X117016059Y-95222000D01*
X117183941Y-95222000D01*
X117339044Y-95157754D01*
X117457754Y-95039044D01*
X117522000Y-94883941D01*
X117522000Y-94716059D01*
X119478000Y-94716059D01*
X119478000Y-94883941D01*
X119542246Y-95039044D01*
X119660956Y-95157754D01*
X119816059Y-95222000D01*
X119983941Y-95222000D01*
X120139044Y-95157754D01*
X120257754Y-95039044D01*
X120322000Y-94883941D01*
X120322000Y-94716059D01*
X122378000Y-94716059D01*
X122378000Y-94883941D01*
X122442246Y-95039044D01*
X122560956Y-95157754D01*
X122716059Y-95222000D01*
X122883941Y-95222000D01*
X123004407Y-95172101D01*
X125578000Y-95172101D01*
X125578000Y-95339983D01*
X125642246Y-95495086D01*
X125760956Y-95613796D01*
X125916059Y-95678042D01*
X126083941Y-95678042D01*
X126239044Y-95613796D01*
X126357754Y-95495086D01*
X126422000Y-95339983D01*
X126422000Y-95172101D01*
X126357754Y-95016998D01*
X126239044Y-94898288D01*
X126083941Y-94834042D01*
X125916059Y-94834042D01*
X125760956Y-94898288D01*
X125642246Y-95016998D01*
X125578000Y-95172101D01*
X123004407Y-95172101D01*
X123039044Y-95157754D01*
X123157754Y-95039044D01*
X123222000Y-94883941D01*
X123222000Y-94716059D01*
X123201290Y-94666059D01*
X124278000Y-94666059D01*
X124278000Y-94833941D01*
X124342246Y-94989044D01*
X124460956Y-95107754D01*
X124616059Y-95172000D01*
X124783941Y-95172000D01*
X124939044Y-95107754D01*
X125057754Y-94989044D01*
X125122000Y-94833941D01*
X125122000Y-94666059D01*
X125057754Y-94510956D01*
X124939044Y-94392246D01*
X124783941Y-94328000D01*
X124616059Y-94328000D01*
X124460956Y-94392246D01*
X124342246Y-94510956D01*
X124278000Y-94666059D01*
X123201290Y-94666059D01*
X123157754Y-94560956D01*
X123039044Y-94442246D01*
X122883941Y-94378000D01*
X122716059Y-94378000D01*
X122560956Y-94442246D01*
X122442246Y-94560956D01*
X122378000Y-94716059D01*
X120322000Y-94716059D01*
X120257754Y-94560956D01*
X120139044Y-94442246D01*
X119983941Y-94378000D01*
X119816059Y-94378000D01*
X119660956Y-94442246D01*
X119542246Y-94560956D01*
X119478000Y-94716059D01*
X117522000Y-94716059D01*
X117457754Y-94560956D01*
X117339044Y-94442246D01*
X117183941Y-94378000D01*
X117016059Y-94378000D01*
X116860956Y-94442246D01*
X116742246Y-94560956D01*
X116678000Y-94716059D01*
X114912000Y-94716059D01*
X114912000Y-94128897D01*
X115016059Y-94172000D01*
X115183941Y-94172000D01*
X115339044Y-94107754D01*
X115457754Y-93989044D01*
X115522000Y-93833941D01*
X115522000Y-93666059D01*
X115457754Y-93510956D01*
X115339044Y-93392246D01*
X115301653Y-93376758D01*
X115398396Y-93357515D01*
X115404304Y-93353567D01*
X115458759Y-93485033D01*
X115577469Y-93603743D01*
X115732572Y-93667989D01*
X115900454Y-93667989D01*
X116055557Y-93603743D01*
X116174267Y-93485033D01*
X116202837Y-93416059D01*
X116978000Y-93416059D01*
X116978000Y-93583941D01*
X117042246Y-93739044D01*
X117160956Y-93857754D01*
X117316059Y-93922000D01*
X117483941Y-93922000D01*
X117639044Y-93857754D01*
X117757754Y-93739044D01*
X117822000Y-93583941D01*
X117822000Y-93416059D01*
X119778000Y-93416059D01*
X119778000Y-93583941D01*
X119842246Y-93739044D01*
X119960956Y-93857754D01*
X120116059Y-93922000D01*
X120283941Y-93922000D01*
X120439044Y-93857754D01*
X120557754Y-93739044D01*
X120622000Y-93583941D01*
X120622000Y-93416059D01*
X120557754Y-93260956D01*
X120439044Y-93142246D01*
X120283941Y-93078000D01*
X120116059Y-93078000D01*
X119960956Y-93142246D01*
X119842246Y-93260956D01*
X119778000Y-93416059D01*
X117822000Y-93416059D01*
X117757754Y-93260956D01*
X117639044Y-93142246D01*
X117483941Y-93078000D01*
X117316059Y-93078000D01*
X117160956Y-93142246D01*
X117042246Y-93260956D01*
X116978000Y-93416059D01*
X116202837Y-93416059D01*
X116238513Y-93329930D01*
X116238513Y-93185320D01*
X119331946Y-90091888D01*
X121950557Y-90091888D01*
X122188000Y-90329332D01*
X122188000Y-90473941D01*
X122252246Y-90629044D01*
X122370956Y-90747754D01*
X122526059Y-90812000D01*
X122693941Y-90812000D01*
X122849044Y-90747754D01*
X122967754Y-90629044D01*
X123032000Y-90473941D01*
X123032000Y-90306059D01*
X122967754Y-90150956D01*
X122849044Y-90032246D01*
X122693941Y-89968000D01*
X122549332Y-89968000D01*
X122254847Y-89673516D01*
X122240593Y-89652183D01*
X122156079Y-89595713D01*
X122081550Y-89580888D01*
X122081549Y-89580888D01*
X122056388Y-89575883D01*
X122031227Y-89580888D01*
X119483721Y-89580888D01*
X119892610Y-89172000D01*
X124033941Y-89172000D01*
X124073094Y-89155782D01*
X124114656Y-89147515D01*
X124149891Y-89123972D01*
X124189044Y-89107754D01*
X124219009Y-89077789D01*
X124254245Y-89054245D01*
X124277789Y-89019009D01*
X124307754Y-88989044D01*
X124323972Y-88949891D01*
X124347515Y-88914656D01*
X124355782Y-88873094D01*
X124372000Y-88833941D01*
X124372000Y-88791561D01*
X124380267Y-88750000D01*
X124372000Y-88708439D01*
X124372000Y-88666059D01*
X124355782Y-88626906D01*
X124347515Y-88585344D01*
X124323972Y-88550109D01*
X124307754Y-88510956D01*
X124277789Y-88480991D01*
X124254245Y-88445755D01*
X124219009Y-88422211D01*
X124189044Y-88392246D01*
X124149891Y-88376028D01*
X124114656Y-88352485D01*
X124073094Y-88344218D01*
X124033941Y-88328000D01*
X119759373Y-88328000D01*
X119717812Y-88319733D01*
X119676251Y-88328000D01*
X119553156Y-88352485D01*
X119413567Y-88445755D01*
X119390023Y-88480991D01*
X118782923Y-89088092D01*
X118782920Y-89088094D01*
X116075985Y-91795030D01*
X116122000Y-91683941D01*
X116122000Y-91516059D01*
X116057754Y-91360956D01*
X115950982Y-91254184D01*
X115977040Y-91249001D01*
X115977045Y-91249001D01*
X116076803Y-91229158D01*
X116189929Y-91153569D01*
X116209011Y-91125011D01*
X117250317Y-90083706D01*
X117278869Y-90064628D01*
X117297948Y-90036075D01*
X117297950Y-90036073D01*
X117354459Y-89951502D01*
X117366636Y-89890284D01*
X117374302Y-89851744D01*
X117374302Y-89851740D01*
X117381001Y-89818061D01*
X117374302Y-89784381D01*
X117374302Y-89642648D01*
X117390056Y-89626894D01*
X117454302Y-89471791D01*
X117454302Y-89303909D01*
X117390056Y-89148806D01*
X117333755Y-89092505D01*
X117386357Y-89039903D01*
X117450603Y-88884800D01*
X117450603Y-88716918D01*
X117386357Y-88561815D01*
X117330723Y-88506181D01*
X117383998Y-88452906D01*
X117448244Y-88297803D01*
X117448244Y-88129921D01*
X117396707Y-88005499D01*
X118234059Y-88005498D01*
X118259225Y-88010504D01*
X118358915Y-87990674D01*
X118422098Y-87948457D01*
X118422100Y-87948455D01*
X118443430Y-87934203D01*
X118457682Y-87912873D01*
X118785557Y-87584999D01*
X123595336Y-87584997D01*
X123620502Y-87590003D01*
X123720192Y-87570173D01*
X123783375Y-87527956D01*
X123783377Y-87527954D01*
X123804707Y-87513702D01*
X123818959Y-87492372D01*
X124782875Y-86528457D01*
X124791269Y-86522848D01*
X124845294Y-86603704D01*
X124866627Y-86617958D01*
X125484501Y-87235832D01*
X125484500Y-87982565D01*
X125479325Y-87990310D01*
X125459495Y-88090000D01*
X125479325Y-88189690D01*
X125484500Y-88197435D01*
X125484501Y-88794168D01*
X123044169Y-91234500D01*
X122505161Y-91234500D01*
X122480000Y-91229495D01*
X122380309Y-91249325D01*
X122363700Y-91260423D01*
X122295795Y-91305795D01*
X122281543Y-91327126D01*
X121287128Y-92321541D01*
X121265795Y-92335795D01*
X121227746Y-92392740D01*
X121209325Y-92420310D01*
X121189495Y-92520000D01*
X121194500Y-92545162D01*
X121194501Y-93158700D01*
X121092246Y-93260955D01*
X121028000Y-93416058D01*
X121028000Y-93583940D01*
X121092246Y-93739043D01*
X121210956Y-93857753D01*
X121366059Y-93921999D01*
X121533941Y-93921999D01*
X121689044Y-93857753D01*
X121807754Y-93739043D01*
X121872000Y-93583940D01*
X121872000Y-93416059D01*
X122678000Y-93416059D01*
X122678000Y-93583941D01*
X122742246Y-93739044D01*
X122860956Y-93857754D01*
X123016059Y-93922000D01*
X123183941Y-93922000D01*
X123339044Y-93857754D01*
X123457754Y-93739044D01*
X123522000Y-93583941D01*
X123522000Y-93416059D01*
X123457754Y-93260956D01*
X123339044Y-93142246D01*
X123183941Y-93078000D01*
X123016059Y-93078000D01*
X122860956Y-93142246D01*
X122742246Y-93260956D01*
X122678000Y-93416059D01*
X121872000Y-93416059D01*
X121872000Y-93416058D01*
X121807754Y-93260955D01*
X121705500Y-93158701D01*
X121705500Y-92625831D01*
X122585832Y-91745500D01*
X123124839Y-91745500D01*
X123150000Y-91750505D01*
X123175161Y-91745500D01*
X123175162Y-91745500D01*
X123249691Y-91730675D01*
X123334205Y-91674205D01*
X123339647Y-91666059D01*
X124328000Y-91666059D01*
X124328000Y-91833941D01*
X124392246Y-91989044D01*
X124510956Y-92107754D01*
X124666059Y-92172000D01*
X124833941Y-92172000D01*
X124989044Y-92107754D01*
X125107754Y-91989044D01*
X125172000Y-91833941D01*
X125172000Y-91666059D01*
X125107754Y-91510956D01*
X124989044Y-91392246D01*
X124833941Y-91328000D01*
X124666059Y-91328000D01*
X124510956Y-91392246D01*
X124392246Y-91510956D01*
X124328000Y-91666059D01*
X123339647Y-91666059D01*
X123348459Y-91652872D01*
X125740491Y-89260840D01*
X125740492Y-91688727D01*
X125735486Y-91713893D01*
X125755316Y-91813583D01*
X125797533Y-91876766D01*
X125797535Y-91876768D01*
X125811787Y-91898098D01*
X125833117Y-91912350D01*
X126444501Y-92523734D01*
X126444500Y-93124838D01*
X126439495Y-93150000D01*
X126455212Y-93229012D01*
X126459325Y-93249690D01*
X126515795Y-93334205D01*
X126537129Y-93348460D01*
X126601539Y-93412869D01*
X126615795Y-93434205D01*
X126700309Y-93490675D01*
X126761000Y-93502747D01*
X126761000Y-95525000D01*
X126765872Y-95549492D01*
X126779745Y-95570255D01*
X126800508Y-95584128D01*
X126825000Y-95589000D01*
X128325000Y-95589000D01*
X128349656Y-95584060D01*
X128370381Y-95570129D01*
X128384196Y-95549327D01*
X128389000Y-95524822D01*
X128370761Y-88977021D01*
X128370761Y-88150000D01*
X128368425Y-88138254D01*
X128364000Y-86549822D01*
X128359128Y-86525508D01*
X128345255Y-86504745D01*
X128324492Y-86490872D01*
X128300000Y-86486000D01*
X126879506Y-86486000D01*
X126879506Y-86265749D01*
X126985711Y-86159544D01*
X127049957Y-86004441D01*
X127049957Y-85836559D01*
X126985711Y-85681456D01*
X126867001Y-85562746D01*
X126711898Y-85498500D01*
X126544016Y-85498500D01*
X126422496Y-85548835D01*
X126485832Y-85485500D01*
X127351295Y-85485500D01*
X129244500Y-87378705D01*
X129244501Y-92974834D01*
X129239495Y-93000000D01*
X129259325Y-93099690D01*
X129301542Y-93162873D01*
X129301544Y-93162875D01*
X129315796Y-93184205D01*
X129328000Y-93192359D01*
X129328000Y-93333941D01*
X129392246Y-93489044D01*
X129510956Y-93607754D01*
X129666059Y-93672000D01*
X129833941Y-93672000D01*
X129989044Y-93607754D01*
X130107754Y-93489044D01*
X130172000Y-93333941D01*
X130172000Y-93166059D01*
X130107754Y-93010956D01*
X129989044Y-92892246D01*
X129833941Y-92828000D01*
X129755500Y-92828000D01*
X129755500Y-87298035D01*
X129760505Y-87272873D01*
X129740675Y-87173183D01*
X129733203Y-87162001D01*
X129684205Y-87088669D01*
X129662872Y-87074415D01*
X127655585Y-85067128D01*
X127641331Y-85045795D01*
X127556817Y-84989325D01*
X127482288Y-84974500D01*
X127482287Y-84974500D01*
X127457126Y-84969495D01*
X127431965Y-84974500D01*
X126405161Y-84974500D01*
X126380000Y-84969495D01*
X126332360Y-84978971D01*
X126362833Y-84948498D01*
X127958702Y-84948498D01*
X128060956Y-85050752D01*
X128216059Y-85114998D01*
X128383941Y-85114998D01*
X128539044Y-85050752D01*
X128657754Y-84932042D01*
X128699433Y-84831420D01*
X128861541Y-84993528D01*
X128875795Y-85014861D01*
X128960309Y-85071331D01*
X129059999Y-85091161D01*
X129085161Y-85086156D01*
X129086941Y-85086156D01*
X129879989Y-85879204D01*
X129879989Y-85888513D01*
X129786383Y-85794907D01*
X129631280Y-85730661D01*
X129463398Y-85730661D01*
X129308295Y-85794907D01*
X129189585Y-85913617D01*
X129125339Y-86068720D01*
X129125339Y-86236602D01*
X129189585Y-86391705D01*
X129308295Y-86510415D01*
X129463398Y-86574661D01*
X129631280Y-86574661D01*
X129786383Y-86510415D01*
X129879989Y-86416809D01*
X129879990Y-92637323D01*
X129874984Y-92662489D01*
X129894814Y-92762179D01*
X129937031Y-92825362D01*
X129937033Y-92825364D01*
X129951285Y-92846694D01*
X129972615Y-92860946D01*
X130524541Y-93412872D01*
X130538795Y-93434205D01*
X130596086Y-93472485D01*
X130623309Y-93490675D01*
X130636000Y-93493199D01*
X130636000Y-95500000D01*
X130640872Y-95524492D01*
X130654745Y-95545255D01*
X130675508Y-95559128D01*
X130700000Y-95564000D01*
X132200000Y-95564000D01*
X132224492Y-95559128D01*
X132245255Y-95545255D01*
X132259128Y-95524492D01*
X132264000Y-95500000D01*
X132264000Y-86500000D01*
X132259128Y-86475508D01*
X132245255Y-86454745D01*
X132224492Y-86440872D01*
X132200000Y-86436000D01*
X130700000Y-86436000D01*
X130675508Y-86440872D01*
X130654745Y-86454745D01*
X130644999Y-86469331D01*
X130644999Y-86258424D01*
X130726059Y-86292000D01*
X130893941Y-86292000D01*
X131049044Y-86227754D01*
X131167754Y-86109044D01*
X131232000Y-85953941D01*
X131232000Y-85786059D01*
X131167754Y-85630956D01*
X131065500Y-85528702D01*
X131065500Y-85375156D01*
X131070504Y-85349999D01*
X131065500Y-85324842D01*
X131065500Y-85324838D01*
X131050675Y-85250309D01*
X130994205Y-85165795D01*
X130972872Y-85151541D01*
X129565051Y-83743720D01*
X130000339Y-83743720D01*
X130000339Y-83911602D01*
X130064585Y-84066705D01*
X130183295Y-84185415D01*
X130338398Y-84249661D01*
X130506280Y-84249661D01*
X130661383Y-84185415D01*
X130780093Y-84066705D01*
X130844339Y-83911602D01*
X130844339Y-83743720D01*
X130780093Y-83588617D01*
X130661383Y-83469907D01*
X130506280Y-83405661D01*
X130338398Y-83405661D01*
X130183295Y-83469907D01*
X130064585Y-83588617D01*
X130000339Y-83743720D01*
X129565051Y-83743720D01*
X129358459Y-83537128D01*
X129344205Y-83515795D01*
X129259691Y-83459325D01*
X129185162Y-83444500D01*
X129185161Y-83444500D01*
X129160000Y-83439495D01*
X129134839Y-83444500D01*
X123212834Y-83444500D01*
X122472000Y-82703667D01*
X122472000Y-82559057D01*
X122432626Y-82464000D01*
X127239202Y-82464000D01*
X127192246Y-82510956D01*
X127128000Y-82666059D01*
X127128000Y-82833941D01*
X127192246Y-82989044D01*
X127310956Y-83107754D01*
X127466059Y-83172000D01*
X127633941Y-83172000D01*
X127789044Y-83107754D01*
X127907754Y-82989044D01*
X127943556Y-82902611D01*
X127986119Y-83005368D01*
X128104829Y-83124078D01*
X128259932Y-83188324D01*
X128427814Y-83188324D01*
X128582917Y-83124078D01*
X128701627Y-83005368D01*
X128765873Y-82850265D01*
X128765873Y-82682383D01*
X128701627Y-82527280D01*
X128638347Y-82464000D01*
X131008959Y-82464000D01*
X132051557Y-83021669D01*
X132536000Y-84014777D01*
X132536000Y-97983416D01*
X132051217Y-98856026D01*
X131079825Y-99536000D01*
X125910797Y-99536000D01*
X127569009Y-97877789D01*
X127604245Y-97854245D01*
X127697515Y-97714656D01*
X127722000Y-97591561D01*
X127730267Y-97550001D01*
X127722000Y-97508441D01*
X127722000Y-97193503D01*
X131151501Y-97193503D01*
X131151501Y-97361385D01*
X131215747Y-97516488D01*
X131334457Y-97635198D01*
X131489560Y-97699444D01*
X131657442Y-97699444D01*
X131812545Y-97635198D01*
X131931255Y-97516488D01*
X131995501Y-97361385D01*
X131995501Y-97193503D01*
X131931255Y-97038400D01*
X131812545Y-96919690D01*
X131657442Y-96855444D01*
X131489560Y-96855444D01*
X131334457Y-96919690D01*
X131215747Y-97038400D01*
X131151501Y-97193503D01*
X127722000Y-97193503D01*
X127722000Y-96803445D01*
X127742000Y-96755161D01*
X127742000Y-96579323D01*
X127674709Y-96416869D01*
X127607900Y-96350060D01*
X128885002Y-96350060D01*
X128885002Y-96517942D01*
X128949248Y-96673045D01*
X129067958Y-96791755D01*
X129223061Y-96856001D01*
X129390943Y-96856001D01*
X129546046Y-96791755D01*
X129664756Y-96673045D01*
X129729002Y-96517942D01*
X129729002Y-96350060D01*
X129664756Y-96194957D01*
X129546046Y-96076247D01*
X129390943Y-96012001D01*
X129223061Y-96012001D01*
X129067958Y-96076247D01*
X128949248Y-96194957D01*
X128885002Y-96350060D01*
X127607900Y-96350060D01*
X127550373Y-96292533D01*
X127387919Y-96225242D01*
X127212081Y-96225242D01*
X127163797Y-96245242D01*
X126264317Y-96245242D01*
X126222757Y-96236975D01*
X126181197Y-96245242D01*
X126058102Y-96269727D01*
X125918513Y-96362997D01*
X125894969Y-96398233D01*
X124506070Y-97787133D01*
X124457754Y-97670488D01*
X124339044Y-97551778D01*
X124183941Y-97487532D01*
X124016059Y-97487532D01*
X123860956Y-97551778D01*
X123742246Y-97670488D01*
X123678000Y-97825591D01*
X123678000Y-97993473D01*
X123742246Y-98148576D01*
X123860956Y-98267286D01*
X123977601Y-98315602D01*
X123832213Y-98460990D01*
X123762715Y-98565001D01*
X121731422Y-98565001D01*
X121764998Y-98483942D01*
X121764998Y-98316060D01*
X121700752Y-98160957D01*
X121582042Y-98042247D01*
X121426939Y-97978001D01*
X121259057Y-97978001D01*
X121103954Y-98042247D01*
X120985244Y-98160957D01*
X120920998Y-98316060D01*
X120920998Y-98483942D01*
X120954574Y-98565001D01*
X117603220Y-98565001D01*
X117002081Y-97963863D01*
X116985789Y-97939480D01*
X116889202Y-97874943D01*
X116804025Y-97858000D01*
X116804024Y-97858000D01*
X116775269Y-97852280D01*
X116753423Y-97856625D01*
X116689044Y-97792246D01*
X116533941Y-97728000D01*
X116366059Y-97728000D01*
X116210956Y-97792246D01*
X116092246Y-97910956D01*
X116028000Y-98066059D01*
X116028000Y-98101203D01*
X115617790Y-97690993D01*
X115606343Y-97673861D01*
X119224580Y-97673861D01*
X119224580Y-97841743D01*
X119288826Y-97996846D01*
X119407536Y-98115556D01*
X119562639Y-98179802D01*
X119730521Y-98179802D01*
X119885624Y-98115556D01*
X120004334Y-97996846D01*
X120068580Y-97841743D01*
X120068580Y-97673861D01*
X122325504Y-97673861D01*
X122325504Y-97841743D01*
X122389750Y-97996846D01*
X122508460Y-98115556D01*
X122663563Y-98179802D01*
X122831445Y-98179802D01*
X122986548Y-98115556D01*
X123105258Y-97996846D01*
X123169504Y-97841743D01*
X123169504Y-97673861D01*
X123105258Y-97518758D01*
X122986548Y-97400048D01*
X122831445Y-97335802D01*
X122663563Y-97335802D01*
X122508460Y-97400048D01*
X122389750Y-97518758D01*
X122325504Y-97673861D01*
X120068580Y-97673861D01*
X120004334Y-97518758D01*
X119885624Y-97400048D01*
X119730521Y-97335802D01*
X119562639Y-97335802D01*
X119407536Y-97400048D01*
X119288826Y-97518758D01*
X119224580Y-97673861D01*
X115606343Y-97673861D01*
X115594245Y-97655755D01*
X115454656Y-97562485D01*
X115331561Y-97538000D01*
X115331560Y-97538000D01*
X115290000Y-97529733D01*
X115248440Y-97538000D01*
X89181561Y-97538000D01*
X89140000Y-97529733D01*
X88975343Y-97562485D01*
X88916071Y-97602089D01*
X88835755Y-97655755D01*
X88812211Y-97690991D01*
X87575203Y-98928000D01*
X76762329Y-98928000D01*
X76822000Y-98783941D01*
X76822000Y-98616059D01*
X76757754Y-98460956D01*
X76639044Y-98342246D01*
X76483941Y-98278000D01*
X76316059Y-98278000D01*
X76160956Y-98342246D01*
X76042246Y-98460956D01*
X75978000Y-98616059D01*
X75978000Y-98783941D01*
X76037671Y-98928000D01*
X73024798Y-98928000D01*
X72072000Y-97975203D01*
X72072000Y-96716059D01*
X73178000Y-96716059D01*
X73178000Y-96883941D01*
X73242246Y-97039044D01*
X73360956Y-97157754D01*
X73516059Y-97222000D01*
X73683941Y-97222000D01*
X73839044Y-97157754D01*
X73957754Y-97039044D01*
X74022000Y-96883941D01*
X74022000Y-96716059D01*
X75978000Y-96716059D01*
X75978000Y-96883941D01*
X76042246Y-97039044D01*
X76160956Y-97157754D01*
X76316059Y-97222000D01*
X76483941Y-97222000D01*
X76639044Y-97157754D01*
X76757754Y-97039044D01*
X76822000Y-96883941D01*
X76822000Y-96716059D01*
X76757754Y-96560956D01*
X76639044Y-96442246D01*
X76483941Y-96378000D01*
X76316059Y-96378000D01*
X76160956Y-96442246D01*
X76042246Y-96560956D01*
X75978000Y-96716059D01*
X74022000Y-96716059D01*
X73957754Y-96560956D01*
X73839044Y-96442246D01*
X73683941Y-96378000D01*
X73516059Y-96378000D01*
X73360956Y-96442246D01*
X73242246Y-96560956D01*
X73178000Y-96716059D01*
X72072000Y-96716059D01*
X72072000Y-95832274D01*
X75965000Y-95832274D01*
X75965000Y-96000156D01*
X76029246Y-96155259D01*
X76147956Y-96273969D01*
X76303059Y-96338215D01*
X76470941Y-96338215D01*
X76626044Y-96273969D01*
X76744754Y-96155259D01*
X76809000Y-96000156D01*
X76809000Y-95832274D01*
X76744754Y-95677171D01*
X76626044Y-95558461D01*
X76470941Y-95494215D01*
X76303059Y-95494215D01*
X76147956Y-95558461D01*
X76029246Y-95677171D01*
X75965000Y-95832274D01*
X72072000Y-95832274D01*
X72072000Y-90916059D01*
X73178000Y-90916059D01*
X73178000Y-91083941D01*
X73242246Y-91239044D01*
X73360956Y-91357754D01*
X73516059Y-91422000D01*
X73683941Y-91422000D01*
X73839044Y-91357754D01*
X73957754Y-91239044D01*
X74022000Y-91083941D01*
X74022000Y-90916059D01*
X73957754Y-90760956D01*
X73839044Y-90642246D01*
X73683941Y-90578000D01*
X73516059Y-90578000D01*
X73360956Y-90642246D01*
X73242246Y-90760956D01*
X73178000Y-90916059D01*
X72072000Y-90916059D01*
X72072000Y-89074797D01*
X72267946Y-88878852D01*
X73390993Y-88878852D01*
X73390993Y-88901584D01*
X73382725Y-88943148D01*
X73413926Y-89100000D01*
X73415478Y-89107804D01*
X73508748Y-89247393D01*
X73543983Y-89270936D01*
X73829063Y-89556017D01*
X73852607Y-89591253D01*
X73887845Y-89614798D01*
X75278001Y-91004955D01*
X75278000Y-94416059D01*
X75278000Y-94583941D01*
X75294218Y-94623095D01*
X75302485Y-94664655D01*
X75326028Y-94699889D01*
X75342246Y-94739044D01*
X75372212Y-94769010D01*
X75395755Y-94804245D01*
X75430991Y-94827789D01*
X75460956Y-94857754D01*
X75500109Y-94873972D01*
X75535344Y-94897515D01*
X75576906Y-94905782D01*
X75616059Y-94922000D01*
X75658439Y-94922000D01*
X75700000Y-94930267D01*
X75741561Y-94922000D01*
X75783941Y-94922000D01*
X75823095Y-94905782D01*
X75864655Y-94897515D01*
X75899889Y-94873972D01*
X75939044Y-94857754D01*
X75969010Y-94827788D01*
X76004245Y-94804245D01*
X76027789Y-94769009D01*
X76057754Y-94739044D01*
X76073972Y-94699891D01*
X76097515Y-94664656D01*
X76105782Y-94623094D01*
X76122000Y-94583941D01*
X76122000Y-93218798D01*
X76160956Y-93257754D01*
X76316059Y-93322000D01*
X76483941Y-93322000D01*
X76639044Y-93257754D01*
X76757754Y-93139044D01*
X76822000Y-92983941D01*
X76822000Y-92816059D01*
X76757754Y-92660956D01*
X76639044Y-92542246D01*
X76483941Y-92478000D01*
X76316059Y-92478000D01*
X76160956Y-92542246D01*
X76122000Y-92581202D01*
X76122000Y-91318798D01*
X76160956Y-91357754D01*
X76316059Y-91422000D01*
X76483941Y-91422000D01*
X76639044Y-91357754D01*
X76757754Y-91239044D01*
X76822000Y-91083941D01*
X76822000Y-90916059D01*
X76757754Y-90760956D01*
X76639044Y-90642246D01*
X76483941Y-90578000D01*
X76316059Y-90578000D01*
X76160956Y-90642246D01*
X76104183Y-90699019D01*
X76097515Y-90665499D01*
X76052880Y-90598699D01*
X76004245Y-90525911D01*
X75969009Y-90502367D01*
X75482701Y-90016059D01*
X75978000Y-90016059D01*
X75978000Y-90183941D01*
X76042246Y-90339044D01*
X76160956Y-90457754D01*
X76316059Y-90522000D01*
X76483941Y-90522000D01*
X76639044Y-90457754D01*
X76757754Y-90339044D01*
X76822000Y-90183941D01*
X76822000Y-90016059D01*
X76757754Y-89860956D01*
X76639044Y-89742246D01*
X76483941Y-89678000D01*
X76316059Y-89678000D01*
X76160956Y-89742246D01*
X76042246Y-89860956D01*
X75978000Y-90016059D01*
X75482701Y-90016059D01*
X75155558Y-89688917D01*
X75177648Y-89684523D01*
X75317237Y-89591253D01*
X75340782Y-89556015D01*
X75697788Y-89199010D01*
X75697790Y-89199007D01*
X75839042Y-89057755D01*
X75839044Y-89057754D01*
X75957754Y-88939044D01*
X75973972Y-88899890D01*
X75997515Y-88864656D01*
X76005782Y-88823094D01*
X76022000Y-88783941D01*
X76022000Y-88741561D01*
X76030267Y-88700000D01*
X76022000Y-88658439D01*
X76022000Y-88616059D01*
X76005782Y-88576906D01*
X75997515Y-88535344D01*
X75973972Y-88500110D01*
X75957754Y-88460956D01*
X75927785Y-88430987D01*
X75904244Y-88395756D01*
X75869013Y-88372215D01*
X75839044Y-88342246D01*
X75799890Y-88326028D01*
X75764656Y-88302485D01*
X75723094Y-88294218D01*
X75683941Y-88278000D01*
X75641561Y-88278000D01*
X75600000Y-88269733D01*
X75558439Y-88278000D01*
X75516059Y-88278000D01*
X75476906Y-88294218D01*
X75435344Y-88302485D01*
X75400110Y-88326028D01*
X75360956Y-88342246D01*
X75242246Y-88460956D01*
X75242245Y-88460958D01*
X75100993Y-88602210D01*
X75100990Y-88602212D01*
X74838195Y-88865008D01*
X74331650Y-88865008D01*
X74234992Y-88768351D01*
X74234992Y-88631649D01*
X74456010Y-88410632D01*
X74491246Y-88387088D01*
X74514791Y-88351850D01*
X74918653Y-87947989D01*
X75950110Y-87947989D01*
X76141130Y-88139010D01*
X76164674Y-88174246D01*
X76304263Y-88267516D01*
X76427358Y-88292001D01*
X76468918Y-88300268D01*
X76510479Y-88292001D01*
X79908201Y-88292001D01*
X79955242Y-88339042D01*
X79955243Y-88339044D01*
X80073953Y-88457754D01*
X80113107Y-88473972D01*
X80148341Y-88497515D01*
X80189903Y-88505782D01*
X80229056Y-88522000D01*
X80271436Y-88522000D01*
X80312997Y-88530267D01*
X80354558Y-88522000D01*
X80396938Y-88522000D01*
X80436091Y-88505782D01*
X80477653Y-88497515D01*
X80512887Y-88473972D01*
X80552041Y-88457754D01*
X80582010Y-88427785D01*
X80611369Y-88408167D01*
X80660956Y-88457754D01*
X80816059Y-88522000D01*
X80983941Y-88522000D01*
X81139044Y-88457754D01*
X81257754Y-88339044D01*
X81322000Y-88183941D01*
X81322000Y-88016059D01*
X81257754Y-87860956D01*
X81139044Y-87742246D01*
X80983941Y-87678000D01*
X80816059Y-87678000D01*
X80660956Y-87742246D01*
X80606499Y-87796704D01*
X80552041Y-87742246D01*
X80552039Y-87742245D01*
X80410789Y-87600995D01*
X80387243Y-87565756D01*
X80247654Y-87472486D01*
X80124559Y-87448001D01*
X80124558Y-87448001D01*
X80082998Y-87439734D01*
X80041438Y-87448001D01*
X76643717Y-87448001D01*
X76578534Y-87382818D01*
X76639044Y-87357754D01*
X76757754Y-87239044D01*
X76822000Y-87083941D01*
X76822000Y-86916059D01*
X76757754Y-86760956D01*
X76639044Y-86642246D01*
X76483941Y-86578000D01*
X76316059Y-86578000D01*
X76160956Y-86642246D01*
X76042246Y-86760956D01*
X75978000Y-86916059D01*
X75978000Y-87083941D01*
X75986304Y-87103989D01*
X74785414Y-87103989D01*
X74743854Y-87095722D01*
X74702294Y-87103989D01*
X74609001Y-87122546D01*
X74609001Y-85116059D01*
X75978000Y-85116059D01*
X75978000Y-85283941D01*
X76042246Y-85439044D01*
X76160956Y-85557754D01*
X76316059Y-85622000D01*
X76483941Y-85622000D01*
X76639044Y-85557754D01*
X76757754Y-85439044D01*
X76822000Y-85283941D01*
X76822000Y-85116059D01*
X76757754Y-84960956D01*
X76639044Y-84842246D01*
X76483941Y-84778000D01*
X76316059Y-84778000D01*
X76160956Y-84842246D01*
X76042246Y-84960956D01*
X75978000Y-85116059D01*
X74609001Y-85116059D01*
X74609001Y-84587796D01*
X74980738Y-84216059D01*
X75915000Y-84216059D01*
X75915000Y-84383941D01*
X75979246Y-84539044D01*
X76097956Y-84657754D01*
X76253059Y-84722000D01*
X76420941Y-84722000D01*
X76576044Y-84657754D01*
X76694754Y-84539044D01*
X76759000Y-84383941D01*
X76759000Y-84216059D01*
X76694754Y-84060956D01*
X76576044Y-83942246D01*
X76420941Y-83878000D01*
X76253059Y-83878000D01*
X76097956Y-83942246D01*
X75979246Y-84060956D01*
X75915000Y-84216059D01*
X74980738Y-84216059D01*
X76027787Y-83169011D01*
X76057754Y-83139044D01*
X76073972Y-83099891D01*
X76097515Y-83064656D01*
X76105782Y-83023094D01*
X76122000Y-82983941D01*
X76122000Y-82941561D01*
X76130267Y-82900000D01*
X76122000Y-82858439D01*
X76122000Y-82816059D01*
X76105782Y-82776906D01*
X76097515Y-82735344D01*
X76073972Y-82700110D01*
X76057754Y-82660956D01*
X76027785Y-82630987D01*
X76004244Y-82595756D01*
X75969013Y-82572215D01*
X75939044Y-82542246D01*
X75899890Y-82526028D01*
X75864656Y-82502485D01*
X75823094Y-82494218D01*
X75783941Y-82478000D01*
X75741561Y-82478000D01*
X75700000Y-82469733D01*
X75658439Y-82478000D01*
X75616059Y-82478000D01*
X75576906Y-82494218D01*
X75535344Y-82502485D01*
X75500109Y-82526028D01*
X75460956Y-82542246D01*
X75430989Y-82572213D01*
X73917994Y-84085209D01*
X73882756Y-84108754D01*
X73789486Y-84248344D01*
X73767072Y-84361026D01*
X73756734Y-84412999D01*
X73765001Y-84454559D01*
X73765001Y-84811576D01*
X73683941Y-84778000D01*
X73516059Y-84778000D01*
X73360956Y-84842246D01*
X73242246Y-84960956D01*
X73178000Y-85116059D01*
X73178000Y-85283941D01*
X73242246Y-85439044D01*
X73360956Y-85557754D01*
X73516059Y-85622000D01*
X73683941Y-85622000D01*
X73765001Y-85588424D01*
X73765002Y-87908044D01*
X73638195Y-88034852D01*
X72134708Y-88034852D01*
X72093148Y-88026585D01*
X72051588Y-88034852D01*
X72051587Y-88034852D01*
X71928492Y-88059337D01*
X71788903Y-88152607D01*
X71765360Y-88187842D01*
X71464000Y-88489203D01*
X71464000Y-82464000D01*
X87089200Y-82464000D01*
X87086000Y-82480000D01*
X87086000Y-82480000D01*
G37*
X87086000Y-82480000D02*
X87086000Y-82630000D01*
X87090266Y-82652975D01*
X87140266Y-82782975D01*
X87154745Y-82805255D01*
X87264745Y-82915255D01*
X87287025Y-82929734D01*
X87417025Y-82979734D01*
X87440000Y-82984000D01*
X87580000Y-82984000D01*
X87601526Y-82980271D01*
X87678000Y-82952959D01*
X87678001Y-83428436D01*
X87669733Y-83470000D01*
X87695633Y-83600203D01*
X87702486Y-83634656D01*
X87795756Y-83774245D01*
X87830991Y-83797788D01*
X88276471Y-84243269D01*
X86340067Y-84243269D01*
X85717790Y-83620993D01*
X85694245Y-83585755D01*
X85554656Y-83492485D01*
X85431561Y-83468000D01*
X85431560Y-83468000D01*
X85390000Y-83459733D01*
X85348440Y-83468000D01*
X82741151Y-83468000D01*
X82301457Y-83028308D01*
X82277912Y-82993070D01*
X82138323Y-82899800D01*
X82015228Y-82875315D01*
X82015227Y-82875315D01*
X81973667Y-82867048D01*
X81932107Y-82875315D01*
X81792242Y-82875315D01*
X81750682Y-82867048D01*
X81709122Y-82875315D01*
X81695624Y-82878000D01*
X81664057Y-82878000D01*
X81634894Y-82890080D01*
X81586027Y-82899800D01*
X81544599Y-82927481D01*
X81508954Y-82942246D01*
X81481674Y-82969526D01*
X81446438Y-82993070D01*
X81422894Y-83028306D01*
X81390244Y-83060956D01*
X81374025Y-83100113D01*
X81350484Y-83135344D01*
X81342217Y-83176902D01*
X81325998Y-83216059D01*
X81325998Y-83258440D01*
X81317731Y-83300000D01*
X81325998Y-83341560D01*
X81325998Y-83383941D01*
X81342217Y-83423098D01*
X81350484Y-83464656D01*
X81374024Y-83499887D01*
X81390244Y-83539044D01*
X81415312Y-83564112D01*
X81334152Y-83645272D01*
X81309727Y-83704239D01*
X79550000Y-83704239D01*
X79475086Y-83719140D01*
X79411576Y-83761576D01*
X79369140Y-83825086D01*
X79354239Y-83900000D01*
X79354239Y-86700000D01*
X79369140Y-86774914D01*
X79411576Y-86838424D01*
X79475086Y-86880860D01*
X79550000Y-86895761D01*
X81650000Y-86895761D01*
X81724914Y-86880860D01*
X81788424Y-86838424D01*
X81830860Y-86774914D01*
X81845761Y-86700000D01*
X81845761Y-84277357D01*
X81930950Y-84242070D01*
X82049660Y-84123360D01*
X82094547Y-84014993D01*
X82238565Y-84159012D01*
X82262107Y-84194245D01*
X82297340Y-84217787D01*
X82312109Y-84227655D01*
X82401696Y-84287515D01*
X82524791Y-84312000D01*
X82566351Y-84320267D01*
X82607911Y-84312000D01*
X85215203Y-84312000D01*
X85837480Y-84934278D01*
X85861024Y-84969514D01*
X86000613Y-85062784D01*
X86123708Y-85087269D01*
X86123709Y-85087269D01*
X86165269Y-85095536D01*
X86206829Y-85087269D01*
X90715203Y-85087269D01*
X91346942Y-85719009D01*
X91370486Y-85754245D01*
X91510075Y-85847515D01*
X91633170Y-85872000D01*
X91674730Y-85880267D01*
X91716290Y-85872000D01*
X92083941Y-85872000D01*
X92123094Y-85855782D01*
X92164656Y-85847515D01*
X92199891Y-85823972D01*
X92239044Y-85807754D01*
X92269009Y-85777789D01*
X92304245Y-85754245D01*
X92327789Y-85719009D01*
X92357754Y-85689044D01*
X92373972Y-85649891D01*
X92397515Y-85614656D01*
X92405782Y-85573094D01*
X92422000Y-85533941D01*
X92422000Y-85491561D01*
X92430267Y-85450000D01*
X92422000Y-85408439D01*
X92422000Y-85366059D01*
X92405782Y-85326906D01*
X92397515Y-85285344D01*
X92373972Y-85250109D01*
X92357754Y-85210956D01*
X92327789Y-85180991D01*
X92304245Y-85145755D01*
X92269009Y-85122211D01*
X92239044Y-85092246D01*
X92199891Y-85076028D01*
X92164656Y-85052485D01*
X92141955Y-85047970D01*
X92239044Y-85007754D01*
X92357754Y-84889044D01*
X92402641Y-84780677D01*
X94140973Y-86519009D01*
X94164517Y-86554245D01*
X94304106Y-86647515D01*
X94427201Y-86672000D01*
X94468761Y-86680267D01*
X94510321Y-86672000D01*
X95985203Y-86672000D01*
X96402214Y-87089013D01*
X96425756Y-87124246D01*
X96460989Y-87147788D01*
X96489181Y-87166625D01*
X96565345Y-87217516D01*
X96572053Y-87218850D01*
X96642245Y-87289042D01*
X96642246Y-87289044D01*
X96760956Y-87407754D01*
X96800110Y-87423972D01*
X96835344Y-87447515D01*
X96876906Y-87455782D01*
X96916059Y-87472000D01*
X96958439Y-87472000D01*
X97000000Y-87480267D01*
X97041561Y-87472000D01*
X97083941Y-87472000D01*
X97123094Y-87455782D01*
X97164656Y-87447515D01*
X97199890Y-87423972D01*
X97239044Y-87407754D01*
X97269013Y-87377785D01*
X97304244Y-87354244D01*
X97327785Y-87319013D01*
X97357754Y-87289044D01*
X97373972Y-87249890D01*
X97397515Y-87214656D01*
X97405782Y-87173094D01*
X97422000Y-87133941D01*
X97422000Y-87091561D01*
X97430267Y-87050000D01*
X97422000Y-87008439D01*
X97422000Y-86966059D01*
X97405782Y-86926906D01*
X97397515Y-86885344D01*
X97373972Y-86850110D01*
X97357754Y-86810956D01*
X97239044Y-86692246D01*
X97239042Y-86692245D01*
X97174031Y-86627234D01*
X97221526Y-86610271D01*
X97245255Y-86595255D01*
X97345255Y-86495255D01*
X97360271Y-86471526D01*
X97410271Y-86331526D01*
X97414000Y-86310000D01*
X97414000Y-86170000D01*
X97410271Y-86148474D01*
X97360271Y-86008474D01*
X97345255Y-85984745D01*
X97245255Y-85884745D01*
X97221526Y-85869729D01*
X97215409Y-85867544D01*
X97239044Y-85857754D01*
X97357754Y-85739044D01*
X97422000Y-85583941D01*
X97422000Y-85416059D01*
X97357754Y-85260956D01*
X97239044Y-85142246D01*
X97083941Y-85078000D01*
X96916059Y-85078000D01*
X96760956Y-85142246D01*
X96642246Y-85260956D01*
X96578000Y-85416059D01*
X96578000Y-85583941D01*
X96642246Y-85739044D01*
X96760956Y-85857754D01*
X96779541Y-85865452D01*
X96767025Y-85870266D01*
X96744745Y-85884745D01*
X96634745Y-85994745D01*
X96620923Y-86015385D01*
X96591882Y-86085084D01*
X96487790Y-85980993D01*
X96464245Y-85945755D01*
X96324656Y-85852485D01*
X96201561Y-85828000D01*
X96201560Y-85828000D01*
X96160000Y-85819733D01*
X96118440Y-85828000D01*
X94643560Y-85828000D01*
X93079559Y-84264000D01*
X96739202Y-84264000D01*
X96642246Y-84360956D01*
X96578000Y-84516059D01*
X96578000Y-84683941D01*
X96642246Y-84839044D01*
X96760956Y-84957754D01*
X96916059Y-85022000D01*
X97083941Y-85022000D01*
X97239044Y-84957754D01*
X97357754Y-84839044D01*
X97422000Y-84683941D01*
X97422000Y-84516059D01*
X97357754Y-84360956D01*
X97260798Y-84264000D01*
X101749937Y-84264000D01*
X97230368Y-88783570D01*
X97189044Y-88742246D01*
X97033941Y-88678000D01*
X96866059Y-88678000D01*
X96710956Y-88742246D01*
X96592246Y-88860956D01*
X96528000Y-89016059D01*
X96528000Y-89183941D01*
X96592246Y-89339044D01*
X96710956Y-89457754D01*
X96811578Y-89499433D01*
X96787126Y-89523885D01*
X96765796Y-89538137D01*
X96751544Y-89559467D01*
X96751542Y-89559469D01*
X96709325Y-89622652D01*
X96691639Y-89711563D01*
X96632189Y-89771013D01*
X96605445Y-89730989D01*
X94419448Y-87544993D01*
X94395903Y-87509755D01*
X94256314Y-87416485D01*
X94133219Y-87392000D01*
X94133218Y-87392000D01*
X94091658Y-87383733D01*
X94050098Y-87392000D01*
X92361797Y-87392000D01*
X92314756Y-87344959D01*
X92314755Y-87344957D01*
X92196045Y-87226247D01*
X92156888Y-87210028D01*
X92121657Y-87186487D01*
X92080099Y-87178220D01*
X92040942Y-87162001D01*
X91998561Y-87162001D01*
X91957001Y-87153734D01*
X91915441Y-87162001D01*
X91873060Y-87162001D01*
X91833903Y-87178220D01*
X91792345Y-87186487D01*
X91757114Y-87210027D01*
X91717957Y-87226247D01*
X91687987Y-87256217D01*
X91652757Y-87279757D01*
X91629217Y-87314987D01*
X91599247Y-87344957D01*
X91583027Y-87384114D01*
X91559487Y-87419345D01*
X91551220Y-87460903D01*
X91535001Y-87500060D01*
X91535001Y-87542441D01*
X91526734Y-87584001D01*
X91535001Y-87625561D01*
X91535001Y-87667942D01*
X91551220Y-87707099D01*
X91559487Y-87748657D01*
X91583028Y-87783888D01*
X91599247Y-87823045D01*
X91717957Y-87941755D01*
X91717959Y-87941756D01*
X91859209Y-88083006D01*
X91882755Y-88118245D01*
X92001799Y-88197787D01*
X92022344Y-88211515D01*
X92187000Y-88244267D01*
X92228561Y-88236000D01*
X93916861Y-88236000D01*
X95783860Y-90103000D01*
X92409834Y-90103000D01*
X92415782Y-90073094D01*
X92432000Y-90033941D01*
X92432000Y-89991561D01*
X92440267Y-89950000D01*
X92432000Y-89908439D01*
X92432000Y-89866059D01*
X92415782Y-89826906D01*
X92407515Y-89785344D01*
X92383972Y-89750109D01*
X92367754Y-89710956D01*
X92338042Y-89681244D01*
X92415313Y-89603972D01*
X92479559Y-89448869D01*
X92479559Y-89280987D01*
X92415313Y-89125884D01*
X92296603Y-89007174D01*
X92141500Y-88942928D01*
X91973618Y-88942928D01*
X91818515Y-89007174D01*
X91699805Y-89125884D01*
X91635559Y-89280987D01*
X91635559Y-89304030D01*
X89242522Y-86910993D01*
X89218976Y-86875755D01*
X89079387Y-86782485D01*
X88956292Y-86758000D01*
X88956291Y-86758000D01*
X88914731Y-86749733D01*
X88873171Y-86758000D01*
X84029826Y-86758000D01*
X83988266Y-86749733D01*
X83946706Y-86758000D01*
X83823611Y-86782485D01*
X83684022Y-86875755D01*
X83660480Y-86910988D01*
X81893470Y-88678000D01*
X81659057Y-88678000D01*
X81619904Y-88694218D01*
X81578342Y-88702485D01*
X81543107Y-88726028D01*
X81503954Y-88742246D01*
X81473989Y-88772211D01*
X81438753Y-88795755D01*
X81415210Y-88830990D01*
X81385244Y-88860956D01*
X81369026Y-88900109D01*
X81345483Y-88935344D01*
X81337216Y-88976906D01*
X81320998Y-89016059D01*
X81320998Y-89058439D01*
X81312731Y-89100000D01*
X81320998Y-89141561D01*
X81320998Y-89183941D01*
X81337216Y-89223094D01*
X81345483Y-89264656D01*
X81369026Y-89299891D01*
X81385244Y-89339044D01*
X81405737Y-89359537D01*
X81376016Y-89379396D01*
X81352476Y-89414626D01*
X81322506Y-89444596D01*
X81318512Y-89454239D01*
X79550000Y-89454239D01*
X79475086Y-89469140D01*
X79411576Y-89511576D01*
X79369140Y-89575086D01*
X79354239Y-89650000D01*
X79354239Y-92450000D01*
X79369140Y-92524914D01*
X79411576Y-92588424D01*
X79475086Y-92630860D01*
X79550000Y-92645761D01*
X81650000Y-92645761D01*
X81724914Y-92630860D01*
X81788424Y-92588424D01*
X81830860Y-92524914D01*
X81845761Y-92450000D01*
X81845761Y-90085015D01*
X81848277Y-90084515D01*
X81902223Y-90048469D01*
X81919304Y-90041394D01*
X81932377Y-90028321D01*
X81987865Y-89991245D01*
X82024941Y-89935757D01*
X82038014Y-89922684D01*
X82045089Y-89905603D01*
X82081135Y-89851657D01*
X82093793Y-89788022D01*
X82102260Y-89767581D01*
X82102260Y-89745457D01*
X82113888Y-89687000D01*
X82102260Y-89628544D01*
X82102260Y-89599699D01*
X82091221Y-89573048D01*
X82082161Y-89527503D01*
X82109827Y-89522000D01*
X82109828Y-89522000D01*
X82232923Y-89497515D01*
X82372512Y-89404245D01*
X82396057Y-89369007D01*
X84163066Y-87602000D01*
X88739934Y-87602000D01*
X89078932Y-87940998D01*
X88016059Y-87940998D01*
X87976906Y-87957216D01*
X87935344Y-87965483D01*
X87900109Y-87989026D01*
X87860956Y-88005244D01*
X87830991Y-88035209D01*
X87803852Y-88053342D01*
X87765255Y-88014745D01*
X87741526Y-87999729D01*
X87601526Y-87949729D01*
X87580000Y-87946000D01*
X87440000Y-87946000D01*
X87417025Y-87950266D01*
X87287025Y-88000266D01*
X87264745Y-88014745D01*
X87154745Y-88124745D01*
X87140923Y-88145385D01*
X87090923Y-88265385D01*
X87086000Y-88290000D01*
X87086000Y-88440000D01*
X87090266Y-88462975D01*
X87140266Y-88592975D01*
X87154745Y-88615255D01*
X87264745Y-88725255D01*
X87287025Y-88739734D01*
X87417025Y-88789734D01*
X87440000Y-88794000D01*
X87580000Y-88794000D01*
X87601526Y-88790271D01*
X87741526Y-88740271D01*
X87765255Y-88725255D01*
X87812247Y-88678263D01*
X87830991Y-88690787D01*
X87860956Y-88720752D01*
X87900109Y-88736970D01*
X87935344Y-88760513D01*
X87976906Y-88768780D01*
X88016059Y-88784998D01*
X89092776Y-88784998D01*
X90756147Y-90448370D01*
X90788902Y-90497392D01*
X90837924Y-90530148D01*
X91113795Y-90806019D01*
X91137339Y-90841255D01*
X91249292Y-90916059D01*
X91276928Y-90934525D01*
X91441584Y-90967277D01*
X91483145Y-90959010D01*
X92250192Y-90959010D01*
X92291752Y-90967277D01*
X92333312Y-90959010D01*
X92333313Y-90959010D01*
X92393692Y-90947000D01*
X95700202Y-90947000D01*
X95983997Y-91230795D01*
X95983997Y-91276706D01*
X95975730Y-91318266D01*
X95983997Y-91359826D01*
X96008482Y-91482921D01*
X96101752Y-91622511D01*
X96136991Y-91646057D01*
X96346940Y-91856006D01*
X96370486Y-91891245D01*
X96510075Y-91984515D01*
X96633170Y-92009000D01*
X96674730Y-92017267D01*
X96716290Y-92009000D01*
X97083941Y-92009000D01*
X97084387Y-92008815D01*
X95783829Y-93309374D01*
X94379448Y-91904993D01*
X94355903Y-91869755D01*
X94216314Y-91776485D01*
X94093219Y-91752000D01*
X94093218Y-91752000D01*
X94051658Y-91743733D01*
X94010098Y-91752000D01*
X91873061Y-91752000D01*
X91833908Y-91768218D01*
X91792346Y-91776485D01*
X91757111Y-91800028D01*
X91717958Y-91816246D01*
X91687993Y-91846211D01*
X91652757Y-91869755D01*
X91629213Y-91904991D01*
X91599248Y-91934956D01*
X91583030Y-91974109D01*
X91559487Y-92009344D01*
X91551220Y-92050906D01*
X91535002Y-92090059D01*
X91535002Y-92132439D01*
X91526735Y-92174000D01*
X91535002Y-92215561D01*
X91535002Y-92257941D01*
X91551220Y-92297094D01*
X91559487Y-92338656D01*
X91583030Y-92373891D01*
X91599248Y-92413044D01*
X91629213Y-92443009D01*
X91652757Y-92478245D01*
X91687993Y-92501789D01*
X91717958Y-92531754D01*
X91757111Y-92547972D01*
X91792346Y-92571515D01*
X91833908Y-92579782D01*
X91873061Y-92596000D01*
X93876861Y-92596000D01*
X95489317Y-94208457D01*
X95495013Y-94237090D01*
X94255831Y-92997908D01*
X94232285Y-92962670D01*
X94092696Y-92869400D01*
X93969601Y-92844915D01*
X93969600Y-92844915D01*
X93928040Y-92836648D01*
X93886480Y-92844915D01*
X89037644Y-92844915D01*
X88996083Y-92836648D01*
X88954522Y-92844915D01*
X88831427Y-92869400D01*
X88691838Y-92962670D01*
X88668294Y-92997906D01*
X87860958Y-93805243D01*
X87860956Y-93805244D01*
X87808355Y-93857845D01*
X87763537Y-93813027D01*
X87739808Y-93798011D01*
X87599808Y-93748011D01*
X87578282Y-93744282D01*
X87438282Y-93744282D01*
X87415307Y-93748548D01*
X87285307Y-93798548D01*
X87263027Y-93813027D01*
X87153027Y-93923027D01*
X87139205Y-93943667D01*
X87089205Y-94063667D01*
X87084282Y-94088282D01*
X87084282Y-94238282D01*
X87088548Y-94261257D01*
X87138548Y-94391257D01*
X87153027Y-94413537D01*
X87217490Y-94478000D01*
X81664057Y-94478000D01*
X81624904Y-94494218D01*
X81583342Y-94502485D01*
X81548107Y-94526028D01*
X81508954Y-94542246D01*
X81478989Y-94572211D01*
X81443753Y-94595755D01*
X81420210Y-94630990D01*
X81390244Y-94660956D01*
X81374026Y-94700109D01*
X81350483Y-94735344D01*
X81342216Y-94776906D01*
X81325998Y-94816059D01*
X81325998Y-94858439D01*
X81317731Y-94900000D01*
X81325998Y-94941561D01*
X81325998Y-94983941D01*
X81342216Y-95023094D01*
X81350483Y-95064656D01*
X81374026Y-95099891D01*
X81390244Y-95139044D01*
X81407363Y-95156163D01*
X81373819Y-95178577D01*
X81356672Y-95204239D01*
X79550000Y-95204239D01*
X79475086Y-95219140D01*
X79411576Y-95261576D01*
X79369140Y-95325086D01*
X79354239Y-95400000D01*
X79354239Y-98200000D01*
X79369140Y-98274914D01*
X79411576Y-98338424D01*
X79475086Y-98380860D01*
X79550000Y-98395761D01*
X81650000Y-98395761D01*
X81724914Y-98380860D01*
X81788424Y-98338424D01*
X81830860Y-98274914D01*
X81845761Y-98200000D01*
X81845761Y-95884741D01*
X81846898Y-95884515D01*
X81905405Y-95845422D01*
X81917107Y-95840575D01*
X81926063Y-95831619D01*
X81986487Y-95791245D01*
X82026861Y-95730821D01*
X82035817Y-95721865D01*
X82040664Y-95710163D01*
X82079757Y-95651656D01*
X82093485Y-95582643D01*
X82100063Y-95566762D01*
X82100063Y-95549574D01*
X82112510Y-95487000D01*
X82100063Y-95424427D01*
X82100063Y-95398880D01*
X82090286Y-95375277D01*
X82079757Y-95322345D01*
X82079526Y-95322000D01*
X91528440Y-95322000D01*
X91570000Y-95330267D01*
X91611560Y-95322000D01*
X91611561Y-95322000D01*
X91734656Y-95297515D01*
X91874245Y-95204245D01*
X91897790Y-95169007D01*
X92347787Y-94719012D01*
X92347789Y-94719009D01*
X92377754Y-94689044D01*
X92393972Y-94649891D01*
X92417514Y-94614657D01*
X92425781Y-94573097D01*
X92442000Y-94533941D01*
X92442000Y-94491561D01*
X92450267Y-94450001D01*
X92442000Y-94408441D01*
X92442000Y-94366059D01*
X92425781Y-94326902D01*
X92417514Y-94285344D01*
X92393974Y-94250113D01*
X92377754Y-94210956D01*
X92347784Y-94180986D01*
X92338155Y-94166574D01*
X92411769Y-94092960D01*
X92476015Y-93937857D01*
X92476015Y-93769975D01*
X92442439Y-93688915D01*
X93753243Y-93688915D01*
X96305368Y-96241041D01*
X91933330Y-96241041D01*
X91894177Y-96257259D01*
X91852615Y-96265526D01*
X91817380Y-96289069D01*
X91778227Y-96305287D01*
X91748262Y-96335252D01*
X91713026Y-96358796D01*
X91689483Y-96394031D01*
X91659517Y-96423997D01*
X91643299Y-96463150D01*
X91619756Y-96498385D01*
X91611489Y-96539947D01*
X91595271Y-96579100D01*
X91595271Y-96621480D01*
X91587004Y-96663041D01*
X91595271Y-96704602D01*
X91595271Y-96746982D01*
X91611489Y-96786135D01*
X91619756Y-96827697D01*
X91643299Y-96862932D01*
X91659517Y-96902085D01*
X91689482Y-96932050D01*
X91713026Y-96967286D01*
X91748262Y-96990830D01*
X91778227Y-97020795D01*
X91817380Y-97037013D01*
X91852615Y-97060556D01*
X91894177Y-97068823D01*
X91933330Y-97085041D01*
X97175598Y-97085041D01*
X97217158Y-97093308D01*
X97258718Y-97085041D01*
X97258719Y-97085041D01*
X97381814Y-97060556D01*
X97521403Y-96967286D01*
X97544948Y-96932048D01*
X97954997Y-96522000D01*
X99848439Y-96522000D01*
X99889999Y-96530267D01*
X99931559Y-96522000D01*
X108575203Y-96522000D01*
X109222211Y-97169009D01*
X109245755Y-97204245D01*
X109307881Y-97245756D01*
X109385343Y-97297515D01*
X109550000Y-97330267D01*
X109591561Y-97322000D01*
X113528440Y-97322000D01*
X113570000Y-97330267D01*
X113611560Y-97322000D01*
X113611561Y-97322000D01*
X113734656Y-97297515D01*
X113874245Y-97204245D01*
X113897790Y-97169007D01*
X114759010Y-96307788D01*
X114794245Y-96284245D01*
X114887515Y-96144656D01*
X114912000Y-96021561D01*
X114912000Y-96021560D01*
X114920267Y-95980001D01*
X114912000Y-95938441D01*
X114912000Y-95784386D01*
X115677224Y-95784386D01*
X115677224Y-95952268D01*
X115741470Y-96107371D01*
X115860180Y-96226081D01*
X116015283Y-96290327D01*
X116183165Y-96290327D01*
X116338268Y-96226081D01*
X116456978Y-96107371D01*
X116487529Y-96033614D01*
X116556059Y-96062000D01*
X116723941Y-96062000D01*
X116796388Y-96031991D01*
X116825322Y-96101844D01*
X116944032Y-96220554D01*
X117099135Y-96284800D01*
X117267017Y-96284800D01*
X117422120Y-96220554D01*
X117540830Y-96101844D01*
X117605076Y-95946741D01*
X117605076Y-95778859D01*
X117540830Y-95623756D01*
X117422120Y-95505046D01*
X117267017Y-95440800D01*
X117099135Y-95440800D01*
X117026688Y-95470809D01*
X116997754Y-95400956D01*
X116879044Y-95282246D01*
X116723941Y-95218000D01*
X116556059Y-95218000D01*
X116400956Y-95282246D01*
X116282246Y-95400956D01*
X116251695Y-95474713D01*
X116183165Y-95446327D01*
X116015283Y-95446327D01*
X115860180Y-95510573D01*
X115741470Y-95629283D01*
X115677224Y-95784386D01*
X114912000Y-95784386D01*
X114912000Y-95664000D01*
X115450000Y-95664000D01*
X115474492Y-95659128D01*
X115495255Y-95645255D01*
X115509128Y-95624492D01*
X115514000Y-95600000D01*
X115514000Y-94900000D01*
X115509128Y-94875508D01*
X115495255Y-94854745D01*
X115474492Y-94840872D01*
X115450000Y-94836000D01*
X114912000Y-94836000D01*
X114912000Y-94716059D01*
X116678000Y-94716059D01*
X116678000Y-94883941D01*
X116742246Y-95039044D01*
X116860956Y-95157754D01*
X117016059Y-95222000D01*
X117183941Y-95222000D01*
X117339044Y-95157754D01*
X117457754Y-95039044D01*
X117522000Y-94883941D01*
X117522000Y-94716059D01*
X119478000Y-94716059D01*
X119478000Y-94883941D01*
X119542246Y-95039044D01*
X119660956Y-95157754D01*
X119816059Y-95222000D01*
X119983941Y-95222000D01*
X120139044Y-95157754D01*
X120257754Y-95039044D01*
X120322000Y-94883941D01*
X120322000Y-94716059D01*
X122378000Y-94716059D01*
X122378000Y-94883941D01*
X122442246Y-95039044D01*
X122560956Y-95157754D01*
X122716059Y-95222000D01*
X122883941Y-95222000D01*
X123004407Y-95172101D01*
X125578000Y-95172101D01*
X125578000Y-95339983D01*
X125642246Y-95495086D01*
X125760956Y-95613796D01*
X125916059Y-95678042D01*
X126083941Y-95678042D01*
X126239044Y-95613796D01*
X126357754Y-95495086D01*
X126422000Y-95339983D01*
X126422000Y-95172101D01*
X126357754Y-95016998D01*
X126239044Y-94898288D01*
X126083941Y-94834042D01*
X125916059Y-94834042D01*
X125760956Y-94898288D01*
X125642246Y-95016998D01*
X125578000Y-95172101D01*
X123004407Y-95172101D01*
X123039044Y-95157754D01*
X123157754Y-95039044D01*
X123222000Y-94883941D01*
X123222000Y-94716059D01*
X123201290Y-94666059D01*
X124278000Y-94666059D01*
X124278000Y-94833941D01*
X124342246Y-94989044D01*
X124460956Y-95107754D01*
X124616059Y-95172000D01*
X124783941Y-95172000D01*
X124939044Y-95107754D01*
X125057754Y-94989044D01*
X125122000Y-94833941D01*
X125122000Y-94666059D01*
X125057754Y-94510956D01*
X124939044Y-94392246D01*
X124783941Y-94328000D01*
X124616059Y-94328000D01*
X124460956Y-94392246D01*
X124342246Y-94510956D01*
X124278000Y-94666059D01*
X123201290Y-94666059D01*
X123157754Y-94560956D01*
X123039044Y-94442246D01*
X122883941Y-94378000D01*
X122716059Y-94378000D01*
X122560956Y-94442246D01*
X122442246Y-94560956D01*
X122378000Y-94716059D01*
X120322000Y-94716059D01*
X120257754Y-94560956D01*
X120139044Y-94442246D01*
X119983941Y-94378000D01*
X119816059Y-94378000D01*
X119660956Y-94442246D01*
X119542246Y-94560956D01*
X119478000Y-94716059D01*
X117522000Y-94716059D01*
X117457754Y-94560956D01*
X117339044Y-94442246D01*
X117183941Y-94378000D01*
X117016059Y-94378000D01*
X116860956Y-94442246D01*
X116742246Y-94560956D01*
X116678000Y-94716059D01*
X114912000Y-94716059D01*
X114912000Y-94128897D01*
X115016059Y-94172000D01*
X115183941Y-94172000D01*
X115339044Y-94107754D01*
X115457754Y-93989044D01*
X115522000Y-93833941D01*
X115522000Y-93666059D01*
X115457754Y-93510956D01*
X115339044Y-93392246D01*
X115301653Y-93376758D01*
X115398396Y-93357515D01*
X115404304Y-93353567D01*
X115458759Y-93485033D01*
X115577469Y-93603743D01*
X115732572Y-93667989D01*
X115900454Y-93667989D01*
X116055557Y-93603743D01*
X116174267Y-93485033D01*
X116202837Y-93416059D01*
X116978000Y-93416059D01*
X116978000Y-93583941D01*
X117042246Y-93739044D01*
X117160956Y-93857754D01*
X117316059Y-93922000D01*
X117483941Y-93922000D01*
X117639044Y-93857754D01*
X117757754Y-93739044D01*
X117822000Y-93583941D01*
X117822000Y-93416059D01*
X119778000Y-93416059D01*
X119778000Y-93583941D01*
X119842246Y-93739044D01*
X119960956Y-93857754D01*
X120116059Y-93922000D01*
X120283941Y-93922000D01*
X120439044Y-93857754D01*
X120557754Y-93739044D01*
X120622000Y-93583941D01*
X120622000Y-93416059D01*
X120557754Y-93260956D01*
X120439044Y-93142246D01*
X120283941Y-93078000D01*
X120116059Y-93078000D01*
X119960956Y-93142246D01*
X119842246Y-93260956D01*
X119778000Y-93416059D01*
X117822000Y-93416059D01*
X117757754Y-93260956D01*
X117639044Y-93142246D01*
X117483941Y-93078000D01*
X117316059Y-93078000D01*
X117160956Y-93142246D01*
X117042246Y-93260956D01*
X116978000Y-93416059D01*
X116202837Y-93416059D01*
X116238513Y-93329930D01*
X116238513Y-93185320D01*
X119331946Y-90091888D01*
X121950557Y-90091888D01*
X122188000Y-90329332D01*
X122188000Y-90473941D01*
X122252246Y-90629044D01*
X122370956Y-90747754D01*
X122526059Y-90812000D01*
X122693941Y-90812000D01*
X122849044Y-90747754D01*
X122967754Y-90629044D01*
X123032000Y-90473941D01*
X123032000Y-90306059D01*
X122967754Y-90150956D01*
X122849044Y-90032246D01*
X122693941Y-89968000D01*
X122549332Y-89968000D01*
X122254847Y-89673516D01*
X122240593Y-89652183D01*
X122156079Y-89595713D01*
X122081550Y-89580888D01*
X122081549Y-89580888D01*
X122056388Y-89575883D01*
X122031227Y-89580888D01*
X119483721Y-89580888D01*
X119892610Y-89172000D01*
X124033941Y-89172000D01*
X124073094Y-89155782D01*
X124114656Y-89147515D01*
X124149891Y-89123972D01*
X124189044Y-89107754D01*
X124219009Y-89077789D01*
X124254245Y-89054245D01*
X124277789Y-89019009D01*
X124307754Y-88989044D01*
X124323972Y-88949891D01*
X124347515Y-88914656D01*
X124355782Y-88873094D01*
X124372000Y-88833941D01*
X124372000Y-88791561D01*
X124380267Y-88750000D01*
X124372000Y-88708439D01*
X124372000Y-88666059D01*
X124355782Y-88626906D01*
X124347515Y-88585344D01*
X124323972Y-88550109D01*
X124307754Y-88510956D01*
X124277789Y-88480991D01*
X124254245Y-88445755D01*
X124219009Y-88422211D01*
X124189044Y-88392246D01*
X124149891Y-88376028D01*
X124114656Y-88352485D01*
X124073094Y-88344218D01*
X124033941Y-88328000D01*
X119759373Y-88328000D01*
X119717812Y-88319733D01*
X119676251Y-88328000D01*
X119553156Y-88352485D01*
X119413567Y-88445755D01*
X119390023Y-88480991D01*
X118782923Y-89088092D01*
X118782920Y-89088094D01*
X116075985Y-91795030D01*
X116122000Y-91683941D01*
X116122000Y-91516059D01*
X116057754Y-91360956D01*
X115950982Y-91254184D01*
X115977040Y-91249001D01*
X115977045Y-91249001D01*
X116076803Y-91229158D01*
X116189929Y-91153569D01*
X116209011Y-91125011D01*
X117250317Y-90083706D01*
X117278869Y-90064628D01*
X117297948Y-90036075D01*
X117297950Y-90036073D01*
X117354459Y-89951502D01*
X117366636Y-89890284D01*
X117374302Y-89851744D01*
X117374302Y-89851740D01*
X117381001Y-89818061D01*
X117374302Y-89784381D01*
X117374302Y-89642648D01*
X117390056Y-89626894D01*
X117454302Y-89471791D01*
X117454302Y-89303909D01*
X117390056Y-89148806D01*
X117333755Y-89092505D01*
X117386357Y-89039903D01*
X117450603Y-88884800D01*
X117450603Y-88716918D01*
X117386357Y-88561815D01*
X117330723Y-88506181D01*
X117383998Y-88452906D01*
X117448244Y-88297803D01*
X117448244Y-88129921D01*
X117396707Y-88005499D01*
X118234059Y-88005498D01*
X118259225Y-88010504D01*
X118358915Y-87990674D01*
X118422098Y-87948457D01*
X118422100Y-87948455D01*
X118443430Y-87934203D01*
X118457682Y-87912873D01*
X118785557Y-87584999D01*
X123595336Y-87584997D01*
X123620502Y-87590003D01*
X123720192Y-87570173D01*
X123783375Y-87527956D01*
X123783377Y-87527954D01*
X123804707Y-87513702D01*
X123818959Y-87492372D01*
X124782875Y-86528457D01*
X124791269Y-86522848D01*
X124845294Y-86603704D01*
X124866627Y-86617958D01*
X125484501Y-87235832D01*
X125484500Y-87982565D01*
X125479325Y-87990310D01*
X125459495Y-88090000D01*
X125479325Y-88189690D01*
X125484500Y-88197435D01*
X125484501Y-88794168D01*
X123044169Y-91234500D01*
X122505161Y-91234500D01*
X122480000Y-91229495D01*
X122380309Y-91249325D01*
X122363700Y-91260423D01*
X122295795Y-91305795D01*
X122281543Y-91327126D01*
X121287128Y-92321541D01*
X121265795Y-92335795D01*
X121227746Y-92392740D01*
X121209325Y-92420310D01*
X121189495Y-92520000D01*
X121194500Y-92545162D01*
X121194501Y-93158700D01*
X121092246Y-93260955D01*
X121028000Y-93416058D01*
X121028000Y-93583940D01*
X121092246Y-93739043D01*
X121210956Y-93857753D01*
X121366059Y-93921999D01*
X121533941Y-93921999D01*
X121689044Y-93857753D01*
X121807754Y-93739043D01*
X121872000Y-93583940D01*
X121872000Y-93416059D01*
X122678000Y-93416059D01*
X122678000Y-93583941D01*
X122742246Y-93739044D01*
X122860956Y-93857754D01*
X123016059Y-93922000D01*
X123183941Y-93922000D01*
X123339044Y-93857754D01*
X123457754Y-93739044D01*
X123522000Y-93583941D01*
X123522000Y-93416059D01*
X123457754Y-93260956D01*
X123339044Y-93142246D01*
X123183941Y-93078000D01*
X123016059Y-93078000D01*
X122860956Y-93142246D01*
X122742246Y-93260956D01*
X122678000Y-93416059D01*
X121872000Y-93416059D01*
X121872000Y-93416058D01*
X121807754Y-93260955D01*
X121705500Y-93158701D01*
X121705500Y-92625831D01*
X122585832Y-91745500D01*
X123124839Y-91745500D01*
X123150000Y-91750505D01*
X123175161Y-91745500D01*
X123175162Y-91745500D01*
X123249691Y-91730675D01*
X123334205Y-91674205D01*
X123339647Y-91666059D01*
X124328000Y-91666059D01*
X124328000Y-91833941D01*
X124392246Y-91989044D01*
X124510956Y-92107754D01*
X124666059Y-92172000D01*
X124833941Y-92172000D01*
X124989044Y-92107754D01*
X125107754Y-91989044D01*
X125172000Y-91833941D01*
X125172000Y-91666059D01*
X125107754Y-91510956D01*
X124989044Y-91392246D01*
X124833941Y-91328000D01*
X124666059Y-91328000D01*
X124510956Y-91392246D01*
X124392246Y-91510956D01*
X124328000Y-91666059D01*
X123339647Y-91666059D01*
X123348459Y-91652872D01*
X125740491Y-89260840D01*
X125740492Y-91688727D01*
X125735486Y-91713893D01*
X125755316Y-91813583D01*
X125797533Y-91876766D01*
X125797535Y-91876768D01*
X125811787Y-91898098D01*
X125833117Y-91912350D01*
X126444501Y-92523734D01*
X126444500Y-93124838D01*
X126439495Y-93150000D01*
X126455212Y-93229012D01*
X126459325Y-93249690D01*
X126515795Y-93334205D01*
X126537129Y-93348460D01*
X126601539Y-93412869D01*
X126615795Y-93434205D01*
X126700309Y-93490675D01*
X126761000Y-93502747D01*
X126761000Y-95525000D01*
X126765872Y-95549492D01*
X126779745Y-95570255D01*
X126800508Y-95584128D01*
X126825000Y-95589000D01*
X128325000Y-95589000D01*
X128349656Y-95584060D01*
X128370381Y-95570129D01*
X128384196Y-95549327D01*
X128389000Y-95524822D01*
X128370761Y-88977021D01*
X128370761Y-88150000D01*
X128368425Y-88138254D01*
X128364000Y-86549822D01*
X128359128Y-86525508D01*
X128345255Y-86504745D01*
X128324492Y-86490872D01*
X128300000Y-86486000D01*
X126879506Y-86486000D01*
X126879506Y-86265749D01*
X126985711Y-86159544D01*
X127049957Y-86004441D01*
X127049957Y-85836559D01*
X126985711Y-85681456D01*
X126867001Y-85562746D01*
X126711898Y-85498500D01*
X126544016Y-85498500D01*
X126422496Y-85548835D01*
X126485832Y-85485500D01*
X127351295Y-85485500D01*
X129244500Y-87378705D01*
X129244501Y-92974834D01*
X129239495Y-93000000D01*
X129259325Y-93099690D01*
X129301542Y-93162873D01*
X129301544Y-93162875D01*
X129315796Y-93184205D01*
X129328000Y-93192359D01*
X129328000Y-93333941D01*
X129392246Y-93489044D01*
X129510956Y-93607754D01*
X129666059Y-93672000D01*
X129833941Y-93672000D01*
X129989044Y-93607754D01*
X130107754Y-93489044D01*
X130172000Y-93333941D01*
X130172000Y-93166059D01*
X130107754Y-93010956D01*
X129989044Y-92892246D01*
X129833941Y-92828000D01*
X129755500Y-92828000D01*
X129755500Y-87298035D01*
X129760505Y-87272873D01*
X129740675Y-87173183D01*
X129733203Y-87162001D01*
X129684205Y-87088669D01*
X129662872Y-87074415D01*
X127655585Y-85067128D01*
X127641331Y-85045795D01*
X127556817Y-84989325D01*
X127482288Y-84974500D01*
X127482287Y-84974500D01*
X127457126Y-84969495D01*
X127431965Y-84974500D01*
X126405161Y-84974500D01*
X126380000Y-84969495D01*
X126332360Y-84978971D01*
X126362833Y-84948498D01*
X127958702Y-84948498D01*
X128060956Y-85050752D01*
X128216059Y-85114998D01*
X128383941Y-85114998D01*
X128539044Y-85050752D01*
X128657754Y-84932042D01*
X128699433Y-84831420D01*
X128861541Y-84993528D01*
X128875795Y-85014861D01*
X128960309Y-85071331D01*
X129059999Y-85091161D01*
X129085161Y-85086156D01*
X129086941Y-85086156D01*
X129879989Y-85879204D01*
X129879989Y-85888513D01*
X129786383Y-85794907D01*
X129631280Y-85730661D01*
X129463398Y-85730661D01*
X129308295Y-85794907D01*
X129189585Y-85913617D01*
X129125339Y-86068720D01*
X129125339Y-86236602D01*
X129189585Y-86391705D01*
X129308295Y-86510415D01*
X129463398Y-86574661D01*
X129631280Y-86574661D01*
X129786383Y-86510415D01*
X129879989Y-86416809D01*
X129879990Y-92637323D01*
X129874984Y-92662489D01*
X129894814Y-92762179D01*
X129937031Y-92825362D01*
X129937033Y-92825364D01*
X129951285Y-92846694D01*
X129972615Y-92860946D01*
X130524541Y-93412872D01*
X130538795Y-93434205D01*
X130596086Y-93472485D01*
X130623309Y-93490675D01*
X130636000Y-93493199D01*
X130636000Y-95500000D01*
X130640872Y-95524492D01*
X130654745Y-95545255D01*
X130675508Y-95559128D01*
X130700000Y-95564000D01*
X132200000Y-95564000D01*
X132224492Y-95559128D01*
X132245255Y-95545255D01*
X132259128Y-95524492D01*
X132264000Y-95500000D01*
X132264000Y-86500000D01*
X132259128Y-86475508D01*
X132245255Y-86454745D01*
X132224492Y-86440872D01*
X132200000Y-86436000D01*
X130700000Y-86436000D01*
X130675508Y-86440872D01*
X130654745Y-86454745D01*
X130644999Y-86469331D01*
X130644999Y-86258424D01*
X130726059Y-86292000D01*
X130893941Y-86292000D01*
X131049044Y-86227754D01*
X131167754Y-86109044D01*
X131232000Y-85953941D01*
X131232000Y-85786059D01*
X131167754Y-85630956D01*
X131065500Y-85528702D01*
X131065500Y-85375156D01*
X131070504Y-85349999D01*
X131065500Y-85324842D01*
X131065500Y-85324838D01*
X131050675Y-85250309D01*
X130994205Y-85165795D01*
X130972872Y-85151541D01*
X129565051Y-83743720D01*
X130000339Y-83743720D01*
X130000339Y-83911602D01*
X130064585Y-84066705D01*
X130183295Y-84185415D01*
X130338398Y-84249661D01*
X130506280Y-84249661D01*
X130661383Y-84185415D01*
X130780093Y-84066705D01*
X130844339Y-83911602D01*
X130844339Y-83743720D01*
X130780093Y-83588617D01*
X130661383Y-83469907D01*
X130506280Y-83405661D01*
X130338398Y-83405661D01*
X130183295Y-83469907D01*
X130064585Y-83588617D01*
X130000339Y-83743720D01*
X129565051Y-83743720D01*
X129358459Y-83537128D01*
X129344205Y-83515795D01*
X129259691Y-83459325D01*
X129185162Y-83444500D01*
X129185161Y-83444500D01*
X129160000Y-83439495D01*
X129134839Y-83444500D01*
X123212834Y-83444500D01*
X122472000Y-82703667D01*
X122472000Y-82559057D01*
X122432626Y-82464000D01*
X127239202Y-82464000D01*
X127192246Y-82510956D01*
X127128000Y-82666059D01*
X127128000Y-82833941D01*
X127192246Y-82989044D01*
X127310956Y-83107754D01*
X127466059Y-83172000D01*
X127633941Y-83172000D01*
X127789044Y-83107754D01*
X127907754Y-82989044D01*
X127943556Y-82902611D01*
X127986119Y-83005368D01*
X128104829Y-83124078D01*
X128259932Y-83188324D01*
X128427814Y-83188324D01*
X128582917Y-83124078D01*
X128701627Y-83005368D01*
X128765873Y-82850265D01*
X128765873Y-82682383D01*
X128701627Y-82527280D01*
X128638347Y-82464000D01*
X131008959Y-82464000D01*
X132051557Y-83021669D01*
X132536000Y-84014777D01*
X132536000Y-97983416D01*
X132051217Y-98856026D01*
X131079825Y-99536000D01*
X125910797Y-99536000D01*
X127569009Y-97877789D01*
X127604245Y-97854245D01*
X127697515Y-97714656D01*
X127722000Y-97591561D01*
X127730267Y-97550001D01*
X127722000Y-97508441D01*
X127722000Y-97193503D01*
X131151501Y-97193503D01*
X131151501Y-97361385D01*
X131215747Y-97516488D01*
X131334457Y-97635198D01*
X131489560Y-97699444D01*
X131657442Y-97699444D01*
X131812545Y-97635198D01*
X131931255Y-97516488D01*
X131995501Y-97361385D01*
X131995501Y-97193503D01*
X131931255Y-97038400D01*
X131812545Y-96919690D01*
X131657442Y-96855444D01*
X131489560Y-96855444D01*
X131334457Y-96919690D01*
X131215747Y-97038400D01*
X131151501Y-97193503D01*
X127722000Y-97193503D01*
X127722000Y-96803445D01*
X127742000Y-96755161D01*
X127742000Y-96579323D01*
X127674709Y-96416869D01*
X127607900Y-96350060D01*
X128885002Y-96350060D01*
X128885002Y-96517942D01*
X128949248Y-96673045D01*
X129067958Y-96791755D01*
X129223061Y-96856001D01*
X129390943Y-96856001D01*
X129546046Y-96791755D01*
X129664756Y-96673045D01*
X129729002Y-96517942D01*
X129729002Y-96350060D01*
X129664756Y-96194957D01*
X129546046Y-96076247D01*
X129390943Y-96012001D01*
X129223061Y-96012001D01*
X129067958Y-96076247D01*
X128949248Y-96194957D01*
X128885002Y-96350060D01*
X127607900Y-96350060D01*
X127550373Y-96292533D01*
X127387919Y-96225242D01*
X127212081Y-96225242D01*
X127163797Y-96245242D01*
X126264317Y-96245242D01*
X126222757Y-96236975D01*
X126181197Y-96245242D01*
X126058102Y-96269727D01*
X125918513Y-96362997D01*
X125894969Y-96398233D01*
X124506070Y-97787133D01*
X124457754Y-97670488D01*
X124339044Y-97551778D01*
X124183941Y-97487532D01*
X124016059Y-97487532D01*
X123860956Y-97551778D01*
X123742246Y-97670488D01*
X123678000Y-97825591D01*
X123678000Y-97993473D01*
X123742246Y-98148576D01*
X123860956Y-98267286D01*
X123977601Y-98315602D01*
X123832213Y-98460990D01*
X123762715Y-98565001D01*
X121731422Y-98565001D01*
X121764998Y-98483942D01*
X121764998Y-98316060D01*
X121700752Y-98160957D01*
X121582042Y-98042247D01*
X121426939Y-97978001D01*
X121259057Y-97978001D01*
X121103954Y-98042247D01*
X120985244Y-98160957D01*
X120920998Y-98316060D01*
X120920998Y-98483942D01*
X120954574Y-98565001D01*
X117603220Y-98565001D01*
X117002081Y-97963863D01*
X116985789Y-97939480D01*
X116889202Y-97874943D01*
X116804025Y-97858000D01*
X116804024Y-97858000D01*
X116775269Y-97852280D01*
X116753423Y-97856625D01*
X116689044Y-97792246D01*
X116533941Y-97728000D01*
X116366059Y-97728000D01*
X116210956Y-97792246D01*
X116092246Y-97910956D01*
X116028000Y-98066059D01*
X116028000Y-98101203D01*
X115617790Y-97690993D01*
X115606343Y-97673861D01*
X119224580Y-97673861D01*
X119224580Y-97841743D01*
X119288826Y-97996846D01*
X119407536Y-98115556D01*
X119562639Y-98179802D01*
X119730521Y-98179802D01*
X119885624Y-98115556D01*
X120004334Y-97996846D01*
X120068580Y-97841743D01*
X120068580Y-97673861D01*
X122325504Y-97673861D01*
X122325504Y-97841743D01*
X122389750Y-97996846D01*
X122508460Y-98115556D01*
X122663563Y-98179802D01*
X122831445Y-98179802D01*
X122986548Y-98115556D01*
X123105258Y-97996846D01*
X123169504Y-97841743D01*
X123169504Y-97673861D01*
X123105258Y-97518758D01*
X122986548Y-97400048D01*
X122831445Y-97335802D01*
X122663563Y-97335802D01*
X122508460Y-97400048D01*
X122389750Y-97518758D01*
X122325504Y-97673861D01*
X120068580Y-97673861D01*
X120004334Y-97518758D01*
X119885624Y-97400048D01*
X119730521Y-97335802D01*
X119562639Y-97335802D01*
X119407536Y-97400048D01*
X119288826Y-97518758D01*
X119224580Y-97673861D01*
X115606343Y-97673861D01*
X115594245Y-97655755D01*
X115454656Y-97562485D01*
X115331561Y-97538000D01*
X115331560Y-97538000D01*
X115290000Y-97529733D01*
X115248440Y-97538000D01*
X89181561Y-97538000D01*
X89140000Y-97529733D01*
X88975343Y-97562485D01*
X88916071Y-97602089D01*
X88835755Y-97655755D01*
X88812211Y-97690991D01*
X87575203Y-98928000D01*
X76762329Y-98928000D01*
X76822000Y-98783941D01*
X76822000Y-98616059D01*
X76757754Y-98460956D01*
X76639044Y-98342246D01*
X76483941Y-98278000D01*
X76316059Y-98278000D01*
X76160956Y-98342246D01*
X76042246Y-98460956D01*
X75978000Y-98616059D01*
X75978000Y-98783941D01*
X76037671Y-98928000D01*
X73024798Y-98928000D01*
X72072000Y-97975203D01*
X72072000Y-96716059D01*
X73178000Y-96716059D01*
X73178000Y-96883941D01*
X73242246Y-97039044D01*
X73360956Y-97157754D01*
X73516059Y-97222000D01*
X73683941Y-97222000D01*
X73839044Y-97157754D01*
X73957754Y-97039044D01*
X74022000Y-96883941D01*
X74022000Y-96716059D01*
X75978000Y-96716059D01*
X75978000Y-96883941D01*
X76042246Y-97039044D01*
X76160956Y-97157754D01*
X76316059Y-97222000D01*
X76483941Y-97222000D01*
X76639044Y-97157754D01*
X76757754Y-97039044D01*
X76822000Y-96883941D01*
X76822000Y-96716059D01*
X76757754Y-96560956D01*
X76639044Y-96442246D01*
X76483941Y-96378000D01*
X76316059Y-96378000D01*
X76160956Y-96442246D01*
X76042246Y-96560956D01*
X75978000Y-96716059D01*
X74022000Y-96716059D01*
X73957754Y-96560956D01*
X73839044Y-96442246D01*
X73683941Y-96378000D01*
X73516059Y-96378000D01*
X73360956Y-96442246D01*
X73242246Y-96560956D01*
X73178000Y-96716059D01*
X72072000Y-96716059D01*
X72072000Y-95832274D01*
X75965000Y-95832274D01*
X75965000Y-96000156D01*
X76029246Y-96155259D01*
X76147956Y-96273969D01*
X76303059Y-96338215D01*
X76470941Y-96338215D01*
X76626044Y-96273969D01*
X76744754Y-96155259D01*
X76809000Y-96000156D01*
X76809000Y-95832274D01*
X76744754Y-95677171D01*
X76626044Y-95558461D01*
X76470941Y-95494215D01*
X76303059Y-95494215D01*
X76147956Y-95558461D01*
X76029246Y-95677171D01*
X75965000Y-95832274D01*
X72072000Y-95832274D01*
X72072000Y-90916059D01*
X73178000Y-90916059D01*
X73178000Y-91083941D01*
X73242246Y-91239044D01*
X73360956Y-91357754D01*
X73516059Y-91422000D01*
X73683941Y-91422000D01*
X73839044Y-91357754D01*
X73957754Y-91239044D01*
X74022000Y-91083941D01*
X74022000Y-90916059D01*
X73957754Y-90760956D01*
X73839044Y-90642246D01*
X73683941Y-90578000D01*
X73516059Y-90578000D01*
X73360956Y-90642246D01*
X73242246Y-90760956D01*
X73178000Y-90916059D01*
X72072000Y-90916059D01*
X72072000Y-89074797D01*
X72267946Y-88878852D01*
X73390993Y-88878852D01*
X73390993Y-88901584D01*
X73382725Y-88943148D01*
X73413926Y-89100000D01*
X73415478Y-89107804D01*
X73508748Y-89247393D01*
X73543983Y-89270936D01*
X73829063Y-89556017D01*
X73852607Y-89591253D01*
X73887845Y-89614798D01*
X75278001Y-91004955D01*
X75278000Y-94416059D01*
X75278000Y-94583941D01*
X75294218Y-94623095D01*
X75302485Y-94664655D01*
X75326028Y-94699889D01*
X75342246Y-94739044D01*
X75372212Y-94769010D01*
X75395755Y-94804245D01*
X75430991Y-94827789D01*
X75460956Y-94857754D01*
X75500109Y-94873972D01*
X75535344Y-94897515D01*
X75576906Y-94905782D01*
X75616059Y-94922000D01*
X75658439Y-94922000D01*
X75700000Y-94930267D01*
X75741561Y-94922000D01*
X75783941Y-94922000D01*
X75823095Y-94905782D01*
X75864655Y-94897515D01*
X75899889Y-94873972D01*
X75939044Y-94857754D01*
X75969010Y-94827788D01*
X76004245Y-94804245D01*
X76027789Y-94769009D01*
X76057754Y-94739044D01*
X76073972Y-94699891D01*
X76097515Y-94664656D01*
X76105782Y-94623094D01*
X76122000Y-94583941D01*
X76122000Y-93218798D01*
X76160956Y-93257754D01*
X76316059Y-93322000D01*
X76483941Y-93322000D01*
X76639044Y-93257754D01*
X76757754Y-93139044D01*
X76822000Y-92983941D01*
X76822000Y-92816059D01*
X76757754Y-92660956D01*
X76639044Y-92542246D01*
X76483941Y-92478000D01*
X76316059Y-92478000D01*
X76160956Y-92542246D01*
X76122000Y-92581202D01*
X76122000Y-91318798D01*
X76160956Y-91357754D01*
X76316059Y-91422000D01*
X76483941Y-91422000D01*
X76639044Y-91357754D01*
X76757754Y-91239044D01*
X76822000Y-91083941D01*
X76822000Y-90916059D01*
X76757754Y-90760956D01*
X76639044Y-90642246D01*
X76483941Y-90578000D01*
X76316059Y-90578000D01*
X76160956Y-90642246D01*
X76104183Y-90699019D01*
X76097515Y-90665499D01*
X76052880Y-90598699D01*
X76004245Y-90525911D01*
X75969009Y-90502367D01*
X75482701Y-90016059D01*
X75978000Y-90016059D01*
X75978000Y-90183941D01*
X76042246Y-90339044D01*
X76160956Y-90457754D01*
X76316059Y-90522000D01*
X76483941Y-90522000D01*
X76639044Y-90457754D01*
X76757754Y-90339044D01*
X76822000Y-90183941D01*
X76822000Y-90016059D01*
X76757754Y-89860956D01*
X76639044Y-89742246D01*
X76483941Y-89678000D01*
X76316059Y-89678000D01*
X76160956Y-89742246D01*
X76042246Y-89860956D01*
X75978000Y-90016059D01*
X75482701Y-90016059D01*
X75155558Y-89688917D01*
X75177648Y-89684523D01*
X75317237Y-89591253D01*
X75340782Y-89556015D01*
X75697788Y-89199010D01*
X75697790Y-89199007D01*
X75839042Y-89057755D01*
X75839044Y-89057754D01*
X75957754Y-88939044D01*
X75973972Y-88899890D01*
X75997515Y-88864656D01*
X76005782Y-88823094D01*
X76022000Y-88783941D01*
X76022000Y-88741561D01*
X76030267Y-88700000D01*
X76022000Y-88658439D01*
X76022000Y-88616059D01*
X76005782Y-88576906D01*
X75997515Y-88535344D01*
X75973972Y-88500110D01*
X75957754Y-88460956D01*
X75927785Y-88430987D01*
X75904244Y-88395756D01*
X75869013Y-88372215D01*
X75839044Y-88342246D01*
X75799890Y-88326028D01*
X75764656Y-88302485D01*
X75723094Y-88294218D01*
X75683941Y-88278000D01*
X75641561Y-88278000D01*
X75600000Y-88269733D01*
X75558439Y-88278000D01*
X75516059Y-88278000D01*
X75476906Y-88294218D01*
X75435344Y-88302485D01*
X75400110Y-88326028D01*
X75360956Y-88342246D01*
X75242246Y-88460956D01*
X75242245Y-88460958D01*
X75100993Y-88602210D01*
X75100990Y-88602212D01*
X74838195Y-88865008D01*
X74331650Y-88865008D01*
X74234992Y-88768351D01*
X74234992Y-88631649D01*
X74456010Y-88410632D01*
X74491246Y-88387088D01*
X74514791Y-88351850D01*
X74918653Y-87947989D01*
X75950110Y-87947989D01*
X76141130Y-88139010D01*
X76164674Y-88174246D01*
X76304263Y-88267516D01*
X76427358Y-88292001D01*
X76468918Y-88300268D01*
X76510479Y-88292001D01*
X79908201Y-88292001D01*
X79955242Y-88339042D01*
X79955243Y-88339044D01*
X80073953Y-88457754D01*
X80113107Y-88473972D01*
X80148341Y-88497515D01*
X80189903Y-88505782D01*
X80229056Y-88522000D01*
X80271436Y-88522000D01*
X80312997Y-88530267D01*
X80354558Y-88522000D01*
X80396938Y-88522000D01*
X80436091Y-88505782D01*
X80477653Y-88497515D01*
X80512887Y-88473972D01*
X80552041Y-88457754D01*
X80582010Y-88427785D01*
X80611369Y-88408167D01*
X80660956Y-88457754D01*
X80816059Y-88522000D01*
X80983941Y-88522000D01*
X81139044Y-88457754D01*
X81257754Y-88339044D01*
X81322000Y-88183941D01*
X81322000Y-88016059D01*
X81257754Y-87860956D01*
X81139044Y-87742246D01*
X80983941Y-87678000D01*
X80816059Y-87678000D01*
X80660956Y-87742246D01*
X80606499Y-87796704D01*
X80552041Y-87742246D01*
X80552039Y-87742245D01*
X80410789Y-87600995D01*
X80387243Y-87565756D01*
X80247654Y-87472486D01*
X80124559Y-87448001D01*
X80124558Y-87448001D01*
X80082998Y-87439734D01*
X80041438Y-87448001D01*
X76643717Y-87448001D01*
X76578534Y-87382818D01*
X76639044Y-87357754D01*
X76757754Y-87239044D01*
X76822000Y-87083941D01*
X76822000Y-86916059D01*
X76757754Y-86760956D01*
X76639044Y-86642246D01*
X76483941Y-86578000D01*
X76316059Y-86578000D01*
X76160956Y-86642246D01*
X76042246Y-86760956D01*
X75978000Y-86916059D01*
X75978000Y-87083941D01*
X75986304Y-87103989D01*
X74785414Y-87103989D01*
X74743854Y-87095722D01*
X74702294Y-87103989D01*
X74609001Y-87122546D01*
X74609001Y-85116059D01*
X75978000Y-85116059D01*
X75978000Y-85283941D01*
X76042246Y-85439044D01*
X76160956Y-85557754D01*
X76316059Y-85622000D01*
X76483941Y-85622000D01*
X76639044Y-85557754D01*
X76757754Y-85439044D01*
X76822000Y-85283941D01*
X76822000Y-85116059D01*
X76757754Y-84960956D01*
X76639044Y-84842246D01*
X76483941Y-84778000D01*
X76316059Y-84778000D01*
X76160956Y-84842246D01*
X76042246Y-84960956D01*
X75978000Y-85116059D01*
X74609001Y-85116059D01*
X74609001Y-84587796D01*
X74980738Y-84216059D01*
X75915000Y-84216059D01*
X75915000Y-84383941D01*
X75979246Y-84539044D01*
X76097956Y-84657754D01*
X76253059Y-84722000D01*
X76420941Y-84722000D01*
X76576044Y-84657754D01*
X76694754Y-84539044D01*
X76759000Y-84383941D01*
X76759000Y-84216059D01*
X76694754Y-84060956D01*
X76576044Y-83942246D01*
X76420941Y-83878000D01*
X76253059Y-83878000D01*
X76097956Y-83942246D01*
X75979246Y-84060956D01*
X75915000Y-84216059D01*
X74980738Y-84216059D01*
X76027787Y-83169011D01*
X76057754Y-83139044D01*
X76073972Y-83099891D01*
X76097515Y-83064656D01*
X76105782Y-83023094D01*
X76122000Y-82983941D01*
X76122000Y-82941561D01*
X76130267Y-82900000D01*
X76122000Y-82858439D01*
X76122000Y-82816059D01*
X76105782Y-82776906D01*
X76097515Y-82735344D01*
X76073972Y-82700110D01*
X76057754Y-82660956D01*
X76027785Y-82630987D01*
X76004244Y-82595756D01*
X75969013Y-82572215D01*
X75939044Y-82542246D01*
X75899890Y-82526028D01*
X75864656Y-82502485D01*
X75823094Y-82494218D01*
X75783941Y-82478000D01*
X75741561Y-82478000D01*
X75700000Y-82469733D01*
X75658439Y-82478000D01*
X75616059Y-82478000D01*
X75576906Y-82494218D01*
X75535344Y-82502485D01*
X75500109Y-82526028D01*
X75460956Y-82542246D01*
X75430989Y-82572213D01*
X73917994Y-84085209D01*
X73882756Y-84108754D01*
X73789486Y-84248344D01*
X73767072Y-84361026D01*
X73756734Y-84412999D01*
X73765001Y-84454559D01*
X73765001Y-84811576D01*
X73683941Y-84778000D01*
X73516059Y-84778000D01*
X73360956Y-84842246D01*
X73242246Y-84960956D01*
X73178000Y-85116059D01*
X73178000Y-85283941D01*
X73242246Y-85439044D01*
X73360956Y-85557754D01*
X73516059Y-85622000D01*
X73683941Y-85622000D01*
X73765001Y-85588424D01*
X73765002Y-87908044D01*
X73638195Y-88034852D01*
X72134708Y-88034852D01*
X72093148Y-88026585D01*
X72051588Y-88034852D01*
X72051587Y-88034852D01*
X71928492Y-88059337D01*
X71788903Y-88152607D01*
X71765360Y-88187842D01*
X71464000Y-88489203D01*
X71464000Y-82464000D01*
X87089200Y-82464000D01*
X87086000Y-82480000D01*
G36*
X116269202Y-99536000D02*
X90564000Y-99536000D01*
X90564000Y-98382000D01*
X115115203Y-98382000D01*
X116269202Y-99536000D01*
X116269202Y-99536000D01*
G37*
X116269202Y-99536000D02*
X90564000Y-99536000D01*
X90564000Y-98382000D01*
X115115203Y-98382000D01*
X116269202Y-99536000D01*
G36*
X105210669Y-87178000D02*
X105066059Y-87178000D01*
X104910956Y-87242246D01*
X104792246Y-87360956D01*
X104728000Y-87516059D01*
X104728000Y-87683941D01*
X104792246Y-87839044D01*
X104910956Y-87957754D01*
X105066059Y-88022000D01*
X105233941Y-88022000D01*
X105389044Y-87957754D01*
X105507754Y-87839044D01*
X105572000Y-87683941D01*
X105572000Y-87539331D01*
X106142323Y-86969009D01*
X110757678Y-86969009D01*
X111253999Y-87465331D01*
X111254000Y-95477235D01*
X111248994Y-95502401D01*
X111268824Y-95602091D01*
X111311041Y-95665274D01*
X111311043Y-95665276D01*
X111325295Y-95686606D01*
X111346625Y-95700858D01*
X111708640Y-96062874D01*
X111722893Y-96084205D01*
X111744223Y-96098457D01*
X111744224Y-96098458D01*
X111797329Y-96133941D01*
X111807407Y-96140675D01*
X111880725Y-96155259D01*
X111907098Y-96160505D01*
X111932259Y-96155500D01*
X112724839Y-96155500D01*
X112750000Y-96160505D01*
X112775161Y-96155500D01*
X112775162Y-96155500D01*
X112849691Y-96140675D01*
X112934205Y-96084205D01*
X112948459Y-96062872D01*
X113419874Y-95591457D01*
X113441207Y-95577203D01*
X113497677Y-95492689D01*
X113512502Y-95418160D01*
X113512502Y-95418159D01*
X113517507Y-95392999D01*
X113512502Y-95367837D01*
X113512502Y-95091298D01*
X113614756Y-94989044D01*
X113679002Y-94833941D01*
X113679002Y-94666059D01*
X113614756Y-94510956D01*
X113496046Y-94392246D01*
X113340943Y-94328000D01*
X113173061Y-94328000D01*
X113114000Y-94352464D01*
X113114000Y-93592000D01*
X113166321Y-93592000D01*
X113200000Y-93598699D01*
X113233679Y-93592000D01*
X113233684Y-93592000D01*
X113333442Y-93572157D01*
X113446568Y-93496568D01*
X113465650Y-93468010D01*
X115278000Y-91655661D01*
X115278000Y-91683941D01*
X115342246Y-91839044D01*
X115414724Y-91911522D01*
X115366988Y-91959258D01*
X115302742Y-92114361D01*
X115302742Y-92282243D01*
X115333349Y-92356136D01*
X115261052Y-92370517D01*
X115156698Y-92440244D01*
X115059582Y-92537360D01*
X115021237Y-92529733D01*
X114979677Y-92538000D01*
X114856582Y-92562485D01*
X114716993Y-92655755D01*
X114693450Y-92690990D01*
X114243990Y-93140451D01*
X114208755Y-93163994D01*
X114115485Y-93303583D01*
X114093112Y-93416059D01*
X114082732Y-93468239D01*
X114090999Y-93509799D01*
X114090999Y-93712819D01*
X114059733Y-93870000D01*
X114068001Y-93911565D01*
X114068000Y-95805202D01*
X113395203Y-96478000D01*
X109724798Y-96478000D01*
X109077790Y-95830993D01*
X109054245Y-95795755D01*
X108914656Y-95702485D01*
X108791561Y-95678000D01*
X108791560Y-95678000D01*
X108750000Y-95669733D01*
X108708440Y-95678000D01*
X100064798Y-95678000D01*
X99038291Y-94651494D01*
X99014746Y-94616256D01*
X98875157Y-94522986D01*
X98752062Y-94498501D01*
X98752061Y-94498501D01*
X98710501Y-94490234D01*
X98668941Y-94498501D01*
X97489822Y-94498501D01*
X97448261Y-94490234D01*
X97422000Y-94495458D01*
X97422000Y-94439331D01*
X105146333Y-86714999D01*
X105673669Y-86714999D01*
X105210669Y-87178000D01*
X105210669Y-87178000D01*
G37*
X105210669Y-87178000D02*
X105066059Y-87178000D01*
X104910956Y-87242246D01*
X104792246Y-87360956D01*
X104728000Y-87516059D01*
X104728000Y-87683941D01*
X104792246Y-87839044D01*
X104910956Y-87957754D01*
X105066059Y-88022000D01*
X105233941Y-88022000D01*
X105389044Y-87957754D01*
X105507754Y-87839044D01*
X105572000Y-87683941D01*
X105572000Y-87539331D01*
X106142323Y-86969009D01*
X110757678Y-86969009D01*
X111253999Y-87465331D01*
X111254000Y-95477235D01*
X111248994Y-95502401D01*
X111268824Y-95602091D01*
X111311041Y-95665274D01*
X111311043Y-95665276D01*
X111325295Y-95686606D01*
X111346625Y-95700858D01*
X111708640Y-96062874D01*
X111722893Y-96084205D01*
X111744223Y-96098457D01*
X111744224Y-96098458D01*
X111797329Y-96133941D01*
X111807407Y-96140675D01*
X111880725Y-96155259D01*
X111907098Y-96160505D01*
X111932259Y-96155500D01*
X112724839Y-96155500D01*
X112750000Y-96160505D01*
X112775161Y-96155500D01*
X112775162Y-96155500D01*
X112849691Y-96140675D01*
X112934205Y-96084205D01*
X112948459Y-96062872D01*
X113419874Y-95591457D01*
X113441207Y-95577203D01*
X113497677Y-95492689D01*
X113512502Y-95418160D01*
X113512502Y-95418159D01*
X113517507Y-95392999D01*
X113512502Y-95367837D01*
X113512502Y-95091298D01*
X113614756Y-94989044D01*
X113679002Y-94833941D01*
X113679002Y-94666059D01*
X113614756Y-94510956D01*
X113496046Y-94392246D01*
X113340943Y-94328000D01*
X113173061Y-94328000D01*
X113114000Y-94352464D01*
X113114000Y-93592000D01*
X113166321Y-93592000D01*
X113200000Y-93598699D01*
X113233679Y-93592000D01*
X113233684Y-93592000D01*
X113333442Y-93572157D01*
X113446568Y-93496568D01*
X113465650Y-93468010D01*
X115278000Y-91655661D01*
X115278000Y-91683941D01*
X115342246Y-91839044D01*
X115414724Y-91911522D01*
X115366988Y-91959258D01*
X115302742Y-92114361D01*
X115302742Y-92282243D01*
X115333349Y-92356136D01*
X115261052Y-92370517D01*
X115156698Y-92440244D01*
X115059582Y-92537360D01*
X115021237Y-92529733D01*
X114979677Y-92538000D01*
X114856582Y-92562485D01*
X114716993Y-92655755D01*
X114693450Y-92690990D01*
X114243990Y-93140451D01*
X114208755Y-93163994D01*
X114115485Y-93303583D01*
X114093112Y-93416059D01*
X114082732Y-93468239D01*
X114090999Y-93509799D01*
X114090999Y-93712819D01*
X114059733Y-93870000D01*
X114068001Y-93911565D01*
X114068000Y-95805202D01*
X113395203Y-96478000D01*
X109724798Y-96478000D01*
X109077790Y-95830993D01*
X109054245Y-95795755D01*
X108914656Y-95702485D01*
X108791561Y-95678000D01*
X108791560Y-95678000D01*
X108750000Y-95669733D01*
X108708440Y-95678000D01*
X100064798Y-95678000D01*
X99038291Y-94651494D01*
X99014746Y-94616256D01*
X98875157Y-94522986D01*
X98752062Y-94498501D01*
X98752061Y-94498501D01*
X98710501Y-94490234D01*
X98668941Y-94498501D01*
X97489822Y-94498501D01*
X97448261Y-94490234D01*
X97422000Y-94495458D01*
X97422000Y-94439331D01*
X105146333Y-86714999D01*
X105673669Y-86714999D01*
X105210669Y-87178000D01*
G36*
X118852264Y-82812869D02*
X118866520Y-82834205D01*
X118938114Y-82882042D01*
X118951034Y-82890675D01*
X119036964Y-82907768D01*
X119136950Y-83007754D01*
X119237572Y-83049433D01*
X116813006Y-85473999D01*
X116095663Y-85473999D01*
X116070501Y-85468994D01*
X116045339Y-85473999D01*
X115970810Y-85488824D01*
X115886296Y-85545294D01*
X115872043Y-85566625D01*
X115488680Y-85949989D01*
X104960448Y-85949989D01*
X104935287Y-85944984D01*
X104910125Y-85949989D01*
X104838276Y-85964281D01*
X104835596Y-85964814D01*
X104776290Y-86004441D01*
X104751082Y-86021284D01*
X104736830Y-86042614D01*
X97614944Y-93164501D01*
X97255160Y-93164501D01*
X97229999Y-93159496D01*
X97204837Y-93164501D01*
X97130308Y-93179326D01*
X97061487Y-93225310D01*
X98119009Y-92167789D01*
X98154245Y-92144245D01*
X98247515Y-92004656D01*
X98272000Y-91881561D01*
X98280267Y-91840001D01*
X98272000Y-91798441D01*
X98272000Y-91041560D01*
X98280267Y-91000000D01*
X98272000Y-90958439D01*
X98247515Y-90835344D01*
X98154245Y-90695755D01*
X98119010Y-90672212D01*
X97698500Y-90251703D01*
X97594146Y-90181976D01*
X97429490Y-90149223D01*
X97359939Y-90163058D01*
X97372000Y-90133941D01*
X97372000Y-89966059D01*
X97307754Y-89810956D01*
X97265236Y-89768438D01*
X97428762Y-89604911D01*
X97480174Y-89594684D01*
X97480177Y-89594682D01*
X97480178Y-89594682D01*
X97514884Y-89571492D01*
X97543357Y-89552467D01*
X97543359Y-89552465D01*
X97564691Y-89538211D01*
X97578942Y-89516882D01*
X102656815Y-84439009D01*
X114750550Y-84439007D01*
X114775716Y-84444013D01*
X114875406Y-84424183D01*
X114938589Y-84381966D01*
X114938591Y-84381964D01*
X114959921Y-84367712D01*
X114974173Y-84346382D01*
X115415055Y-83905500D01*
X115908825Y-83905500D01*
X115955244Y-84017564D01*
X116073954Y-84136274D01*
X116229057Y-84200520D01*
X116396939Y-84200520D01*
X116552042Y-84136274D01*
X116670752Y-84017564D01*
X116734998Y-83862461D01*
X116734998Y-83694579D01*
X116670752Y-83539476D01*
X116552042Y-83420766D01*
X116396939Y-83356520D01*
X116229057Y-83356520D01*
X116137366Y-83394500D01*
X115566832Y-83394500D01*
X115774773Y-83186559D01*
X117078000Y-83186559D01*
X117078000Y-83354441D01*
X117142246Y-83509544D01*
X117260956Y-83628254D01*
X117416059Y-83692500D01*
X117583941Y-83692500D01*
X117739044Y-83628254D01*
X117857754Y-83509544D01*
X117922000Y-83354441D01*
X117922000Y-83186559D01*
X117857754Y-83031456D01*
X117739044Y-82912746D01*
X117583941Y-82848500D01*
X117416059Y-82848500D01*
X117260956Y-82912746D01*
X117142246Y-83031456D01*
X117078000Y-83186559D01*
X115774773Y-83186559D01*
X116205832Y-82755500D01*
X118794894Y-82755500D01*
X118852264Y-82812869D01*
X118852264Y-82812869D01*
G37*
X118852264Y-82812869D02*
X118866520Y-82834205D01*
X118938114Y-82882042D01*
X118951034Y-82890675D01*
X119036964Y-82907768D01*
X119136950Y-83007754D01*
X119237572Y-83049433D01*
X116813006Y-85473999D01*
X116095663Y-85473999D01*
X116070501Y-85468994D01*
X116045339Y-85473999D01*
X115970810Y-85488824D01*
X115886296Y-85545294D01*
X115872043Y-85566625D01*
X115488680Y-85949989D01*
X104960448Y-85949989D01*
X104935287Y-85944984D01*
X104910125Y-85949989D01*
X104838276Y-85964281D01*
X104835596Y-85964814D01*
X104776290Y-86004441D01*
X104751082Y-86021284D01*
X104736830Y-86042614D01*
X97614944Y-93164501D01*
X97255160Y-93164501D01*
X97229999Y-93159496D01*
X97204837Y-93164501D01*
X97130308Y-93179326D01*
X97061487Y-93225310D01*
X98119009Y-92167789D01*
X98154245Y-92144245D01*
X98247515Y-92004656D01*
X98272000Y-91881561D01*
X98280267Y-91840001D01*
X98272000Y-91798441D01*
X98272000Y-91041560D01*
X98280267Y-91000000D01*
X98272000Y-90958439D01*
X98247515Y-90835344D01*
X98154245Y-90695755D01*
X98119010Y-90672212D01*
X97698500Y-90251703D01*
X97594146Y-90181976D01*
X97429490Y-90149223D01*
X97359939Y-90163058D01*
X97372000Y-90133941D01*
X97372000Y-89966059D01*
X97307754Y-89810956D01*
X97265236Y-89768438D01*
X97428762Y-89604911D01*
X97480174Y-89594684D01*
X97480177Y-89594682D01*
X97480178Y-89594682D01*
X97514884Y-89571492D01*
X97543357Y-89552467D01*
X97543359Y-89552465D01*
X97564691Y-89538211D01*
X97578942Y-89516882D01*
X102656815Y-84439009D01*
X114750550Y-84439007D01*
X114775716Y-84444013D01*
X114875406Y-84424183D01*
X114938589Y-84381966D01*
X114938591Y-84381964D01*
X114959921Y-84367712D01*
X114974173Y-84346382D01*
X115415055Y-83905500D01*
X115908825Y-83905500D01*
X115955244Y-84017564D01*
X116073954Y-84136274D01*
X116229057Y-84200520D01*
X116396939Y-84200520D01*
X116552042Y-84136274D01*
X116670752Y-84017564D01*
X116734998Y-83862461D01*
X116734998Y-83694579D01*
X116670752Y-83539476D01*
X116552042Y-83420766D01*
X116396939Y-83356520D01*
X116229057Y-83356520D01*
X116137366Y-83394500D01*
X115566832Y-83394500D01*
X115774773Y-83186559D01*
X117078000Y-83186559D01*
X117078000Y-83354441D01*
X117142246Y-83509544D01*
X117260956Y-83628254D01*
X117416059Y-83692500D01*
X117583941Y-83692500D01*
X117739044Y-83628254D01*
X117857754Y-83509544D01*
X117922000Y-83354441D01*
X117922000Y-83186559D01*
X117857754Y-83031456D01*
X117739044Y-82912746D01*
X117583941Y-82848500D01*
X117416059Y-82848500D01*
X117260956Y-82912746D01*
X117142246Y-83031456D01*
X117078000Y-83186559D01*
X115774773Y-83186559D01*
X116205832Y-82755500D01*
X118794894Y-82755500D01*
X118852264Y-82812869D01*
G36*
X121628000Y-82559057D02*
X121628000Y-82726939D01*
X121692246Y-82882042D01*
X121810956Y-83000752D01*
X121966059Y-83064998D01*
X122110669Y-83064998D01*
X122908545Y-83862874D01*
X122922797Y-83884205D01*
X122944127Y-83898457D01*
X122944128Y-83898458D01*
X123007311Y-83940675D01*
X123107002Y-83960505D01*
X123132164Y-83955500D01*
X125914721Y-83955500D01*
X125462905Y-84407316D01*
X125462902Y-84407318D01*
X124323023Y-85547198D01*
X124203117Y-85667104D01*
X124181786Y-85681357D01*
X124167534Y-85702687D01*
X124167532Y-85702689D01*
X124125315Y-85765872D01*
X124105485Y-85865562D01*
X124110491Y-85890728D01*
X124110490Y-86118954D01*
X123409456Y-86819989D01*
X118599670Y-86819989D01*
X118574510Y-86814984D01*
X118549350Y-86819989D01*
X118549349Y-86819989D01*
X118474820Y-86834814D01*
X118390306Y-86891284D01*
X118376053Y-86912616D01*
X118048179Y-87240490D01*
X117111046Y-87240490D01*
X116998212Y-87127656D01*
X117088472Y-87090269D01*
X117207182Y-86971559D01*
X117271428Y-86816456D01*
X117271428Y-86648574D01*
X117207182Y-86493471D01*
X117088472Y-86374761D01*
X116933369Y-86310515D01*
X116776311Y-86310515D01*
X116762424Y-86296628D01*
X116748169Y-86275294D01*
X116663655Y-86218824D01*
X116589126Y-86203999D01*
X116589125Y-86203999D01*
X116563964Y-86198994D01*
X116538803Y-86203999D01*
X115957332Y-86203999D01*
X116176333Y-85984999D01*
X116904409Y-85984999D01*
X116929571Y-85990004D01*
X116954732Y-85984999D01*
X116954733Y-85984999D01*
X117029262Y-85970174D01*
X117113776Y-85913704D01*
X117149645Y-85860022D01*
X119895870Y-83113797D01*
X119917203Y-83099543D01*
X119935606Y-83072000D01*
X120046938Y-83072000D01*
X120202041Y-83007754D01*
X120256499Y-82953297D01*
X120310956Y-83007754D01*
X120466059Y-83072000D01*
X120633941Y-83072000D01*
X120789044Y-83007754D01*
X120907754Y-82889044D01*
X120972000Y-82733941D01*
X120972000Y-82566059D01*
X120929726Y-82464000D01*
X121667374Y-82464000D01*
X121628000Y-82559057D01*
X121628000Y-82559057D01*
G37*
X121628000Y-82559057D02*
X121628000Y-82726939D01*
X121692246Y-82882042D01*
X121810956Y-83000752D01*
X121966059Y-83064998D01*
X122110669Y-83064998D01*
X122908545Y-83862874D01*
X122922797Y-83884205D01*
X122944127Y-83898457D01*
X122944128Y-83898458D01*
X123007311Y-83940675D01*
X123107002Y-83960505D01*
X123132164Y-83955500D01*
X125914721Y-83955500D01*
X125462905Y-84407316D01*
X125462902Y-84407318D01*
X124323023Y-85547198D01*
X124203117Y-85667104D01*
X124181786Y-85681357D01*
X124167534Y-85702687D01*
X124167532Y-85702689D01*
X124125315Y-85765872D01*
X124105485Y-85865562D01*
X124110491Y-85890728D01*
X124110490Y-86118954D01*
X123409456Y-86819989D01*
X118599670Y-86819989D01*
X118574510Y-86814984D01*
X118549350Y-86819989D01*
X118549349Y-86819989D01*
X118474820Y-86834814D01*
X118390306Y-86891284D01*
X118376053Y-86912616D01*
X118048179Y-87240490D01*
X117111046Y-87240490D01*
X116998212Y-87127656D01*
X117088472Y-87090269D01*
X117207182Y-86971559D01*
X117271428Y-86816456D01*
X117271428Y-86648574D01*
X117207182Y-86493471D01*
X117088472Y-86374761D01*
X116933369Y-86310515D01*
X116776311Y-86310515D01*
X116762424Y-86296628D01*
X116748169Y-86275294D01*
X116663655Y-86218824D01*
X116589126Y-86203999D01*
X116589125Y-86203999D01*
X116563964Y-86198994D01*
X116538803Y-86203999D01*
X115957332Y-86203999D01*
X116176333Y-85984999D01*
X116904409Y-85984999D01*
X116929571Y-85990004D01*
X116954732Y-85984999D01*
X116954733Y-85984999D01*
X117029262Y-85970174D01*
X117113776Y-85913704D01*
X117149645Y-85860022D01*
X119895870Y-83113797D01*
X119917203Y-83099543D01*
X119935606Y-83072000D01*
X120046938Y-83072000D01*
X120202041Y-83007754D01*
X120256499Y-82953297D01*
X120310956Y-83007754D01*
X120466059Y-83072000D01*
X120633941Y-83072000D01*
X120789044Y-83007754D01*
X120907754Y-82889044D01*
X120972000Y-82733941D01*
X120972000Y-82566059D01*
X120929726Y-82464000D01*
X121667374Y-82464000D01*
X121628000Y-82559057D01*
G36*
X114436000Y-83673999D02*
X102470931Y-83673999D01*
X102445770Y-83668994D01*
X102420608Y-83673999D01*
X102346079Y-83688824D01*
X102261565Y-83745294D01*
X102247313Y-83766624D01*
X102077937Y-83936000D01*
X92751559Y-83936000D01*
X92609551Y-83793992D01*
X92586006Y-83758754D01*
X92446417Y-83665484D01*
X92323322Y-83640999D01*
X92323321Y-83640999D01*
X92281761Y-83632732D01*
X92240201Y-83640999D01*
X88867797Y-83640999D01*
X88864000Y-83637202D01*
X88864000Y-82464000D01*
X114436000Y-82464000D01*
X114436000Y-83673999D01*
X114436000Y-83673999D01*
G37*
X114436000Y-83673999D02*
X102470931Y-83673999D01*
X102445770Y-83668994D01*
X102420608Y-83673999D01*
X102346079Y-83688824D01*
X102261565Y-83745294D01*
X102247313Y-83766624D01*
X102077937Y-83936000D01*
X92751559Y-83936000D01*
X92609551Y-83793992D01*
X92586006Y-83758754D01*
X92446417Y-83665484D01*
X92323322Y-83640999D01*
X92323321Y-83640999D01*
X92281761Y-83632732D01*
X92240201Y-83640999D01*
X88867797Y-83640999D01*
X88864000Y-83637202D01*
X88864000Y-82464000D01*
X114436000Y-82464000D01*
X114436000Y-83673999D01*
D21*
G36*
X70985000Y-87985000D02*
X68045500Y-87985000D01*
X68045500Y-84003238D01*
X68124505Y-83451570D01*
X68353819Y-82947221D01*
X68715464Y-82527511D01*
X68889048Y-82415000D01*
X70985000Y-82415000D01*
X70985000Y-87985000D01*
X70985000Y-87985000D01*
G37*
X70985000Y-87985000D02*
X68045500Y-87985000D01*
X68045500Y-84003238D01*
X68124505Y-83451570D01*
X68353819Y-82947221D01*
X68715464Y-82527511D01*
X68889048Y-82415000D01*
X70985000Y-82415000D01*
X70985000Y-87985000D01*
G36*
X70985000Y-93785000D02*
X68045500Y-93785000D01*
X68045500Y-88215000D01*
X70985000Y-88215000D01*
X70985000Y-93785000D01*
X70985000Y-93785000D01*
G37*
X70985000Y-93785000D02*
X68045500Y-93785000D01*
X68045500Y-88215000D01*
X70985000Y-88215000D01*
X70985000Y-93785000D01*
G36*
X70985000Y-99585000D02*
X68876217Y-99585000D01*
X68527510Y-99284534D01*
X68226170Y-98819623D01*
X68066977Y-98287320D01*
X68045500Y-97998310D01*
X68045500Y-94015000D01*
X70985000Y-94015000D01*
X70985000Y-99585000D01*
X70985000Y-99585000D01*
G37*
X70985000Y-99585000D02*
X68876217Y-99585000D01*
X68527510Y-99284534D01*
X68226170Y-98819623D01*
X68066977Y-98287320D01*
X68045500Y-97998310D01*
X68045500Y-94015000D01*
X70985000Y-94015000D01*
X70985000Y-99585000D01*
M02*
